%TF.GenerationSoftware,KiCad,Pcbnew,(5.1.10)-1*%
%TF.CreationDate,2022-03-06T21:17:49+00:00*%
%TF.ProjectId,main,6d61696e-2e6b-4696-9361-645f70636258,rev?*%
%TF.SameCoordinates,Original*%
%TF.FileFunction,Soldermask,Top*%
%TF.FilePolarity,Negative*%
%FSLAX46Y46*%
G04 Gerber Fmt 4.6, Leading zero omitted, Abs format (unit mm)*
G04 Created by KiCad (PCBNEW (5.1.10)-1) date 2022-03-06 21:17:49*
%MOMM*%
%LPD*%
G01*
G04 APERTURE LIST*
%ADD10R,1.430000X2.500000*%
%ADD11O,1.350000X1.700000*%
%ADD12O,1.100000X1.500000*%
%ADD13R,0.400000X1.650000*%
%ADD14R,2.000000X1.500000*%
%ADD15R,1.825000X0.700000*%
%ADD16R,1.350000X2.000000*%
%ADD17C,1.000000*%
%ADD18C,2.209800*%
%ADD19C,2.006600*%
%ADD20R,1.560000X0.650000*%
%ADD21R,1.000000X2.300000*%
%ADD22R,2.300000X1.000000*%
%ADD23O,1.700000X1.700000*%
%ADD24R,1.700000X1.700000*%
G04 APERTURE END LIST*
%TO.C,R2*%
G36*
G01*
X170237500Y-132087500D02*
X169762500Y-132087500D01*
G75*
G02*
X169525000Y-131850000I0J237500D01*
G01*
X169525000Y-131350000D01*
G75*
G02*
X169762500Y-131112500I237500J0D01*
G01*
X170237500Y-131112500D01*
G75*
G02*
X170475000Y-131350000I0J-237500D01*
G01*
X170475000Y-131850000D01*
G75*
G02*
X170237500Y-132087500I-237500J0D01*
G01*
G37*
G36*
G01*
X170237500Y-133912500D02*
X169762500Y-133912500D01*
G75*
G02*
X169525000Y-133675000I0J237500D01*
G01*
X169525000Y-133175000D01*
G75*
G02*
X169762500Y-132937500I237500J0D01*
G01*
X170237500Y-132937500D01*
G75*
G02*
X170475000Y-133175000I0J-237500D01*
G01*
X170475000Y-133675000D01*
G75*
G02*
X170237500Y-133912500I-237500J0D01*
G01*
G37*
%TD*%
D10*
%TO.C,USB_PWR1*%
X169965000Y-143545000D03*
X168045000Y-143545000D03*
D11*
X171735000Y-143275000D03*
X166275000Y-143275000D03*
D12*
X171425000Y-140275000D03*
X166585000Y-140275000D03*
D13*
X170305000Y-140395000D03*
X169655000Y-140395000D03*
X169005000Y-140395000D03*
X168355000Y-140395000D03*
X167705000Y-140395000D03*
D14*
X171905000Y-140275000D03*
X166155000Y-140295000D03*
D15*
X172005000Y-141595000D03*
X166055000Y-141595000D03*
D16*
X166275000Y-142345000D03*
X171755000Y-142345000D03*
%TD*%
%TO.C,U2*%
G36*
G01*
X192600000Y-122947500D02*
X192600000Y-124197500D01*
G75*
G02*
X192475000Y-124322500I-125000J0D01*
G01*
X192225000Y-124322500D01*
G75*
G02*
X192100000Y-124197500I0J125000D01*
G01*
X192100000Y-122947500D01*
G75*
G02*
X192225000Y-122822500I125000J0D01*
G01*
X192475000Y-122822500D01*
G75*
G02*
X192600000Y-122947500I0J-125000D01*
G01*
G37*
G36*
G01*
X191800000Y-122947500D02*
X191800000Y-124197500D01*
G75*
G02*
X191675000Y-124322500I-125000J0D01*
G01*
X191425000Y-124322500D01*
G75*
G02*
X191300000Y-124197500I0J125000D01*
G01*
X191300000Y-122947500D01*
G75*
G02*
X191425000Y-122822500I125000J0D01*
G01*
X191675000Y-122822500D01*
G75*
G02*
X191800000Y-122947500I0J-125000D01*
G01*
G37*
G36*
G01*
X191000000Y-122947500D02*
X191000000Y-124197500D01*
G75*
G02*
X190875000Y-124322500I-125000J0D01*
G01*
X190625000Y-124322500D01*
G75*
G02*
X190500000Y-124197500I0J125000D01*
G01*
X190500000Y-122947500D01*
G75*
G02*
X190625000Y-122822500I125000J0D01*
G01*
X190875000Y-122822500D01*
G75*
G02*
X191000000Y-122947500I0J-125000D01*
G01*
G37*
G36*
G01*
X190200000Y-122947500D02*
X190200000Y-124197500D01*
G75*
G02*
X190075000Y-124322500I-125000J0D01*
G01*
X189825000Y-124322500D01*
G75*
G02*
X189700000Y-124197500I0J125000D01*
G01*
X189700000Y-122947500D01*
G75*
G02*
X189825000Y-122822500I125000J0D01*
G01*
X190075000Y-122822500D01*
G75*
G02*
X190200000Y-122947500I0J-125000D01*
G01*
G37*
G36*
G01*
X190200000Y-125322500D02*
X190200000Y-126572500D01*
G75*
G02*
X190075000Y-126697500I-125000J0D01*
G01*
X189825000Y-126697500D01*
G75*
G02*
X189700000Y-126572500I0J125000D01*
G01*
X189700000Y-125322500D01*
G75*
G02*
X189825000Y-125197500I125000J0D01*
G01*
X190075000Y-125197500D01*
G75*
G02*
X190200000Y-125322500I0J-125000D01*
G01*
G37*
G36*
G01*
X191000000Y-125322500D02*
X191000000Y-126572500D01*
G75*
G02*
X190875000Y-126697500I-125000J0D01*
G01*
X190625000Y-126697500D01*
G75*
G02*
X190500000Y-126572500I0J125000D01*
G01*
X190500000Y-125322500D01*
G75*
G02*
X190625000Y-125197500I125000J0D01*
G01*
X190875000Y-125197500D01*
G75*
G02*
X191000000Y-125322500I0J-125000D01*
G01*
G37*
G36*
G01*
X191800000Y-125322500D02*
X191800000Y-126572500D01*
G75*
G02*
X191675000Y-126697500I-125000J0D01*
G01*
X191425000Y-126697500D01*
G75*
G02*
X191300000Y-126572500I0J125000D01*
G01*
X191300000Y-125322500D01*
G75*
G02*
X191425000Y-125197500I125000J0D01*
G01*
X191675000Y-125197500D01*
G75*
G02*
X191800000Y-125322500I0J-125000D01*
G01*
G37*
G36*
G01*
X192600000Y-125322500D02*
X192600000Y-126572500D01*
G75*
G02*
X192475000Y-126697500I-125000J0D01*
G01*
X192225000Y-126697500D01*
G75*
G02*
X192100000Y-126572500I0J125000D01*
G01*
X192100000Y-125322500D01*
G75*
G02*
X192225000Y-125197500I125000J0D01*
G01*
X192475000Y-125197500D01*
G75*
G02*
X192600000Y-125322500I0J-125000D01*
G01*
G37*
%TD*%
D17*
%TO.C,GND2*%
X161825000Y-143600000D03*
%TD*%
%TO.C,L1*%
G36*
G01*
X163337500Y-116172500D02*
X162862500Y-116172500D01*
G75*
G02*
X162625000Y-115935000I0J237500D01*
G01*
X162625000Y-115335000D01*
G75*
G02*
X162862500Y-115097500I237500J0D01*
G01*
X163337500Y-115097500D01*
G75*
G02*
X163575000Y-115335000I0J-237500D01*
G01*
X163575000Y-115935000D01*
G75*
G02*
X163337500Y-116172500I-237500J0D01*
G01*
G37*
G36*
G01*
X163337500Y-117897500D02*
X162862500Y-117897500D01*
G75*
G02*
X162625000Y-117660000I0J237500D01*
G01*
X162625000Y-117060000D01*
G75*
G02*
X162862500Y-116822500I237500J0D01*
G01*
X163337500Y-116822500D01*
G75*
G02*
X163575000Y-117060000I0J-237500D01*
G01*
X163575000Y-117660000D01*
G75*
G02*
X163337500Y-117897500I-237500J0D01*
G01*
G37*
%TD*%
%TO.C,C8*%
G36*
G01*
X164287500Y-114312500D02*
X164287500Y-113837500D01*
G75*
G02*
X164525000Y-113600000I237500J0D01*
G01*
X165125000Y-113600000D01*
G75*
G02*
X165362500Y-113837500I0J-237500D01*
G01*
X165362500Y-114312500D01*
G75*
G02*
X165125000Y-114550000I-237500J0D01*
G01*
X164525000Y-114550000D01*
G75*
G02*
X164287500Y-114312500I0J237500D01*
G01*
G37*
G36*
G01*
X162562500Y-114312500D02*
X162562500Y-113837500D01*
G75*
G02*
X162800000Y-113600000I237500J0D01*
G01*
X163400000Y-113600000D01*
G75*
G02*
X163637500Y-113837500I0J-237500D01*
G01*
X163637500Y-114312500D01*
G75*
G02*
X163400000Y-114550000I-237500J0D01*
G01*
X162800000Y-114550000D01*
G75*
G02*
X162562500Y-114312500I0J237500D01*
G01*
G37*
%TD*%
%TO.C,C7*%
G36*
G01*
X164287500Y-119187500D02*
X164287500Y-118712500D01*
G75*
G02*
X164525000Y-118475000I237500J0D01*
G01*
X165125000Y-118475000D01*
G75*
G02*
X165362500Y-118712500I0J-237500D01*
G01*
X165362500Y-119187500D01*
G75*
G02*
X165125000Y-119425000I-237500J0D01*
G01*
X164525000Y-119425000D01*
G75*
G02*
X164287500Y-119187500I0J237500D01*
G01*
G37*
G36*
G01*
X162562500Y-119187500D02*
X162562500Y-118712500D01*
G75*
G02*
X162800000Y-118475000I237500J0D01*
G01*
X163400000Y-118475000D01*
G75*
G02*
X163637500Y-118712500I0J-237500D01*
G01*
X163637500Y-119187500D01*
G75*
G02*
X163400000Y-119425000I-237500J0D01*
G01*
X162800000Y-119425000D01*
G75*
G02*
X162562500Y-119187500I0J237500D01*
G01*
G37*
%TD*%
D18*
%TO.C,J2*%
X165610000Y-106690000D03*
X165610000Y-111770000D03*
X160530000Y-111770000D03*
X160530000Y-106690000D03*
D19*
X163070000Y-109230000D03*
%TD*%
D20*
%TO.C,U3*%
X184830000Y-136110000D03*
X184830000Y-138010000D03*
X182130000Y-138010000D03*
X182130000Y-137060000D03*
X182130000Y-136110000D03*
%TD*%
D21*
%TO.C,U1*%
X159350000Y-133425000D03*
X158100000Y-133425000D03*
X156850000Y-133425000D03*
X155600000Y-133425000D03*
X160600000Y-133425000D03*
X161850000Y-133425000D03*
X163100000Y-133425000D03*
D22*
X165350000Y-127425000D03*
X165350000Y-128675000D03*
X165350000Y-129925000D03*
X165350000Y-131175000D03*
X165350000Y-126175000D03*
X165350000Y-124925000D03*
X165350000Y-123675000D03*
D21*
X159350000Y-121425000D03*
X160600000Y-121425000D03*
X161850000Y-121425000D03*
X163100000Y-121425000D03*
X158100000Y-121425000D03*
X156850000Y-121425000D03*
X155600000Y-121425000D03*
D22*
X153350000Y-127425000D03*
X153350000Y-126175000D03*
X153350000Y-124925000D03*
X153350000Y-123675000D03*
X153350000Y-128675000D03*
X153350000Y-129925000D03*
X153350000Y-131175000D03*
%TD*%
D17*
%TO.C,SDA1*%
X162200000Y-136600000D03*
%TD*%
%TO.C,SCL1*%
X160000000Y-137200000D03*
%TD*%
%TO.C,R5*%
G36*
G01*
X185455000Y-141622500D02*
X185455000Y-142097500D01*
G75*
G02*
X185217500Y-142335000I-237500J0D01*
G01*
X184717500Y-142335000D01*
G75*
G02*
X184480000Y-142097500I0J237500D01*
G01*
X184480000Y-141622500D01*
G75*
G02*
X184717500Y-141385000I237500J0D01*
G01*
X185217500Y-141385000D01*
G75*
G02*
X185455000Y-141622500I0J-237500D01*
G01*
G37*
G36*
G01*
X187280000Y-141622500D02*
X187280000Y-142097500D01*
G75*
G02*
X187042500Y-142335000I-237500J0D01*
G01*
X186542500Y-142335000D01*
G75*
G02*
X186305000Y-142097500I0J237500D01*
G01*
X186305000Y-141622500D01*
G75*
G02*
X186542500Y-141385000I237500J0D01*
G01*
X187042500Y-141385000D01*
G75*
G02*
X187280000Y-141622500I0J-237500D01*
G01*
G37*
%TD*%
%TO.C,R4*%
G36*
G01*
X146975000Y-132362500D02*
X146975000Y-132837500D01*
G75*
G02*
X146737500Y-133075000I-237500J0D01*
G01*
X146237500Y-133075000D01*
G75*
G02*
X146000000Y-132837500I0J237500D01*
G01*
X146000000Y-132362500D01*
G75*
G02*
X146237500Y-132125000I237500J0D01*
G01*
X146737500Y-132125000D01*
G75*
G02*
X146975000Y-132362500I0J-237500D01*
G01*
G37*
G36*
G01*
X148800000Y-132362500D02*
X148800000Y-132837500D01*
G75*
G02*
X148562500Y-133075000I-237500J0D01*
G01*
X148062500Y-133075000D01*
G75*
G02*
X147825000Y-132837500I0J237500D01*
G01*
X147825000Y-132362500D01*
G75*
G02*
X148062500Y-132125000I237500J0D01*
G01*
X148562500Y-132125000D01*
G75*
G02*
X148800000Y-132362500I0J-237500D01*
G01*
G37*
%TD*%
%TO.C,R3*%
G36*
G01*
X146775000Y-124962500D02*
X146775000Y-125437500D01*
G75*
G02*
X146537500Y-125675000I-237500J0D01*
G01*
X146037500Y-125675000D01*
G75*
G02*
X145800000Y-125437500I0J237500D01*
G01*
X145800000Y-124962500D01*
G75*
G02*
X146037500Y-124725000I237500J0D01*
G01*
X146537500Y-124725000D01*
G75*
G02*
X146775000Y-124962500I0J-237500D01*
G01*
G37*
G36*
G01*
X148600000Y-124962500D02*
X148600000Y-125437500D01*
G75*
G02*
X148362500Y-125675000I-237500J0D01*
G01*
X147862500Y-125675000D01*
G75*
G02*
X147625000Y-125437500I0J237500D01*
G01*
X147625000Y-124962500D01*
G75*
G02*
X147862500Y-124725000I237500J0D01*
G01*
X148362500Y-124725000D01*
G75*
G02*
X148600000Y-124962500I0J-237500D01*
G01*
G37*
%TD*%
%TO.C,R1*%
G36*
G01*
X169762500Y-129225000D02*
X170237500Y-129225000D01*
G75*
G02*
X170475000Y-129462500I0J-237500D01*
G01*
X170475000Y-129962500D01*
G75*
G02*
X170237500Y-130200000I-237500J0D01*
G01*
X169762500Y-130200000D01*
G75*
G02*
X169525000Y-129962500I0J237500D01*
G01*
X169525000Y-129462500D01*
G75*
G02*
X169762500Y-129225000I237500J0D01*
G01*
G37*
G36*
G01*
X169762500Y-127400000D02*
X170237500Y-127400000D01*
G75*
G02*
X170475000Y-127637500I0J-237500D01*
G01*
X170475000Y-128137500D01*
G75*
G02*
X170237500Y-128375000I-237500J0D01*
G01*
X169762500Y-128375000D01*
G75*
G02*
X169525000Y-128137500I0J237500D01*
G01*
X169525000Y-127637500D01*
G75*
G02*
X169762500Y-127400000I237500J0D01*
G01*
G37*
%TD*%
D23*
%TO.C,J6*%
X177380000Y-108300000D03*
X179920000Y-108300000D03*
X182460000Y-108300000D03*
D24*
X185000000Y-108300000D03*
%TD*%
D23*
%TO.C,J4*%
X172466000Y-119634000D03*
X172466000Y-122174000D03*
D24*
X172466000Y-124714000D03*
%TD*%
D23*
%TO.C,J1*%
X146655000Y-140725000D03*
X149195000Y-140725000D03*
X151735000Y-140725000D03*
X154275000Y-140725000D03*
X156815000Y-140725000D03*
D24*
X159355000Y-140725000D03*
%TD*%
%TO.C,HB1*%
G36*
G01*
X147550000Y-123137500D02*
X147550000Y-122662500D01*
G75*
G02*
X147787500Y-122425000I237500J0D01*
G01*
X148362500Y-122425000D01*
G75*
G02*
X148600000Y-122662500I0J-237500D01*
G01*
X148600000Y-123137500D01*
G75*
G02*
X148362500Y-123375000I-237500J0D01*
G01*
X147787500Y-123375000D01*
G75*
G02*
X147550000Y-123137500I0J237500D01*
G01*
G37*
G36*
G01*
X145800000Y-123137500D02*
X145800000Y-122662500D01*
G75*
G02*
X146037500Y-122425000I237500J0D01*
G01*
X146612500Y-122425000D01*
G75*
G02*
X146850000Y-122662500I0J-237500D01*
G01*
X146850000Y-123137500D01*
G75*
G02*
X146612500Y-123375000I-237500J0D01*
G01*
X146037500Y-123375000D01*
G75*
G02*
X145800000Y-123137500I0J237500D01*
G01*
G37*
%TD*%
D17*
%TO.C,GND1*%
X150406000Y-118110000D03*
%TD*%
%TO.C,FT1*%
X147066000Y-118100000D03*
%TD*%
%TO.C,FB1*%
G36*
G01*
X173565000Y-137122500D02*
X173565000Y-137597500D01*
G75*
G02*
X173327500Y-137835000I-237500J0D01*
G01*
X172827500Y-137835000D01*
G75*
G02*
X172590000Y-137597500I0J237500D01*
G01*
X172590000Y-137122500D01*
G75*
G02*
X172827500Y-136885000I237500J0D01*
G01*
X173327500Y-136885000D01*
G75*
G02*
X173565000Y-137122500I0J-237500D01*
G01*
G37*
G36*
G01*
X175390000Y-137122500D02*
X175390000Y-137597500D01*
G75*
G02*
X175152500Y-137835000I-237500J0D01*
G01*
X174652500Y-137835000D01*
G75*
G02*
X174415000Y-137597500I0J237500D01*
G01*
X174415000Y-137122500D01*
G75*
G02*
X174652500Y-136885000I237500J0D01*
G01*
X175152500Y-136885000D01*
G75*
G02*
X175390000Y-137122500I0J-237500D01*
G01*
G37*
%TD*%
%TO.C,F1*%
G36*
G01*
X168855000Y-137162500D02*
X168855000Y-137637500D01*
G75*
G02*
X168617500Y-137875000I-237500J0D01*
G01*
X168117500Y-137875000D01*
G75*
G02*
X167880000Y-137637500I0J237500D01*
G01*
X167880000Y-137162500D01*
G75*
G02*
X168117500Y-136925000I237500J0D01*
G01*
X168617500Y-136925000D01*
G75*
G02*
X168855000Y-137162500I0J-237500D01*
G01*
G37*
G36*
G01*
X170680000Y-137162500D02*
X170680000Y-137637500D01*
G75*
G02*
X170442500Y-137875000I-237500J0D01*
G01*
X169942500Y-137875000D01*
G75*
G02*
X169705000Y-137637500I0J237500D01*
G01*
X169705000Y-137162500D01*
G75*
G02*
X169942500Y-136925000I237500J0D01*
G01*
X170442500Y-136925000D01*
G75*
G02*
X170680000Y-137162500I0J-237500D01*
G01*
G37*
%TD*%
%TO.C,C6*%
G36*
G01*
X184322500Y-134697500D02*
X184322500Y-134222500D01*
G75*
G02*
X184560000Y-133985000I237500J0D01*
G01*
X185160000Y-133985000D01*
G75*
G02*
X185397500Y-134222500I0J-237500D01*
G01*
X185397500Y-134697500D01*
G75*
G02*
X185160000Y-134935000I-237500J0D01*
G01*
X184560000Y-134935000D01*
G75*
G02*
X184322500Y-134697500I0J237500D01*
G01*
G37*
G36*
G01*
X182597500Y-134697500D02*
X182597500Y-134222500D01*
G75*
G02*
X182835000Y-133985000I237500J0D01*
G01*
X183435000Y-133985000D01*
G75*
G02*
X183672500Y-134222500I0J-237500D01*
G01*
X183672500Y-134697500D01*
G75*
G02*
X183435000Y-134935000I-237500J0D01*
G01*
X182835000Y-134935000D01*
G75*
G02*
X182597500Y-134697500I0J237500D01*
G01*
G37*
%TD*%
%TO.C,C5*%
G36*
G01*
X183675000Y-139392500D02*
X183675000Y-139867500D01*
G75*
G02*
X183437500Y-140105000I-237500J0D01*
G01*
X182837500Y-140105000D01*
G75*
G02*
X182600000Y-139867500I0J237500D01*
G01*
X182600000Y-139392500D01*
G75*
G02*
X182837500Y-139155000I237500J0D01*
G01*
X183437500Y-139155000D01*
G75*
G02*
X183675000Y-139392500I0J-237500D01*
G01*
G37*
G36*
G01*
X185400000Y-139392500D02*
X185400000Y-139867500D01*
G75*
G02*
X185162500Y-140105000I-237500J0D01*
G01*
X184562500Y-140105000D01*
G75*
G02*
X184325000Y-139867500I0J237500D01*
G01*
X184325000Y-139392500D01*
G75*
G02*
X184562500Y-139155000I237500J0D01*
G01*
X185162500Y-139155000D01*
G75*
G02*
X185400000Y-139392500I0J-237500D01*
G01*
G37*
%TD*%
%TO.C,C4*%
G36*
G01*
X191075000Y-121362500D02*
X191075000Y-121837500D01*
G75*
G02*
X190837500Y-122075000I-237500J0D01*
G01*
X190237500Y-122075000D01*
G75*
G02*
X190000000Y-121837500I0J237500D01*
G01*
X190000000Y-121362500D01*
G75*
G02*
X190237500Y-121125000I237500J0D01*
G01*
X190837500Y-121125000D01*
G75*
G02*
X191075000Y-121362500I0J-237500D01*
G01*
G37*
G36*
G01*
X192800000Y-121362500D02*
X192800000Y-121837500D01*
G75*
G02*
X192562500Y-122075000I-237500J0D01*
G01*
X191962500Y-122075000D01*
G75*
G02*
X191725000Y-121837500I0J237500D01*
G01*
X191725000Y-121362500D01*
G75*
G02*
X191962500Y-121125000I237500J0D01*
G01*
X192562500Y-121125000D01*
G75*
G02*
X192800000Y-121362500I0J-237500D01*
G01*
G37*
%TD*%
%TO.C,C3*%
G36*
G01*
X152900000Y-135537500D02*
X152425000Y-135537500D01*
G75*
G02*
X152187500Y-135300000I0J237500D01*
G01*
X152187500Y-134700000D01*
G75*
G02*
X152425000Y-134462500I237500J0D01*
G01*
X152900000Y-134462500D01*
G75*
G02*
X153137500Y-134700000I0J-237500D01*
G01*
X153137500Y-135300000D01*
G75*
G02*
X152900000Y-135537500I-237500J0D01*
G01*
G37*
G36*
G01*
X152900000Y-137262500D02*
X152425000Y-137262500D01*
G75*
G02*
X152187500Y-137025000I0J237500D01*
G01*
X152187500Y-136425000D01*
G75*
G02*
X152425000Y-136187500I237500J0D01*
G01*
X152900000Y-136187500D01*
G75*
G02*
X153137500Y-136425000I0J-237500D01*
G01*
X153137500Y-137025000D01*
G75*
G02*
X152900000Y-137262500I-237500J0D01*
G01*
G37*
%TD*%
%TO.C,C2*%
G36*
G01*
X192125000Y-128237500D02*
X192125000Y-127762500D01*
G75*
G02*
X192362500Y-127525000I237500J0D01*
G01*
X192962500Y-127525000D01*
G75*
G02*
X193200000Y-127762500I0J-237500D01*
G01*
X193200000Y-128237500D01*
G75*
G02*
X192962500Y-128475000I-237500J0D01*
G01*
X192362500Y-128475000D01*
G75*
G02*
X192125000Y-128237500I0J237500D01*
G01*
G37*
G36*
G01*
X190400000Y-128237500D02*
X190400000Y-127762500D01*
G75*
G02*
X190637500Y-127525000I237500J0D01*
G01*
X191237500Y-127525000D01*
G75*
G02*
X191475000Y-127762500I0J-237500D01*
G01*
X191475000Y-128237500D01*
G75*
G02*
X191237500Y-128475000I-237500J0D01*
G01*
X190637500Y-128475000D01*
G75*
G02*
X190400000Y-128237500I0J237500D01*
G01*
G37*
%TD*%
%TO.C,C1*%
G36*
G01*
X155525000Y-135837500D02*
X155525000Y-135362500D01*
G75*
G02*
X155762500Y-135125000I237500J0D01*
G01*
X156362500Y-135125000D01*
G75*
G02*
X156600000Y-135362500I0J-237500D01*
G01*
X156600000Y-135837500D01*
G75*
G02*
X156362500Y-136075000I-237500J0D01*
G01*
X155762500Y-136075000D01*
G75*
G02*
X155525000Y-135837500I0J237500D01*
G01*
G37*
G36*
G01*
X153800000Y-135837500D02*
X153800000Y-135362500D01*
G75*
G02*
X154037500Y-135125000I237500J0D01*
G01*
X154637500Y-135125000D01*
G75*
G02*
X154875000Y-135362500I0J-237500D01*
G01*
X154875000Y-135837500D01*
G75*
G02*
X154637500Y-136075000I-237500J0D01*
G01*
X154037500Y-136075000D01*
G75*
G02*
X153800000Y-135837500I0J237500D01*
G01*
G37*
%TD*%
%TO.C,ALERT1*%
G36*
G01*
X147740000Y-130937500D02*
X147740000Y-130462500D01*
G75*
G02*
X147977500Y-130225000I237500J0D01*
G01*
X148552500Y-130225000D01*
G75*
G02*
X148790000Y-130462500I0J-237500D01*
G01*
X148790000Y-130937500D01*
G75*
G02*
X148552500Y-131175000I-237500J0D01*
G01*
X147977500Y-131175000D01*
G75*
G02*
X147740000Y-130937500I0J237500D01*
G01*
G37*
G36*
G01*
X145990000Y-130937500D02*
X145990000Y-130462500D01*
G75*
G02*
X146227500Y-130225000I237500J0D01*
G01*
X146802500Y-130225000D01*
G75*
G02*
X147040000Y-130462500I0J-237500D01*
G01*
X147040000Y-130937500D01*
G75*
G02*
X146802500Y-131175000I-237500J0D01*
G01*
X146227500Y-131175000D01*
G75*
G02*
X145990000Y-130937500I0J237500D01*
G01*
G37*
%TD*%
%TO.C,3V3_OUT1*%
X159800000Y-143600000D03*
%TD*%
%TO.C,3V1*%
G36*
G01*
X181830000Y-141587500D02*
X181830000Y-142062500D01*
G75*
G02*
X181592500Y-142300000I-237500J0D01*
G01*
X181017500Y-142300000D01*
G75*
G02*
X180780000Y-142062500I0J237500D01*
G01*
X180780000Y-141587500D01*
G75*
G02*
X181017500Y-141350000I237500J0D01*
G01*
X181592500Y-141350000D01*
G75*
G02*
X181830000Y-141587500I0J-237500D01*
G01*
G37*
G36*
G01*
X183580000Y-141587500D02*
X183580000Y-142062500D01*
G75*
G02*
X183342500Y-142300000I-237500J0D01*
G01*
X182767500Y-142300000D01*
G75*
G02*
X182530000Y-142062500I0J237500D01*
G01*
X182530000Y-141587500D01*
G75*
G02*
X182767500Y-141350000I237500J0D01*
G01*
X183342500Y-141350000D01*
G75*
G02*
X183580000Y-141587500I0J-237500D01*
G01*
G37*
%TD*%
M02*
