%TF.GenerationSoftware,KiCad,Pcbnew,(5.1.10)-1*%
%TF.CreationDate,2022-03-06T21:17:49+00:00*%
%TF.ProjectId,main,6d61696e-2e6b-4696-9361-645f70636258,rev?*%
%TF.SameCoordinates,Original*%
%TF.FileFunction,Copper,L1,Top*%
%TF.FilePolarity,Positive*%
%FSLAX46Y46*%
G04 Gerber Fmt 4.6, Leading zero omitted, Abs format (unit mm)*
G04 Created by KiCad (PCBNEW (5.1.10)-1) date 2022-03-06 21:17:49*
%MOMM*%
%LPD*%
G01*
G04 APERTURE LIST*
%TA.AperFunction,SMDPad,CuDef*%
%ADD10R,1.430000X2.500000*%
%TD*%
%TA.AperFunction,ComponentPad*%
%ADD11O,1.350000X1.700000*%
%TD*%
%TA.AperFunction,ComponentPad*%
%ADD12O,1.100000X1.500000*%
%TD*%
%TA.AperFunction,SMDPad,CuDef*%
%ADD13R,0.400000X1.650000*%
%TD*%
%TA.AperFunction,SMDPad,CuDef*%
%ADD14R,2.000000X1.500000*%
%TD*%
%TA.AperFunction,SMDPad,CuDef*%
%ADD15R,1.825000X0.700000*%
%TD*%
%TA.AperFunction,SMDPad,CuDef*%
%ADD16R,1.350000X2.000000*%
%TD*%
%TA.AperFunction,SMDPad,CuDef*%
%ADD17C,1.000000*%
%TD*%
%TA.AperFunction,ComponentPad*%
%ADD18C,2.209800*%
%TD*%
%TA.AperFunction,ComponentPad*%
%ADD19C,2.006600*%
%TD*%
%TA.AperFunction,SMDPad,CuDef*%
%ADD20R,1.560000X0.650000*%
%TD*%
%TA.AperFunction,SMDPad,CuDef*%
%ADD21R,1.000000X2.300000*%
%TD*%
%TA.AperFunction,SMDPad,CuDef*%
%ADD22R,2.300000X1.000000*%
%TD*%
%TA.AperFunction,ComponentPad*%
%ADD23O,1.700000X1.700000*%
%TD*%
%TA.AperFunction,ComponentPad*%
%ADD24R,1.700000X1.700000*%
%TD*%
%TA.AperFunction,ViaPad*%
%ADD25C,0.800000*%
%TD*%
%TA.AperFunction,Conductor*%
%ADD26C,0.250000*%
%TD*%
%TA.AperFunction,Conductor*%
%ADD27C,0.500000*%
%TD*%
%TA.AperFunction,Conductor*%
%ADD28C,0.293370*%
%TD*%
%TA.AperFunction,Conductor*%
%ADD29C,1.000000*%
%TD*%
%TA.AperFunction,Conductor*%
%ADD30C,0.254000*%
%TD*%
%TA.AperFunction,Conductor*%
%ADD31C,0.100000*%
%TD*%
G04 APERTURE END LIST*
%TO.P,R2,2*%
%TO.N,I2C_SDA*%
%TA.AperFunction,SMDPad,CuDef*%
G36*
G01*
X170237500Y-132087500D02*
X169762500Y-132087500D01*
G75*
G02*
X169525000Y-131850000I0J237500D01*
G01*
X169525000Y-131350000D01*
G75*
G02*
X169762500Y-131112500I237500J0D01*
G01*
X170237500Y-131112500D01*
G75*
G02*
X170475000Y-131350000I0J-237500D01*
G01*
X170475000Y-131850000D01*
G75*
G02*
X170237500Y-132087500I-237500J0D01*
G01*
G37*
%TD.AperFunction*%
%TO.P,R2,1*%
%TO.N,+3V3*%
%TA.AperFunction,SMDPad,CuDef*%
G36*
G01*
X170237500Y-133912500D02*
X169762500Y-133912500D01*
G75*
G02*
X169525000Y-133675000I0J237500D01*
G01*
X169525000Y-133175000D01*
G75*
G02*
X169762500Y-132937500I237500J0D01*
G01*
X170237500Y-132937500D01*
G75*
G02*
X170475000Y-133175000I0J-237500D01*
G01*
X170475000Y-133675000D01*
G75*
G02*
X170237500Y-133912500I-237500J0D01*
G01*
G37*
%TD.AperFunction*%
%TD*%
D10*
%TO.P,USB_PWR1,6*%
%TO.N,Net-(USB_PWR1-Pad6)*%
X169965000Y-143545000D03*
X168045000Y-143545000D03*
D11*
X171735000Y-143275000D03*
X166275000Y-143275000D03*
D12*
X171425000Y-140275000D03*
X166585000Y-140275000D03*
D13*
%TO.P,USB_PWR1,5*%
%TO.N,GND*%
X170305000Y-140395000D03*
%TO.P,USB_PWR1,4*%
%TO.N,N/C*%
X169655000Y-140395000D03*
%TO.P,USB_PWR1,3*%
X169005000Y-140395000D03*
%TO.P,USB_PWR1,2*%
X168355000Y-140395000D03*
%TO.P,USB_PWR1,1*%
%TO.N,VDD*%
X167705000Y-140395000D03*
D14*
%TO.P,USB_PWR1,6*%
%TO.N,Net-(USB_PWR1-Pad6)*%
X171905000Y-140275000D03*
X166155000Y-140295000D03*
D15*
X172005000Y-141595000D03*
X166055000Y-141595000D03*
D16*
X166275000Y-142345000D03*
X171755000Y-142345000D03*
%TD*%
%TO.P,U2,8*%
%TO.N,+3V3*%
%TA.AperFunction,SMDPad,CuDef*%
G36*
G01*
X192600000Y-122947500D02*
X192600000Y-124197500D01*
G75*
G02*
X192475000Y-124322500I-125000J0D01*
G01*
X192225000Y-124322500D01*
G75*
G02*
X192100000Y-124197500I0J125000D01*
G01*
X192100000Y-122947500D01*
G75*
G02*
X192225000Y-122822500I125000J0D01*
G01*
X192475000Y-122822500D01*
G75*
G02*
X192600000Y-122947500I0J-125000D01*
G01*
G37*
%TD.AperFunction*%
%TO.P,U2,7*%
%TO.N,GND*%
%TA.AperFunction,SMDPad,CuDef*%
G36*
G01*
X191800000Y-122947500D02*
X191800000Y-124197500D01*
G75*
G02*
X191675000Y-124322500I-125000J0D01*
G01*
X191425000Y-124322500D01*
G75*
G02*
X191300000Y-124197500I0J125000D01*
G01*
X191300000Y-122947500D01*
G75*
G02*
X191425000Y-122822500I125000J0D01*
G01*
X191675000Y-122822500D01*
G75*
G02*
X191800000Y-122947500I0J-125000D01*
G01*
G37*
%TD.AperFunction*%
%TO.P,U2,6*%
%TO.N,+3V3*%
%TA.AperFunction,SMDPad,CuDef*%
G36*
G01*
X191000000Y-122947500D02*
X191000000Y-124197500D01*
G75*
G02*
X190875000Y-124322500I-125000J0D01*
G01*
X190625000Y-124322500D01*
G75*
G02*
X190500000Y-124197500I0J125000D01*
G01*
X190500000Y-122947500D01*
G75*
G02*
X190625000Y-122822500I125000J0D01*
G01*
X190875000Y-122822500D01*
G75*
G02*
X191000000Y-122947500I0J-125000D01*
G01*
G37*
%TD.AperFunction*%
%TO.P,U2,5*%
%TO.N,GND*%
%TA.AperFunction,SMDPad,CuDef*%
G36*
G01*
X190200000Y-122947500D02*
X190200000Y-124197500D01*
G75*
G02*
X190075000Y-124322500I-125000J0D01*
G01*
X189825000Y-124322500D01*
G75*
G02*
X189700000Y-124197500I0J125000D01*
G01*
X189700000Y-122947500D01*
G75*
G02*
X189825000Y-122822500I125000J0D01*
G01*
X190075000Y-122822500D01*
G75*
G02*
X190200000Y-122947500I0J-125000D01*
G01*
G37*
%TD.AperFunction*%
%TO.P,U2,4*%
%TO.N,I2C_SCL*%
%TA.AperFunction,SMDPad,CuDef*%
G36*
G01*
X190200000Y-125322500D02*
X190200000Y-126572500D01*
G75*
G02*
X190075000Y-126697500I-125000J0D01*
G01*
X189825000Y-126697500D01*
G75*
G02*
X189700000Y-126572500I0J125000D01*
G01*
X189700000Y-125322500D01*
G75*
G02*
X189825000Y-125197500I125000J0D01*
G01*
X190075000Y-125197500D01*
G75*
G02*
X190200000Y-125322500I0J-125000D01*
G01*
G37*
%TD.AperFunction*%
%TO.P,U2,3*%
%TO.N,I2C_SDA*%
%TA.AperFunction,SMDPad,CuDef*%
G36*
G01*
X191000000Y-125322500D02*
X191000000Y-126572500D01*
G75*
G02*
X190875000Y-126697500I-125000J0D01*
G01*
X190625000Y-126697500D01*
G75*
G02*
X190500000Y-126572500I0J125000D01*
G01*
X190500000Y-125322500D01*
G75*
G02*
X190625000Y-125197500I125000J0D01*
G01*
X190875000Y-125197500D01*
G75*
G02*
X191000000Y-125322500I0J-125000D01*
G01*
G37*
%TD.AperFunction*%
%TO.P,U2,2*%
%TO.N,+3V3*%
%TA.AperFunction,SMDPad,CuDef*%
G36*
G01*
X191800000Y-125322500D02*
X191800000Y-126572500D01*
G75*
G02*
X191675000Y-126697500I-125000J0D01*
G01*
X191425000Y-126697500D01*
G75*
G02*
X191300000Y-126572500I0J125000D01*
G01*
X191300000Y-125322500D01*
G75*
G02*
X191425000Y-125197500I125000J0D01*
G01*
X191675000Y-125197500D01*
G75*
G02*
X191800000Y-125322500I0J-125000D01*
G01*
G37*
%TD.AperFunction*%
%TO.P,U2,1*%
%TO.N,GND*%
%TA.AperFunction,SMDPad,CuDef*%
G36*
G01*
X192600000Y-125322500D02*
X192600000Y-126572500D01*
G75*
G02*
X192475000Y-126697500I-125000J0D01*
G01*
X192225000Y-126697500D01*
G75*
G02*
X192100000Y-126572500I0J125000D01*
G01*
X192100000Y-125322500D01*
G75*
G02*
X192225000Y-125197500I125000J0D01*
G01*
X192475000Y-125197500D01*
G75*
G02*
X192600000Y-125322500I0J-125000D01*
G01*
G37*
%TD.AperFunction*%
%TD*%
D17*
%TO.P,GND2,1*%
%TO.N,GND*%
X161825000Y-143600000D03*
%TD*%
%TO.P,L1,2*%
%TO.N,Net-(C8-Pad1)*%
%TA.AperFunction,SMDPad,CuDef*%
G36*
G01*
X163337500Y-116172500D02*
X162862500Y-116172500D01*
G75*
G02*
X162625000Y-115935000I0J237500D01*
G01*
X162625000Y-115335000D01*
G75*
G02*
X162862500Y-115097500I237500J0D01*
G01*
X163337500Y-115097500D01*
G75*
G02*
X163575000Y-115335000I0J-237500D01*
G01*
X163575000Y-115935000D01*
G75*
G02*
X163337500Y-116172500I-237500J0D01*
G01*
G37*
%TD.AperFunction*%
%TO.P,L1,1*%
%TO.N,RF_ANTENNA*%
%TA.AperFunction,SMDPad,CuDef*%
G36*
G01*
X163337500Y-117897500D02*
X162862500Y-117897500D01*
G75*
G02*
X162625000Y-117660000I0J237500D01*
G01*
X162625000Y-117060000D01*
G75*
G02*
X162862500Y-116822500I237500J0D01*
G01*
X163337500Y-116822500D01*
G75*
G02*
X163575000Y-117060000I0J-237500D01*
G01*
X163575000Y-117660000D01*
G75*
G02*
X163337500Y-117897500I-237500J0D01*
G01*
G37*
%TD.AperFunction*%
%TD*%
%TO.P,C8,2*%
%TO.N,GND*%
%TA.AperFunction,SMDPad,CuDef*%
G36*
G01*
X164287500Y-114312500D02*
X164287500Y-113837500D01*
G75*
G02*
X164525000Y-113600000I237500J0D01*
G01*
X165125000Y-113600000D01*
G75*
G02*
X165362500Y-113837500I0J-237500D01*
G01*
X165362500Y-114312500D01*
G75*
G02*
X165125000Y-114550000I-237500J0D01*
G01*
X164525000Y-114550000D01*
G75*
G02*
X164287500Y-114312500I0J237500D01*
G01*
G37*
%TD.AperFunction*%
%TO.P,C8,1*%
%TO.N,Net-(C8-Pad1)*%
%TA.AperFunction,SMDPad,CuDef*%
G36*
G01*
X162562500Y-114312500D02*
X162562500Y-113837500D01*
G75*
G02*
X162800000Y-113600000I237500J0D01*
G01*
X163400000Y-113600000D01*
G75*
G02*
X163637500Y-113837500I0J-237500D01*
G01*
X163637500Y-114312500D01*
G75*
G02*
X163400000Y-114550000I-237500J0D01*
G01*
X162800000Y-114550000D01*
G75*
G02*
X162562500Y-114312500I0J237500D01*
G01*
G37*
%TD.AperFunction*%
%TD*%
%TO.P,C7,2*%
%TO.N,GND*%
%TA.AperFunction,SMDPad,CuDef*%
G36*
G01*
X164287500Y-119187500D02*
X164287500Y-118712500D01*
G75*
G02*
X164525000Y-118475000I237500J0D01*
G01*
X165125000Y-118475000D01*
G75*
G02*
X165362500Y-118712500I0J-237500D01*
G01*
X165362500Y-119187500D01*
G75*
G02*
X165125000Y-119425000I-237500J0D01*
G01*
X164525000Y-119425000D01*
G75*
G02*
X164287500Y-119187500I0J237500D01*
G01*
G37*
%TD.AperFunction*%
%TO.P,C7,1*%
%TO.N,RF_ANTENNA*%
%TA.AperFunction,SMDPad,CuDef*%
G36*
G01*
X162562500Y-119187500D02*
X162562500Y-118712500D01*
G75*
G02*
X162800000Y-118475000I237500J0D01*
G01*
X163400000Y-118475000D01*
G75*
G02*
X163637500Y-118712500I0J-237500D01*
G01*
X163637500Y-119187500D01*
G75*
G02*
X163400000Y-119425000I-237500J0D01*
G01*
X162800000Y-119425000D01*
G75*
G02*
X162562500Y-119187500I0J237500D01*
G01*
G37*
%TD.AperFunction*%
%TD*%
D18*
%TO.P,J2,5*%
%TO.N,GND*%
X165610000Y-106690000D03*
%TO.P,J2,4*%
X165610000Y-111770000D03*
%TO.P,J2,3*%
X160530000Y-111770000D03*
%TO.P,J2,2*%
X160530000Y-106690000D03*
D19*
%TO.P,J2,1*%
%TO.N,Net-(C8-Pad1)*%
X163070000Y-109230000D03*
%TD*%
D20*
%TO.P,U3,5*%
%TO.N,+3V3*%
X184830000Y-136110000D03*
%TO.P,U3,4*%
%TO.N,GND*%
X184830000Y-138010000D03*
%TO.P,U3,3*%
%TO.N,Net-(C5-Pad2)*%
X182130000Y-138010000D03*
%TO.P,U3,2*%
%TO.N,GND*%
X182130000Y-137060000D03*
%TO.P,U3,1*%
%TO.N,Net-(C5-Pad2)*%
X182130000Y-136110000D03*
%TD*%
D21*
%TO.P,U1,4*%
%TO.N,SWCLK*%
X159350000Y-133425000D03*
%TO.P,U1,3*%
%TO.N,SWDIO*%
X158100000Y-133425000D03*
%TO.P,U1,2*%
%TO.N,GND*%
X156850000Y-133425000D03*
%TO.P,U1,1*%
%TO.N,+3V3*%
X155600000Y-133425000D03*
%TO.P,U1,5*%
%TO.N,I2C_SCL*%
X160600000Y-133425000D03*
%TO.P,U1,6*%
%TO.N,I2C_SDA*%
X161850000Y-133425000D03*
%TO.P,U1,7*%
%TO.N,N/C*%
X163100000Y-133425000D03*
D22*
%TO.P,U1,11*%
X165350000Y-127425000D03*
%TO.P,U1,10*%
%TO.N,UART1_TX*%
X165350000Y-128675000D03*
%TO.P,U1,9*%
%TO.N,UART1_RX*%
X165350000Y-129925000D03*
%TO.P,U1,8*%
%TO.N,N/C*%
X165350000Y-131175000D03*
%TO.P,U1,12*%
X165350000Y-126175000D03*
%TO.P,U1,13*%
X165350000Y-124925000D03*
%TO.P,U1,14*%
%TO.N,GND*%
X165350000Y-123675000D03*
D21*
%TO.P,U1,18*%
%TO.N,N/C*%
X159350000Y-121425000D03*
%TO.P,U1,17*%
%TO.N,RST*%
X160600000Y-121425000D03*
%TO.P,U1,16*%
%TO.N,GND*%
X161850000Y-121425000D03*
%TO.P,U1,15*%
%TO.N,RF_ANTENNA*%
X163100000Y-121425000D03*
%TO.P,U1,19*%
%TO.N,N/C*%
X158100000Y-121425000D03*
%TO.P,U1,20*%
X156850000Y-121425000D03*
%TO.P,U1,21*%
X155600000Y-121425000D03*
D22*
%TO.P,U1,25*%
X153350000Y-127425000D03*
%TO.P,U1,24*%
X153350000Y-126175000D03*
%TO.P,U1,23*%
%TO.N,FT*%
X153350000Y-124925000D03*
%TO.P,U1,22*%
%TO.N,GND*%
X153350000Y-123675000D03*
%TO.P,U1,26*%
%TO.N,N/C*%
X153350000Y-128675000D03*
%TO.P,U1,27*%
%TO.N,HEARTBEAT_LED*%
X153350000Y-129925000D03*
%TO.P,U1,28*%
%TO.N,LED_ALERT*%
X153350000Y-131175000D03*
%TD*%
D17*
%TO.P,SDA1,1*%
%TO.N,I2C_SDA*%
X162200000Y-136600000D03*
%TD*%
%TO.P,SCL1,1*%
%TO.N,I2C_SCL*%
X160000000Y-137200000D03*
%TD*%
%TO.P,R5,2*%
%TO.N,Net-(3V1-Pad1)*%
%TA.AperFunction,SMDPad,CuDef*%
G36*
G01*
X185455000Y-141622500D02*
X185455000Y-142097500D01*
G75*
G02*
X185217500Y-142335000I-237500J0D01*
G01*
X184717500Y-142335000D01*
G75*
G02*
X184480000Y-142097500I0J237500D01*
G01*
X184480000Y-141622500D01*
G75*
G02*
X184717500Y-141385000I237500J0D01*
G01*
X185217500Y-141385000D01*
G75*
G02*
X185455000Y-141622500I0J-237500D01*
G01*
G37*
%TD.AperFunction*%
%TO.P,R5,1*%
%TO.N,GND*%
%TA.AperFunction,SMDPad,CuDef*%
G36*
G01*
X187280000Y-141622500D02*
X187280000Y-142097500D01*
G75*
G02*
X187042500Y-142335000I-237500J0D01*
G01*
X186542500Y-142335000D01*
G75*
G02*
X186305000Y-142097500I0J237500D01*
G01*
X186305000Y-141622500D01*
G75*
G02*
X186542500Y-141385000I237500J0D01*
G01*
X187042500Y-141385000D01*
G75*
G02*
X187280000Y-141622500I0J-237500D01*
G01*
G37*
%TD.AperFunction*%
%TD*%
%TO.P,R4,2*%
%TO.N,Net-(ALERT1-Pad1)*%
%TA.AperFunction,SMDPad,CuDef*%
G36*
G01*
X146975000Y-132362500D02*
X146975000Y-132837500D01*
G75*
G02*
X146737500Y-133075000I-237500J0D01*
G01*
X146237500Y-133075000D01*
G75*
G02*
X146000000Y-132837500I0J237500D01*
G01*
X146000000Y-132362500D01*
G75*
G02*
X146237500Y-132125000I237500J0D01*
G01*
X146737500Y-132125000D01*
G75*
G02*
X146975000Y-132362500I0J-237500D01*
G01*
G37*
%TD.AperFunction*%
%TO.P,R4,1*%
%TO.N,GND*%
%TA.AperFunction,SMDPad,CuDef*%
G36*
G01*
X148800000Y-132362500D02*
X148800000Y-132837500D01*
G75*
G02*
X148562500Y-133075000I-237500J0D01*
G01*
X148062500Y-133075000D01*
G75*
G02*
X147825000Y-132837500I0J237500D01*
G01*
X147825000Y-132362500D01*
G75*
G02*
X148062500Y-132125000I237500J0D01*
G01*
X148562500Y-132125000D01*
G75*
G02*
X148800000Y-132362500I0J-237500D01*
G01*
G37*
%TD.AperFunction*%
%TD*%
%TO.P,R3,2*%
%TO.N,Net-(HB1-Pad1)*%
%TA.AperFunction,SMDPad,CuDef*%
G36*
G01*
X146775000Y-124962500D02*
X146775000Y-125437500D01*
G75*
G02*
X146537500Y-125675000I-237500J0D01*
G01*
X146037500Y-125675000D01*
G75*
G02*
X145800000Y-125437500I0J237500D01*
G01*
X145800000Y-124962500D01*
G75*
G02*
X146037500Y-124725000I237500J0D01*
G01*
X146537500Y-124725000D01*
G75*
G02*
X146775000Y-124962500I0J-237500D01*
G01*
G37*
%TD.AperFunction*%
%TO.P,R3,1*%
%TO.N,GND*%
%TA.AperFunction,SMDPad,CuDef*%
G36*
G01*
X148600000Y-124962500D02*
X148600000Y-125437500D01*
G75*
G02*
X148362500Y-125675000I-237500J0D01*
G01*
X147862500Y-125675000D01*
G75*
G02*
X147625000Y-125437500I0J237500D01*
G01*
X147625000Y-124962500D01*
G75*
G02*
X147862500Y-124725000I237500J0D01*
G01*
X148362500Y-124725000D01*
G75*
G02*
X148600000Y-124962500I0J-237500D01*
G01*
G37*
%TD.AperFunction*%
%TD*%
%TO.P,R1,2*%
%TO.N,I2C_SCL*%
%TA.AperFunction,SMDPad,CuDef*%
G36*
G01*
X169762500Y-129225000D02*
X170237500Y-129225000D01*
G75*
G02*
X170475000Y-129462500I0J-237500D01*
G01*
X170475000Y-129962500D01*
G75*
G02*
X170237500Y-130200000I-237500J0D01*
G01*
X169762500Y-130200000D01*
G75*
G02*
X169525000Y-129962500I0J237500D01*
G01*
X169525000Y-129462500D01*
G75*
G02*
X169762500Y-129225000I237500J0D01*
G01*
G37*
%TD.AperFunction*%
%TO.P,R1,1*%
%TO.N,+3V3*%
%TA.AperFunction,SMDPad,CuDef*%
G36*
G01*
X169762500Y-127400000D02*
X170237500Y-127400000D01*
G75*
G02*
X170475000Y-127637500I0J-237500D01*
G01*
X170475000Y-128137500D01*
G75*
G02*
X170237500Y-128375000I-237500J0D01*
G01*
X169762500Y-128375000D01*
G75*
G02*
X169525000Y-128137500I0J237500D01*
G01*
X169525000Y-127637500D01*
G75*
G02*
X169762500Y-127400000I237500J0D01*
G01*
G37*
%TD.AperFunction*%
%TD*%
D23*
%TO.P,J6,4*%
%TO.N,I2C_SDA*%
X177380000Y-108300000D03*
%TO.P,J6,3*%
%TO.N,I2C_SCL*%
X179920000Y-108300000D03*
%TO.P,J6,2*%
%TO.N,+3V3*%
X182460000Y-108300000D03*
D24*
%TO.P,J6,1*%
%TO.N,GND*%
X185000000Y-108300000D03*
%TD*%
D23*
%TO.P,J4,3*%
%TO.N,GND*%
X172466000Y-119634000D03*
%TO.P,J4,2*%
%TO.N,UART1_TX*%
X172466000Y-122174000D03*
D24*
%TO.P,J4,1*%
%TO.N,UART1_RX*%
X172466000Y-124714000D03*
%TD*%
D23*
%TO.P,J1,6*%
%TO.N,N/C*%
X146655000Y-140725000D03*
%TO.P,J1,5*%
%TO.N,RST*%
X149195000Y-140725000D03*
%TO.P,J1,4*%
%TO.N,SWDIO*%
X151735000Y-140725000D03*
%TO.P,J1,3*%
%TO.N,GND*%
X154275000Y-140725000D03*
%TO.P,J1,2*%
%TO.N,SWCLK*%
X156815000Y-140725000D03*
D24*
%TO.P,J1,1*%
%TO.N,+3V3*%
X159355000Y-140725000D03*
%TD*%
%TO.P,HB1,2*%
%TO.N,HEARTBEAT_LED*%
%TA.AperFunction,SMDPad,CuDef*%
G36*
G01*
X147550000Y-123137500D02*
X147550000Y-122662500D01*
G75*
G02*
X147787500Y-122425000I237500J0D01*
G01*
X148362500Y-122425000D01*
G75*
G02*
X148600000Y-122662500I0J-237500D01*
G01*
X148600000Y-123137500D01*
G75*
G02*
X148362500Y-123375000I-237500J0D01*
G01*
X147787500Y-123375000D01*
G75*
G02*
X147550000Y-123137500I0J237500D01*
G01*
G37*
%TD.AperFunction*%
%TO.P,HB1,1*%
%TO.N,Net-(HB1-Pad1)*%
%TA.AperFunction,SMDPad,CuDef*%
G36*
G01*
X145800000Y-123137500D02*
X145800000Y-122662500D01*
G75*
G02*
X146037500Y-122425000I237500J0D01*
G01*
X146612500Y-122425000D01*
G75*
G02*
X146850000Y-122662500I0J-237500D01*
G01*
X146850000Y-123137500D01*
G75*
G02*
X146612500Y-123375000I-237500J0D01*
G01*
X146037500Y-123375000D01*
G75*
G02*
X145800000Y-123137500I0J237500D01*
G01*
G37*
%TD.AperFunction*%
%TD*%
D17*
%TO.P,GND1,1*%
%TO.N,GND*%
X150406000Y-118110000D03*
%TD*%
%TO.P,FT1,1*%
%TO.N,FT*%
X147066000Y-118100000D03*
%TD*%
%TO.P,FB1,2*%
%TO.N,Net-(F1-Pad1)*%
%TA.AperFunction,SMDPad,CuDef*%
G36*
G01*
X173565000Y-137122500D02*
X173565000Y-137597500D01*
G75*
G02*
X173327500Y-137835000I-237500J0D01*
G01*
X172827500Y-137835000D01*
G75*
G02*
X172590000Y-137597500I0J237500D01*
G01*
X172590000Y-137122500D01*
G75*
G02*
X172827500Y-136885000I237500J0D01*
G01*
X173327500Y-136885000D01*
G75*
G02*
X173565000Y-137122500I0J-237500D01*
G01*
G37*
%TD.AperFunction*%
%TO.P,FB1,1*%
%TO.N,Net-(C5-Pad2)*%
%TA.AperFunction,SMDPad,CuDef*%
G36*
G01*
X175390000Y-137122500D02*
X175390000Y-137597500D01*
G75*
G02*
X175152500Y-137835000I-237500J0D01*
G01*
X174652500Y-137835000D01*
G75*
G02*
X174415000Y-137597500I0J237500D01*
G01*
X174415000Y-137122500D01*
G75*
G02*
X174652500Y-136885000I237500J0D01*
G01*
X175152500Y-136885000D01*
G75*
G02*
X175390000Y-137122500I0J-237500D01*
G01*
G37*
%TD.AperFunction*%
%TD*%
%TO.P,F1,2*%
%TO.N,VDD*%
%TA.AperFunction,SMDPad,CuDef*%
G36*
G01*
X168855000Y-137162500D02*
X168855000Y-137637500D01*
G75*
G02*
X168617500Y-137875000I-237500J0D01*
G01*
X168117500Y-137875000D01*
G75*
G02*
X167880000Y-137637500I0J237500D01*
G01*
X167880000Y-137162500D01*
G75*
G02*
X168117500Y-136925000I237500J0D01*
G01*
X168617500Y-136925000D01*
G75*
G02*
X168855000Y-137162500I0J-237500D01*
G01*
G37*
%TD.AperFunction*%
%TO.P,F1,1*%
%TO.N,Net-(F1-Pad1)*%
%TA.AperFunction,SMDPad,CuDef*%
G36*
G01*
X170680000Y-137162500D02*
X170680000Y-137637500D01*
G75*
G02*
X170442500Y-137875000I-237500J0D01*
G01*
X169942500Y-137875000D01*
G75*
G02*
X169705000Y-137637500I0J237500D01*
G01*
X169705000Y-137162500D01*
G75*
G02*
X169942500Y-136925000I237500J0D01*
G01*
X170442500Y-136925000D01*
G75*
G02*
X170680000Y-137162500I0J-237500D01*
G01*
G37*
%TD.AperFunction*%
%TD*%
%TO.P,C6,2*%
%TO.N,+3V3*%
%TA.AperFunction,SMDPad,CuDef*%
G36*
G01*
X184322500Y-134697500D02*
X184322500Y-134222500D01*
G75*
G02*
X184560000Y-133985000I237500J0D01*
G01*
X185160000Y-133985000D01*
G75*
G02*
X185397500Y-134222500I0J-237500D01*
G01*
X185397500Y-134697500D01*
G75*
G02*
X185160000Y-134935000I-237500J0D01*
G01*
X184560000Y-134935000D01*
G75*
G02*
X184322500Y-134697500I0J237500D01*
G01*
G37*
%TD.AperFunction*%
%TO.P,C6,1*%
%TO.N,GND*%
%TA.AperFunction,SMDPad,CuDef*%
G36*
G01*
X182597500Y-134697500D02*
X182597500Y-134222500D01*
G75*
G02*
X182835000Y-133985000I237500J0D01*
G01*
X183435000Y-133985000D01*
G75*
G02*
X183672500Y-134222500I0J-237500D01*
G01*
X183672500Y-134697500D01*
G75*
G02*
X183435000Y-134935000I-237500J0D01*
G01*
X182835000Y-134935000D01*
G75*
G02*
X182597500Y-134697500I0J237500D01*
G01*
G37*
%TD.AperFunction*%
%TD*%
%TO.P,C5,2*%
%TO.N,Net-(C5-Pad2)*%
%TA.AperFunction,SMDPad,CuDef*%
G36*
G01*
X183675000Y-139392500D02*
X183675000Y-139867500D01*
G75*
G02*
X183437500Y-140105000I-237500J0D01*
G01*
X182837500Y-140105000D01*
G75*
G02*
X182600000Y-139867500I0J237500D01*
G01*
X182600000Y-139392500D01*
G75*
G02*
X182837500Y-139155000I237500J0D01*
G01*
X183437500Y-139155000D01*
G75*
G02*
X183675000Y-139392500I0J-237500D01*
G01*
G37*
%TD.AperFunction*%
%TO.P,C5,1*%
%TO.N,GND*%
%TA.AperFunction,SMDPad,CuDef*%
G36*
G01*
X185400000Y-139392500D02*
X185400000Y-139867500D01*
G75*
G02*
X185162500Y-140105000I-237500J0D01*
G01*
X184562500Y-140105000D01*
G75*
G02*
X184325000Y-139867500I0J237500D01*
G01*
X184325000Y-139392500D01*
G75*
G02*
X184562500Y-139155000I237500J0D01*
G01*
X185162500Y-139155000D01*
G75*
G02*
X185400000Y-139392500I0J-237500D01*
G01*
G37*
%TD.AperFunction*%
%TD*%
%TO.P,C4,2*%
%TO.N,GND*%
%TA.AperFunction,SMDPad,CuDef*%
G36*
G01*
X191075000Y-121362500D02*
X191075000Y-121837500D01*
G75*
G02*
X190837500Y-122075000I-237500J0D01*
G01*
X190237500Y-122075000D01*
G75*
G02*
X190000000Y-121837500I0J237500D01*
G01*
X190000000Y-121362500D01*
G75*
G02*
X190237500Y-121125000I237500J0D01*
G01*
X190837500Y-121125000D01*
G75*
G02*
X191075000Y-121362500I0J-237500D01*
G01*
G37*
%TD.AperFunction*%
%TO.P,C4,1*%
%TO.N,+3V3*%
%TA.AperFunction,SMDPad,CuDef*%
G36*
G01*
X192800000Y-121362500D02*
X192800000Y-121837500D01*
G75*
G02*
X192562500Y-122075000I-237500J0D01*
G01*
X191962500Y-122075000D01*
G75*
G02*
X191725000Y-121837500I0J237500D01*
G01*
X191725000Y-121362500D01*
G75*
G02*
X191962500Y-121125000I237500J0D01*
G01*
X192562500Y-121125000D01*
G75*
G02*
X192800000Y-121362500I0J-237500D01*
G01*
G37*
%TD.AperFunction*%
%TD*%
%TO.P,C3,2*%
%TO.N,GND*%
%TA.AperFunction,SMDPad,CuDef*%
G36*
G01*
X152900000Y-135537500D02*
X152425000Y-135537500D01*
G75*
G02*
X152187500Y-135300000I0J237500D01*
G01*
X152187500Y-134700000D01*
G75*
G02*
X152425000Y-134462500I237500J0D01*
G01*
X152900000Y-134462500D01*
G75*
G02*
X153137500Y-134700000I0J-237500D01*
G01*
X153137500Y-135300000D01*
G75*
G02*
X152900000Y-135537500I-237500J0D01*
G01*
G37*
%TD.AperFunction*%
%TO.P,C3,1*%
%TO.N,+3V3*%
%TA.AperFunction,SMDPad,CuDef*%
G36*
G01*
X152900000Y-137262500D02*
X152425000Y-137262500D01*
G75*
G02*
X152187500Y-137025000I0J237500D01*
G01*
X152187500Y-136425000D01*
G75*
G02*
X152425000Y-136187500I237500J0D01*
G01*
X152900000Y-136187500D01*
G75*
G02*
X153137500Y-136425000I0J-237500D01*
G01*
X153137500Y-137025000D01*
G75*
G02*
X152900000Y-137262500I-237500J0D01*
G01*
G37*
%TD.AperFunction*%
%TD*%
%TO.P,C2,2*%
%TO.N,GND*%
%TA.AperFunction,SMDPad,CuDef*%
G36*
G01*
X192125000Y-128237500D02*
X192125000Y-127762500D01*
G75*
G02*
X192362500Y-127525000I237500J0D01*
G01*
X192962500Y-127525000D01*
G75*
G02*
X193200000Y-127762500I0J-237500D01*
G01*
X193200000Y-128237500D01*
G75*
G02*
X192962500Y-128475000I-237500J0D01*
G01*
X192362500Y-128475000D01*
G75*
G02*
X192125000Y-128237500I0J237500D01*
G01*
G37*
%TD.AperFunction*%
%TO.P,C2,1*%
%TO.N,+3V3*%
%TA.AperFunction,SMDPad,CuDef*%
G36*
G01*
X190400000Y-128237500D02*
X190400000Y-127762500D01*
G75*
G02*
X190637500Y-127525000I237500J0D01*
G01*
X191237500Y-127525000D01*
G75*
G02*
X191475000Y-127762500I0J-237500D01*
G01*
X191475000Y-128237500D01*
G75*
G02*
X191237500Y-128475000I-237500J0D01*
G01*
X190637500Y-128475000D01*
G75*
G02*
X190400000Y-128237500I0J237500D01*
G01*
G37*
%TD.AperFunction*%
%TD*%
%TO.P,C1,2*%
%TO.N,GND*%
%TA.AperFunction,SMDPad,CuDef*%
G36*
G01*
X155525000Y-135837500D02*
X155525000Y-135362500D01*
G75*
G02*
X155762500Y-135125000I237500J0D01*
G01*
X156362500Y-135125000D01*
G75*
G02*
X156600000Y-135362500I0J-237500D01*
G01*
X156600000Y-135837500D01*
G75*
G02*
X156362500Y-136075000I-237500J0D01*
G01*
X155762500Y-136075000D01*
G75*
G02*
X155525000Y-135837500I0J237500D01*
G01*
G37*
%TD.AperFunction*%
%TO.P,C1,1*%
%TO.N,+3V3*%
%TA.AperFunction,SMDPad,CuDef*%
G36*
G01*
X153800000Y-135837500D02*
X153800000Y-135362500D01*
G75*
G02*
X154037500Y-135125000I237500J0D01*
G01*
X154637500Y-135125000D01*
G75*
G02*
X154875000Y-135362500I0J-237500D01*
G01*
X154875000Y-135837500D01*
G75*
G02*
X154637500Y-136075000I-237500J0D01*
G01*
X154037500Y-136075000D01*
G75*
G02*
X153800000Y-135837500I0J237500D01*
G01*
G37*
%TD.AperFunction*%
%TD*%
%TO.P,ALERT1,2*%
%TO.N,LED_ALERT*%
%TA.AperFunction,SMDPad,CuDef*%
G36*
G01*
X147740000Y-130937500D02*
X147740000Y-130462500D01*
G75*
G02*
X147977500Y-130225000I237500J0D01*
G01*
X148552500Y-130225000D01*
G75*
G02*
X148790000Y-130462500I0J-237500D01*
G01*
X148790000Y-130937500D01*
G75*
G02*
X148552500Y-131175000I-237500J0D01*
G01*
X147977500Y-131175000D01*
G75*
G02*
X147740000Y-130937500I0J237500D01*
G01*
G37*
%TD.AperFunction*%
%TO.P,ALERT1,1*%
%TO.N,Net-(ALERT1-Pad1)*%
%TA.AperFunction,SMDPad,CuDef*%
G36*
G01*
X145990000Y-130937500D02*
X145990000Y-130462500D01*
G75*
G02*
X146227500Y-130225000I237500J0D01*
G01*
X146802500Y-130225000D01*
G75*
G02*
X147040000Y-130462500I0J-237500D01*
G01*
X147040000Y-130937500D01*
G75*
G02*
X146802500Y-131175000I-237500J0D01*
G01*
X146227500Y-131175000D01*
G75*
G02*
X145990000Y-130937500I0J237500D01*
G01*
G37*
%TD.AperFunction*%
%TD*%
%TO.P,3V3_OUT1,1*%
%TO.N,+3V3*%
X159800000Y-143600000D03*
%TD*%
%TO.P,3V1,2*%
%TO.N,+3V3*%
%TA.AperFunction,SMDPad,CuDef*%
G36*
G01*
X181830000Y-141587500D02*
X181830000Y-142062500D01*
G75*
G02*
X181592500Y-142300000I-237500J0D01*
G01*
X181017500Y-142300000D01*
G75*
G02*
X180780000Y-142062500I0J237500D01*
G01*
X180780000Y-141587500D01*
G75*
G02*
X181017500Y-141350000I237500J0D01*
G01*
X181592500Y-141350000D01*
G75*
G02*
X181830000Y-141587500I0J-237500D01*
G01*
G37*
%TD.AperFunction*%
%TO.P,3V1,1*%
%TO.N,Net-(3V1-Pad1)*%
%TA.AperFunction,SMDPad,CuDef*%
G36*
G01*
X183580000Y-141587500D02*
X183580000Y-142062500D01*
G75*
G02*
X183342500Y-142300000I-237500J0D01*
G01*
X182767500Y-142300000D01*
G75*
G02*
X182530000Y-142062500I0J237500D01*
G01*
X182530000Y-141587500D01*
G75*
G02*
X182767500Y-141350000I237500J0D01*
G01*
X183342500Y-141350000D01*
G75*
G02*
X183580000Y-141587500I0J-237500D01*
G01*
G37*
%TD.AperFunction*%
%TD*%
D25*
%TO.N,GND*%
X193000000Y-129200000D03*
X188000000Y-141800000D03*
X186400000Y-138000000D03*
X186200000Y-139500000D03*
X181800000Y-134500000D03*
X180600000Y-137000000D03*
X149600000Y-132600000D03*
X149000000Y-126200000D03*
X155200000Y-123600000D03*
X151800000Y-118000000D03*
X163400000Y-123600000D03*
X161800000Y-123200000D03*
X157000000Y-131400000D03*
X163200000Y-143600000D03*
X170400000Y-138800000D03*
X169400000Y-138800000D03*
X188800000Y-123000000D03*
X189200000Y-121600000D03*
X155600000Y-136800000D03*
X174400000Y-119500000D03*
X184900000Y-106300000D03*
X167720000Y-111850000D03*
X168070000Y-106610000D03*
X158430000Y-106650000D03*
X158330000Y-111850000D03*
X164500000Y-120500000D03*
X161800000Y-119400000D03*
X161800000Y-118200000D03*
X161800000Y-117000000D03*
X161800000Y-115800000D03*
X161800000Y-114600000D03*
X161800000Y-113400000D03*
X165600000Y-120200000D03*
X166400000Y-119200000D03*
X165800000Y-118000000D03*
X164600000Y-117600000D03*
X164600000Y-116400000D03*
X164600000Y-115200000D03*
X165800000Y-115000000D03*
X166400000Y-114000000D03*
X191400000Y-137600000D03*
X190600000Y-141800000D03*
X189800000Y-135600000D03*
X189000000Y-132000000D03*
X192000000Y-134800000D03*
X179200000Y-133200000D03*
X186600000Y-120400000D03*
X191200000Y-114200000D03*
X183200000Y-115400000D03*
X191800000Y-107400000D03*
X189000000Y-110400000D03*
X173400000Y-113200000D03*
X170000000Y-115600000D03*
X177400000Y-113000000D03*
X150600000Y-113200000D03*
X155800000Y-115600000D03*
X147600000Y-110600000D03*
X151000000Y-107800000D03*
X159600000Y-129000000D03*
X161000000Y-129000000D03*
X162400000Y-129000000D03*
X163000000Y-127800000D03*
X162800000Y-126200000D03*
X162400000Y-125000000D03*
X161200000Y-125600000D03*
X161200000Y-127400000D03*
X157200000Y-129600000D03*
X159600000Y-130200000D03*
X161000000Y-130200000D03*
X162400000Y-130200000D03*
X157000000Y-124400000D03*
X158800000Y-124000000D03*
X158400000Y-128600000D03*
X158200000Y-130600000D03*
X155600000Y-129800000D03*
X168800000Y-121400000D03*
X167000000Y-122400000D03*
X169400000Y-119200000D03*
X177000000Y-125000000D03*
X174200000Y-127000000D03*
X188000000Y-133200000D03*
X177000000Y-142200000D03*
X179200000Y-139800000D03*
X164200000Y-139000000D03*
X163600000Y-141400000D03*
X162400000Y-138800000D03*
X151200000Y-143400000D03*
X146200000Y-143800000D03*
X145600000Y-137800000D03*
X148400000Y-137800000D03*
X151600000Y-134200000D03*
X151200000Y-125600000D03*
X145800000Y-127200000D03*
X146200000Y-119600000D03*
X154600000Y-118400000D03*
X178000000Y-135400000D03*
X174600000Y-108000000D03*
X158400000Y-138000000D03*
X182000000Y-127600000D03*
X184400000Y-127000000D03*
X176000000Y-127200000D03*
X187400000Y-127200000D03*
X176600000Y-119600000D03*
X182800000Y-120000000D03*
X186800000Y-113600000D03*
X154200000Y-143000000D03*
%TO.N,+3V3*%
X186200000Y-134300000D03*
X154300000Y-136800000D03*
X182400000Y-106300000D03*
X171000000Y-127000000D03*
X170800000Y-134400000D03*
X151400000Y-137400000D03*
X191000000Y-129200000D03*
X192400000Y-120400000D03*
X161200000Y-141800000D03*
X158400000Y-143600000D03*
X155600000Y-131400000D03*
X186400000Y-136600000D03*
X186400000Y-135600000D03*
X180000000Y-141800000D03*
%TO.N,I2C_SDA*%
X171400000Y-132400000D03*
X178800000Y-124200000D03*
%TO.N,RST*%
X156600000Y-127300000D03*
X147000000Y-135700000D03*
%TD*%
D26*
%TO.N,GND*%
X187940000Y-141860000D02*
X188000000Y-141800000D01*
X186792500Y-141860000D02*
X187940000Y-141860000D01*
D27*
X180660000Y-137060000D02*
X180600000Y-137000000D01*
X182130000Y-137060000D02*
X180660000Y-137060000D01*
X186390000Y-138010000D02*
X186400000Y-138000000D01*
X184830000Y-138010000D02*
X186390000Y-138010000D01*
X186070000Y-139630000D02*
X186200000Y-139500000D01*
X184862500Y-139630000D02*
X186070000Y-139630000D01*
X181840000Y-134460000D02*
X181800000Y-134500000D01*
X183135000Y-134460000D02*
X181840000Y-134460000D01*
X148312500Y-132600000D02*
X149600000Y-132600000D01*
X148112500Y-125312500D02*
X149000000Y-126200000D01*
X148112500Y-125200000D02*
X148112500Y-125312500D01*
X155125000Y-123675000D02*
X155200000Y-123600000D01*
X153350000Y-123675000D02*
X155125000Y-123675000D01*
X151690000Y-118110000D02*
X151800000Y-118000000D01*
X150406000Y-118110000D02*
X151690000Y-118110000D01*
X163475000Y-123675000D02*
X163400000Y-123600000D01*
X165350000Y-123675000D02*
X163475000Y-123675000D01*
X161850000Y-123150000D02*
X161800000Y-123200000D01*
X161850000Y-121425000D02*
X161850000Y-123150000D01*
X157000000Y-133275000D02*
X156850000Y-133425000D01*
X157000000Y-131400000D02*
X157000000Y-133275000D01*
X163175000Y-143625000D02*
X163200000Y-143600000D01*
X161825000Y-143625000D02*
X163175000Y-143625000D01*
X170305000Y-138895000D02*
X170400000Y-138800000D01*
X170305000Y-140395000D02*
X170305000Y-138895000D01*
X170400000Y-138800000D02*
X169400000Y-138800000D01*
D26*
X189950000Y-123572500D02*
X189950000Y-122750000D01*
X189950000Y-122750000D02*
X189800000Y-122600000D01*
X189199999Y-122600001D02*
X188800000Y-123000000D01*
X189800000Y-122600000D02*
X189199999Y-122600001D01*
X191550000Y-122612500D02*
X190537500Y-121600000D01*
X191550000Y-123572500D02*
X191550000Y-122612500D01*
X192350000Y-127687500D02*
X192662500Y-128000000D01*
X192350000Y-125947500D02*
X192350000Y-127687500D01*
X190537500Y-121600000D02*
X189200000Y-121600000D01*
D27*
X156850000Y-134812500D02*
X156062500Y-135600000D01*
X156850000Y-133425000D02*
X156850000Y-134812500D01*
X156062500Y-136337500D02*
X155600000Y-136800000D01*
X156062500Y-135600000D02*
X156062500Y-136337500D01*
D26*
X174266000Y-119634000D02*
X174400000Y-119500000D01*
X172466000Y-119634000D02*
X174266000Y-119634000D01*
D27*
X185000000Y-106400000D02*
X184900000Y-106300000D01*
X185000000Y-108300000D02*
X185000000Y-106400000D01*
X184830000Y-139597500D02*
X184862500Y-139630000D01*
X184830000Y-138010000D02*
X184830000Y-139597500D01*
X158410000Y-111770000D02*
X158330000Y-111850000D01*
X160530000Y-111770000D02*
X158410000Y-111770000D01*
X158470000Y-106690000D02*
X158430000Y-106650000D01*
X160530000Y-106690000D02*
X158470000Y-106690000D01*
X167990000Y-106690000D02*
X168070000Y-106610000D01*
X165610000Y-106690000D02*
X167990000Y-106690000D01*
X167640000Y-111770000D02*
X167720000Y-111850000D01*
X165610000Y-111770000D02*
X167640000Y-111770000D01*
X152400000Y-135000000D02*
X151600000Y-134200000D01*
X152662500Y-135000000D02*
X152400000Y-135000000D01*
D26*
X192662500Y-128000000D02*
X192600000Y-128000000D01*
X192600001Y-128800001D02*
X193000000Y-129200000D01*
X192600000Y-128000000D02*
X192600001Y-128800001D01*
X154275000Y-142925000D02*
X154200000Y-143000000D01*
X154275000Y-140725000D02*
X154275000Y-142925000D01*
X164825000Y-119425000D02*
X165600000Y-120200000D01*
X164825000Y-118950000D02*
X164825000Y-119425000D01*
X166150000Y-118950000D02*
X166400000Y-119200000D01*
X164825000Y-118950000D02*
X166150000Y-118950000D01*
X164850000Y-118950000D02*
X165800000Y-118000000D01*
X164825000Y-118950000D02*
X164850000Y-118950000D01*
X164825000Y-114975000D02*
X164600000Y-115200000D01*
X164825000Y-114075000D02*
X164825000Y-114975000D01*
X164875000Y-114075000D02*
X165800000Y-115000000D01*
X164825000Y-114075000D02*
X164875000Y-114075000D01*
X166325000Y-114075000D02*
X166400000Y-114000000D01*
X164825000Y-114075000D02*
X166325000Y-114075000D01*
D27*
%TO.N,+3V3*%
X190780000Y-127950000D02*
X190650000Y-127950000D01*
D26*
X180025000Y-141825000D02*
X180000000Y-141800000D01*
X181305000Y-141825000D02*
X180025000Y-141825000D01*
D27*
X186040000Y-134460000D02*
X186200000Y-134300000D01*
X184860000Y-134460000D02*
X186040000Y-134460000D01*
X185890000Y-136110000D02*
X186400000Y-135600000D01*
X184830000Y-136110000D02*
X185890000Y-136110000D01*
X185910000Y-136110000D02*
X186400000Y-136600000D01*
X184830000Y-136110000D02*
X185910000Y-136110000D01*
X155600000Y-131400000D02*
X155600000Y-133425000D01*
X160125000Y-140725000D02*
X161200000Y-141800000D01*
X159355000Y-140725000D02*
X160125000Y-140725000D01*
X159770000Y-143600000D02*
X159780000Y-143610000D01*
X158400000Y-143600000D02*
X159770000Y-143600000D01*
D26*
X191550000Y-127387500D02*
X190937500Y-128000000D01*
X191550000Y-125947500D02*
X191550000Y-127387500D01*
X192350000Y-121687500D02*
X192262500Y-121600000D01*
X192350000Y-123572500D02*
X192350000Y-121687500D01*
X192262500Y-120537500D02*
X192400000Y-120400000D01*
X192262500Y-121600000D02*
X192262500Y-120537500D01*
X192024990Y-124647510D02*
X191047510Y-124647510D01*
X192350000Y-124322500D02*
X192024990Y-124647510D01*
X192350000Y-123572500D02*
X192350000Y-124322500D01*
X190750000Y-124350000D02*
X190750000Y-123572500D01*
X191047510Y-124647510D02*
X190750000Y-124350000D01*
X190937500Y-128000000D02*
X190600000Y-128000000D01*
D27*
X154337500Y-134687500D02*
X155600000Y-133425000D01*
X154337500Y-135600000D02*
X154337500Y-134687500D01*
X154337500Y-136762500D02*
X154300000Y-136800000D01*
X154337500Y-135600000D02*
X154337500Y-136762500D01*
X182460000Y-106360000D02*
X182400000Y-106300000D01*
X182460000Y-108300000D02*
X182460000Y-106360000D01*
X184860000Y-136080000D02*
X184830000Y-136110000D01*
X184860000Y-134460000D02*
X184860000Y-136080000D01*
X152075000Y-136725000D02*
X151400000Y-137400000D01*
X152662500Y-136725000D02*
X152075000Y-136725000D01*
D26*
X170000000Y-133425000D02*
X170225000Y-133425000D01*
X170112500Y-127887500D02*
X171000000Y-127000000D01*
X170000000Y-127887500D02*
X170112500Y-127887500D01*
X190937500Y-129137500D02*
X191000000Y-129200000D01*
X190937500Y-128000000D02*
X190937500Y-129137500D01*
X170000000Y-133600000D02*
X170800000Y-134400000D01*
X170000000Y-133425000D02*
X170000000Y-133600000D01*
%TO.N,Net-(C5-Pad2)*%
X183160000Y-136110000D02*
X183520000Y-136470000D01*
X182130000Y-136110000D02*
X183160000Y-136110000D01*
X183160000Y-138010000D02*
X182130000Y-138010000D01*
X183520000Y-137650000D02*
X183160000Y-138010000D01*
X183520000Y-136470000D02*
X183520000Y-137650000D01*
D27*
X182130000Y-138622500D02*
X183137500Y-139630000D01*
X182130000Y-138010000D02*
X182130000Y-138622500D01*
X174902500Y-137360000D02*
X178640000Y-137360000D01*
X182090001Y-136149999D02*
X182130000Y-136110000D01*
X179850001Y-136149999D02*
X182090001Y-136149999D01*
X178640000Y-137360000D02*
X179850001Y-136149999D01*
%TO.N,HEARTBEAT_LED*%
X148075000Y-122900000D02*
X148075000Y-122915000D01*
D26*
X151950000Y-129925000D02*
X149800000Y-127775000D01*
X153350000Y-129925000D02*
X151950000Y-129925000D01*
X149800000Y-124625000D02*
X148075000Y-122900000D01*
X149800000Y-127775000D02*
X149800000Y-124625000D01*
%TO.N,LED_ALERT*%
X153350000Y-131175000D02*
X150175000Y-131175000D01*
X149700000Y-130700000D02*
X148265000Y-130700000D01*
X150175000Y-131175000D02*
X149700000Y-130700000D01*
D27*
%TO.N,Net-(F1-Pad1)*%
X173037500Y-137400000D02*
X173077500Y-137360000D01*
X170192500Y-137400000D02*
X173037500Y-137400000D01*
D26*
%TO.N,SWDIO*%
X158300000Y-133625000D02*
X158100000Y-133425000D01*
X158300000Y-135663590D02*
X158300000Y-133625000D01*
X156364991Y-137598599D02*
X156364991Y-138335009D01*
X158300000Y-135663590D02*
X156364991Y-137598599D01*
X156364991Y-138335009D02*
X155700000Y-139000000D01*
X155700000Y-139000000D02*
X152200000Y-139000000D01*
X151735000Y-139465000D02*
X151735000Y-140725000D01*
X152200000Y-139000000D02*
X151735000Y-139465000D01*
%TO.N,SWCLK*%
X156815000Y-137785000D02*
X156815000Y-140725000D01*
X159350000Y-135250000D02*
X156815000Y-137785000D01*
X159350000Y-133425000D02*
X159350000Y-135250000D01*
%TO.N,I2C_SCL*%
X160600000Y-132439998D02*
X161439998Y-131600000D01*
X160600000Y-133425000D02*
X160600000Y-132439998D01*
X163539998Y-131600000D02*
X164339998Y-132400000D01*
X161439998Y-131600000D02*
X163539998Y-131600000D01*
X164339998Y-132400000D02*
X166400000Y-132400000D01*
X169087500Y-129712500D02*
X170000000Y-129712500D01*
X166400000Y-132400000D02*
X169087500Y-129712500D01*
X170000000Y-129712500D02*
X171851090Y-129712500D01*
X172613600Y-128949990D02*
X188013600Y-128949990D01*
X171851090Y-129712500D02*
X172613600Y-128949990D01*
X189950000Y-127013590D02*
X189950000Y-125947500D01*
X188013600Y-128949990D02*
X189950000Y-127013590D01*
X179600000Y-108620000D02*
X179920000Y-108300000D01*
X181547500Y-125947500D02*
X179600000Y-124000000D01*
X179600000Y-124000000D02*
X179600000Y-108620000D01*
X189950000Y-125947500D02*
X181547500Y-125947500D01*
X160600000Y-136600000D02*
X160000000Y-137200000D01*
X160600000Y-133425000D02*
X160600000Y-136600000D01*
%TO.N,I2C_SDA*%
X190750000Y-126533912D02*
X190750000Y-125947500D01*
X178800000Y-109720000D02*
X177380000Y-108300000D01*
X178800000Y-124200000D02*
X178800000Y-124200000D01*
X178800000Y-124200000D02*
X178800000Y-109720000D01*
X190750000Y-126650000D02*
X190750000Y-125947500D01*
X190750000Y-126850000D02*
X190750000Y-125947500D01*
X188200000Y-129400000D02*
X190750000Y-126850000D01*
X172800000Y-129400000D02*
X188200000Y-129400000D01*
X170600000Y-131600000D02*
X172800000Y-129400000D01*
X170000000Y-131600000D02*
X170600000Y-131600000D01*
X170000000Y-131600000D02*
X170000000Y-131800000D01*
X170600000Y-132400000D02*
X171400000Y-132400000D01*
X170000000Y-131800000D02*
X170600000Y-132400000D01*
X169400000Y-131600000D02*
X170000000Y-131600000D01*
X161850000Y-134825000D02*
X162225000Y-135200000D01*
X161850000Y-133425000D02*
X161850000Y-134825000D01*
X165909992Y-132850010D02*
X166586401Y-132850009D01*
X163560002Y-135200000D02*
X165909992Y-132850010D01*
X162225000Y-135200000D02*
X163560002Y-135200000D01*
X167836410Y-131600000D02*
X169400000Y-131600000D01*
X166586401Y-132850009D02*
X167836410Y-131600000D01*
X161850000Y-136250000D02*
X162200000Y-136600000D01*
X161850000Y-133425000D02*
X161850000Y-136250000D01*
D27*
%TO.N,VDD*%
X167705000Y-138062500D02*
X168367500Y-137400000D01*
X167705000Y-140395000D02*
X167705000Y-138062500D01*
D28*
%TO.N,RF_ANTENNA*%
X163100000Y-121425000D02*
X163100000Y-118950000D01*
X163100000Y-118950000D02*
X163100000Y-117360000D01*
D26*
%TO.N,RST*%
X160600000Y-121425000D02*
X160600000Y-123900000D01*
X157200000Y-127300000D02*
X156600000Y-127300000D01*
X160600000Y-123900000D02*
X157200000Y-127300000D01*
X149195000Y-140725000D02*
X147000000Y-138530000D01*
X147000000Y-138530000D02*
X147000000Y-135700000D01*
%TO.N,UART1_TX*%
X166750000Y-128675000D02*
X169700000Y-125725000D01*
X165350000Y-128675000D02*
X166750000Y-128675000D01*
X169700000Y-125725000D02*
X169700000Y-124000000D01*
X171526000Y-122174000D02*
X172466000Y-122174000D01*
X169700000Y-124000000D02*
X171526000Y-122174000D01*
%TO.N,UART1_RX*%
X172000000Y-123600000D02*
X172466000Y-124066000D01*
X170900000Y-123600000D02*
X172000000Y-123600000D01*
X170300000Y-124200000D02*
X170900000Y-123600000D01*
X170300000Y-125960002D02*
X170300000Y-124200000D01*
X172466000Y-124066000D02*
X172466000Y-124714000D01*
X166335002Y-129925000D02*
X170300000Y-125960002D01*
X165350000Y-129925000D02*
X166335002Y-129925000D01*
%TO.N,FT*%
X152364998Y-124925000D02*
X150400000Y-122960002D01*
X153350000Y-124925000D02*
X152364998Y-124925000D01*
X150400000Y-121434000D02*
X147066000Y-118100000D01*
X150400000Y-122960002D02*
X150400000Y-121434000D01*
%TO.N,Net-(ALERT1-Pad1)*%
X146515000Y-132572500D02*
X146487500Y-132600000D01*
X146515000Y-130700000D02*
X146515000Y-132572500D01*
%TO.N,Net-(HB1-Pad1)*%
X146325000Y-125162500D02*
X146287500Y-125200000D01*
X146325000Y-122900000D02*
X146325000Y-125162500D01*
D29*
%TO.N,Net-(USB_PWR1-Pad6)*%
X168045000Y-143545000D02*
X169965000Y-143545000D01*
X171465000Y-143545000D02*
X171735000Y-143275000D01*
X169965000Y-143545000D02*
X171465000Y-143545000D01*
X171735000Y-140585000D02*
X171425000Y-140275000D01*
X171735000Y-143275000D02*
X171735000Y-140585000D01*
X166275000Y-140585000D02*
X166585000Y-140275000D01*
X166275000Y-143275000D02*
X166275000Y-140585000D01*
D27*
X167775000Y-143275000D02*
X168045000Y-143545000D01*
X166275000Y-143275000D02*
X167775000Y-143275000D01*
%TO.N,Net-(3V1-Pad1)*%
X184932500Y-141825000D02*
X184967500Y-141860000D01*
X183055000Y-141825000D02*
X184932500Y-141825000D01*
D28*
%TO.N,Net-(C8-Pad1)*%
X163100000Y-115635000D02*
X163100000Y-114075000D01*
X163100000Y-109260000D02*
X163070000Y-109230000D01*
X163100000Y-114075000D02*
X163100000Y-109260000D01*
%TD*%
D30*
%TO.N,GND*%
X192789500Y-127873000D02*
X192809500Y-127873000D01*
X192809500Y-128127000D01*
X192789500Y-128127000D01*
X192789500Y-128951250D01*
X192948250Y-129110000D01*
X193200000Y-129113072D01*
X193324482Y-129100812D01*
X193340001Y-129096104D01*
X193340001Y-144340000D01*
X172699269Y-144340000D01*
X172829495Y-144181318D01*
X172951138Y-143953740D01*
X173026045Y-143706804D01*
X173045000Y-143514350D01*
X173045000Y-143505124D01*
X173055812Y-143469482D01*
X173068072Y-143345000D01*
X173068072Y-142562898D01*
X173161680Y-142534502D01*
X173271994Y-142475537D01*
X173368685Y-142396185D01*
X173448037Y-142299494D01*
X173507002Y-142189180D01*
X173543312Y-142069482D01*
X173555572Y-141945000D01*
X173555572Y-141245000D01*
X173543312Y-141120518D01*
X173536029Y-141096510D01*
X173543072Y-141025000D01*
X173543072Y-139525000D01*
X173530812Y-139400518D01*
X173494502Y-139280820D01*
X173435537Y-139170506D01*
X173356185Y-139073815D01*
X173259494Y-138994463D01*
X173149180Y-138935498D01*
X173029482Y-138899188D01*
X172905000Y-138886928D01*
X171452017Y-138886928D01*
X171425000Y-138884267D01*
X171397983Y-138886928D01*
X170905000Y-138886928D01*
X170780518Y-138899188D01*
X170660820Y-138935498D01*
X170640075Y-138946587D01*
X170638164Y-138945978D01*
X170536750Y-138935000D01*
X170378000Y-139093750D01*
X170378000Y-139166196D01*
X170374463Y-139170506D01*
X170364265Y-139189585D01*
X170306185Y-139118815D01*
X170209494Y-139039463D01*
X170141218Y-139002968D01*
X170073250Y-138935000D01*
X169981820Y-138944897D01*
X169979482Y-138944188D01*
X169855000Y-138931928D01*
X169455000Y-138931928D01*
X169330518Y-138944188D01*
X169330000Y-138944345D01*
X169329482Y-138944188D01*
X169205000Y-138931928D01*
X168805000Y-138931928D01*
X168680518Y-138944188D01*
X168680000Y-138944345D01*
X168679482Y-138944188D01*
X168590000Y-138935375D01*
X168590000Y-138513072D01*
X168617500Y-138513072D01*
X168788316Y-138496248D01*
X168952567Y-138446423D01*
X169103942Y-138365512D01*
X169236623Y-138256623D01*
X169280000Y-138203768D01*
X169323377Y-138256623D01*
X169456058Y-138365512D01*
X169607433Y-138446423D01*
X169771684Y-138496248D01*
X169942500Y-138513072D01*
X170442500Y-138513072D01*
X170613316Y-138496248D01*
X170777567Y-138446423D01*
X170928942Y-138365512D01*
X171027046Y-138285000D01*
X172291694Y-138285000D01*
X172341058Y-138325512D01*
X172492433Y-138406423D01*
X172656684Y-138456248D01*
X172827500Y-138473072D01*
X173327500Y-138473072D01*
X173498316Y-138456248D01*
X173662567Y-138406423D01*
X173813942Y-138325512D01*
X173946623Y-138216623D01*
X173990000Y-138163768D01*
X174033377Y-138216623D01*
X174166058Y-138325512D01*
X174317433Y-138406423D01*
X174481684Y-138456248D01*
X174652500Y-138473072D01*
X175152500Y-138473072D01*
X175323316Y-138456248D01*
X175487567Y-138406423D01*
X175638942Y-138325512D01*
X175737046Y-138245000D01*
X178596531Y-138245000D01*
X178640000Y-138249281D01*
X178683469Y-138245000D01*
X178683477Y-138245000D01*
X178813490Y-138232195D01*
X178980313Y-138181589D01*
X179134059Y-138099411D01*
X179268817Y-137988817D01*
X179296534Y-137955044D01*
X180216580Y-137034999D01*
X181140424Y-137034999D01*
X181222841Y-137060000D01*
X181105820Y-137095498D01*
X180995506Y-137154463D01*
X180955859Y-137187000D01*
X180873750Y-137187000D01*
X180715000Y-137345750D01*
X180711928Y-137385000D01*
X180724188Y-137509482D01*
X180731929Y-137535000D01*
X180724188Y-137560518D01*
X180711928Y-137685000D01*
X180711928Y-138335000D01*
X180724188Y-138459482D01*
X180760498Y-138579180D01*
X180819463Y-138689494D01*
X180898815Y-138786185D01*
X180995506Y-138865537D01*
X181105820Y-138924502D01*
X181225518Y-138960812D01*
X181311889Y-138969319D01*
X181390590Y-139116559D01*
X181473468Y-139217546D01*
X181473471Y-139217549D01*
X181501184Y-139251317D01*
X181534951Y-139279029D01*
X181961928Y-139706006D01*
X181961928Y-139867500D01*
X181978752Y-140038316D01*
X182028577Y-140202567D01*
X182109488Y-140353942D01*
X182218377Y-140486623D01*
X182351058Y-140595512D01*
X182502433Y-140676423D01*
X182655758Y-140722934D01*
X182596684Y-140728752D01*
X182432433Y-140778577D01*
X182281058Y-140859488D01*
X182180000Y-140942425D01*
X182078942Y-140859488D01*
X181927567Y-140778577D01*
X181763316Y-140728752D01*
X181592500Y-140711928D01*
X181017500Y-140711928D01*
X180846684Y-140728752D01*
X180682433Y-140778577D01*
X180531058Y-140859488D01*
X180497092Y-140887363D01*
X180490256Y-140882795D01*
X180301898Y-140804774D01*
X180101939Y-140765000D01*
X179898061Y-140765000D01*
X179698102Y-140804774D01*
X179509744Y-140882795D01*
X179340226Y-140996063D01*
X179196063Y-141140226D01*
X179082795Y-141309744D01*
X179004774Y-141498102D01*
X178965000Y-141698061D01*
X178965000Y-141901939D01*
X179004774Y-142101898D01*
X179082795Y-142290256D01*
X179196063Y-142459774D01*
X179340226Y-142603937D01*
X179509744Y-142717205D01*
X179698102Y-142795226D01*
X179898061Y-142835000D01*
X180101939Y-142835000D01*
X180301898Y-142795226D01*
X180458009Y-142730562D01*
X180531058Y-142790512D01*
X180682433Y-142871423D01*
X180846684Y-142921248D01*
X181017500Y-142938072D01*
X181592500Y-142938072D01*
X181763316Y-142921248D01*
X181927567Y-142871423D01*
X182078942Y-142790512D01*
X182180000Y-142707575D01*
X182281058Y-142790512D01*
X182432433Y-142871423D01*
X182596684Y-142921248D01*
X182767500Y-142938072D01*
X183342500Y-142938072D01*
X183513316Y-142921248D01*
X183677567Y-142871423D01*
X183828942Y-142790512D01*
X183927046Y-142710000D01*
X184092942Y-142710000D01*
X184098377Y-142716623D01*
X184231058Y-142825512D01*
X184382433Y-142906423D01*
X184546684Y-142956248D01*
X184717500Y-142973072D01*
X185217500Y-142973072D01*
X185388316Y-142956248D01*
X185552567Y-142906423D01*
X185703942Y-142825512D01*
X185812783Y-142736188D01*
X185853815Y-142786185D01*
X185950506Y-142865537D01*
X186060820Y-142924502D01*
X186180518Y-142960812D01*
X186305000Y-142973072D01*
X186506750Y-142970000D01*
X186665500Y-142811250D01*
X186665500Y-141987000D01*
X186919500Y-141987000D01*
X186919500Y-142811250D01*
X187078250Y-142970000D01*
X187280000Y-142973072D01*
X187404482Y-142960812D01*
X187524180Y-142924502D01*
X187634494Y-142865537D01*
X187731185Y-142786185D01*
X187810537Y-142689494D01*
X187869502Y-142579180D01*
X187905812Y-142459482D01*
X187918072Y-142335000D01*
X187915000Y-142145750D01*
X187756250Y-141987000D01*
X186919500Y-141987000D01*
X186665500Y-141987000D01*
X186645500Y-141987000D01*
X186645500Y-141733000D01*
X186665500Y-141733000D01*
X186665500Y-140908750D01*
X186919500Y-140908750D01*
X186919500Y-141733000D01*
X187756250Y-141733000D01*
X187915000Y-141574250D01*
X187918072Y-141385000D01*
X187905812Y-141260518D01*
X187869502Y-141140820D01*
X187810537Y-141030506D01*
X187731185Y-140933815D01*
X187634494Y-140854463D01*
X187524180Y-140795498D01*
X187404482Y-140759188D01*
X187280000Y-140746928D01*
X187078250Y-140750000D01*
X186919500Y-140908750D01*
X186665500Y-140908750D01*
X186506750Y-140750000D01*
X186305000Y-140746928D01*
X186180518Y-140759188D01*
X186060820Y-140795498D01*
X185950506Y-140854463D01*
X185853815Y-140933815D01*
X185812783Y-140983812D01*
X185703942Y-140894488D01*
X185552567Y-140813577D01*
X185388316Y-140763752D01*
X185217500Y-140746928D01*
X184717500Y-140746928D01*
X184546684Y-140763752D01*
X184382433Y-140813577D01*
X184231058Y-140894488D01*
X184175602Y-140940000D01*
X183927046Y-140940000D01*
X183828942Y-140859488D01*
X183677567Y-140778577D01*
X183530369Y-140733925D01*
X183608316Y-140726248D01*
X183772567Y-140676423D01*
X183922606Y-140596226D01*
X183970506Y-140635537D01*
X184080820Y-140694502D01*
X184200518Y-140730812D01*
X184325000Y-140743072D01*
X184576750Y-140740000D01*
X184735500Y-140581250D01*
X184735500Y-139757000D01*
X184989500Y-139757000D01*
X184989500Y-140581250D01*
X185148250Y-140740000D01*
X185400000Y-140743072D01*
X185524482Y-140730812D01*
X185644180Y-140694502D01*
X185754494Y-140635537D01*
X185851185Y-140556185D01*
X185930537Y-140459494D01*
X185989502Y-140349180D01*
X186025812Y-140229482D01*
X186038072Y-140105000D01*
X186035000Y-139915750D01*
X185876250Y-139757000D01*
X184989500Y-139757000D01*
X184735500Y-139757000D01*
X184715500Y-139757000D01*
X184715500Y-139503000D01*
X184735500Y-139503000D01*
X184735500Y-138678750D01*
X184703000Y-138646250D01*
X184703000Y-138137000D01*
X184957000Y-138137000D01*
X184957000Y-138811250D01*
X184989500Y-138843750D01*
X184989500Y-139503000D01*
X185876250Y-139503000D01*
X186035000Y-139344250D01*
X186038072Y-139155000D01*
X186025812Y-139030518D01*
X185989502Y-138910820D01*
X185965052Y-138865079D01*
X186061185Y-138786185D01*
X186140537Y-138689494D01*
X186199502Y-138579180D01*
X186235812Y-138459482D01*
X186248072Y-138335000D01*
X186245000Y-138295750D01*
X186086250Y-138137000D01*
X184957000Y-138137000D01*
X184703000Y-138137000D01*
X184683000Y-138137000D01*
X184683000Y-137883000D01*
X184703000Y-137883000D01*
X184703000Y-137863000D01*
X184957000Y-137863000D01*
X184957000Y-137883000D01*
X186086250Y-137883000D01*
X186245000Y-137724250D01*
X186248072Y-137685000D01*
X186242050Y-137623859D01*
X186298061Y-137635000D01*
X186501939Y-137635000D01*
X186701898Y-137595226D01*
X186890256Y-137517205D01*
X187059774Y-137403937D01*
X187203937Y-137259774D01*
X187317205Y-137090256D01*
X187395226Y-136901898D01*
X187435000Y-136701939D01*
X187435000Y-136498061D01*
X187395226Y-136298102D01*
X187317205Y-136109744D01*
X187310694Y-136100000D01*
X187317205Y-136090256D01*
X187395226Y-135901898D01*
X187435000Y-135701939D01*
X187435000Y-135498061D01*
X187395226Y-135298102D01*
X187317205Y-135109744D01*
X187203937Y-134940226D01*
X187091875Y-134828164D01*
X187117205Y-134790256D01*
X187195226Y-134601898D01*
X187235000Y-134401939D01*
X187235000Y-134198061D01*
X187195226Y-133998102D01*
X187117205Y-133809744D01*
X187003937Y-133640226D01*
X186859774Y-133496063D01*
X186690256Y-133382795D01*
X186501898Y-133304774D01*
X186301939Y-133265000D01*
X186098061Y-133265000D01*
X185898102Y-133304774D01*
X185709744Y-133382795D01*
X185588741Y-133463646D01*
X185495067Y-133413577D01*
X185330816Y-133363752D01*
X185160000Y-133346928D01*
X184560000Y-133346928D01*
X184389184Y-133363752D01*
X184224933Y-133413577D01*
X184074894Y-133493774D01*
X184026994Y-133454463D01*
X183916680Y-133395498D01*
X183796982Y-133359188D01*
X183672500Y-133346928D01*
X183420750Y-133350000D01*
X183262000Y-133508750D01*
X183262000Y-134333000D01*
X183282000Y-134333000D01*
X183282000Y-134587000D01*
X183262000Y-134587000D01*
X183262000Y-134607000D01*
X183008000Y-134607000D01*
X183008000Y-134587000D01*
X182121250Y-134587000D01*
X181962500Y-134745750D01*
X181959428Y-134935000D01*
X181971688Y-135059482D01*
X181998214Y-135146928D01*
X181350000Y-135146928D01*
X181225518Y-135159188D01*
X181105820Y-135195498D01*
X180995506Y-135254463D01*
X180982668Y-135264999D01*
X179893470Y-135264999D01*
X179850001Y-135260718D01*
X179806532Y-135264999D01*
X179806524Y-135264999D01*
X179676511Y-135277804D01*
X179509688Y-135328410D01*
X179384683Y-135395226D01*
X179355942Y-135410588D01*
X179254954Y-135493467D01*
X179254952Y-135493469D01*
X179221184Y-135521182D01*
X179193471Y-135554950D01*
X178273422Y-136475000D01*
X175737046Y-136475000D01*
X175638942Y-136394488D01*
X175487567Y-136313577D01*
X175323316Y-136263752D01*
X175152500Y-136246928D01*
X174652500Y-136246928D01*
X174481684Y-136263752D01*
X174317433Y-136313577D01*
X174166058Y-136394488D01*
X174033377Y-136503377D01*
X173990000Y-136556232D01*
X173946623Y-136503377D01*
X173813942Y-136394488D01*
X173662567Y-136313577D01*
X173498316Y-136263752D01*
X173327500Y-136246928D01*
X172827500Y-136246928D01*
X172656684Y-136263752D01*
X172492433Y-136313577D01*
X172341058Y-136394488D01*
X172208377Y-136503377D01*
X172198838Y-136515000D01*
X171027046Y-136515000D01*
X170928942Y-136434488D01*
X170777567Y-136353577D01*
X170613316Y-136303752D01*
X170442500Y-136286928D01*
X169942500Y-136286928D01*
X169771684Y-136303752D01*
X169607433Y-136353577D01*
X169456058Y-136434488D01*
X169323377Y-136543377D01*
X169280000Y-136596232D01*
X169236623Y-136543377D01*
X169103942Y-136434488D01*
X168952567Y-136353577D01*
X168788316Y-136303752D01*
X168617500Y-136286928D01*
X168117500Y-136286928D01*
X167946684Y-136303752D01*
X167782433Y-136353577D01*
X167631058Y-136434488D01*
X167498377Y-136543377D01*
X167389488Y-136676058D01*
X167308577Y-136827433D01*
X167258752Y-136991684D01*
X167241928Y-137162500D01*
X167241928Y-137273994D01*
X167109951Y-137405971D01*
X167076184Y-137433683D01*
X167048471Y-137467451D01*
X167048468Y-137467454D01*
X166965590Y-137568441D01*
X166883412Y-137722187D01*
X166832805Y-137889010D01*
X166815719Y-138062500D01*
X166820001Y-138105979D01*
X166820001Y-138906928D01*
X166815076Y-138906928D01*
X166585000Y-138884267D01*
X166354924Y-138906928D01*
X165155000Y-138906928D01*
X165030518Y-138919188D01*
X164910820Y-138955498D01*
X164800506Y-139014463D01*
X164703815Y-139093815D01*
X164624463Y-139190506D01*
X164565498Y-139300820D01*
X164529188Y-139420518D01*
X164516928Y-139545000D01*
X164516928Y-141045000D01*
X164522484Y-141101412D01*
X164516688Y-141120518D01*
X164504428Y-141245000D01*
X164504428Y-141945000D01*
X164516688Y-142069482D01*
X164552998Y-142189180D01*
X164611963Y-142299494D01*
X164691315Y-142396185D01*
X164788006Y-142475537D01*
X164898320Y-142534502D01*
X164961928Y-142553797D01*
X164961928Y-143345000D01*
X164965000Y-143376192D01*
X164965000Y-143514351D01*
X164983955Y-143706805D01*
X165058862Y-143953741D01*
X165180505Y-144181318D01*
X165310732Y-144340000D01*
X162697030Y-144340000D01*
X162720819Y-144316211D01*
X162603169Y-144198561D01*
X162816588Y-144163450D01*
X162907458Y-143959174D01*
X162956731Y-143741095D01*
X162962511Y-143517594D01*
X162924577Y-143297260D01*
X162844387Y-143088560D01*
X162816588Y-143036550D01*
X162603166Y-143001439D01*
X162004605Y-143600000D01*
X162018748Y-143614143D01*
X161839143Y-143793748D01*
X161825000Y-143779605D01*
X161810858Y-143793748D01*
X161631253Y-143614143D01*
X161645395Y-143600000D01*
X161631253Y-143585858D01*
X161810858Y-143406253D01*
X161825000Y-143420395D01*
X162423561Y-142821834D01*
X162388450Y-142608412D01*
X162184174Y-142517542D01*
X161990033Y-142473678D01*
X162003937Y-142459774D01*
X162117205Y-142290256D01*
X162195226Y-142101898D01*
X162235000Y-141901939D01*
X162235000Y-141698061D01*
X162195226Y-141498102D01*
X162117205Y-141309744D01*
X162003937Y-141140226D01*
X161859774Y-140996063D01*
X161690256Y-140882795D01*
X161501898Y-140804774D01*
X161445044Y-140793465D01*
X160843072Y-140191494D01*
X160843072Y-139875000D01*
X160830812Y-139750518D01*
X160794502Y-139630820D01*
X160735537Y-139520506D01*
X160656185Y-139423815D01*
X160559494Y-139344463D01*
X160449180Y-139285498D01*
X160329482Y-139249188D01*
X160205000Y-139236928D01*
X158505000Y-139236928D01*
X158380518Y-139249188D01*
X158260820Y-139285498D01*
X158150506Y-139344463D01*
X158053815Y-139423815D01*
X157974463Y-139520506D01*
X157915498Y-139630820D01*
X157893487Y-139703380D01*
X157761632Y-139571525D01*
X157575000Y-139446822D01*
X157575000Y-138099801D01*
X158981271Y-136693531D01*
X158908617Y-136868933D01*
X158865000Y-137088212D01*
X158865000Y-137311788D01*
X158908617Y-137531067D01*
X158994176Y-137737624D01*
X159118388Y-137923520D01*
X159276480Y-138081612D01*
X159462376Y-138205824D01*
X159668933Y-138291383D01*
X159888212Y-138335000D01*
X160111788Y-138335000D01*
X160331067Y-138291383D01*
X160537624Y-138205824D01*
X160723520Y-138081612D01*
X160881612Y-137923520D01*
X161005824Y-137737624D01*
X161091383Y-137531067D01*
X161135000Y-137311788D01*
X161135000Y-137144105D01*
X161140001Y-137140001D01*
X161176659Y-137095334D01*
X161194176Y-137137624D01*
X161318388Y-137323520D01*
X161476480Y-137481612D01*
X161662376Y-137605824D01*
X161868933Y-137691383D01*
X162088212Y-137735000D01*
X162311788Y-137735000D01*
X162531067Y-137691383D01*
X162737624Y-137605824D01*
X162923520Y-137481612D01*
X163081612Y-137323520D01*
X163205824Y-137137624D01*
X163291383Y-136931067D01*
X163335000Y-136711788D01*
X163335000Y-136488212D01*
X163291383Y-136268933D01*
X163205824Y-136062376D01*
X163137418Y-135960000D01*
X163522680Y-135960000D01*
X163560002Y-135963676D01*
X163597324Y-135960000D01*
X163597335Y-135960000D01*
X163708988Y-135949003D01*
X163852249Y-135905546D01*
X163984278Y-135834974D01*
X164100003Y-135740001D01*
X164123806Y-135710997D01*
X166224795Y-133610009D01*
X166549070Y-133610008D01*
X166586401Y-133613685D01*
X166623734Y-133610008D01*
X166623735Y-133610008D01*
X166735388Y-133599011D01*
X166828659Y-133570718D01*
X166878647Y-133555555D01*
X167010677Y-133484983D01*
X167097403Y-133413808D01*
X167097404Y-133413807D01*
X167126402Y-133390009D01*
X167150200Y-133361011D01*
X168151212Y-132360000D01*
X169053822Y-132360000D01*
X169143377Y-132469123D01*
X169196232Y-132512500D01*
X169143377Y-132555877D01*
X169034488Y-132688558D01*
X168953577Y-132839933D01*
X168903752Y-133004184D01*
X168886928Y-133175000D01*
X168886928Y-133675000D01*
X168903752Y-133845816D01*
X168953577Y-134010067D01*
X169034488Y-134161442D01*
X169143377Y-134294123D01*
X169276058Y-134403012D01*
X169427433Y-134483923D01*
X169591684Y-134533748D01*
X169762500Y-134550572D01*
X169774674Y-134550572D01*
X169804774Y-134701898D01*
X169882795Y-134890256D01*
X169996063Y-135059774D01*
X170140226Y-135203937D01*
X170309744Y-135317205D01*
X170498102Y-135395226D01*
X170698061Y-135435000D01*
X170901939Y-135435000D01*
X171101898Y-135395226D01*
X171290256Y-135317205D01*
X171459774Y-135203937D01*
X171603937Y-135059774D01*
X171717205Y-134890256D01*
X171795226Y-134701898D01*
X171835000Y-134501939D01*
X171835000Y-134298061D01*
X171795226Y-134098102D01*
X171748378Y-133985000D01*
X181959428Y-133985000D01*
X181962500Y-134174250D01*
X182121250Y-134333000D01*
X183008000Y-134333000D01*
X183008000Y-133508750D01*
X182849250Y-133350000D01*
X182597500Y-133346928D01*
X182473018Y-133359188D01*
X182353320Y-133395498D01*
X182243006Y-133454463D01*
X182146315Y-133533815D01*
X182066963Y-133630506D01*
X182007998Y-133740820D01*
X181971688Y-133860518D01*
X181959428Y-133985000D01*
X171748378Y-133985000D01*
X171717205Y-133909744D01*
X171603937Y-133740226D01*
X171459774Y-133596063D01*
X171290256Y-133482795D01*
X171113072Y-133409402D01*
X171113072Y-133398204D01*
X171298061Y-133435000D01*
X171501939Y-133435000D01*
X171701898Y-133395226D01*
X171890256Y-133317205D01*
X172059774Y-133203937D01*
X172203937Y-133059774D01*
X172317205Y-132890256D01*
X172395226Y-132701898D01*
X172435000Y-132501939D01*
X172435000Y-132298061D01*
X172395226Y-132098102D01*
X172317205Y-131909744D01*
X172203937Y-131740226D01*
X172059774Y-131596063D01*
X171890256Y-131482795D01*
X171820783Y-131454018D01*
X173114802Y-130160000D01*
X188162678Y-130160000D01*
X188200000Y-130163676D01*
X188237322Y-130160000D01*
X188237333Y-130160000D01*
X188348986Y-130149003D01*
X188492247Y-130105546D01*
X188624276Y-130034974D01*
X188740001Y-129940001D01*
X188763804Y-129910997D01*
X189928136Y-128746665D01*
X190018377Y-128856623D01*
X190021047Y-128858815D01*
X190004774Y-128898102D01*
X189965000Y-129098061D01*
X189965000Y-129301939D01*
X190004774Y-129501898D01*
X190082795Y-129690256D01*
X190196063Y-129859774D01*
X190340226Y-130003937D01*
X190509744Y-130117205D01*
X190698102Y-130195226D01*
X190898061Y-130235000D01*
X191101939Y-130235000D01*
X191301898Y-130195226D01*
X191490256Y-130117205D01*
X191659774Y-130003937D01*
X191803937Y-129859774D01*
X191917205Y-129690256D01*
X191995226Y-129501898D01*
X192035000Y-129301939D01*
X192035000Y-129104208D01*
X192125000Y-129113072D01*
X192376750Y-129110000D01*
X192535500Y-128951250D01*
X192535500Y-128127000D01*
X192515500Y-128127000D01*
X192515500Y-127873000D01*
X192535500Y-127873000D01*
X192535500Y-127853000D01*
X192789500Y-127853000D01*
X192789500Y-127873000D01*
%TA.AperFunction,Conductor*%
D31*
G36*
X192789500Y-127873000D02*
G01*
X192809500Y-127873000D01*
X192809500Y-128127000D01*
X192789500Y-128127000D01*
X192789500Y-128951250D01*
X192948250Y-129110000D01*
X193200000Y-129113072D01*
X193324482Y-129100812D01*
X193340001Y-129096104D01*
X193340001Y-144340000D01*
X172699269Y-144340000D01*
X172829495Y-144181318D01*
X172951138Y-143953740D01*
X173026045Y-143706804D01*
X173045000Y-143514350D01*
X173045000Y-143505124D01*
X173055812Y-143469482D01*
X173068072Y-143345000D01*
X173068072Y-142562898D01*
X173161680Y-142534502D01*
X173271994Y-142475537D01*
X173368685Y-142396185D01*
X173448037Y-142299494D01*
X173507002Y-142189180D01*
X173543312Y-142069482D01*
X173555572Y-141945000D01*
X173555572Y-141245000D01*
X173543312Y-141120518D01*
X173536029Y-141096510D01*
X173543072Y-141025000D01*
X173543072Y-139525000D01*
X173530812Y-139400518D01*
X173494502Y-139280820D01*
X173435537Y-139170506D01*
X173356185Y-139073815D01*
X173259494Y-138994463D01*
X173149180Y-138935498D01*
X173029482Y-138899188D01*
X172905000Y-138886928D01*
X171452017Y-138886928D01*
X171425000Y-138884267D01*
X171397983Y-138886928D01*
X170905000Y-138886928D01*
X170780518Y-138899188D01*
X170660820Y-138935498D01*
X170640075Y-138946587D01*
X170638164Y-138945978D01*
X170536750Y-138935000D01*
X170378000Y-139093750D01*
X170378000Y-139166196D01*
X170374463Y-139170506D01*
X170364265Y-139189585D01*
X170306185Y-139118815D01*
X170209494Y-139039463D01*
X170141218Y-139002968D01*
X170073250Y-138935000D01*
X169981820Y-138944897D01*
X169979482Y-138944188D01*
X169855000Y-138931928D01*
X169455000Y-138931928D01*
X169330518Y-138944188D01*
X169330000Y-138944345D01*
X169329482Y-138944188D01*
X169205000Y-138931928D01*
X168805000Y-138931928D01*
X168680518Y-138944188D01*
X168680000Y-138944345D01*
X168679482Y-138944188D01*
X168590000Y-138935375D01*
X168590000Y-138513072D01*
X168617500Y-138513072D01*
X168788316Y-138496248D01*
X168952567Y-138446423D01*
X169103942Y-138365512D01*
X169236623Y-138256623D01*
X169280000Y-138203768D01*
X169323377Y-138256623D01*
X169456058Y-138365512D01*
X169607433Y-138446423D01*
X169771684Y-138496248D01*
X169942500Y-138513072D01*
X170442500Y-138513072D01*
X170613316Y-138496248D01*
X170777567Y-138446423D01*
X170928942Y-138365512D01*
X171027046Y-138285000D01*
X172291694Y-138285000D01*
X172341058Y-138325512D01*
X172492433Y-138406423D01*
X172656684Y-138456248D01*
X172827500Y-138473072D01*
X173327500Y-138473072D01*
X173498316Y-138456248D01*
X173662567Y-138406423D01*
X173813942Y-138325512D01*
X173946623Y-138216623D01*
X173990000Y-138163768D01*
X174033377Y-138216623D01*
X174166058Y-138325512D01*
X174317433Y-138406423D01*
X174481684Y-138456248D01*
X174652500Y-138473072D01*
X175152500Y-138473072D01*
X175323316Y-138456248D01*
X175487567Y-138406423D01*
X175638942Y-138325512D01*
X175737046Y-138245000D01*
X178596531Y-138245000D01*
X178640000Y-138249281D01*
X178683469Y-138245000D01*
X178683477Y-138245000D01*
X178813490Y-138232195D01*
X178980313Y-138181589D01*
X179134059Y-138099411D01*
X179268817Y-137988817D01*
X179296534Y-137955044D01*
X180216580Y-137034999D01*
X181140424Y-137034999D01*
X181222841Y-137060000D01*
X181105820Y-137095498D01*
X180995506Y-137154463D01*
X180955859Y-137187000D01*
X180873750Y-137187000D01*
X180715000Y-137345750D01*
X180711928Y-137385000D01*
X180724188Y-137509482D01*
X180731929Y-137535000D01*
X180724188Y-137560518D01*
X180711928Y-137685000D01*
X180711928Y-138335000D01*
X180724188Y-138459482D01*
X180760498Y-138579180D01*
X180819463Y-138689494D01*
X180898815Y-138786185D01*
X180995506Y-138865537D01*
X181105820Y-138924502D01*
X181225518Y-138960812D01*
X181311889Y-138969319D01*
X181390590Y-139116559D01*
X181473468Y-139217546D01*
X181473471Y-139217549D01*
X181501184Y-139251317D01*
X181534951Y-139279029D01*
X181961928Y-139706006D01*
X181961928Y-139867500D01*
X181978752Y-140038316D01*
X182028577Y-140202567D01*
X182109488Y-140353942D01*
X182218377Y-140486623D01*
X182351058Y-140595512D01*
X182502433Y-140676423D01*
X182655758Y-140722934D01*
X182596684Y-140728752D01*
X182432433Y-140778577D01*
X182281058Y-140859488D01*
X182180000Y-140942425D01*
X182078942Y-140859488D01*
X181927567Y-140778577D01*
X181763316Y-140728752D01*
X181592500Y-140711928D01*
X181017500Y-140711928D01*
X180846684Y-140728752D01*
X180682433Y-140778577D01*
X180531058Y-140859488D01*
X180497092Y-140887363D01*
X180490256Y-140882795D01*
X180301898Y-140804774D01*
X180101939Y-140765000D01*
X179898061Y-140765000D01*
X179698102Y-140804774D01*
X179509744Y-140882795D01*
X179340226Y-140996063D01*
X179196063Y-141140226D01*
X179082795Y-141309744D01*
X179004774Y-141498102D01*
X178965000Y-141698061D01*
X178965000Y-141901939D01*
X179004774Y-142101898D01*
X179082795Y-142290256D01*
X179196063Y-142459774D01*
X179340226Y-142603937D01*
X179509744Y-142717205D01*
X179698102Y-142795226D01*
X179898061Y-142835000D01*
X180101939Y-142835000D01*
X180301898Y-142795226D01*
X180458009Y-142730562D01*
X180531058Y-142790512D01*
X180682433Y-142871423D01*
X180846684Y-142921248D01*
X181017500Y-142938072D01*
X181592500Y-142938072D01*
X181763316Y-142921248D01*
X181927567Y-142871423D01*
X182078942Y-142790512D01*
X182180000Y-142707575D01*
X182281058Y-142790512D01*
X182432433Y-142871423D01*
X182596684Y-142921248D01*
X182767500Y-142938072D01*
X183342500Y-142938072D01*
X183513316Y-142921248D01*
X183677567Y-142871423D01*
X183828942Y-142790512D01*
X183927046Y-142710000D01*
X184092942Y-142710000D01*
X184098377Y-142716623D01*
X184231058Y-142825512D01*
X184382433Y-142906423D01*
X184546684Y-142956248D01*
X184717500Y-142973072D01*
X185217500Y-142973072D01*
X185388316Y-142956248D01*
X185552567Y-142906423D01*
X185703942Y-142825512D01*
X185812783Y-142736188D01*
X185853815Y-142786185D01*
X185950506Y-142865537D01*
X186060820Y-142924502D01*
X186180518Y-142960812D01*
X186305000Y-142973072D01*
X186506750Y-142970000D01*
X186665500Y-142811250D01*
X186665500Y-141987000D01*
X186919500Y-141987000D01*
X186919500Y-142811250D01*
X187078250Y-142970000D01*
X187280000Y-142973072D01*
X187404482Y-142960812D01*
X187524180Y-142924502D01*
X187634494Y-142865537D01*
X187731185Y-142786185D01*
X187810537Y-142689494D01*
X187869502Y-142579180D01*
X187905812Y-142459482D01*
X187918072Y-142335000D01*
X187915000Y-142145750D01*
X187756250Y-141987000D01*
X186919500Y-141987000D01*
X186665500Y-141987000D01*
X186645500Y-141987000D01*
X186645500Y-141733000D01*
X186665500Y-141733000D01*
X186665500Y-140908750D01*
X186919500Y-140908750D01*
X186919500Y-141733000D01*
X187756250Y-141733000D01*
X187915000Y-141574250D01*
X187918072Y-141385000D01*
X187905812Y-141260518D01*
X187869502Y-141140820D01*
X187810537Y-141030506D01*
X187731185Y-140933815D01*
X187634494Y-140854463D01*
X187524180Y-140795498D01*
X187404482Y-140759188D01*
X187280000Y-140746928D01*
X187078250Y-140750000D01*
X186919500Y-140908750D01*
X186665500Y-140908750D01*
X186506750Y-140750000D01*
X186305000Y-140746928D01*
X186180518Y-140759188D01*
X186060820Y-140795498D01*
X185950506Y-140854463D01*
X185853815Y-140933815D01*
X185812783Y-140983812D01*
X185703942Y-140894488D01*
X185552567Y-140813577D01*
X185388316Y-140763752D01*
X185217500Y-140746928D01*
X184717500Y-140746928D01*
X184546684Y-140763752D01*
X184382433Y-140813577D01*
X184231058Y-140894488D01*
X184175602Y-140940000D01*
X183927046Y-140940000D01*
X183828942Y-140859488D01*
X183677567Y-140778577D01*
X183530369Y-140733925D01*
X183608316Y-140726248D01*
X183772567Y-140676423D01*
X183922606Y-140596226D01*
X183970506Y-140635537D01*
X184080820Y-140694502D01*
X184200518Y-140730812D01*
X184325000Y-140743072D01*
X184576750Y-140740000D01*
X184735500Y-140581250D01*
X184735500Y-139757000D01*
X184989500Y-139757000D01*
X184989500Y-140581250D01*
X185148250Y-140740000D01*
X185400000Y-140743072D01*
X185524482Y-140730812D01*
X185644180Y-140694502D01*
X185754494Y-140635537D01*
X185851185Y-140556185D01*
X185930537Y-140459494D01*
X185989502Y-140349180D01*
X186025812Y-140229482D01*
X186038072Y-140105000D01*
X186035000Y-139915750D01*
X185876250Y-139757000D01*
X184989500Y-139757000D01*
X184735500Y-139757000D01*
X184715500Y-139757000D01*
X184715500Y-139503000D01*
X184735500Y-139503000D01*
X184735500Y-138678750D01*
X184703000Y-138646250D01*
X184703000Y-138137000D01*
X184957000Y-138137000D01*
X184957000Y-138811250D01*
X184989500Y-138843750D01*
X184989500Y-139503000D01*
X185876250Y-139503000D01*
X186035000Y-139344250D01*
X186038072Y-139155000D01*
X186025812Y-139030518D01*
X185989502Y-138910820D01*
X185965052Y-138865079D01*
X186061185Y-138786185D01*
X186140537Y-138689494D01*
X186199502Y-138579180D01*
X186235812Y-138459482D01*
X186248072Y-138335000D01*
X186245000Y-138295750D01*
X186086250Y-138137000D01*
X184957000Y-138137000D01*
X184703000Y-138137000D01*
X184683000Y-138137000D01*
X184683000Y-137883000D01*
X184703000Y-137883000D01*
X184703000Y-137863000D01*
X184957000Y-137863000D01*
X184957000Y-137883000D01*
X186086250Y-137883000D01*
X186245000Y-137724250D01*
X186248072Y-137685000D01*
X186242050Y-137623859D01*
X186298061Y-137635000D01*
X186501939Y-137635000D01*
X186701898Y-137595226D01*
X186890256Y-137517205D01*
X187059774Y-137403937D01*
X187203937Y-137259774D01*
X187317205Y-137090256D01*
X187395226Y-136901898D01*
X187435000Y-136701939D01*
X187435000Y-136498061D01*
X187395226Y-136298102D01*
X187317205Y-136109744D01*
X187310694Y-136100000D01*
X187317205Y-136090256D01*
X187395226Y-135901898D01*
X187435000Y-135701939D01*
X187435000Y-135498061D01*
X187395226Y-135298102D01*
X187317205Y-135109744D01*
X187203937Y-134940226D01*
X187091875Y-134828164D01*
X187117205Y-134790256D01*
X187195226Y-134601898D01*
X187235000Y-134401939D01*
X187235000Y-134198061D01*
X187195226Y-133998102D01*
X187117205Y-133809744D01*
X187003937Y-133640226D01*
X186859774Y-133496063D01*
X186690256Y-133382795D01*
X186501898Y-133304774D01*
X186301939Y-133265000D01*
X186098061Y-133265000D01*
X185898102Y-133304774D01*
X185709744Y-133382795D01*
X185588741Y-133463646D01*
X185495067Y-133413577D01*
X185330816Y-133363752D01*
X185160000Y-133346928D01*
X184560000Y-133346928D01*
X184389184Y-133363752D01*
X184224933Y-133413577D01*
X184074894Y-133493774D01*
X184026994Y-133454463D01*
X183916680Y-133395498D01*
X183796982Y-133359188D01*
X183672500Y-133346928D01*
X183420750Y-133350000D01*
X183262000Y-133508750D01*
X183262000Y-134333000D01*
X183282000Y-134333000D01*
X183282000Y-134587000D01*
X183262000Y-134587000D01*
X183262000Y-134607000D01*
X183008000Y-134607000D01*
X183008000Y-134587000D01*
X182121250Y-134587000D01*
X181962500Y-134745750D01*
X181959428Y-134935000D01*
X181971688Y-135059482D01*
X181998214Y-135146928D01*
X181350000Y-135146928D01*
X181225518Y-135159188D01*
X181105820Y-135195498D01*
X180995506Y-135254463D01*
X180982668Y-135264999D01*
X179893470Y-135264999D01*
X179850001Y-135260718D01*
X179806532Y-135264999D01*
X179806524Y-135264999D01*
X179676511Y-135277804D01*
X179509688Y-135328410D01*
X179384683Y-135395226D01*
X179355942Y-135410588D01*
X179254954Y-135493467D01*
X179254952Y-135493469D01*
X179221184Y-135521182D01*
X179193471Y-135554950D01*
X178273422Y-136475000D01*
X175737046Y-136475000D01*
X175638942Y-136394488D01*
X175487567Y-136313577D01*
X175323316Y-136263752D01*
X175152500Y-136246928D01*
X174652500Y-136246928D01*
X174481684Y-136263752D01*
X174317433Y-136313577D01*
X174166058Y-136394488D01*
X174033377Y-136503377D01*
X173990000Y-136556232D01*
X173946623Y-136503377D01*
X173813942Y-136394488D01*
X173662567Y-136313577D01*
X173498316Y-136263752D01*
X173327500Y-136246928D01*
X172827500Y-136246928D01*
X172656684Y-136263752D01*
X172492433Y-136313577D01*
X172341058Y-136394488D01*
X172208377Y-136503377D01*
X172198838Y-136515000D01*
X171027046Y-136515000D01*
X170928942Y-136434488D01*
X170777567Y-136353577D01*
X170613316Y-136303752D01*
X170442500Y-136286928D01*
X169942500Y-136286928D01*
X169771684Y-136303752D01*
X169607433Y-136353577D01*
X169456058Y-136434488D01*
X169323377Y-136543377D01*
X169280000Y-136596232D01*
X169236623Y-136543377D01*
X169103942Y-136434488D01*
X168952567Y-136353577D01*
X168788316Y-136303752D01*
X168617500Y-136286928D01*
X168117500Y-136286928D01*
X167946684Y-136303752D01*
X167782433Y-136353577D01*
X167631058Y-136434488D01*
X167498377Y-136543377D01*
X167389488Y-136676058D01*
X167308577Y-136827433D01*
X167258752Y-136991684D01*
X167241928Y-137162500D01*
X167241928Y-137273994D01*
X167109951Y-137405971D01*
X167076184Y-137433683D01*
X167048471Y-137467451D01*
X167048468Y-137467454D01*
X166965590Y-137568441D01*
X166883412Y-137722187D01*
X166832805Y-137889010D01*
X166815719Y-138062500D01*
X166820001Y-138105979D01*
X166820001Y-138906928D01*
X166815076Y-138906928D01*
X166585000Y-138884267D01*
X166354924Y-138906928D01*
X165155000Y-138906928D01*
X165030518Y-138919188D01*
X164910820Y-138955498D01*
X164800506Y-139014463D01*
X164703815Y-139093815D01*
X164624463Y-139190506D01*
X164565498Y-139300820D01*
X164529188Y-139420518D01*
X164516928Y-139545000D01*
X164516928Y-141045000D01*
X164522484Y-141101412D01*
X164516688Y-141120518D01*
X164504428Y-141245000D01*
X164504428Y-141945000D01*
X164516688Y-142069482D01*
X164552998Y-142189180D01*
X164611963Y-142299494D01*
X164691315Y-142396185D01*
X164788006Y-142475537D01*
X164898320Y-142534502D01*
X164961928Y-142553797D01*
X164961928Y-143345000D01*
X164965000Y-143376192D01*
X164965000Y-143514351D01*
X164983955Y-143706805D01*
X165058862Y-143953741D01*
X165180505Y-144181318D01*
X165310732Y-144340000D01*
X162697030Y-144340000D01*
X162720819Y-144316211D01*
X162603169Y-144198561D01*
X162816588Y-144163450D01*
X162907458Y-143959174D01*
X162956731Y-143741095D01*
X162962511Y-143517594D01*
X162924577Y-143297260D01*
X162844387Y-143088560D01*
X162816588Y-143036550D01*
X162603166Y-143001439D01*
X162004605Y-143600000D01*
X162018748Y-143614143D01*
X161839143Y-143793748D01*
X161825000Y-143779605D01*
X161810858Y-143793748D01*
X161631253Y-143614143D01*
X161645395Y-143600000D01*
X161631253Y-143585858D01*
X161810858Y-143406253D01*
X161825000Y-143420395D01*
X162423561Y-142821834D01*
X162388450Y-142608412D01*
X162184174Y-142517542D01*
X161990033Y-142473678D01*
X162003937Y-142459774D01*
X162117205Y-142290256D01*
X162195226Y-142101898D01*
X162235000Y-141901939D01*
X162235000Y-141698061D01*
X162195226Y-141498102D01*
X162117205Y-141309744D01*
X162003937Y-141140226D01*
X161859774Y-140996063D01*
X161690256Y-140882795D01*
X161501898Y-140804774D01*
X161445044Y-140793465D01*
X160843072Y-140191494D01*
X160843072Y-139875000D01*
X160830812Y-139750518D01*
X160794502Y-139630820D01*
X160735537Y-139520506D01*
X160656185Y-139423815D01*
X160559494Y-139344463D01*
X160449180Y-139285498D01*
X160329482Y-139249188D01*
X160205000Y-139236928D01*
X158505000Y-139236928D01*
X158380518Y-139249188D01*
X158260820Y-139285498D01*
X158150506Y-139344463D01*
X158053815Y-139423815D01*
X157974463Y-139520506D01*
X157915498Y-139630820D01*
X157893487Y-139703380D01*
X157761632Y-139571525D01*
X157575000Y-139446822D01*
X157575000Y-138099801D01*
X158981271Y-136693531D01*
X158908617Y-136868933D01*
X158865000Y-137088212D01*
X158865000Y-137311788D01*
X158908617Y-137531067D01*
X158994176Y-137737624D01*
X159118388Y-137923520D01*
X159276480Y-138081612D01*
X159462376Y-138205824D01*
X159668933Y-138291383D01*
X159888212Y-138335000D01*
X160111788Y-138335000D01*
X160331067Y-138291383D01*
X160537624Y-138205824D01*
X160723520Y-138081612D01*
X160881612Y-137923520D01*
X161005824Y-137737624D01*
X161091383Y-137531067D01*
X161135000Y-137311788D01*
X161135000Y-137144105D01*
X161140001Y-137140001D01*
X161176659Y-137095334D01*
X161194176Y-137137624D01*
X161318388Y-137323520D01*
X161476480Y-137481612D01*
X161662376Y-137605824D01*
X161868933Y-137691383D01*
X162088212Y-137735000D01*
X162311788Y-137735000D01*
X162531067Y-137691383D01*
X162737624Y-137605824D01*
X162923520Y-137481612D01*
X163081612Y-137323520D01*
X163205824Y-137137624D01*
X163291383Y-136931067D01*
X163335000Y-136711788D01*
X163335000Y-136488212D01*
X163291383Y-136268933D01*
X163205824Y-136062376D01*
X163137418Y-135960000D01*
X163522680Y-135960000D01*
X163560002Y-135963676D01*
X163597324Y-135960000D01*
X163597335Y-135960000D01*
X163708988Y-135949003D01*
X163852249Y-135905546D01*
X163984278Y-135834974D01*
X164100003Y-135740001D01*
X164123806Y-135710997D01*
X166224795Y-133610009D01*
X166549070Y-133610008D01*
X166586401Y-133613685D01*
X166623734Y-133610008D01*
X166623735Y-133610008D01*
X166735388Y-133599011D01*
X166828659Y-133570718D01*
X166878647Y-133555555D01*
X167010677Y-133484983D01*
X167097403Y-133413808D01*
X167097404Y-133413807D01*
X167126402Y-133390009D01*
X167150200Y-133361011D01*
X168151212Y-132360000D01*
X169053822Y-132360000D01*
X169143377Y-132469123D01*
X169196232Y-132512500D01*
X169143377Y-132555877D01*
X169034488Y-132688558D01*
X168953577Y-132839933D01*
X168903752Y-133004184D01*
X168886928Y-133175000D01*
X168886928Y-133675000D01*
X168903752Y-133845816D01*
X168953577Y-134010067D01*
X169034488Y-134161442D01*
X169143377Y-134294123D01*
X169276058Y-134403012D01*
X169427433Y-134483923D01*
X169591684Y-134533748D01*
X169762500Y-134550572D01*
X169774674Y-134550572D01*
X169804774Y-134701898D01*
X169882795Y-134890256D01*
X169996063Y-135059774D01*
X170140226Y-135203937D01*
X170309744Y-135317205D01*
X170498102Y-135395226D01*
X170698061Y-135435000D01*
X170901939Y-135435000D01*
X171101898Y-135395226D01*
X171290256Y-135317205D01*
X171459774Y-135203937D01*
X171603937Y-135059774D01*
X171717205Y-134890256D01*
X171795226Y-134701898D01*
X171835000Y-134501939D01*
X171835000Y-134298061D01*
X171795226Y-134098102D01*
X171748378Y-133985000D01*
X181959428Y-133985000D01*
X181962500Y-134174250D01*
X182121250Y-134333000D01*
X183008000Y-134333000D01*
X183008000Y-133508750D01*
X182849250Y-133350000D01*
X182597500Y-133346928D01*
X182473018Y-133359188D01*
X182353320Y-133395498D01*
X182243006Y-133454463D01*
X182146315Y-133533815D01*
X182066963Y-133630506D01*
X182007998Y-133740820D01*
X181971688Y-133860518D01*
X181959428Y-133985000D01*
X171748378Y-133985000D01*
X171717205Y-133909744D01*
X171603937Y-133740226D01*
X171459774Y-133596063D01*
X171290256Y-133482795D01*
X171113072Y-133409402D01*
X171113072Y-133398204D01*
X171298061Y-133435000D01*
X171501939Y-133435000D01*
X171701898Y-133395226D01*
X171890256Y-133317205D01*
X172059774Y-133203937D01*
X172203937Y-133059774D01*
X172317205Y-132890256D01*
X172395226Y-132701898D01*
X172435000Y-132501939D01*
X172435000Y-132298061D01*
X172395226Y-132098102D01*
X172317205Y-131909744D01*
X172203937Y-131740226D01*
X172059774Y-131596063D01*
X171890256Y-131482795D01*
X171820783Y-131454018D01*
X173114802Y-130160000D01*
X188162678Y-130160000D01*
X188200000Y-130163676D01*
X188237322Y-130160000D01*
X188237333Y-130160000D01*
X188348986Y-130149003D01*
X188492247Y-130105546D01*
X188624276Y-130034974D01*
X188740001Y-129940001D01*
X188763804Y-129910997D01*
X189928136Y-128746665D01*
X190018377Y-128856623D01*
X190021047Y-128858815D01*
X190004774Y-128898102D01*
X189965000Y-129098061D01*
X189965000Y-129301939D01*
X190004774Y-129501898D01*
X190082795Y-129690256D01*
X190196063Y-129859774D01*
X190340226Y-130003937D01*
X190509744Y-130117205D01*
X190698102Y-130195226D01*
X190898061Y-130235000D01*
X191101939Y-130235000D01*
X191301898Y-130195226D01*
X191490256Y-130117205D01*
X191659774Y-130003937D01*
X191803937Y-129859774D01*
X191917205Y-129690256D01*
X191995226Y-129501898D01*
X192035000Y-129301939D01*
X192035000Y-129104208D01*
X192125000Y-129113072D01*
X192376750Y-129110000D01*
X192535500Y-128951250D01*
X192535500Y-128127000D01*
X192515500Y-128127000D01*
X192515500Y-127873000D01*
X192535500Y-127873000D01*
X192535500Y-127853000D01*
X192789500Y-127853000D01*
X192789500Y-127873000D01*
G37*
%TD.AperFunction*%
D30*
X159044668Y-105767824D02*
X158893302Y-106075317D01*
X158804832Y-106406432D01*
X158782659Y-106748444D01*
X158827635Y-107088211D01*
X158938033Y-107412674D01*
X159044668Y-107612176D01*
X159319796Y-107720599D01*
X160350395Y-106690000D01*
X160336253Y-106675858D01*
X160515858Y-106496253D01*
X160530000Y-106510395D01*
X160544143Y-106496253D01*
X160723748Y-106675858D01*
X160709605Y-106690000D01*
X161740204Y-107720599D01*
X162015332Y-107612176D01*
X162166698Y-107304683D01*
X162255168Y-106973568D01*
X162277341Y-106631556D01*
X162232365Y-106291789D01*
X162121967Y-105967326D01*
X162015332Y-105767824D01*
X161741724Y-105660000D01*
X164398276Y-105660000D01*
X164124668Y-105767824D01*
X163973302Y-106075317D01*
X163884832Y-106406432D01*
X163862659Y-106748444D01*
X163907635Y-107088211D01*
X164018033Y-107412674D01*
X164124668Y-107612176D01*
X164399796Y-107720599D01*
X165430395Y-106690000D01*
X165416253Y-106675858D01*
X165595858Y-106496253D01*
X165610000Y-106510395D01*
X165624143Y-106496253D01*
X165803748Y-106675858D01*
X165789605Y-106690000D01*
X166820204Y-107720599D01*
X167095332Y-107612176D01*
X167246698Y-107304683D01*
X167335168Y-106973568D01*
X167357341Y-106631556D01*
X167312365Y-106291789D01*
X167201967Y-105967326D01*
X167095332Y-105767824D01*
X166821724Y-105660000D01*
X181582850Y-105660000D01*
X181482795Y-105809744D01*
X181404774Y-105998102D01*
X181365000Y-106198061D01*
X181365000Y-106401939D01*
X181404774Y-106601898D01*
X181482795Y-106790256D01*
X181575001Y-106928252D01*
X181575001Y-107105343D01*
X181513368Y-107146525D01*
X181306525Y-107353368D01*
X181190000Y-107527760D01*
X181073475Y-107353368D01*
X180866632Y-107146525D01*
X180623411Y-106984010D01*
X180353158Y-106872068D01*
X180066260Y-106815000D01*
X179773740Y-106815000D01*
X179486842Y-106872068D01*
X179216589Y-106984010D01*
X178973368Y-107146525D01*
X178766525Y-107353368D01*
X178650000Y-107527760D01*
X178533475Y-107353368D01*
X178326632Y-107146525D01*
X178083411Y-106984010D01*
X177813158Y-106872068D01*
X177526260Y-106815000D01*
X177233740Y-106815000D01*
X176946842Y-106872068D01*
X176676589Y-106984010D01*
X176433368Y-107146525D01*
X176226525Y-107353368D01*
X176064010Y-107596589D01*
X175952068Y-107866842D01*
X175895000Y-108153740D01*
X175895000Y-108446260D01*
X175952068Y-108733158D01*
X176064010Y-109003411D01*
X176226525Y-109246632D01*
X176433368Y-109453475D01*
X176676589Y-109615990D01*
X176946842Y-109727932D01*
X177233740Y-109785000D01*
X177526260Y-109785000D01*
X177746408Y-109741210D01*
X178040001Y-110034803D01*
X178040000Y-123496289D01*
X177996063Y-123540226D01*
X177882795Y-123709744D01*
X177804774Y-123898102D01*
X177765000Y-124098061D01*
X177765000Y-124301939D01*
X177804774Y-124501898D01*
X177882795Y-124690256D01*
X177996063Y-124859774D01*
X178140226Y-125003937D01*
X178309744Y-125117205D01*
X178498102Y-125195226D01*
X178698061Y-125235000D01*
X178901939Y-125235000D01*
X179101898Y-125195226D01*
X179290256Y-125117205D01*
X179459774Y-125003937D01*
X179494455Y-124969256D01*
X180983701Y-126458503D01*
X181007499Y-126487501D01*
X181036497Y-126511299D01*
X181123223Y-126582474D01*
X181200583Y-126623824D01*
X181255253Y-126653046D01*
X181398514Y-126696503D01*
X181510167Y-126707500D01*
X181510177Y-126707500D01*
X181547500Y-126711176D01*
X181584823Y-126707500D01*
X189075224Y-126707500D01*
X189076590Y-126721368D01*
X189097730Y-126791058D01*
X187698799Y-128189990D01*
X172650922Y-128189990D01*
X172613600Y-128186314D01*
X172576277Y-128189990D01*
X172576267Y-128189990D01*
X172464614Y-128200987D01*
X172344245Y-128237500D01*
X172321353Y-128244444D01*
X172189323Y-128315016D01*
X172164973Y-128335000D01*
X172073599Y-128409989D01*
X172049801Y-128438988D01*
X171536289Y-128952500D01*
X170946178Y-128952500D01*
X170856623Y-128843377D01*
X170803768Y-128800000D01*
X170856623Y-128756623D01*
X170965512Y-128623942D01*
X171046423Y-128472567D01*
X171096248Y-128308316D01*
X171113072Y-128137500D01*
X171113072Y-128032786D01*
X171301898Y-127995226D01*
X171490256Y-127917205D01*
X171659774Y-127803937D01*
X171803937Y-127659774D01*
X171917205Y-127490256D01*
X171995226Y-127301898D01*
X172035000Y-127101939D01*
X172035000Y-126898061D01*
X171995226Y-126698102D01*
X171917205Y-126509744D01*
X171803937Y-126340226D01*
X171665783Y-126202072D01*
X173316000Y-126202072D01*
X173440482Y-126189812D01*
X173560180Y-126153502D01*
X173670494Y-126094537D01*
X173767185Y-126015185D01*
X173846537Y-125918494D01*
X173905502Y-125808180D01*
X173941812Y-125688482D01*
X173954072Y-125564000D01*
X173954072Y-123864000D01*
X173941812Y-123739518D01*
X173905502Y-123619820D01*
X173846537Y-123509506D01*
X173767185Y-123412815D01*
X173670494Y-123333463D01*
X173560180Y-123274498D01*
X173487620Y-123252487D01*
X173619475Y-123120632D01*
X173781990Y-122877411D01*
X173893932Y-122607158D01*
X173951000Y-122320260D01*
X173951000Y-122027740D01*
X173893932Y-121740842D01*
X173781990Y-121470589D01*
X173619475Y-121227368D01*
X173412632Y-121020525D01*
X173230466Y-120898805D01*
X173347355Y-120829178D01*
X173563588Y-120634269D01*
X173737641Y-120400920D01*
X173862825Y-120138099D01*
X173907476Y-119990890D01*
X173786155Y-119761000D01*
X172593000Y-119761000D01*
X172593000Y-119781000D01*
X172339000Y-119781000D01*
X172339000Y-119761000D01*
X171145845Y-119761000D01*
X171024524Y-119990890D01*
X171069175Y-120138099D01*
X171194359Y-120400920D01*
X171368412Y-120634269D01*
X171584645Y-120829178D01*
X171701534Y-120898805D01*
X171519368Y-121020525D01*
X171312525Y-121227368D01*
X171150010Y-121470589D01*
X171127333Y-121525337D01*
X171101723Y-121539026D01*
X171027427Y-121600000D01*
X170985999Y-121633999D01*
X170962201Y-121662997D01*
X169188998Y-123436201D01*
X169160000Y-123459999D01*
X169136202Y-123488997D01*
X169136201Y-123488998D01*
X169065026Y-123575724D01*
X168994454Y-123707754D01*
X168971781Y-123782499D01*
X168950998Y-123851014D01*
X168944497Y-123917015D01*
X168936324Y-124000000D01*
X168940001Y-124037332D01*
X168940000Y-125410198D01*
X167138072Y-127212127D01*
X167138072Y-126925000D01*
X167125812Y-126800518D01*
X167125655Y-126800000D01*
X167125812Y-126799482D01*
X167138072Y-126675000D01*
X167138072Y-125675000D01*
X167125812Y-125550518D01*
X167125655Y-125550000D01*
X167125812Y-125549482D01*
X167138072Y-125425000D01*
X167138072Y-124425000D01*
X167125812Y-124300518D01*
X167125655Y-124300000D01*
X167125812Y-124299482D01*
X167138072Y-124175000D01*
X167135000Y-123960750D01*
X166976250Y-123802000D01*
X166633752Y-123802000D01*
X166624482Y-123799188D01*
X166500000Y-123786928D01*
X164200000Y-123786928D01*
X164075518Y-123799188D01*
X164066248Y-123802000D01*
X163723750Y-123802000D01*
X163565000Y-123960750D01*
X163561928Y-124175000D01*
X163574188Y-124299482D01*
X163574345Y-124300000D01*
X163574188Y-124300518D01*
X163561928Y-124425000D01*
X163561928Y-125425000D01*
X163574188Y-125549482D01*
X163574345Y-125550000D01*
X163574188Y-125550518D01*
X163561928Y-125675000D01*
X163561928Y-126675000D01*
X163574188Y-126799482D01*
X163574345Y-126800000D01*
X163574188Y-126800518D01*
X163561928Y-126925000D01*
X163561928Y-127925000D01*
X163574188Y-128049482D01*
X163574345Y-128050000D01*
X163574188Y-128050518D01*
X163561928Y-128175000D01*
X163561928Y-129175000D01*
X163574188Y-129299482D01*
X163574345Y-129300000D01*
X163574188Y-129300518D01*
X163561928Y-129425000D01*
X163561928Y-130425000D01*
X163574188Y-130549482D01*
X163574345Y-130550000D01*
X163574188Y-130550518D01*
X163561928Y-130675000D01*
X163561928Y-130838484D01*
X163539998Y-130836324D01*
X163502676Y-130840000D01*
X161477331Y-130840000D01*
X161439998Y-130836323D01*
X161402665Y-130840000D01*
X161291012Y-130850997D01*
X161147751Y-130894454D01*
X161015722Y-130965026D01*
X160899997Y-131059999D01*
X160876199Y-131088997D01*
X160328269Y-131636928D01*
X160100000Y-131636928D01*
X159975518Y-131649188D01*
X159975000Y-131649345D01*
X159974482Y-131649188D01*
X159850000Y-131636928D01*
X158850000Y-131636928D01*
X158725518Y-131649188D01*
X158725000Y-131649345D01*
X158724482Y-131649188D01*
X158600000Y-131636928D01*
X157600000Y-131636928D01*
X157475518Y-131649188D01*
X157475000Y-131649345D01*
X157474482Y-131649188D01*
X157350000Y-131636928D01*
X157135750Y-131640000D01*
X156977000Y-131798750D01*
X156977000Y-132141248D01*
X156974188Y-132150518D01*
X156961928Y-132275000D01*
X156961928Y-133572000D01*
X156738072Y-133572000D01*
X156738072Y-132275000D01*
X156725812Y-132150518D01*
X156723000Y-132141248D01*
X156723000Y-131798750D01*
X156600356Y-131676106D01*
X156635000Y-131501939D01*
X156635000Y-131298061D01*
X156595226Y-131098102D01*
X156517205Y-130909744D01*
X156403937Y-130740226D01*
X156259774Y-130596063D01*
X156090256Y-130482795D01*
X155901898Y-130404774D01*
X155701939Y-130365000D01*
X155498061Y-130365000D01*
X155298102Y-130404774D01*
X155133343Y-130473020D01*
X155138072Y-130425000D01*
X155138072Y-129425000D01*
X155125812Y-129300518D01*
X155125655Y-129300000D01*
X155125812Y-129299482D01*
X155138072Y-129175000D01*
X155138072Y-128175000D01*
X155125812Y-128050518D01*
X155125655Y-128050000D01*
X155125812Y-128049482D01*
X155138072Y-127925000D01*
X155138072Y-126925000D01*
X155125812Y-126800518D01*
X155125655Y-126800000D01*
X155125812Y-126799482D01*
X155138072Y-126675000D01*
X155138072Y-125675000D01*
X155125812Y-125550518D01*
X155125655Y-125550000D01*
X155125812Y-125549482D01*
X155138072Y-125425000D01*
X155138072Y-124425000D01*
X155125812Y-124300518D01*
X155125655Y-124300000D01*
X155125812Y-124299482D01*
X155138072Y-124175000D01*
X155135000Y-123960750D01*
X154976250Y-123802000D01*
X154633752Y-123802000D01*
X154624482Y-123799188D01*
X154500000Y-123786928D01*
X153203000Y-123786928D01*
X153203000Y-123548000D01*
X153223000Y-123548000D01*
X153223000Y-122698750D01*
X153477000Y-122698750D01*
X153477000Y-123548000D01*
X154976250Y-123548000D01*
X155135000Y-123389250D01*
X155137526Y-123213072D01*
X156100000Y-123213072D01*
X156224482Y-123200812D01*
X156225000Y-123200655D01*
X156225518Y-123200812D01*
X156350000Y-123213072D01*
X157350000Y-123213072D01*
X157474482Y-123200812D01*
X157475000Y-123200655D01*
X157475518Y-123200812D01*
X157600000Y-123213072D01*
X158600000Y-123213072D01*
X158724482Y-123200812D01*
X158725000Y-123200655D01*
X158725518Y-123200812D01*
X158850000Y-123213072D01*
X159840001Y-123213072D01*
X159840001Y-123585197D01*
X157056420Y-126368779D01*
X156901898Y-126304774D01*
X156701939Y-126265000D01*
X156498061Y-126265000D01*
X156298102Y-126304774D01*
X156109744Y-126382795D01*
X155940226Y-126496063D01*
X155796063Y-126640226D01*
X155682795Y-126809744D01*
X155604774Y-126998102D01*
X155565000Y-127198061D01*
X155565000Y-127401939D01*
X155604774Y-127601898D01*
X155682795Y-127790256D01*
X155796063Y-127959774D01*
X155940226Y-128103937D01*
X156109744Y-128217205D01*
X156298102Y-128295226D01*
X156498061Y-128335000D01*
X156701939Y-128335000D01*
X156901898Y-128295226D01*
X157090256Y-128217205D01*
X157259774Y-128103937D01*
X157310963Y-128052748D01*
X157348986Y-128049003D01*
X157492247Y-128005546D01*
X157624276Y-127934974D01*
X157740001Y-127840001D01*
X157763804Y-127810997D01*
X161111003Y-124463799D01*
X161140001Y-124440001D01*
X161173794Y-124398824D01*
X161234974Y-124324277D01*
X161305546Y-124192247D01*
X161322760Y-124135498D01*
X161349003Y-124048986D01*
X161360000Y-123937333D01*
X161360000Y-123937324D01*
X161363676Y-123900001D01*
X161360000Y-123862678D01*
X161360000Y-123212929D01*
X161564250Y-123210000D01*
X161723000Y-123051250D01*
X161723000Y-122708752D01*
X161725812Y-122699482D01*
X161738072Y-122575000D01*
X161738072Y-120275000D01*
X161725812Y-120150518D01*
X161723000Y-120141248D01*
X161723000Y-119798750D01*
X161564250Y-119640000D01*
X161350000Y-119636928D01*
X161225518Y-119649188D01*
X161225000Y-119649345D01*
X161224482Y-119649188D01*
X161100000Y-119636928D01*
X160100000Y-119636928D01*
X159975518Y-119649188D01*
X159975000Y-119649345D01*
X159974482Y-119649188D01*
X159850000Y-119636928D01*
X158850000Y-119636928D01*
X158725518Y-119649188D01*
X158725000Y-119649345D01*
X158724482Y-119649188D01*
X158600000Y-119636928D01*
X157600000Y-119636928D01*
X157475518Y-119649188D01*
X157475000Y-119649345D01*
X157474482Y-119649188D01*
X157350000Y-119636928D01*
X156350000Y-119636928D01*
X156225518Y-119649188D01*
X156225000Y-119649345D01*
X156224482Y-119649188D01*
X156100000Y-119636928D01*
X155100000Y-119636928D01*
X154975518Y-119649188D01*
X154855820Y-119685498D01*
X154745506Y-119744463D01*
X154648815Y-119823815D01*
X154569463Y-119920506D01*
X154510498Y-120030820D01*
X154474188Y-120150518D01*
X154461928Y-120275000D01*
X154461928Y-122537063D01*
X153635750Y-122540000D01*
X153477000Y-122698750D01*
X153223000Y-122698750D01*
X153064250Y-122540000D01*
X152200000Y-122536928D01*
X152075518Y-122549188D01*
X151955820Y-122585498D01*
X151845506Y-122644463D01*
X151748815Y-122723815D01*
X151669463Y-122820506D01*
X151610498Y-122930820D01*
X151574188Y-123050518D01*
X151573393Y-123058593D01*
X151160000Y-122645201D01*
X151160000Y-121471322D01*
X151163676Y-121433999D01*
X151160000Y-121396677D01*
X151160000Y-121396667D01*
X151149003Y-121285014D01*
X151105546Y-121141753D01*
X151071202Y-121077501D01*
X151034974Y-121009723D01*
X150963799Y-120922997D01*
X150940001Y-120893999D01*
X150911003Y-120870201D01*
X148928968Y-118888166D01*
X149807439Y-118888166D01*
X149842550Y-119101588D01*
X150046826Y-119192458D01*
X150264905Y-119241731D01*
X150488406Y-119247511D01*
X150708740Y-119209577D01*
X150917440Y-119129387D01*
X150969450Y-119101588D01*
X151004561Y-118888166D01*
X150406000Y-118289605D01*
X149807439Y-118888166D01*
X148928968Y-118888166D01*
X148233208Y-118192406D01*
X149268489Y-118192406D01*
X149306423Y-118412740D01*
X149386613Y-118621440D01*
X149414412Y-118673450D01*
X149627834Y-118708561D01*
X150226395Y-118110000D01*
X150585605Y-118110000D01*
X151184166Y-118708561D01*
X151397588Y-118673450D01*
X151488458Y-118469174D01*
X151537731Y-118251095D01*
X151543511Y-118027594D01*
X151505577Y-117807260D01*
X151425387Y-117598560D01*
X151397588Y-117546550D01*
X151184166Y-117511439D01*
X150585605Y-118110000D01*
X150226395Y-118110000D01*
X149627834Y-117511439D01*
X149414412Y-117546550D01*
X149323542Y-117750826D01*
X149274269Y-117968905D01*
X149268489Y-118192406D01*
X148233208Y-118192406D01*
X148201000Y-118160199D01*
X148201000Y-117988212D01*
X148157383Y-117768933D01*
X148071824Y-117562376D01*
X147947612Y-117376480D01*
X147902966Y-117331834D01*
X149807439Y-117331834D01*
X150406000Y-117930395D01*
X151004561Y-117331834D01*
X150969450Y-117118412D01*
X150765174Y-117027542D01*
X150547095Y-116978269D01*
X150323594Y-116972489D01*
X150103260Y-117010423D01*
X149894560Y-117090613D01*
X149842550Y-117118412D01*
X149807439Y-117331834D01*
X147902966Y-117331834D01*
X147789520Y-117218388D01*
X147603624Y-117094176D01*
X147397067Y-117008617D01*
X147177788Y-116965000D01*
X146954212Y-116965000D01*
X146734933Y-117008617D01*
X146528376Y-117094176D01*
X146342480Y-117218388D01*
X146184388Y-117376480D01*
X146060176Y-117562376D01*
X145974617Y-117768933D01*
X145931000Y-117988212D01*
X145931000Y-118211788D01*
X145974617Y-118431067D01*
X146060176Y-118637624D01*
X146184388Y-118823520D01*
X146342480Y-118981612D01*
X146528376Y-119105824D01*
X146734933Y-119191383D01*
X146954212Y-119235000D01*
X147126199Y-119235000D01*
X149640001Y-121748803D01*
X149640000Y-122922679D01*
X149636324Y-122960002D01*
X149640000Y-122997324D01*
X149640000Y-122997334D01*
X149650997Y-123108987D01*
X149686470Y-123225928D01*
X149694454Y-123252248D01*
X149765026Y-123384278D01*
X149786958Y-123411002D01*
X149859999Y-123500003D01*
X149889003Y-123523806D01*
X151561928Y-125196732D01*
X151561928Y-125425000D01*
X151574188Y-125549482D01*
X151574345Y-125550000D01*
X151574188Y-125550518D01*
X151561928Y-125675000D01*
X151561928Y-126675000D01*
X151574188Y-126799482D01*
X151574345Y-126800000D01*
X151574188Y-126800518D01*
X151561928Y-126925000D01*
X151561928Y-127925000D01*
X151574188Y-128049482D01*
X151574345Y-128050000D01*
X151574188Y-128050518D01*
X151561928Y-128175000D01*
X151561928Y-128462126D01*
X150560000Y-127460199D01*
X150560000Y-124662322D01*
X150563676Y-124624999D01*
X150560000Y-124587676D01*
X150560000Y-124587667D01*
X150549003Y-124476014D01*
X150505546Y-124332753D01*
X150434974Y-124200724D01*
X150405656Y-124165000D01*
X150363799Y-124113996D01*
X150363795Y-124113992D01*
X150340001Y-124084999D01*
X150311008Y-124061205D01*
X149238072Y-122988270D01*
X149238072Y-122662500D01*
X149221248Y-122491684D01*
X149171423Y-122327433D01*
X149090512Y-122176058D01*
X148981623Y-122043377D01*
X148848942Y-121934488D01*
X148697567Y-121853577D01*
X148533316Y-121803752D01*
X148362500Y-121786928D01*
X147787500Y-121786928D01*
X147616684Y-121803752D01*
X147452433Y-121853577D01*
X147301058Y-121934488D01*
X147200000Y-122017425D01*
X147098942Y-121934488D01*
X146947567Y-121853577D01*
X146783316Y-121803752D01*
X146612500Y-121786928D01*
X146037500Y-121786928D01*
X145866684Y-121803752D01*
X145702433Y-121853577D01*
X145551058Y-121934488D01*
X145418377Y-122043377D01*
X145309488Y-122176058D01*
X145228577Y-122327433D01*
X145178752Y-122491684D01*
X145161928Y-122662500D01*
X145161928Y-123137500D01*
X145178752Y-123308316D01*
X145228577Y-123472567D01*
X145309488Y-123623942D01*
X145418377Y-123756623D01*
X145551058Y-123865512D01*
X145565000Y-123872964D01*
X145565001Y-124227036D01*
X145551058Y-124234488D01*
X145418377Y-124343377D01*
X145309488Y-124476058D01*
X145228577Y-124627433D01*
X145178752Y-124791684D01*
X145161928Y-124962500D01*
X145161928Y-125437500D01*
X145178752Y-125608316D01*
X145228577Y-125772567D01*
X145309488Y-125923942D01*
X145418377Y-126056623D01*
X145551058Y-126165512D01*
X145702433Y-126246423D01*
X145866684Y-126296248D01*
X146037500Y-126313072D01*
X146537500Y-126313072D01*
X146708316Y-126296248D01*
X146872567Y-126246423D01*
X147023942Y-126165512D01*
X147132783Y-126076188D01*
X147173815Y-126126185D01*
X147270506Y-126205537D01*
X147380820Y-126264502D01*
X147500518Y-126300812D01*
X147625000Y-126313072D01*
X147826750Y-126310000D01*
X147985500Y-126151250D01*
X147985500Y-125327000D01*
X147965500Y-125327000D01*
X147965500Y-125073000D01*
X147985500Y-125073000D01*
X147985500Y-124248750D01*
X147826750Y-124090000D01*
X147625000Y-124086928D01*
X147500518Y-124099188D01*
X147380820Y-124135498D01*
X147270506Y-124194463D01*
X147173815Y-124273815D01*
X147132783Y-124323812D01*
X147085000Y-124284597D01*
X147085000Y-123872964D01*
X147098942Y-123865512D01*
X147200000Y-123782575D01*
X147301058Y-123865512D01*
X147452433Y-123946423D01*
X147616684Y-123996248D01*
X147787500Y-124013072D01*
X148113270Y-124013072D01*
X148294224Y-124194026D01*
X148239500Y-124248750D01*
X148239500Y-125073000D01*
X148259500Y-125073000D01*
X148259500Y-125327000D01*
X148239500Y-125327000D01*
X148239500Y-126151250D01*
X148398250Y-126310000D01*
X148600000Y-126313072D01*
X148724482Y-126300812D01*
X148844180Y-126264502D01*
X148954494Y-126205537D01*
X149040001Y-126135364D01*
X149040000Y-127737677D01*
X149036324Y-127775000D01*
X149040000Y-127812322D01*
X149040000Y-127812332D01*
X149050997Y-127923985D01*
X149089380Y-128050518D01*
X149094454Y-128067246D01*
X149165026Y-128199276D01*
X149196396Y-128237500D01*
X149259999Y-128315001D01*
X149289003Y-128338804D01*
X151365198Y-130415000D01*
X150489802Y-130415000D01*
X150263803Y-130189002D01*
X150240001Y-130159999D01*
X150124276Y-130065026D01*
X149992247Y-129994454D01*
X149848986Y-129950997D01*
X149737333Y-129940000D01*
X149737322Y-129940000D01*
X149700000Y-129936324D01*
X149662678Y-129940000D01*
X149250920Y-129940000D01*
X149171623Y-129843377D01*
X149038942Y-129734488D01*
X148887567Y-129653577D01*
X148723316Y-129603752D01*
X148552500Y-129586928D01*
X147977500Y-129586928D01*
X147806684Y-129603752D01*
X147642433Y-129653577D01*
X147491058Y-129734488D01*
X147390000Y-129817425D01*
X147288942Y-129734488D01*
X147137567Y-129653577D01*
X146973316Y-129603752D01*
X146802500Y-129586928D01*
X146227500Y-129586928D01*
X146056684Y-129603752D01*
X145892433Y-129653577D01*
X145741058Y-129734488D01*
X145608377Y-129843377D01*
X145499488Y-129976058D01*
X145418577Y-130127433D01*
X145368752Y-130291684D01*
X145351928Y-130462500D01*
X145351928Y-130937500D01*
X145368752Y-131108316D01*
X145418577Y-131272567D01*
X145499488Y-131423942D01*
X145608377Y-131556623D01*
X145727157Y-131654103D01*
X145618377Y-131743377D01*
X145509488Y-131876058D01*
X145428577Y-132027433D01*
X145378752Y-132191684D01*
X145361928Y-132362500D01*
X145361928Y-132837500D01*
X145378752Y-133008316D01*
X145428577Y-133172567D01*
X145509488Y-133323942D01*
X145618377Y-133456623D01*
X145751058Y-133565512D01*
X145902433Y-133646423D01*
X146066684Y-133696248D01*
X146237500Y-133713072D01*
X146737500Y-133713072D01*
X146908316Y-133696248D01*
X147072567Y-133646423D01*
X147223942Y-133565512D01*
X147332783Y-133476188D01*
X147373815Y-133526185D01*
X147470506Y-133605537D01*
X147580820Y-133664502D01*
X147700518Y-133700812D01*
X147825000Y-133713072D01*
X148026750Y-133710000D01*
X148185500Y-133551250D01*
X148185500Y-132727000D01*
X148439500Y-132727000D01*
X148439500Y-133551250D01*
X148598250Y-133710000D01*
X148800000Y-133713072D01*
X148924482Y-133700812D01*
X149044180Y-133664502D01*
X149154494Y-133605537D01*
X149251185Y-133526185D01*
X149330537Y-133429494D01*
X149389502Y-133319180D01*
X149425812Y-133199482D01*
X149438072Y-133075000D01*
X149435000Y-132885750D01*
X149276250Y-132727000D01*
X148439500Y-132727000D01*
X148185500Y-132727000D01*
X148165500Y-132727000D01*
X148165500Y-132473000D01*
X148185500Y-132473000D01*
X148185500Y-132453000D01*
X148439500Y-132453000D01*
X148439500Y-132473000D01*
X149276250Y-132473000D01*
X149435000Y-132314250D01*
X149438072Y-132125000D01*
X149425812Y-132000518D01*
X149389502Y-131880820D01*
X149330537Y-131770506D01*
X149251185Y-131673815D01*
X149154494Y-131594463D01*
X149136945Y-131585083D01*
X149171623Y-131556623D01*
X149250920Y-131460000D01*
X149385199Y-131460000D01*
X149611200Y-131686002D01*
X149634999Y-131715001D01*
X149750724Y-131809974D01*
X149882753Y-131880546D01*
X150026014Y-131924003D01*
X150137667Y-131935000D01*
X150137676Y-131935000D01*
X150174999Y-131938676D01*
X150212322Y-131935000D01*
X151618954Y-131935000D01*
X151669463Y-132029494D01*
X151748815Y-132126185D01*
X151845506Y-132205537D01*
X151955820Y-132264502D01*
X152075518Y-132300812D01*
X152200000Y-132313072D01*
X154461928Y-132313072D01*
X154461928Y-133311493D01*
X153742451Y-134030971D01*
X153708684Y-134058683D01*
X153680971Y-134092451D01*
X153680968Y-134092454D01*
X153668103Y-134108130D01*
X153668037Y-134108006D01*
X153588685Y-134011315D01*
X153491994Y-133931963D01*
X153381680Y-133872998D01*
X153261982Y-133836688D01*
X153137500Y-133824428D01*
X152948250Y-133827500D01*
X152789500Y-133986250D01*
X152789500Y-134873000D01*
X152809500Y-134873000D01*
X152809500Y-135127000D01*
X152789500Y-135127000D01*
X152789500Y-135147000D01*
X152535500Y-135147000D01*
X152535500Y-135127000D01*
X151711250Y-135127000D01*
X151552500Y-135285750D01*
X151549428Y-135537500D01*
X151561688Y-135661982D01*
X151597998Y-135781680D01*
X151656963Y-135891994D01*
X151687174Y-135928807D01*
X151580941Y-135985589D01*
X151580939Y-135985590D01*
X151580940Y-135985590D01*
X151479953Y-136068468D01*
X151479951Y-136068470D01*
X151446183Y-136096183D01*
X151418470Y-136129951D01*
X151154956Y-136393465D01*
X151098102Y-136404774D01*
X150909744Y-136482795D01*
X150740226Y-136596063D01*
X150596063Y-136740226D01*
X150482795Y-136909744D01*
X150404774Y-137098102D01*
X150365000Y-137298061D01*
X150365000Y-137501939D01*
X150404774Y-137701898D01*
X150482795Y-137890256D01*
X150596063Y-138059774D01*
X150740226Y-138203937D01*
X150909744Y-138317205D01*
X151098102Y-138395226D01*
X151298061Y-138435000D01*
X151501939Y-138435000D01*
X151701898Y-138395226D01*
X151778882Y-138363338D01*
X151775724Y-138365026D01*
X151659999Y-138459999D01*
X151636196Y-138489003D01*
X151224003Y-138901196D01*
X151194999Y-138924999D01*
X151158082Y-138969983D01*
X151100026Y-139040724D01*
X151049897Y-139134509D01*
X151029454Y-139172754D01*
X150985997Y-139316015D01*
X150975000Y-139427668D01*
X150975000Y-139427678D01*
X150972982Y-139448170D01*
X150788368Y-139571525D01*
X150581525Y-139778368D01*
X150465000Y-139952760D01*
X150348475Y-139778368D01*
X150141632Y-139571525D01*
X149898411Y-139409010D01*
X149628158Y-139297068D01*
X149341260Y-139240000D01*
X149048740Y-139240000D01*
X148828592Y-139283790D01*
X147760000Y-138215199D01*
X147760000Y-136403711D01*
X147803937Y-136359774D01*
X147917205Y-136190256D01*
X147995226Y-136001898D01*
X148035000Y-135801939D01*
X148035000Y-135598061D01*
X147995226Y-135398102D01*
X147917205Y-135209744D01*
X147803937Y-135040226D01*
X147659774Y-134896063D01*
X147490256Y-134782795D01*
X147301898Y-134704774D01*
X147101939Y-134665000D01*
X146898061Y-134665000D01*
X146698102Y-134704774D01*
X146509744Y-134782795D01*
X146340226Y-134896063D01*
X146196063Y-135040226D01*
X146082795Y-135209744D01*
X146004774Y-135398102D01*
X145965000Y-135598061D01*
X145965000Y-135801939D01*
X146004774Y-136001898D01*
X146082795Y-136190256D01*
X146196063Y-136359774D01*
X146240001Y-136403712D01*
X146240000Y-138492677D01*
X146236324Y-138530000D01*
X146240000Y-138567322D01*
X146240000Y-138567332D01*
X146250997Y-138678985D01*
X146294454Y-138822246D01*
X146365026Y-138954276D01*
X146398007Y-138994463D01*
X146459999Y-139070001D01*
X146489003Y-139093804D01*
X146635199Y-139240000D01*
X146508740Y-139240000D01*
X146221842Y-139297068D01*
X145951589Y-139409010D01*
X145708368Y-139571525D01*
X145501525Y-139778368D01*
X145339010Y-140021589D01*
X145227068Y-140291842D01*
X145170000Y-140578740D01*
X145170000Y-140871260D01*
X145227068Y-141158158D01*
X145339010Y-141428411D01*
X145501525Y-141671632D01*
X145708368Y-141878475D01*
X145951589Y-142040990D01*
X146221842Y-142152932D01*
X146508740Y-142210000D01*
X146801260Y-142210000D01*
X147088158Y-142152932D01*
X147358411Y-142040990D01*
X147601632Y-141878475D01*
X147808475Y-141671632D01*
X147925000Y-141497240D01*
X148041525Y-141671632D01*
X148248368Y-141878475D01*
X148491589Y-142040990D01*
X148761842Y-142152932D01*
X149048740Y-142210000D01*
X149341260Y-142210000D01*
X149628158Y-142152932D01*
X149898411Y-142040990D01*
X150141632Y-141878475D01*
X150348475Y-141671632D01*
X150465000Y-141497240D01*
X150581525Y-141671632D01*
X150788368Y-141878475D01*
X151031589Y-142040990D01*
X151301842Y-142152932D01*
X151588740Y-142210000D01*
X151881260Y-142210000D01*
X152168158Y-142152932D01*
X152438411Y-142040990D01*
X152681632Y-141878475D01*
X152888475Y-141671632D01*
X153010195Y-141489466D01*
X153079822Y-141606355D01*
X153274731Y-141822588D01*
X153508080Y-141996641D01*
X153770901Y-142121825D01*
X153918110Y-142166476D01*
X154148000Y-142045155D01*
X154148000Y-140852000D01*
X154128000Y-140852000D01*
X154128000Y-140598000D01*
X154148000Y-140598000D01*
X154148000Y-140578000D01*
X154402000Y-140578000D01*
X154402000Y-140598000D01*
X154422000Y-140598000D01*
X154422000Y-140852000D01*
X154402000Y-140852000D01*
X154402000Y-142045155D01*
X154631890Y-142166476D01*
X154779099Y-142121825D01*
X155041920Y-141996641D01*
X155275269Y-141822588D01*
X155470178Y-141606355D01*
X155539805Y-141489466D01*
X155661525Y-141671632D01*
X155868368Y-141878475D01*
X156111589Y-142040990D01*
X156381842Y-142152932D01*
X156668740Y-142210000D01*
X156961260Y-142210000D01*
X157248158Y-142152932D01*
X157518411Y-142040990D01*
X157761632Y-141878475D01*
X157893487Y-141746620D01*
X157915498Y-141819180D01*
X157974463Y-141929494D01*
X158053815Y-142026185D01*
X158150506Y-142105537D01*
X158260820Y-142164502D01*
X158380518Y-142200812D01*
X158505000Y-142213072D01*
X160205000Y-142213072D01*
X160249028Y-142208736D01*
X160282795Y-142290256D01*
X160396063Y-142459774D01*
X160540226Y-142603937D01*
X160709744Y-142717205D01*
X160898102Y-142795226D01*
X160997894Y-142815076D01*
X160929181Y-142883789D01*
X161046831Y-143001439D01*
X160833412Y-143036550D01*
X160813587Y-143081117D01*
X160805824Y-143062376D01*
X160681612Y-142876480D01*
X160523520Y-142718388D01*
X160337624Y-142594176D01*
X160131067Y-142508617D01*
X159911788Y-142465000D01*
X159688212Y-142465000D01*
X159468933Y-142508617D01*
X159262376Y-142594176D01*
X159081550Y-142715000D01*
X158938454Y-142715000D01*
X158890256Y-142682795D01*
X158701898Y-142604774D01*
X158501939Y-142565000D01*
X158298061Y-142565000D01*
X158098102Y-142604774D01*
X157909744Y-142682795D01*
X157740226Y-142796063D01*
X157596063Y-142940226D01*
X157482795Y-143109744D01*
X157404774Y-143298102D01*
X157365000Y-143498061D01*
X157365000Y-143701939D01*
X157404774Y-143901898D01*
X157482795Y-144090256D01*
X157596063Y-144259774D01*
X157676289Y-144340000D01*
X144660000Y-144340000D01*
X144660000Y-134462500D01*
X151549428Y-134462500D01*
X151552500Y-134714250D01*
X151711250Y-134873000D01*
X152535500Y-134873000D01*
X152535500Y-133986250D01*
X152376750Y-133827500D01*
X152187500Y-133824428D01*
X152063018Y-133836688D01*
X151943320Y-133872998D01*
X151833006Y-133931963D01*
X151736315Y-134011315D01*
X151656963Y-134108006D01*
X151597998Y-134218320D01*
X151561688Y-134338018D01*
X151549428Y-134462500D01*
X144660000Y-134462500D01*
X144660000Y-112980204D01*
X159499401Y-112980204D01*
X159607824Y-113255332D01*
X159915317Y-113406698D01*
X160246432Y-113495168D01*
X160588444Y-113517341D01*
X160928211Y-113472365D01*
X161252674Y-113361967D01*
X161452176Y-113255332D01*
X161560599Y-112980204D01*
X160530000Y-111949605D01*
X159499401Y-112980204D01*
X144660000Y-112980204D01*
X144660000Y-111828444D01*
X158782659Y-111828444D01*
X158827635Y-112168211D01*
X158938033Y-112492674D01*
X159044668Y-112692176D01*
X159319796Y-112800599D01*
X160350395Y-111770000D01*
X160709605Y-111770000D01*
X161740204Y-112800599D01*
X162015332Y-112692176D01*
X162166698Y-112384683D01*
X162255168Y-112053568D01*
X162277341Y-111711556D01*
X162232365Y-111371789D01*
X162121967Y-111047326D01*
X162015332Y-110847824D01*
X161740204Y-110739401D01*
X160709605Y-111770000D01*
X160350395Y-111770000D01*
X159319796Y-110739401D01*
X159044668Y-110847824D01*
X158893302Y-111155317D01*
X158804832Y-111486432D01*
X158782659Y-111828444D01*
X144660000Y-111828444D01*
X144660000Y-110559796D01*
X159499401Y-110559796D01*
X160530000Y-111590395D01*
X161560599Y-110559796D01*
X161452176Y-110284668D01*
X161144683Y-110133302D01*
X160813568Y-110044832D01*
X160471556Y-110022659D01*
X160131789Y-110067635D01*
X159807326Y-110178033D01*
X159607824Y-110284668D01*
X159499401Y-110559796D01*
X144660000Y-110559796D01*
X144660000Y-109068642D01*
X161431700Y-109068642D01*
X161431700Y-109391358D01*
X161494659Y-109707874D01*
X161618157Y-110006026D01*
X161797449Y-110274355D01*
X162025645Y-110502551D01*
X162293974Y-110681843D01*
X162318316Y-110691926D01*
X162318315Y-113106945D01*
X162313558Y-113109488D01*
X162180877Y-113218377D01*
X162071988Y-113351058D01*
X161991077Y-113502433D01*
X161941252Y-113666684D01*
X161924428Y-113837500D01*
X161924428Y-114312500D01*
X161941252Y-114483316D01*
X161991077Y-114647567D01*
X162071988Y-114798942D01*
X162125897Y-114864630D01*
X162053577Y-114999933D01*
X162003752Y-115164184D01*
X161986928Y-115335000D01*
X161986928Y-115935000D01*
X162003752Y-116105816D01*
X162053577Y-116270067D01*
X162134488Y-116421442D01*
X162196907Y-116497500D01*
X162134488Y-116573558D01*
X162053577Y-116724933D01*
X162003752Y-116889184D01*
X161986928Y-117060000D01*
X161986928Y-117660000D01*
X162003752Y-117830816D01*
X162053577Y-117995067D01*
X162134488Y-118146442D01*
X162135908Y-118148172D01*
X162071988Y-118226058D01*
X161991077Y-118377433D01*
X161941252Y-118541684D01*
X161924428Y-118712500D01*
X161924428Y-119187500D01*
X161941252Y-119358316D01*
X161991077Y-119522567D01*
X162071988Y-119673942D01*
X162085430Y-119690320D01*
X161977000Y-119798750D01*
X161977000Y-120141248D01*
X161974188Y-120150518D01*
X161961928Y-120275000D01*
X161961928Y-122575000D01*
X161974188Y-122699482D01*
X161977000Y-122708752D01*
X161977000Y-123051250D01*
X162135750Y-123210000D01*
X162350000Y-123213072D01*
X162474482Y-123200812D01*
X162475000Y-123200655D01*
X162475518Y-123200812D01*
X162600000Y-123213072D01*
X163562474Y-123213072D01*
X163565000Y-123389250D01*
X163723750Y-123548000D01*
X165223000Y-123548000D01*
X165223000Y-122698750D01*
X165477000Y-122698750D01*
X165477000Y-123548000D01*
X166976250Y-123548000D01*
X167135000Y-123389250D01*
X167138072Y-123175000D01*
X167125812Y-123050518D01*
X167089502Y-122930820D01*
X167030537Y-122820506D01*
X166951185Y-122723815D01*
X166854494Y-122644463D01*
X166744180Y-122585498D01*
X166624482Y-122549188D01*
X166500000Y-122536928D01*
X165635750Y-122540000D01*
X165477000Y-122698750D01*
X165223000Y-122698750D01*
X165064250Y-122540000D01*
X164238072Y-122537063D01*
X164238072Y-120275000D01*
X164225812Y-120150518D01*
X164196569Y-120054116D01*
X164287500Y-120063072D01*
X164539250Y-120060000D01*
X164698000Y-119901250D01*
X164698000Y-119077000D01*
X164952000Y-119077000D01*
X164952000Y-119901250D01*
X165110750Y-120060000D01*
X165362500Y-120063072D01*
X165486982Y-120050812D01*
X165606680Y-120014502D01*
X165716994Y-119955537D01*
X165813685Y-119876185D01*
X165893037Y-119779494D01*
X165952002Y-119669180D01*
X165988312Y-119549482D01*
X166000572Y-119425000D01*
X165998172Y-119277110D01*
X171024524Y-119277110D01*
X171145845Y-119507000D01*
X172339000Y-119507000D01*
X172339000Y-118313186D01*
X172593000Y-118313186D01*
X172593000Y-119507000D01*
X173786155Y-119507000D01*
X173907476Y-119277110D01*
X173862825Y-119129901D01*
X173737641Y-118867080D01*
X173563588Y-118633731D01*
X173347355Y-118438822D01*
X173097252Y-118289843D01*
X172822891Y-118192519D01*
X172593000Y-118313186D01*
X172339000Y-118313186D01*
X172109109Y-118192519D01*
X171834748Y-118289843D01*
X171584645Y-118438822D01*
X171368412Y-118633731D01*
X171194359Y-118867080D01*
X171069175Y-119129901D01*
X171024524Y-119277110D01*
X165998172Y-119277110D01*
X165997500Y-119235750D01*
X165838750Y-119077000D01*
X164952000Y-119077000D01*
X164698000Y-119077000D01*
X164678000Y-119077000D01*
X164678000Y-118823000D01*
X164698000Y-118823000D01*
X164698000Y-117998750D01*
X164952000Y-117998750D01*
X164952000Y-118823000D01*
X165838750Y-118823000D01*
X165997500Y-118664250D01*
X166000572Y-118475000D01*
X165988312Y-118350518D01*
X165952002Y-118230820D01*
X165893037Y-118120506D01*
X165813685Y-118023815D01*
X165716994Y-117944463D01*
X165606680Y-117885498D01*
X165486982Y-117849188D01*
X165362500Y-117836928D01*
X165110750Y-117840000D01*
X164952000Y-117998750D01*
X164698000Y-117998750D01*
X164539250Y-117840000D01*
X164287500Y-117836928D01*
X164191527Y-117846380D01*
X164196248Y-117830816D01*
X164213072Y-117660000D01*
X164213072Y-117060000D01*
X164196248Y-116889184D01*
X164146423Y-116724933D01*
X164065512Y-116573558D01*
X164003093Y-116497500D01*
X164065512Y-116421442D01*
X164146423Y-116270067D01*
X164196248Y-116105816D01*
X164213072Y-115935000D01*
X164213072Y-115335000D01*
X164197730Y-115179231D01*
X164287500Y-115188072D01*
X164539250Y-115185000D01*
X164698000Y-115026250D01*
X164698000Y-114202000D01*
X164952000Y-114202000D01*
X164952000Y-115026250D01*
X165110750Y-115185000D01*
X165362500Y-115188072D01*
X165486982Y-115175812D01*
X165606680Y-115139502D01*
X165716994Y-115080537D01*
X165813685Y-115001185D01*
X165893037Y-114904494D01*
X165952002Y-114794180D01*
X165988312Y-114674482D01*
X166000572Y-114550000D01*
X165997500Y-114360750D01*
X165838750Y-114202000D01*
X164952000Y-114202000D01*
X164698000Y-114202000D01*
X164678000Y-114202000D01*
X164678000Y-113948000D01*
X164698000Y-113948000D01*
X164698000Y-113928000D01*
X164952000Y-113928000D01*
X164952000Y-113948000D01*
X165838750Y-113948000D01*
X165997500Y-113789250D01*
X166000572Y-113600000D01*
X165988312Y-113475518D01*
X165988161Y-113475019D01*
X166008211Y-113472365D01*
X166332674Y-113361967D01*
X166532176Y-113255332D01*
X166640599Y-112980204D01*
X165610000Y-111949605D01*
X165595858Y-111963748D01*
X165416253Y-111784143D01*
X165430395Y-111770000D01*
X165789605Y-111770000D01*
X166820204Y-112800599D01*
X167095332Y-112692176D01*
X167246698Y-112384683D01*
X167335168Y-112053568D01*
X167357341Y-111711556D01*
X167312365Y-111371789D01*
X167201967Y-111047326D01*
X167095332Y-110847824D01*
X166820204Y-110739401D01*
X165789605Y-111770000D01*
X165430395Y-111770000D01*
X164399796Y-110739401D01*
X164124668Y-110847824D01*
X163973302Y-111155317D01*
X163884832Y-111486432D01*
X163881685Y-111534974D01*
X163881685Y-110658016D01*
X164028681Y-110559796D01*
X164579401Y-110559796D01*
X165610000Y-111590395D01*
X166640599Y-110559796D01*
X166532176Y-110284668D01*
X166224683Y-110133302D01*
X165893568Y-110044832D01*
X165551556Y-110022659D01*
X165211789Y-110067635D01*
X164887326Y-110178033D01*
X164687824Y-110284668D01*
X164579401Y-110559796D01*
X164028681Y-110559796D01*
X164114355Y-110502551D01*
X164342551Y-110274355D01*
X164521843Y-110006026D01*
X164645341Y-109707874D01*
X164708300Y-109391358D01*
X164708300Y-109068642D01*
X164645341Y-108752126D01*
X164521843Y-108453974D01*
X164342551Y-108185645D01*
X164114355Y-107957449D01*
X164028682Y-107900204D01*
X164579401Y-107900204D01*
X164687824Y-108175332D01*
X164995317Y-108326698D01*
X165326432Y-108415168D01*
X165668444Y-108437341D01*
X166008211Y-108392365D01*
X166332674Y-108281967D01*
X166532176Y-108175332D01*
X166640599Y-107900204D01*
X165610000Y-106869605D01*
X164579401Y-107900204D01*
X164028682Y-107900204D01*
X163846026Y-107778157D01*
X163547874Y-107654659D01*
X163231358Y-107591700D01*
X162908642Y-107591700D01*
X162592126Y-107654659D01*
X162293974Y-107778157D01*
X162025645Y-107957449D01*
X161797449Y-108185645D01*
X161618157Y-108453974D01*
X161494659Y-108752126D01*
X161431700Y-109068642D01*
X144660000Y-109068642D01*
X144660000Y-107900204D01*
X159499401Y-107900204D01*
X159607824Y-108175332D01*
X159915317Y-108326698D01*
X160246432Y-108415168D01*
X160588444Y-108437341D01*
X160928211Y-108392365D01*
X161252674Y-108281967D01*
X161452176Y-108175332D01*
X161560599Y-107900204D01*
X160530000Y-106869605D01*
X159499401Y-107900204D01*
X144660000Y-107900204D01*
X144660000Y-105660000D01*
X159318276Y-105660000D01*
X159044668Y-105767824D01*
%TA.AperFunction,Conductor*%
D31*
G36*
X159044668Y-105767824D02*
G01*
X158893302Y-106075317D01*
X158804832Y-106406432D01*
X158782659Y-106748444D01*
X158827635Y-107088211D01*
X158938033Y-107412674D01*
X159044668Y-107612176D01*
X159319796Y-107720599D01*
X160350395Y-106690000D01*
X160336253Y-106675858D01*
X160515858Y-106496253D01*
X160530000Y-106510395D01*
X160544143Y-106496253D01*
X160723748Y-106675858D01*
X160709605Y-106690000D01*
X161740204Y-107720599D01*
X162015332Y-107612176D01*
X162166698Y-107304683D01*
X162255168Y-106973568D01*
X162277341Y-106631556D01*
X162232365Y-106291789D01*
X162121967Y-105967326D01*
X162015332Y-105767824D01*
X161741724Y-105660000D01*
X164398276Y-105660000D01*
X164124668Y-105767824D01*
X163973302Y-106075317D01*
X163884832Y-106406432D01*
X163862659Y-106748444D01*
X163907635Y-107088211D01*
X164018033Y-107412674D01*
X164124668Y-107612176D01*
X164399796Y-107720599D01*
X165430395Y-106690000D01*
X165416253Y-106675858D01*
X165595858Y-106496253D01*
X165610000Y-106510395D01*
X165624143Y-106496253D01*
X165803748Y-106675858D01*
X165789605Y-106690000D01*
X166820204Y-107720599D01*
X167095332Y-107612176D01*
X167246698Y-107304683D01*
X167335168Y-106973568D01*
X167357341Y-106631556D01*
X167312365Y-106291789D01*
X167201967Y-105967326D01*
X167095332Y-105767824D01*
X166821724Y-105660000D01*
X181582850Y-105660000D01*
X181482795Y-105809744D01*
X181404774Y-105998102D01*
X181365000Y-106198061D01*
X181365000Y-106401939D01*
X181404774Y-106601898D01*
X181482795Y-106790256D01*
X181575001Y-106928252D01*
X181575001Y-107105343D01*
X181513368Y-107146525D01*
X181306525Y-107353368D01*
X181190000Y-107527760D01*
X181073475Y-107353368D01*
X180866632Y-107146525D01*
X180623411Y-106984010D01*
X180353158Y-106872068D01*
X180066260Y-106815000D01*
X179773740Y-106815000D01*
X179486842Y-106872068D01*
X179216589Y-106984010D01*
X178973368Y-107146525D01*
X178766525Y-107353368D01*
X178650000Y-107527760D01*
X178533475Y-107353368D01*
X178326632Y-107146525D01*
X178083411Y-106984010D01*
X177813158Y-106872068D01*
X177526260Y-106815000D01*
X177233740Y-106815000D01*
X176946842Y-106872068D01*
X176676589Y-106984010D01*
X176433368Y-107146525D01*
X176226525Y-107353368D01*
X176064010Y-107596589D01*
X175952068Y-107866842D01*
X175895000Y-108153740D01*
X175895000Y-108446260D01*
X175952068Y-108733158D01*
X176064010Y-109003411D01*
X176226525Y-109246632D01*
X176433368Y-109453475D01*
X176676589Y-109615990D01*
X176946842Y-109727932D01*
X177233740Y-109785000D01*
X177526260Y-109785000D01*
X177746408Y-109741210D01*
X178040001Y-110034803D01*
X178040000Y-123496289D01*
X177996063Y-123540226D01*
X177882795Y-123709744D01*
X177804774Y-123898102D01*
X177765000Y-124098061D01*
X177765000Y-124301939D01*
X177804774Y-124501898D01*
X177882795Y-124690256D01*
X177996063Y-124859774D01*
X178140226Y-125003937D01*
X178309744Y-125117205D01*
X178498102Y-125195226D01*
X178698061Y-125235000D01*
X178901939Y-125235000D01*
X179101898Y-125195226D01*
X179290256Y-125117205D01*
X179459774Y-125003937D01*
X179494455Y-124969256D01*
X180983701Y-126458503D01*
X181007499Y-126487501D01*
X181036497Y-126511299D01*
X181123223Y-126582474D01*
X181200583Y-126623824D01*
X181255253Y-126653046D01*
X181398514Y-126696503D01*
X181510167Y-126707500D01*
X181510177Y-126707500D01*
X181547500Y-126711176D01*
X181584823Y-126707500D01*
X189075224Y-126707500D01*
X189076590Y-126721368D01*
X189097730Y-126791058D01*
X187698799Y-128189990D01*
X172650922Y-128189990D01*
X172613600Y-128186314D01*
X172576277Y-128189990D01*
X172576267Y-128189990D01*
X172464614Y-128200987D01*
X172344245Y-128237500D01*
X172321353Y-128244444D01*
X172189323Y-128315016D01*
X172164973Y-128335000D01*
X172073599Y-128409989D01*
X172049801Y-128438988D01*
X171536289Y-128952500D01*
X170946178Y-128952500D01*
X170856623Y-128843377D01*
X170803768Y-128800000D01*
X170856623Y-128756623D01*
X170965512Y-128623942D01*
X171046423Y-128472567D01*
X171096248Y-128308316D01*
X171113072Y-128137500D01*
X171113072Y-128032786D01*
X171301898Y-127995226D01*
X171490256Y-127917205D01*
X171659774Y-127803937D01*
X171803937Y-127659774D01*
X171917205Y-127490256D01*
X171995226Y-127301898D01*
X172035000Y-127101939D01*
X172035000Y-126898061D01*
X171995226Y-126698102D01*
X171917205Y-126509744D01*
X171803937Y-126340226D01*
X171665783Y-126202072D01*
X173316000Y-126202072D01*
X173440482Y-126189812D01*
X173560180Y-126153502D01*
X173670494Y-126094537D01*
X173767185Y-126015185D01*
X173846537Y-125918494D01*
X173905502Y-125808180D01*
X173941812Y-125688482D01*
X173954072Y-125564000D01*
X173954072Y-123864000D01*
X173941812Y-123739518D01*
X173905502Y-123619820D01*
X173846537Y-123509506D01*
X173767185Y-123412815D01*
X173670494Y-123333463D01*
X173560180Y-123274498D01*
X173487620Y-123252487D01*
X173619475Y-123120632D01*
X173781990Y-122877411D01*
X173893932Y-122607158D01*
X173951000Y-122320260D01*
X173951000Y-122027740D01*
X173893932Y-121740842D01*
X173781990Y-121470589D01*
X173619475Y-121227368D01*
X173412632Y-121020525D01*
X173230466Y-120898805D01*
X173347355Y-120829178D01*
X173563588Y-120634269D01*
X173737641Y-120400920D01*
X173862825Y-120138099D01*
X173907476Y-119990890D01*
X173786155Y-119761000D01*
X172593000Y-119761000D01*
X172593000Y-119781000D01*
X172339000Y-119781000D01*
X172339000Y-119761000D01*
X171145845Y-119761000D01*
X171024524Y-119990890D01*
X171069175Y-120138099D01*
X171194359Y-120400920D01*
X171368412Y-120634269D01*
X171584645Y-120829178D01*
X171701534Y-120898805D01*
X171519368Y-121020525D01*
X171312525Y-121227368D01*
X171150010Y-121470589D01*
X171127333Y-121525337D01*
X171101723Y-121539026D01*
X171027427Y-121600000D01*
X170985999Y-121633999D01*
X170962201Y-121662997D01*
X169188998Y-123436201D01*
X169160000Y-123459999D01*
X169136202Y-123488997D01*
X169136201Y-123488998D01*
X169065026Y-123575724D01*
X168994454Y-123707754D01*
X168971781Y-123782499D01*
X168950998Y-123851014D01*
X168944497Y-123917015D01*
X168936324Y-124000000D01*
X168940001Y-124037332D01*
X168940000Y-125410198D01*
X167138072Y-127212127D01*
X167138072Y-126925000D01*
X167125812Y-126800518D01*
X167125655Y-126800000D01*
X167125812Y-126799482D01*
X167138072Y-126675000D01*
X167138072Y-125675000D01*
X167125812Y-125550518D01*
X167125655Y-125550000D01*
X167125812Y-125549482D01*
X167138072Y-125425000D01*
X167138072Y-124425000D01*
X167125812Y-124300518D01*
X167125655Y-124300000D01*
X167125812Y-124299482D01*
X167138072Y-124175000D01*
X167135000Y-123960750D01*
X166976250Y-123802000D01*
X166633752Y-123802000D01*
X166624482Y-123799188D01*
X166500000Y-123786928D01*
X164200000Y-123786928D01*
X164075518Y-123799188D01*
X164066248Y-123802000D01*
X163723750Y-123802000D01*
X163565000Y-123960750D01*
X163561928Y-124175000D01*
X163574188Y-124299482D01*
X163574345Y-124300000D01*
X163574188Y-124300518D01*
X163561928Y-124425000D01*
X163561928Y-125425000D01*
X163574188Y-125549482D01*
X163574345Y-125550000D01*
X163574188Y-125550518D01*
X163561928Y-125675000D01*
X163561928Y-126675000D01*
X163574188Y-126799482D01*
X163574345Y-126800000D01*
X163574188Y-126800518D01*
X163561928Y-126925000D01*
X163561928Y-127925000D01*
X163574188Y-128049482D01*
X163574345Y-128050000D01*
X163574188Y-128050518D01*
X163561928Y-128175000D01*
X163561928Y-129175000D01*
X163574188Y-129299482D01*
X163574345Y-129300000D01*
X163574188Y-129300518D01*
X163561928Y-129425000D01*
X163561928Y-130425000D01*
X163574188Y-130549482D01*
X163574345Y-130550000D01*
X163574188Y-130550518D01*
X163561928Y-130675000D01*
X163561928Y-130838484D01*
X163539998Y-130836324D01*
X163502676Y-130840000D01*
X161477331Y-130840000D01*
X161439998Y-130836323D01*
X161402665Y-130840000D01*
X161291012Y-130850997D01*
X161147751Y-130894454D01*
X161015722Y-130965026D01*
X160899997Y-131059999D01*
X160876199Y-131088997D01*
X160328269Y-131636928D01*
X160100000Y-131636928D01*
X159975518Y-131649188D01*
X159975000Y-131649345D01*
X159974482Y-131649188D01*
X159850000Y-131636928D01*
X158850000Y-131636928D01*
X158725518Y-131649188D01*
X158725000Y-131649345D01*
X158724482Y-131649188D01*
X158600000Y-131636928D01*
X157600000Y-131636928D01*
X157475518Y-131649188D01*
X157475000Y-131649345D01*
X157474482Y-131649188D01*
X157350000Y-131636928D01*
X157135750Y-131640000D01*
X156977000Y-131798750D01*
X156977000Y-132141248D01*
X156974188Y-132150518D01*
X156961928Y-132275000D01*
X156961928Y-133572000D01*
X156738072Y-133572000D01*
X156738072Y-132275000D01*
X156725812Y-132150518D01*
X156723000Y-132141248D01*
X156723000Y-131798750D01*
X156600356Y-131676106D01*
X156635000Y-131501939D01*
X156635000Y-131298061D01*
X156595226Y-131098102D01*
X156517205Y-130909744D01*
X156403937Y-130740226D01*
X156259774Y-130596063D01*
X156090256Y-130482795D01*
X155901898Y-130404774D01*
X155701939Y-130365000D01*
X155498061Y-130365000D01*
X155298102Y-130404774D01*
X155133343Y-130473020D01*
X155138072Y-130425000D01*
X155138072Y-129425000D01*
X155125812Y-129300518D01*
X155125655Y-129300000D01*
X155125812Y-129299482D01*
X155138072Y-129175000D01*
X155138072Y-128175000D01*
X155125812Y-128050518D01*
X155125655Y-128050000D01*
X155125812Y-128049482D01*
X155138072Y-127925000D01*
X155138072Y-126925000D01*
X155125812Y-126800518D01*
X155125655Y-126800000D01*
X155125812Y-126799482D01*
X155138072Y-126675000D01*
X155138072Y-125675000D01*
X155125812Y-125550518D01*
X155125655Y-125550000D01*
X155125812Y-125549482D01*
X155138072Y-125425000D01*
X155138072Y-124425000D01*
X155125812Y-124300518D01*
X155125655Y-124300000D01*
X155125812Y-124299482D01*
X155138072Y-124175000D01*
X155135000Y-123960750D01*
X154976250Y-123802000D01*
X154633752Y-123802000D01*
X154624482Y-123799188D01*
X154500000Y-123786928D01*
X153203000Y-123786928D01*
X153203000Y-123548000D01*
X153223000Y-123548000D01*
X153223000Y-122698750D01*
X153477000Y-122698750D01*
X153477000Y-123548000D01*
X154976250Y-123548000D01*
X155135000Y-123389250D01*
X155137526Y-123213072D01*
X156100000Y-123213072D01*
X156224482Y-123200812D01*
X156225000Y-123200655D01*
X156225518Y-123200812D01*
X156350000Y-123213072D01*
X157350000Y-123213072D01*
X157474482Y-123200812D01*
X157475000Y-123200655D01*
X157475518Y-123200812D01*
X157600000Y-123213072D01*
X158600000Y-123213072D01*
X158724482Y-123200812D01*
X158725000Y-123200655D01*
X158725518Y-123200812D01*
X158850000Y-123213072D01*
X159840001Y-123213072D01*
X159840001Y-123585197D01*
X157056420Y-126368779D01*
X156901898Y-126304774D01*
X156701939Y-126265000D01*
X156498061Y-126265000D01*
X156298102Y-126304774D01*
X156109744Y-126382795D01*
X155940226Y-126496063D01*
X155796063Y-126640226D01*
X155682795Y-126809744D01*
X155604774Y-126998102D01*
X155565000Y-127198061D01*
X155565000Y-127401939D01*
X155604774Y-127601898D01*
X155682795Y-127790256D01*
X155796063Y-127959774D01*
X155940226Y-128103937D01*
X156109744Y-128217205D01*
X156298102Y-128295226D01*
X156498061Y-128335000D01*
X156701939Y-128335000D01*
X156901898Y-128295226D01*
X157090256Y-128217205D01*
X157259774Y-128103937D01*
X157310963Y-128052748D01*
X157348986Y-128049003D01*
X157492247Y-128005546D01*
X157624276Y-127934974D01*
X157740001Y-127840001D01*
X157763804Y-127810997D01*
X161111003Y-124463799D01*
X161140001Y-124440001D01*
X161173794Y-124398824D01*
X161234974Y-124324277D01*
X161305546Y-124192247D01*
X161322760Y-124135498D01*
X161349003Y-124048986D01*
X161360000Y-123937333D01*
X161360000Y-123937324D01*
X161363676Y-123900001D01*
X161360000Y-123862678D01*
X161360000Y-123212929D01*
X161564250Y-123210000D01*
X161723000Y-123051250D01*
X161723000Y-122708752D01*
X161725812Y-122699482D01*
X161738072Y-122575000D01*
X161738072Y-120275000D01*
X161725812Y-120150518D01*
X161723000Y-120141248D01*
X161723000Y-119798750D01*
X161564250Y-119640000D01*
X161350000Y-119636928D01*
X161225518Y-119649188D01*
X161225000Y-119649345D01*
X161224482Y-119649188D01*
X161100000Y-119636928D01*
X160100000Y-119636928D01*
X159975518Y-119649188D01*
X159975000Y-119649345D01*
X159974482Y-119649188D01*
X159850000Y-119636928D01*
X158850000Y-119636928D01*
X158725518Y-119649188D01*
X158725000Y-119649345D01*
X158724482Y-119649188D01*
X158600000Y-119636928D01*
X157600000Y-119636928D01*
X157475518Y-119649188D01*
X157475000Y-119649345D01*
X157474482Y-119649188D01*
X157350000Y-119636928D01*
X156350000Y-119636928D01*
X156225518Y-119649188D01*
X156225000Y-119649345D01*
X156224482Y-119649188D01*
X156100000Y-119636928D01*
X155100000Y-119636928D01*
X154975518Y-119649188D01*
X154855820Y-119685498D01*
X154745506Y-119744463D01*
X154648815Y-119823815D01*
X154569463Y-119920506D01*
X154510498Y-120030820D01*
X154474188Y-120150518D01*
X154461928Y-120275000D01*
X154461928Y-122537063D01*
X153635750Y-122540000D01*
X153477000Y-122698750D01*
X153223000Y-122698750D01*
X153064250Y-122540000D01*
X152200000Y-122536928D01*
X152075518Y-122549188D01*
X151955820Y-122585498D01*
X151845506Y-122644463D01*
X151748815Y-122723815D01*
X151669463Y-122820506D01*
X151610498Y-122930820D01*
X151574188Y-123050518D01*
X151573393Y-123058593D01*
X151160000Y-122645201D01*
X151160000Y-121471322D01*
X151163676Y-121433999D01*
X151160000Y-121396677D01*
X151160000Y-121396667D01*
X151149003Y-121285014D01*
X151105546Y-121141753D01*
X151071202Y-121077501D01*
X151034974Y-121009723D01*
X150963799Y-120922997D01*
X150940001Y-120893999D01*
X150911003Y-120870201D01*
X148928968Y-118888166D01*
X149807439Y-118888166D01*
X149842550Y-119101588D01*
X150046826Y-119192458D01*
X150264905Y-119241731D01*
X150488406Y-119247511D01*
X150708740Y-119209577D01*
X150917440Y-119129387D01*
X150969450Y-119101588D01*
X151004561Y-118888166D01*
X150406000Y-118289605D01*
X149807439Y-118888166D01*
X148928968Y-118888166D01*
X148233208Y-118192406D01*
X149268489Y-118192406D01*
X149306423Y-118412740D01*
X149386613Y-118621440D01*
X149414412Y-118673450D01*
X149627834Y-118708561D01*
X150226395Y-118110000D01*
X150585605Y-118110000D01*
X151184166Y-118708561D01*
X151397588Y-118673450D01*
X151488458Y-118469174D01*
X151537731Y-118251095D01*
X151543511Y-118027594D01*
X151505577Y-117807260D01*
X151425387Y-117598560D01*
X151397588Y-117546550D01*
X151184166Y-117511439D01*
X150585605Y-118110000D01*
X150226395Y-118110000D01*
X149627834Y-117511439D01*
X149414412Y-117546550D01*
X149323542Y-117750826D01*
X149274269Y-117968905D01*
X149268489Y-118192406D01*
X148233208Y-118192406D01*
X148201000Y-118160199D01*
X148201000Y-117988212D01*
X148157383Y-117768933D01*
X148071824Y-117562376D01*
X147947612Y-117376480D01*
X147902966Y-117331834D01*
X149807439Y-117331834D01*
X150406000Y-117930395D01*
X151004561Y-117331834D01*
X150969450Y-117118412D01*
X150765174Y-117027542D01*
X150547095Y-116978269D01*
X150323594Y-116972489D01*
X150103260Y-117010423D01*
X149894560Y-117090613D01*
X149842550Y-117118412D01*
X149807439Y-117331834D01*
X147902966Y-117331834D01*
X147789520Y-117218388D01*
X147603624Y-117094176D01*
X147397067Y-117008617D01*
X147177788Y-116965000D01*
X146954212Y-116965000D01*
X146734933Y-117008617D01*
X146528376Y-117094176D01*
X146342480Y-117218388D01*
X146184388Y-117376480D01*
X146060176Y-117562376D01*
X145974617Y-117768933D01*
X145931000Y-117988212D01*
X145931000Y-118211788D01*
X145974617Y-118431067D01*
X146060176Y-118637624D01*
X146184388Y-118823520D01*
X146342480Y-118981612D01*
X146528376Y-119105824D01*
X146734933Y-119191383D01*
X146954212Y-119235000D01*
X147126199Y-119235000D01*
X149640001Y-121748803D01*
X149640000Y-122922679D01*
X149636324Y-122960002D01*
X149640000Y-122997324D01*
X149640000Y-122997334D01*
X149650997Y-123108987D01*
X149686470Y-123225928D01*
X149694454Y-123252248D01*
X149765026Y-123384278D01*
X149786958Y-123411002D01*
X149859999Y-123500003D01*
X149889003Y-123523806D01*
X151561928Y-125196732D01*
X151561928Y-125425000D01*
X151574188Y-125549482D01*
X151574345Y-125550000D01*
X151574188Y-125550518D01*
X151561928Y-125675000D01*
X151561928Y-126675000D01*
X151574188Y-126799482D01*
X151574345Y-126800000D01*
X151574188Y-126800518D01*
X151561928Y-126925000D01*
X151561928Y-127925000D01*
X151574188Y-128049482D01*
X151574345Y-128050000D01*
X151574188Y-128050518D01*
X151561928Y-128175000D01*
X151561928Y-128462126D01*
X150560000Y-127460199D01*
X150560000Y-124662322D01*
X150563676Y-124624999D01*
X150560000Y-124587676D01*
X150560000Y-124587667D01*
X150549003Y-124476014D01*
X150505546Y-124332753D01*
X150434974Y-124200724D01*
X150405656Y-124165000D01*
X150363799Y-124113996D01*
X150363795Y-124113992D01*
X150340001Y-124084999D01*
X150311008Y-124061205D01*
X149238072Y-122988270D01*
X149238072Y-122662500D01*
X149221248Y-122491684D01*
X149171423Y-122327433D01*
X149090512Y-122176058D01*
X148981623Y-122043377D01*
X148848942Y-121934488D01*
X148697567Y-121853577D01*
X148533316Y-121803752D01*
X148362500Y-121786928D01*
X147787500Y-121786928D01*
X147616684Y-121803752D01*
X147452433Y-121853577D01*
X147301058Y-121934488D01*
X147200000Y-122017425D01*
X147098942Y-121934488D01*
X146947567Y-121853577D01*
X146783316Y-121803752D01*
X146612500Y-121786928D01*
X146037500Y-121786928D01*
X145866684Y-121803752D01*
X145702433Y-121853577D01*
X145551058Y-121934488D01*
X145418377Y-122043377D01*
X145309488Y-122176058D01*
X145228577Y-122327433D01*
X145178752Y-122491684D01*
X145161928Y-122662500D01*
X145161928Y-123137500D01*
X145178752Y-123308316D01*
X145228577Y-123472567D01*
X145309488Y-123623942D01*
X145418377Y-123756623D01*
X145551058Y-123865512D01*
X145565000Y-123872964D01*
X145565001Y-124227036D01*
X145551058Y-124234488D01*
X145418377Y-124343377D01*
X145309488Y-124476058D01*
X145228577Y-124627433D01*
X145178752Y-124791684D01*
X145161928Y-124962500D01*
X145161928Y-125437500D01*
X145178752Y-125608316D01*
X145228577Y-125772567D01*
X145309488Y-125923942D01*
X145418377Y-126056623D01*
X145551058Y-126165512D01*
X145702433Y-126246423D01*
X145866684Y-126296248D01*
X146037500Y-126313072D01*
X146537500Y-126313072D01*
X146708316Y-126296248D01*
X146872567Y-126246423D01*
X147023942Y-126165512D01*
X147132783Y-126076188D01*
X147173815Y-126126185D01*
X147270506Y-126205537D01*
X147380820Y-126264502D01*
X147500518Y-126300812D01*
X147625000Y-126313072D01*
X147826750Y-126310000D01*
X147985500Y-126151250D01*
X147985500Y-125327000D01*
X147965500Y-125327000D01*
X147965500Y-125073000D01*
X147985500Y-125073000D01*
X147985500Y-124248750D01*
X147826750Y-124090000D01*
X147625000Y-124086928D01*
X147500518Y-124099188D01*
X147380820Y-124135498D01*
X147270506Y-124194463D01*
X147173815Y-124273815D01*
X147132783Y-124323812D01*
X147085000Y-124284597D01*
X147085000Y-123872964D01*
X147098942Y-123865512D01*
X147200000Y-123782575D01*
X147301058Y-123865512D01*
X147452433Y-123946423D01*
X147616684Y-123996248D01*
X147787500Y-124013072D01*
X148113270Y-124013072D01*
X148294224Y-124194026D01*
X148239500Y-124248750D01*
X148239500Y-125073000D01*
X148259500Y-125073000D01*
X148259500Y-125327000D01*
X148239500Y-125327000D01*
X148239500Y-126151250D01*
X148398250Y-126310000D01*
X148600000Y-126313072D01*
X148724482Y-126300812D01*
X148844180Y-126264502D01*
X148954494Y-126205537D01*
X149040001Y-126135364D01*
X149040000Y-127737677D01*
X149036324Y-127775000D01*
X149040000Y-127812322D01*
X149040000Y-127812332D01*
X149050997Y-127923985D01*
X149089380Y-128050518D01*
X149094454Y-128067246D01*
X149165026Y-128199276D01*
X149196396Y-128237500D01*
X149259999Y-128315001D01*
X149289003Y-128338804D01*
X151365198Y-130415000D01*
X150489802Y-130415000D01*
X150263803Y-130189002D01*
X150240001Y-130159999D01*
X150124276Y-130065026D01*
X149992247Y-129994454D01*
X149848986Y-129950997D01*
X149737333Y-129940000D01*
X149737322Y-129940000D01*
X149700000Y-129936324D01*
X149662678Y-129940000D01*
X149250920Y-129940000D01*
X149171623Y-129843377D01*
X149038942Y-129734488D01*
X148887567Y-129653577D01*
X148723316Y-129603752D01*
X148552500Y-129586928D01*
X147977500Y-129586928D01*
X147806684Y-129603752D01*
X147642433Y-129653577D01*
X147491058Y-129734488D01*
X147390000Y-129817425D01*
X147288942Y-129734488D01*
X147137567Y-129653577D01*
X146973316Y-129603752D01*
X146802500Y-129586928D01*
X146227500Y-129586928D01*
X146056684Y-129603752D01*
X145892433Y-129653577D01*
X145741058Y-129734488D01*
X145608377Y-129843377D01*
X145499488Y-129976058D01*
X145418577Y-130127433D01*
X145368752Y-130291684D01*
X145351928Y-130462500D01*
X145351928Y-130937500D01*
X145368752Y-131108316D01*
X145418577Y-131272567D01*
X145499488Y-131423942D01*
X145608377Y-131556623D01*
X145727157Y-131654103D01*
X145618377Y-131743377D01*
X145509488Y-131876058D01*
X145428577Y-132027433D01*
X145378752Y-132191684D01*
X145361928Y-132362500D01*
X145361928Y-132837500D01*
X145378752Y-133008316D01*
X145428577Y-133172567D01*
X145509488Y-133323942D01*
X145618377Y-133456623D01*
X145751058Y-133565512D01*
X145902433Y-133646423D01*
X146066684Y-133696248D01*
X146237500Y-133713072D01*
X146737500Y-133713072D01*
X146908316Y-133696248D01*
X147072567Y-133646423D01*
X147223942Y-133565512D01*
X147332783Y-133476188D01*
X147373815Y-133526185D01*
X147470506Y-133605537D01*
X147580820Y-133664502D01*
X147700518Y-133700812D01*
X147825000Y-133713072D01*
X148026750Y-133710000D01*
X148185500Y-133551250D01*
X148185500Y-132727000D01*
X148439500Y-132727000D01*
X148439500Y-133551250D01*
X148598250Y-133710000D01*
X148800000Y-133713072D01*
X148924482Y-133700812D01*
X149044180Y-133664502D01*
X149154494Y-133605537D01*
X149251185Y-133526185D01*
X149330537Y-133429494D01*
X149389502Y-133319180D01*
X149425812Y-133199482D01*
X149438072Y-133075000D01*
X149435000Y-132885750D01*
X149276250Y-132727000D01*
X148439500Y-132727000D01*
X148185500Y-132727000D01*
X148165500Y-132727000D01*
X148165500Y-132473000D01*
X148185500Y-132473000D01*
X148185500Y-132453000D01*
X148439500Y-132453000D01*
X148439500Y-132473000D01*
X149276250Y-132473000D01*
X149435000Y-132314250D01*
X149438072Y-132125000D01*
X149425812Y-132000518D01*
X149389502Y-131880820D01*
X149330537Y-131770506D01*
X149251185Y-131673815D01*
X149154494Y-131594463D01*
X149136945Y-131585083D01*
X149171623Y-131556623D01*
X149250920Y-131460000D01*
X149385199Y-131460000D01*
X149611200Y-131686002D01*
X149634999Y-131715001D01*
X149750724Y-131809974D01*
X149882753Y-131880546D01*
X150026014Y-131924003D01*
X150137667Y-131935000D01*
X150137676Y-131935000D01*
X150174999Y-131938676D01*
X150212322Y-131935000D01*
X151618954Y-131935000D01*
X151669463Y-132029494D01*
X151748815Y-132126185D01*
X151845506Y-132205537D01*
X151955820Y-132264502D01*
X152075518Y-132300812D01*
X152200000Y-132313072D01*
X154461928Y-132313072D01*
X154461928Y-133311493D01*
X153742451Y-134030971D01*
X153708684Y-134058683D01*
X153680971Y-134092451D01*
X153680968Y-134092454D01*
X153668103Y-134108130D01*
X153668037Y-134108006D01*
X153588685Y-134011315D01*
X153491994Y-133931963D01*
X153381680Y-133872998D01*
X153261982Y-133836688D01*
X153137500Y-133824428D01*
X152948250Y-133827500D01*
X152789500Y-133986250D01*
X152789500Y-134873000D01*
X152809500Y-134873000D01*
X152809500Y-135127000D01*
X152789500Y-135127000D01*
X152789500Y-135147000D01*
X152535500Y-135147000D01*
X152535500Y-135127000D01*
X151711250Y-135127000D01*
X151552500Y-135285750D01*
X151549428Y-135537500D01*
X151561688Y-135661982D01*
X151597998Y-135781680D01*
X151656963Y-135891994D01*
X151687174Y-135928807D01*
X151580941Y-135985589D01*
X151580939Y-135985590D01*
X151580940Y-135985590D01*
X151479953Y-136068468D01*
X151479951Y-136068470D01*
X151446183Y-136096183D01*
X151418470Y-136129951D01*
X151154956Y-136393465D01*
X151098102Y-136404774D01*
X150909744Y-136482795D01*
X150740226Y-136596063D01*
X150596063Y-136740226D01*
X150482795Y-136909744D01*
X150404774Y-137098102D01*
X150365000Y-137298061D01*
X150365000Y-137501939D01*
X150404774Y-137701898D01*
X150482795Y-137890256D01*
X150596063Y-138059774D01*
X150740226Y-138203937D01*
X150909744Y-138317205D01*
X151098102Y-138395226D01*
X151298061Y-138435000D01*
X151501939Y-138435000D01*
X151701898Y-138395226D01*
X151778882Y-138363338D01*
X151775724Y-138365026D01*
X151659999Y-138459999D01*
X151636196Y-138489003D01*
X151224003Y-138901196D01*
X151194999Y-138924999D01*
X151158082Y-138969983D01*
X151100026Y-139040724D01*
X151049897Y-139134509D01*
X151029454Y-139172754D01*
X150985997Y-139316015D01*
X150975000Y-139427668D01*
X150975000Y-139427678D01*
X150972982Y-139448170D01*
X150788368Y-139571525D01*
X150581525Y-139778368D01*
X150465000Y-139952760D01*
X150348475Y-139778368D01*
X150141632Y-139571525D01*
X149898411Y-139409010D01*
X149628158Y-139297068D01*
X149341260Y-139240000D01*
X149048740Y-139240000D01*
X148828592Y-139283790D01*
X147760000Y-138215199D01*
X147760000Y-136403711D01*
X147803937Y-136359774D01*
X147917205Y-136190256D01*
X147995226Y-136001898D01*
X148035000Y-135801939D01*
X148035000Y-135598061D01*
X147995226Y-135398102D01*
X147917205Y-135209744D01*
X147803937Y-135040226D01*
X147659774Y-134896063D01*
X147490256Y-134782795D01*
X147301898Y-134704774D01*
X147101939Y-134665000D01*
X146898061Y-134665000D01*
X146698102Y-134704774D01*
X146509744Y-134782795D01*
X146340226Y-134896063D01*
X146196063Y-135040226D01*
X146082795Y-135209744D01*
X146004774Y-135398102D01*
X145965000Y-135598061D01*
X145965000Y-135801939D01*
X146004774Y-136001898D01*
X146082795Y-136190256D01*
X146196063Y-136359774D01*
X146240001Y-136403712D01*
X146240000Y-138492677D01*
X146236324Y-138530000D01*
X146240000Y-138567322D01*
X146240000Y-138567332D01*
X146250997Y-138678985D01*
X146294454Y-138822246D01*
X146365026Y-138954276D01*
X146398007Y-138994463D01*
X146459999Y-139070001D01*
X146489003Y-139093804D01*
X146635199Y-139240000D01*
X146508740Y-139240000D01*
X146221842Y-139297068D01*
X145951589Y-139409010D01*
X145708368Y-139571525D01*
X145501525Y-139778368D01*
X145339010Y-140021589D01*
X145227068Y-140291842D01*
X145170000Y-140578740D01*
X145170000Y-140871260D01*
X145227068Y-141158158D01*
X145339010Y-141428411D01*
X145501525Y-141671632D01*
X145708368Y-141878475D01*
X145951589Y-142040990D01*
X146221842Y-142152932D01*
X146508740Y-142210000D01*
X146801260Y-142210000D01*
X147088158Y-142152932D01*
X147358411Y-142040990D01*
X147601632Y-141878475D01*
X147808475Y-141671632D01*
X147925000Y-141497240D01*
X148041525Y-141671632D01*
X148248368Y-141878475D01*
X148491589Y-142040990D01*
X148761842Y-142152932D01*
X149048740Y-142210000D01*
X149341260Y-142210000D01*
X149628158Y-142152932D01*
X149898411Y-142040990D01*
X150141632Y-141878475D01*
X150348475Y-141671632D01*
X150465000Y-141497240D01*
X150581525Y-141671632D01*
X150788368Y-141878475D01*
X151031589Y-142040990D01*
X151301842Y-142152932D01*
X151588740Y-142210000D01*
X151881260Y-142210000D01*
X152168158Y-142152932D01*
X152438411Y-142040990D01*
X152681632Y-141878475D01*
X152888475Y-141671632D01*
X153010195Y-141489466D01*
X153079822Y-141606355D01*
X153274731Y-141822588D01*
X153508080Y-141996641D01*
X153770901Y-142121825D01*
X153918110Y-142166476D01*
X154148000Y-142045155D01*
X154148000Y-140852000D01*
X154128000Y-140852000D01*
X154128000Y-140598000D01*
X154148000Y-140598000D01*
X154148000Y-140578000D01*
X154402000Y-140578000D01*
X154402000Y-140598000D01*
X154422000Y-140598000D01*
X154422000Y-140852000D01*
X154402000Y-140852000D01*
X154402000Y-142045155D01*
X154631890Y-142166476D01*
X154779099Y-142121825D01*
X155041920Y-141996641D01*
X155275269Y-141822588D01*
X155470178Y-141606355D01*
X155539805Y-141489466D01*
X155661525Y-141671632D01*
X155868368Y-141878475D01*
X156111589Y-142040990D01*
X156381842Y-142152932D01*
X156668740Y-142210000D01*
X156961260Y-142210000D01*
X157248158Y-142152932D01*
X157518411Y-142040990D01*
X157761632Y-141878475D01*
X157893487Y-141746620D01*
X157915498Y-141819180D01*
X157974463Y-141929494D01*
X158053815Y-142026185D01*
X158150506Y-142105537D01*
X158260820Y-142164502D01*
X158380518Y-142200812D01*
X158505000Y-142213072D01*
X160205000Y-142213072D01*
X160249028Y-142208736D01*
X160282795Y-142290256D01*
X160396063Y-142459774D01*
X160540226Y-142603937D01*
X160709744Y-142717205D01*
X160898102Y-142795226D01*
X160997894Y-142815076D01*
X160929181Y-142883789D01*
X161046831Y-143001439D01*
X160833412Y-143036550D01*
X160813587Y-143081117D01*
X160805824Y-143062376D01*
X160681612Y-142876480D01*
X160523520Y-142718388D01*
X160337624Y-142594176D01*
X160131067Y-142508617D01*
X159911788Y-142465000D01*
X159688212Y-142465000D01*
X159468933Y-142508617D01*
X159262376Y-142594176D01*
X159081550Y-142715000D01*
X158938454Y-142715000D01*
X158890256Y-142682795D01*
X158701898Y-142604774D01*
X158501939Y-142565000D01*
X158298061Y-142565000D01*
X158098102Y-142604774D01*
X157909744Y-142682795D01*
X157740226Y-142796063D01*
X157596063Y-142940226D01*
X157482795Y-143109744D01*
X157404774Y-143298102D01*
X157365000Y-143498061D01*
X157365000Y-143701939D01*
X157404774Y-143901898D01*
X157482795Y-144090256D01*
X157596063Y-144259774D01*
X157676289Y-144340000D01*
X144660000Y-144340000D01*
X144660000Y-134462500D01*
X151549428Y-134462500D01*
X151552500Y-134714250D01*
X151711250Y-134873000D01*
X152535500Y-134873000D01*
X152535500Y-133986250D01*
X152376750Y-133827500D01*
X152187500Y-133824428D01*
X152063018Y-133836688D01*
X151943320Y-133872998D01*
X151833006Y-133931963D01*
X151736315Y-134011315D01*
X151656963Y-134108006D01*
X151597998Y-134218320D01*
X151561688Y-134338018D01*
X151549428Y-134462500D01*
X144660000Y-134462500D01*
X144660000Y-112980204D01*
X159499401Y-112980204D01*
X159607824Y-113255332D01*
X159915317Y-113406698D01*
X160246432Y-113495168D01*
X160588444Y-113517341D01*
X160928211Y-113472365D01*
X161252674Y-113361967D01*
X161452176Y-113255332D01*
X161560599Y-112980204D01*
X160530000Y-111949605D01*
X159499401Y-112980204D01*
X144660000Y-112980204D01*
X144660000Y-111828444D01*
X158782659Y-111828444D01*
X158827635Y-112168211D01*
X158938033Y-112492674D01*
X159044668Y-112692176D01*
X159319796Y-112800599D01*
X160350395Y-111770000D01*
X160709605Y-111770000D01*
X161740204Y-112800599D01*
X162015332Y-112692176D01*
X162166698Y-112384683D01*
X162255168Y-112053568D01*
X162277341Y-111711556D01*
X162232365Y-111371789D01*
X162121967Y-111047326D01*
X162015332Y-110847824D01*
X161740204Y-110739401D01*
X160709605Y-111770000D01*
X160350395Y-111770000D01*
X159319796Y-110739401D01*
X159044668Y-110847824D01*
X158893302Y-111155317D01*
X158804832Y-111486432D01*
X158782659Y-111828444D01*
X144660000Y-111828444D01*
X144660000Y-110559796D01*
X159499401Y-110559796D01*
X160530000Y-111590395D01*
X161560599Y-110559796D01*
X161452176Y-110284668D01*
X161144683Y-110133302D01*
X160813568Y-110044832D01*
X160471556Y-110022659D01*
X160131789Y-110067635D01*
X159807326Y-110178033D01*
X159607824Y-110284668D01*
X159499401Y-110559796D01*
X144660000Y-110559796D01*
X144660000Y-109068642D01*
X161431700Y-109068642D01*
X161431700Y-109391358D01*
X161494659Y-109707874D01*
X161618157Y-110006026D01*
X161797449Y-110274355D01*
X162025645Y-110502551D01*
X162293974Y-110681843D01*
X162318316Y-110691926D01*
X162318315Y-113106945D01*
X162313558Y-113109488D01*
X162180877Y-113218377D01*
X162071988Y-113351058D01*
X161991077Y-113502433D01*
X161941252Y-113666684D01*
X161924428Y-113837500D01*
X161924428Y-114312500D01*
X161941252Y-114483316D01*
X161991077Y-114647567D01*
X162071988Y-114798942D01*
X162125897Y-114864630D01*
X162053577Y-114999933D01*
X162003752Y-115164184D01*
X161986928Y-115335000D01*
X161986928Y-115935000D01*
X162003752Y-116105816D01*
X162053577Y-116270067D01*
X162134488Y-116421442D01*
X162196907Y-116497500D01*
X162134488Y-116573558D01*
X162053577Y-116724933D01*
X162003752Y-116889184D01*
X161986928Y-117060000D01*
X161986928Y-117660000D01*
X162003752Y-117830816D01*
X162053577Y-117995067D01*
X162134488Y-118146442D01*
X162135908Y-118148172D01*
X162071988Y-118226058D01*
X161991077Y-118377433D01*
X161941252Y-118541684D01*
X161924428Y-118712500D01*
X161924428Y-119187500D01*
X161941252Y-119358316D01*
X161991077Y-119522567D01*
X162071988Y-119673942D01*
X162085430Y-119690320D01*
X161977000Y-119798750D01*
X161977000Y-120141248D01*
X161974188Y-120150518D01*
X161961928Y-120275000D01*
X161961928Y-122575000D01*
X161974188Y-122699482D01*
X161977000Y-122708752D01*
X161977000Y-123051250D01*
X162135750Y-123210000D01*
X162350000Y-123213072D01*
X162474482Y-123200812D01*
X162475000Y-123200655D01*
X162475518Y-123200812D01*
X162600000Y-123213072D01*
X163562474Y-123213072D01*
X163565000Y-123389250D01*
X163723750Y-123548000D01*
X165223000Y-123548000D01*
X165223000Y-122698750D01*
X165477000Y-122698750D01*
X165477000Y-123548000D01*
X166976250Y-123548000D01*
X167135000Y-123389250D01*
X167138072Y-123175000D01*
X167125812Y-123050518D01*
X167089502Y-122930820D01*
X167030537Y-122820506D01*
X166951185Y-122723815D01*
X166854494Y-122644463D01*
X166744180Y-122585498D01*
X166624482Y-122549188D01*
X166500000Y-122536928D01*
X165635750Y-122540000D01*
X165477000Y-122698750D01*
X165223000Y-122698750D01*
X165064250Y-122540000D01*
X164238072Y-122537063D01*
X164238072Y-120275000D01*
X164225812Y-120150518D01*
X164196569Y-120054116D01*
X164287500Y-120063072D01*
X164539250Y-120060000D01*
X164698000Y-119901250D01*
X164698000Y-119077000D01*
X164952000Y-119077000D01*
X164952000Y-119901250D01*
X165110750Y-120060000D01*
X165362500Y-120063072D01*
X165486982Y-120050812D01*
X165606680Y-120014502D01*
X165716994Y-119955537D01*
X165813685Y-119876185D01*
X165893037Y-119779494D01*
X165952002Y-119669180D01*
X165988312Y-119549482D01*
X166000572Y-119425000D01*
X165998172Y-119277110D01*
X171024524Y-119277110D01*
X171145845Y-119507000D01*
X172339000Y-119507000D01*
X172339000Y-118313186D01*
X172593000Y-118313186D01*
X172593000Y-119507000D01*
X173786155Y-119507000D01*
X173907476Y-119277110D01*
X173862825Y-119129901D01*
X173737641Y-118867080D01*
X173563588Y-118633731D01*
X173347355Y-118438822D01*
X173097252Y-118289843D01*
X172822891Y-118192519D01*
X172593000Y-118313186D01*
X172339000Y-118313186D01*
X172109109Y-118192519D01*
X171834748Y-118289843D01*
X171584645Y-118438822D01*
X171368412Y-118633731D01*
X171194359Y-118867080D01*
X171069175Y-119129901D01*
X171024524Y-119277110D01*
X165998172Y-119277110D01*
X165997500Y-119235750D01*
X165838750Y-119077000D01*
X164952000Y-119077000D01*
X164698000Y-119077000D01*
X164678000Y-119077000D01*
X164678000Y-118823000D01*
X164698000Y-118823000D01*
X164698000Y-117998750D01*
X164952000Y-117998750D01*
X164952000Y-118823000D01*
X165838750Y-118823000D01*
X165997500Y-118664250D01*
X166000572Y-118475000D01*
X165988312Y-118350518D01*
X165952002Y-118230820D01*
X165893037Y-118120506D01*
X165813685Y-118023815D01*
X165716994Y-117944463D01*
X165606680Y-117885498D01*
X165486982Y-117849188D01*
X165362500Y-117836928D01*
X165110750Y-117840000D01*
X164952000Y-117998750D01*
X164698000Y-117998750D01*
X164539250Y-117840000D01*
X164287500Y-117836928D01*
X164191527Y-117846380D01*
X164196248Y-117830816D01*
X164213072Y-117660000D01*
X164213072Y-117060000D01*
X164196248Y-116889184D01*
X164146423Y-116724933D01*
X164065512Y-116573558D01*
X164003093Y-116497500D01*
X164065512Y-116421442D01*
X164146423Y-116270067D01*
X164196248Y-116105816D01*
X164213072Y-115935000D01*
X164213072Y-115335000D01*
X164197730Y-115179231D01*
X164287500Y-115188072D01*
X164539250Y-115185000D01*
X164698000Y-115026250D01*
X164698000Y-114202000D01*
X164952000Y-114202000D01*
X164952000Y-115026250D01*
X165110750Y-115185000D01*
X165362500Y-115188072D01*
X165486982Y-115175812D01*
X165606680Y-115139502D01*
X165716994Y-115080537D01*
X165813685Y-115001185D01*
X165893037Y-114904494D01*
X165952002Y-114794180D01*
X165988312Y-114674482D01*
X166000572Y-114550000D01*
X165997500Y-114360750D01*
X165838750Y-114202000D01*
X164952000Y-114202000D01*
X164698000Y-114202000D01*
X164678000Y-114202000D01*
X164678000Y-113948000D01*
X164698000Y-113948000D01*
X164698000Y-113928000D01*
X164952000Y-113928000D01*
X164952000Y-113948000D01*
X165838750Y-113948000D01*
X165997500Y-113789250D01*
X166000572Y-113600000D01*
X165988312Y-113475518D01*
X165988161Y-113475019D01*
X166008211Y-113472365D01*
X166332674Y-113361967D01*
X166532176Y-113255332D01*
X166640599Y-112980204D01*
X165610000Y-111949605D01*
X165595858Y-111963748D01*
X165416253Y-111784143D01*
X165430395Y-111770000D01*
X165789605Y-111770000D01*
X166820204Y-112800599D01*
X167095332Y-112692176D01*
X167246698Y-112384683D01*
X167335168Y-112053568D01*
X167357341Y-111711556D01*
X167312365Y-111371789D01*
X167201967Y-111047326D01*
X167095332Y-110847824D01*
X166820204Y-110739401D01*
X165789605Y-111770000D01*
X165430395Y-111770000D01*
X164399796Y-110739401D01*
X164124668Y-110847824D01*
X163973302Y-111155317D01*
X163884832Y-111486432D01*
X163881685Y-111534974D01*
X163881685Y-110658016D01*
X164028681Y-110559796D01*
X164579401Y-110559796D01*
X165610000Y-111590395D01*
X166640599Y-110559796D01*
X166532176Y-110284668D01*
X166224683Y-110133302D01*
X165893568Y-110044832D01*
X165551556Y-110022659D01*
X165211789Y-110067635D01*
X164887326Y-110178033D01*
X164687824Y-110284668D01*
X164579401Y-110559796D01*
X164028681Y-110559796D01*
X164114355Y-110502551D01*
X164342551Y-110274355D01*
X164521843Y-110006026D01*
X164645341Y-109707874D01*
X164708300Y-109391358D01*
X164708300Y-109068642D01*
X164645341Y-108752126D01*
X164521843Y-108453974D01*
X164342551Y-108185645D01*
X164114355Y-107957449D01*
X164028682Y-107900204D01*
X164579401Y-107900204D01*
X164687824Y-108175332D01*
X164995317Y-108326698D01*
X165326432Y-108415168D01*
X165668444Y-108437341D01*
X166008211Y-108392365D01*
X166332674Y-108281967D01*
X166532176Y-108175332D01*
X166640599Y-107900204D01*
X165610000Y-106869605D01*
X164579401Y-107900204D01*
X164028682Y-107900204D01*
X163846026Y-107778157D01*
X163547874Y-107654659D01*
X163231358Y-107591700D01*
X162908642Y-107591700D01*
X162592126Y-107654659D01*
X162293974Y-107778157D01*
X162025645Y-107957449D01*
X161797449Y-108185645D01*
X161618157Y-108453974D01*
X161494659Y-108752126D01*
X161431700Y-109068642D01*
X144660000Y-109068642D01*
X144660000Y-107900204D01*
X159499401Y-107900204D01*
X159607824Y-108175332D01*
X159915317Y-108326698D01*
X160246432Y-108415168D01*
X160588444Y-108437341D01*
X160928211Y-108392365D01*
X161252674Y-108281967D01*
X161452176Y-108175332D01*
X161560599Y-107900204D01*
X160530000Y-106869605D01*
X159499401Y-107900204D01*
X144660000Y-107900204D01*
X144660000Y-105660000D01*
X159318276Y-105660000D01*
X159044668Y-105767824D01*
G37*
%TD.AperFunction*%
D30*
X157475518Y-135200812D02*
X157540000Y-135207163D01*
X157540000Y-135348788D01*
X157119019Y-135769769D01*
X157076250Y-135727000D01*
X156189500Y-135727000D01*
X156189500Y-136551250D01*
X156263519Y-136625269D01*
X155853994Y-137034795D01*
X155824990Y-137058598D01*
X155769862Y-137125773D01*
X155730017Y-137174323D01*
X155676739Y-137273998D01*
X155659445Y-137306353D01*
X155615988Y-137449614D01*
X155604991Y-137561267D01*
X155604991Y-137561277D01*
X155601315Y-137598599D01*
X155604991Y-137635921D01*
X155604991Y-138020207D01*
X155385199Y-138240000D01*
X152237322Y-138240000D01*
X152199999Y-138236324D01*
X152162676Y-138240000D01*
X152162667Y-138240000D01*
X152051014Y-138250997D01*
X151938068Y-138285258D01*
X152059774Y-138203937D01*
X152203937Y-138059774D01*
X152317205Y-137890256D01*
X152317325Y-137889967D01*
X152425000Y-137900572D01*
X152900000Y-137900572D01*
X153070816Y-137883748D01*
X153235067Y-137833923D01*
X153386442Y-137753012D01*
X153519123Y-137644123D01*
X153591825Y-137555536D01*
X153640226Y-137603937D01*
X153809744Y-137717205D01*
X153998102Y-137795226D01*
X154198061Y-137835000D01*
X154401939Y-137835000D01*
X154601898Y-137795226D01*
X154790256Y-137717205D01*
X154959774Y-137603937D01*
X155103937Y-137459774D01*
X155217205Y-137290256D01*
X155295226Y-137101898D01*
X155335000Y-136901939D01*
X155335000Y-136698061D01*
X155331375Y-136679838D01*
X155400518Y-136700812D01*
X155525000Y-136713072D01*
X155776750Y-136710000D01*
X155935500Y-136551250D01*
X155935500Y-135727000D01*
X155915500Y-135727000D01*
X155915500Y-135473000D01*
X155935500Y-135473000D01*
X155935500Y-135453000D01*
X156189500Y-135453000D01*
X156189500Y-135473000D01*
X157076250Y-135473000D01*
X157235000Y-135314250D01*
X157236669Y-135211447D01*
X157350000Y-135213072D01*
X157474482Y-135200812D01*
X157475000Y-135200655D01*
X157475518Y-135200812D01*
%TA.AperFunction,Conductor*%
D31*
G36*
X157475518Y-135200812D02*
G01*
X157540000Y-135207163D01*
X157540000Y-135348788D01*
X157119019Y-135769769D01*
X157076250Y-135727000D01*
X156189500Y-135727000D01*
X156189500Y-136551250D01*
X156263519Y-136625269D01*
X155853994Y-137034795D01*
X155824990Y-137058598D01*
X155769862Y-137125773D01*
X155730017Y-137174323D01*
X155676739Y-137273998D01*
X155659445Y-137306353D01*
X155615988Y-137449614D01*
X155604991Y-137561267D01*
X155604991Y-137561277D01*
X155601315Y-137598599D01*
X155604991Y-137635921D01*
X155604991Y-138020207D01*
X155385199Y-138240000D01*
X152237322Y-138240000D01*
X152199999Y-138236324D01*
X152162676Y-138240000D01*
X152162667Y-138240000D01*
X152051014Y-138250997D01*
X151938068Y-138285258D01*
X152059774Y-138203937D01*
X152203937Y-138059774D01*
X152317205Y-137890256D01*
X152317325Y-137889967D01*
X152425000Y-137900572D01*
X152900000Y-137900572D01*
X153070816Y-137883748D01*
X153235067Y-137833923D01*
X153386442Y-137753012D01*
X153519123Y-137644123D01*
X153591825Y-137555536D01*
X153640226Y-137603937D01*
X153809744Y-137717205D01*
X153998102Y-137795226D01*
X154198061Y-137835000D01*
X154401939Y-137835000D01*
X154601898Y-137795226D01*
X154790256Y-137717205D01*
X154959774Y-137603937D01*
X155103937Y-137459774D01*
X155217205Y-137290256D01*
X155295226Y-137101898D01*
X155335000Y-136901939D01*
X155335000Y-136698061D01*
X155331375Y-136679838D01*
X155400518Y-136700812D01*
X155525000Y-136713072D01*
X155776750Y-136710000D01*
X155935500Y-136551250D01*
X155935500Y-135727000D01*
X155915500Y-135727000D01*
X155915500Y-135473000D01*
X155935500Y-135473000D01*
X155935500Y-135453000D01*
X156189500Y-135453000D01*
X156189500Y-135473000D01*
X157076250Y-135473000D01*
X157235000Y-135314250D01*
X157236669Y-135211447D01*
X157350000Y-135213072D01*
X157474482Y-135200812D01*
X157475000Y-135200655D01*
X157475518Y-135200812D01*
G37*
%TD.AperFunction*%
D30*
X193340001Y-126903896D02*
X193324482Y-126899188D01*
X193206093Y-126887528D01*
X193227593Y-126812662D01*
X193238001Y-126688012D01*
X193235000Y-126233250D01*
X193076250Y-126074500D01*
X192473000Y-126074500D01*
X192473000Y-126094500D01*
X192438072Y-126094500D01*
X192438072Y-125800500D01*
X192473000Y-125800500D01*
X192473000Y-125820500D01*
X193076250Y-125820500D01*
X193235000Y-125661750D01*
X193238001Y-125206988D01*
X193227593Y-125082338D01*
X193193067Y-124962113D01*
X193135750Y-124850934D01*
X193057844Y-124753074D01*
X193024552Y-124724913D01*
X193109471Y-124621440D01*
X193179987Y-124489515D01*
X193223410Y-124346368D01*
X193238072Y-124197500D01*
X193238072Y-122947500D01*
X193223410Y-122798632D01*
X193179987Y-122655485D01*
X193110000Y-122524550D01*
X193110000Y-122515403D01*
X193181623Y-122456623D01*
X193290512Y-122323942D01*
X193340000Y-122231355D01*
X193340001Y-126903896D01*
%TA.AperFunction,Conductor*%
D31*
G36*
X193340001Y-126903896D02*
G01*
X193324482Y-126899188D01*
X193206093Y-126887528D01*
X193227593Y-126812662D01*
X193238001Y-126688012D01*
X193235000Y-126233250D01*
X193076250Y-126074500D01*
X192473000Y-126074500D01*
X192473000Y-126094500D01*
X192438072Y-126094500D01*
X192438072Y-125800500D01*
X192473000Y-125800500D01*
X192473000Y-125820500D01*
X193076250Y-125820500D01*
X193235000Y-125661750D01*
X193238001Y-125206988D01*
X193227593Y-125082338D01*
X193193067Y-124962113D01*
X193135750Y-124850934D01*
X193057844Y-124753074D01*
X193024552Y-124724913D01*
X193109471Y-124621440D01*
X193179987Y-124489515D01*
X193223410Y-124346368D01*
X193238072Y-124197500D01*
X193238072Y-122947500D01*
X193223410Y-122798632D01*
X193179987Y-122655485D01*
X193110000Y-122524550D01*
X193110000Y-122515403D01*
X193181623Y-122456623D01*
X193290512Y-122323942D01*
X193340000Y-122231355D01*
X193340001Y-126903896D01*
G37*
%TD.AperFunction*%
D30*
X193340000Y-119964777D02*
X193317205Y-119909744D01*
X193203937Y-119740226D01*
X193059774Y-119596063D01*
X192890256Y-119482795D01*
X192701898Y-119404774D01*
X192501939Y-119365000D01*
X192298061Y-119365000D01*
X192098102Y-119404774D01*
X191909744Y-119482795D01*
X191740226Y-119596063D01*
X191596063Y-119740226D01*
X191482795Y-119909744D01*
X191404774Y-120098102D01*
X191365000Y-120298061D01*
X191365000Y-120501939D01*
X191377921Y-120566896D01*
X191319180Y-120535498D01*
X191199482Y-120499188D01*
X191075000Y-120486928D01*
X190823250Y-120490000D01*
X190664500Y-120648750D01*
X190664500Y-121473000D01*
X190684500Y-121473000D01*
X190684500Y-121727000D01*
X190664500Y-121727000D01*
X190664500Y-121747000D01*
X190410500Y-121747000D01*
X190410500Y-121727000D01*
X189523750Y-121727000D01*
X189365000Y-121885750D01*
X189361928Y-122075000D01*
X189374188Y-122199482D01*
X189394337Y-122265904D01*
X189337657Y-122297292D01*
X189242156Y-122378074D01*
X189164250Y-122475934D01*
X189106933Y-122587113D01*
X189072407Y-122707338D01*
X189061999Y-122831988D01*
X189065000Y-123286750D01*
X189223750Y-123445500D01*
X189827000Y-123445500D01*
X189827000Y-123425500D01*
X189861928Y-123425500D01*
X189861928Y-123719500D01*
X189827000Y-123719500D01*
X189827000Y-123699500D01*
X189223750Y-123699500D01*
X189065000Y-123858250D01*
X189061999Y-124313012D01*
X189072407Y-124437662D01*
X189106933Y-124557887D01*
X189164250Y-124669066D01*
X189242156Y-124766926D01*
X189275448Y-124795087D01*
X189190529Y-124898560D01*
X189120013Y-125030485D01*
X189076590Y-125173632D01*
X189075224Y-125187500D01*
X181862302Y-125187500D01*
X180360000Y-123685199D01*
X180360000Y-121125000D01*
X189361928Y-121125000D01*
X189365000Y-121314250D01*
X189523750Y-121473000D01*
X190410500Y-121473000D01*
X190410500Y-120648750D01*
X190251750Y-120490000D01*
X190000000Y-120486928D01*
X189875518Y-120499188D01*
X189755820Y-120535498D01*
X189645506Y-120594463D01*
X189548815Y-120673815D01*
X189469463Y-120770506D01*
X189410498Y-120880820D01*
X189374188Y-121000518D01*
X189361928Y-121125000D01*
X180360000Y-121125000D01*
X180360000Y-109725098D01*
X180623411Y-109615990D01*
X180866632Y-109453475D01*
X181073475Y-109246632D01*
X181190000Y-109072240D01*
X181306525Y-109246632D01*
X181513368Y-109453475D01*
X181756589Y-109615990D01*
X182026842Y-109727932D01*
X182313740Y-109785000D01*
X182606260Y-109785000D01*
X182893158Y-109727932D01*
X183163411Y-109615990D01*
X183406632Y-109453475D01*
X183538487Y-109321620D01*
X183560498Y-109394180D01*
X183619463Y-109504494D01*
X183698815Y-109601185D01*
X183795506Y-109680537D01*
X183905820Y-109739502D01*
X184025518Y-109775812D01*
X184150000Y-109788072D01*
X184714250Y-109785000D01*
X184873000Y-109626250D01*
X184873000Y-108427000D01*
X185127000Y-108427000D01*
X185127000Y-109626250D01*
X185285750Y-109785000D01*
X185850000Y-109788072D01*
X185974482Y-109775812D01*
X186094180Y-109739502D01*
X186204494Y-109680537D01*
X186301185Y-109601185D01*
X186380537Y-109504494D01*
X186439502Y-109394180D01*
X186475812Y-109274482D01*
X186488072Y-109150000D01*
X186485000Y-108585750D01*
X186326250Y-108427000D01*
X185127000Y-108427000D01*
X184873000Y-108427000D01*
X184853000Y-108427000D01*
X184853000Y-108173000D01*
X184873000Y-108173000D01*
X184873000Y-106973750D01*
X185127000Y-106973750D01*
X185127000Y-108173000D01*
X186326250Y-108173000D01*
X186485000Y-108014250D01*
X186488072Y-107450000D01*
X186475812Y-107325518D01*
X186439502Y-107205820D01*
X186380537Y-107095506D01*
X186301185Y-106998815D01*
X186204494Y-106919463D01*
X186094180Y-106860498D01*
X185974482Y-106824188D01*
X185850000Y-106811928D01*
X185285750Y-106815000D01*
X185127000Y-106973750D01*
X184873000Y-106973750D01*
X184714250Y-106815000D01*
X184150000Y-106811928D01*
X184025518Y-106824188D01*
X183905820Y-106860498D01*
X183795506Y-106919463D01*
X183698815Y-106998815D01*
X183619463Y-107095506D01*
X183560498Y-107205820D01*
X183538487Y-107278380D01*
X183406632Y-107146525D01*
X183345000Y-107105344D01*
X183345000Y-106723153D01*
X183395226Y-106601898D01*
X183435000Y-106401939D01*
X183435000Y-106198061D01*
X183395226Y-105998102D01*
X183317205Y-105809744D01*
X183217150Y-105660000D01*
X193340000Y-105660000D01*
X193340000Y-119964777D01*
%TA.AperFunction,Conductor*%
D31*
G36*
X193340000Y-119964777D02*
G01*
X193317205Y-119909744D01*
X193203937Y-119740226D01*
X193059774Y-119596063D01*
X192890256Y-119482795D01*
X192701898Y-119404774D01*
X192501939Y-119365000D01*
X192298061Y-119365000D01*
X192098102Y-119404774D01*
X191909744Y-119482795D01*
X191740226Y-119596063D01*
X191596063Y-119740226D01*
X191482795Y-119909744D01*
X191404774Y-120098102D01*
X191365000Y-120298061D01*
X191365000Y-120501939D01*
X191377921Y-120566896D01*
X191319180Y-120535498D01*
X191199482Y-120499188D01*
X191075000Y-120486928D01*
X190823250Y-120490000D01*
X190664500Y-120648750D01*
X190664500Y-121473000D01*
X190684500Y-121473000D01*
X190684500Y-121727000D01*
X190664500Y-121727000D01*
X190664500Y-121747000D01*
X190410500Y-121747000D01*
X190410500Y-121727000D01*
X189523750Y-121727000D01*
X189365000Y-121885750D01*
X189361928Y-122075000D01*
X189374188Y-122199482D01*
X189394337Y-122265904D01*
X189337657Y-122297292D01*
X189242156Y-122378074D01*
X189164250Y-122475934D01*
X189106933Y-122587113D01*
X189072407Y-122707338D01*
X189061999Y-122831988D01*
X189065000Y-123286750D01*
X189223750Y-123445500D01*
X189827000Y-123445500D01*
X189827000Y-123425500D01*
X189861928Y-123425500D01*
X189861928Y-123719500D01*
X189827000Y-123719500D01*
X189827000Y-123699500D01*
X189223750Y-123699500D01*
X189065000Y-123858250D01*
X189061999Y-124313012D01*
X189072407Y-124437662D01*
X189106933Y-124557887D01*
X189164250Y-124669066D01*
X189242156Y-124766926D01*
X189275448Y-124795087D01*
X189190529Y-124898560D01*
X189120013Y-125030485D01*
X189076590Y-125173632D01*
X189075224Y-125187500D01*
X181862302Y-125187500D01*
X180360000Y-123685199D01*
X180360000Y-121125000D01*
X189361928Y-121125000D01*
X189365000Y-121314250D01*
X189523750Y-121473000D01*
X190410500Y-121473000D01*
X190410500Y-120648750D01*
X190251750Y-120490000D01*
X190000000Y-120486928D01*
X189875518Y-120499188D01*
X189755820Y-120535498D01*
X189645506Y-120594463D01*
X189548815Y-120673815D01*
X189469463Y-120770506D01*
X189410498Y-120880820D01*
X189374188Y-121000518D01*
X189361928Y-121125000D01*
X180360000Y-121125000D01*
X180360000Y-109725098D01*
X180623411Y-109615990D01*
X180866632Y-109453475D01*
X181073475Y-109246632D01*
X181190000Y-109072240D01*
X181306525Y-109246632D01*
X181513368Y-109453475D01*
X181756589Y-109615990D01*
X182026842Y-109727932D01*
X182313740Y-109785000D01*
X182606260Y-109785000D01*
X182893158Y-109727932D01*
X183163411Y-109615990D01*
X183406632Y-109453475D01*
X183538487Y-109321620D01*
X183560498Y-109394180D01*
X183619463Y-109504494D01*
X183698815Y-109601185D01*
X183795506Y-109680537D01*
X183905820Y-109739502D01*
X184025518Y-109775812D01*
X184150000Y-109788072D01*
X184714250Y-109785000D01*
X184873000Y-109626250D01*
X184873000Y-108427000D01*
X185127000Y-108427000D01*
X185127000Y-109626250D01*
X185285750Y-109785000D01*
X185850000Y-109788072D01*
X185974482Y-109775812D01*
X186094180Y-109739502D01*
X186204494Y-109680537D01*
X186301185Y-109601185D01*
X186380537Y-109504494D01*
X186439502Y-109394180D01*
X186475812Y-109274482D01*
X186488072Y-109150000D01*
X186485000Y-108585750D01*
X186326250Y-108427000D01*
X185127000Y-108427000D01*
X184873000Y-108427000D01*
X184853000Y-108427000D01*
X184853000Y-108173000D01*
X184873000Y-108173000D01*
X184873000Y-106973750D01*
X185127000Y-106973750D01*
X185127000Y-108173000D01*
X186326250Y-108173000D01*
X186485000Y-108014250D01*
X186488072Y-107450000D01*
X186475812Y-107325518D01*
X186439502Y-107205820D01*
X186380537Y-107095506D01*
X186301185Y-106998815D01*
X186204494Y-106919463D01*
X186094180Y-106860498D01*
X185974482Y-106824188D01*
X185850000Y-106811928D01*
X185285750Y-106815000D01*
X185127000Y-106973750D01*
X184873000Y-106973750D01*
X184714250Y-106815000D01*
X184150000Y-106811928D01*
X184025518Y-106824188D01*
X183905820Y-106860498D01*
X183795506Y-106919463D01*
X183698815Y-106998815D01*
X183619463Y-107095506D01*
X183560498Y-107205820D01*
X183538487Y-107278380D01*
X183406632Y-107146525D01*
X183345000Y-107105344D01*
X183345000Y-106723153D01*
X183395226Y-106601898D01*
X183435000Y-106401939D01*
X183435000Y-106198061D01*
X183395226Y-105998102D01*
X183317205Y-105809744D01*
X183217150Y-105660000D01*
X193340000Y-105660000D01*
X193340000Y-119964777D01*
G37*
%TD.AperFunction*%
%TD*%
M02*
