%TF.GenerationSoftware,KiCad,Pcbnew,(5.1.10)-1*%
%TF.CreationDate,2022-03-06T21:17:49+00:00*%
%TF.ProjectId,main,6d61696e-2e6b-4696-9361-645f70636258,rev?*%
%TF.SameCoordinates,Original*%
%TF.FileFunction,Copper,L3,Inr*%
%TF.FilePolarity,Positive*%
%FSLAX46Y46*%
G04 Gerber Fmt 4.6, Leading zero omitted, Abs format (unit mm)*
G04 Created by KiCad (PCBNEW (5.1.10)-1) date 2022-03-06 21:17:49*
%MOMM*%
%LPD*%
G01*
G04 APERTURE LIST*
%TA.AperFunction,ComponentPad*%
%ADD10O,1.350000X1.700000*%
%TD*%
%TA.AperFunction,ComponentPad*%
%ADD11O,1.100000X1.500000*%
%TD*%
%TA.AperFunction,ComponentPad*%
%ADD12C,2.209800*%
%TD*%
%TA.AperFunction,ComponentPad*%
%ADD13C,2.006600*%
%TD*%
%TA.AperFunction,ComponentPad*%
%ADD14O,1.700000X1.700000*%
%TD*%
%TA.AperFunction,ComponentPad*%
%ADD15R,1.700000X1.700000*%
%TD*%
%TA.AperFunction,ViaPad*%
%ADD16C,0.800000*%
%TD*%
%TA.AperFunction,Conductor*%
%ADD17C,0.254000*%
%TD*%
%TA.AperFunction,Conductor*%
%ADD18C,0.100000*%
%TD*%
G04 APERTURE END LIST*
D10*
%TO.N,Net-(USB_PWR1-Pad6)*%
%TO.C,USB_PWR1*%
X171735000Y-143275000D03*
X166275000Y-143275000D03*
D11*
X171425000Y-140275000D03*
X166585000Y-140275000D03*
%TD*%
D12*
%TO.N,GND*%
%TO.C,J2*%
X165610000Y-106690000D03*
X165610000Y-111770000D03*
X160530000Y-111770000D03*
X160530000Y-106690000D03*
D13*
%TO.N,Net-(C8-Pad1)*%
X163070000Y-109230000D03*
%TD*%
D14*
%TO.N,I2C_SDA*%
%TO.C,J6*%
X177380000Y-108300000D03*
%TO.N,I2C_SCL*%
X179920000Y-108300000D03*
%TO.N,+3V3*%
X182460000Y-108300000D03*
D15*
%TO.N,GND*%
X185000000Y-108300000D03*
%TD*%
D14*
%TO.N,GND*%
%TO.C,J4*%
X172466000Y-119634000D03*
%TO.N,UART1_TX*%
X172466000Y-122174000D03*
D15*
%TO.N,UART1_RX*%
X172466000Y-124714000D03*
%TD*%
D14*
%TO.N,N/C*%
%TO.C,J1*%
X146655000Y-140725000D03*
%TO.N,RST*%
X149195000Y-140725000D03*
%TO.N,SWDIO*%
X151735000Y-140725000D03*
%TO.N,GND*%
X154275000Y-140725000D03*
%TO.N,SWCLK*%
X156815000Y-140725000D03*
D15*
%TO.N,+3V3*%
X159355000Y-140725000D03*
%TD*%
D16*
%TO.N,GND*%
X193000000Y-129200000D03*
X188000000Y-141800000D03*
X186400000Y-138000000D03*
X186200000Y-139500000D03*
X181800000Y-134500000D03*
X180600000Y-137000000D03*
X149600000Y-132600000D03*
X149000000Y-126200000D03*
X155200000Y-123600000D03*
X151800000Y-118000000D03*
X163400000Y-123600000D03*
X161800000Y-123200000D03*
X157000000Y-131400000D03*
X163200000Y-143600000D03*
X170400000Y-138800000D03*
X169400000Y-138800000D03*
X188800000Y-123000000D03*
X189200000Y-121600000D03*
X155600000Y-136800000D03*
X174400000Y-119500000D03*
X184900000Y-106300000D03*
X167720000Y-111850000D03*
X168070000Y-106610000D03*
X158430000Y-106650000D03*
X158330000Y-111850000D03*
X164500000Y-120500000D03*
X161800000Y-119400000D03*
X161800000Y-118200000D03*
X161800000Y-117000000D03*
X161800000Y-115800000D03*
X161800000Y-114600000D03*
X161800000Y-113400000D03*
X165600000Y-120200000D03*
X166400000Y-119200000D03*
X165800000Y-118000000D03*
X164600000Y-117600000D03*
X164600000Y-116400000D03*
X164600000Y-115200000D03*
X165800000Y-115000000D03*
X166400000Y-114000000D03*
X191400000Y-137600000D03*
X190600000Y-141800000D03*
X189800000Y-135600000D03*
X189000000Y-132000000D03*
X192000000Y-134800000D03*
X179200000Y-133200000D03*
X186600000Y-120400000D03*
X191200000Y-114200000D03*
X183200000Y-115400000D03*
X191800000Y-107400000D03*
X189000000Y-110400000D03*
X173400000Y-113200000D03*
X170000000Y-115600000D03*
X177400000Y-113000000D03*
X150600000Y-113200000D03*
X155800000Y-115600000D03*
X147600000Y-110600000D03*
X151000000Y-107800000D03*
X159600000Y-129000000D03*
X161000000Y-129000000D03*
X162400000Y-129000000D03*
X163000000Y-127800000D03*
X162800000Y-126200000D03*
X162400000Y-125000000D03*
X161200000Y-125600000D03*
X161200000Y-127400000D03*
X157200000Y-129600000D03*
X159600000Y-130200000D03*
X161000000Y-130200000D03*
X162400000Y-130200000D03*
X157000000Y-124400000D03*
X158800000Y-124000000D03*
X158400000Y-128600000D03*
X158200000Y-130600000D03*
X155600000Y-129800000D03*
X168800000Y-121400000D03*
X167000000Y-122400000D03*
X169400000Y-119200000D03*
X177000000Y-125000000D03*
X174200000Y-127000000D03*
X188000000Y-133200000D03*
X177000000Y-142200000D03*
X179200000Y-139800000D03*
X164200000Y-139000000D03*
X163600000Y-141400000D03*
X162400000Y-138800000D03*
X151200000Y-143400000D03*
X146200000Y-143800000D03*
X145600000Y-137800000D03*
X148400000Y-137800000D03*
X151600000Y-134200000D03*
X151200000Y-125600000D03*
X145800000Y-127200000D03*
X146200000Y-119600000D03*
X154600000Y-118400000D03*
X178000000Y-135400000D03*
X174600000Y-108000000D03*
X158400000Y-138000000D03*
X182000000Y-127600000D03*
X184400000Y-127000000D03*
X176000000Y-127200000D03*
X187400000Y-127200000D03*
X176600000Y-119600000D03*
X182800000Y-120000000D03*
X186800000Y-113600000D03*
X154200000Y-143000000D03*
%TO.N,+3V3*%
X186200000Y-134300000D03*
X154300000Y-136800000D03*
X182400000Y-106300000D03*
X171000000Y-127000000D03*
X170800000Y-134400000D03*
X151400000Y-137400000D03*
X191000000Y-129200000D03*
X192400000Y-120400000D03*
X161200000Y-141800000D03*
X158400000Y-143600000D03*
X155600000Y-131400000D03*
X186400000Y-136600000D03*
X186400000Y-135600000D03*
X180000000Y-141800000D03*
%TO.N,I2C_SDA*%
X171400000Y-132400000D03*
X178800000Y-124200000D03*
%TO.N,RST*%
X156600000Y-127300000D03*
X147000000Y-135700000D03*
%TD*%
D17*
%TO.N,+3V3*%
X157939744Y-105732795D02*
X157770226Y-105846063D01*
X157626063Y-105990226D01*
X157512795Y-106159744D01*
X157434774Y-106348102D01*
X157395000Y-106548061D01*
X157395000Y-106751939D01*
X157434774Y-106951898D01*
X157512795Y-107140256D01*
X157626063Y-107309774D01*
X157770226Y-107453937D01*
X157939744Y-107567205D01*
X158128102Y-107645226D01*
X158328061Y-107685000D01*
X158531939Y-107685000D01*
X158731898Y-107645226D01*
X158920256Y-107567205D01*
X158991681Y-107519481D01*
X159178531Y-107799122D01*
X159420878Y-108041469D01*
X159705848Y-108231880D01*
X160022490Y-108363037D01*
X160358635Y-108429900D01*
X160701365Y-108429900D01*
X161037510Y-108363037D01*
X161354152Y-108231880D01*
X161639122Y-108041469D01*
X161881469Y-107799122D01*
X162071880Y-107514152D01*
X162203037Y-107197510D01*
X162269900Y-106861365D01*
X162269900Y-106518635D01*
X162203037Y-106182490D01*
X162071880Y-105865848D01*
X161934337Y-105660000D01*
X164205663Y-105660000D01*
X164068120Y-105865848D01*
X163936963Y-106182490D01*
X163870100Y-106518635D01*
X163870100Y-106861365D01*
X163936963Y-107197510D01*
X164068120Y-107514152D01*
X164258531Y-107799122D01*
X164500878Y-108041469D01*
X164785848Y-108231880D01*
X165102490Y-108363037D01*
X165438635Y-108429900D01*
X165781365Y-108429900D01*
X166117510Y-108363037D01*
X166434152Y-108231880D01*
X166719122Y-108041469D01*
X166862530Y-107898061D01*
X173565000Y-107898061D01*
X173565000Y-108101939D01*
X173604774Y-108301898D01*
X173682795Y-108490256D01*
X173796063Y-108659774D01*
X173940226Y-108803937D01*
X174109744Y-108917205D01*
X174298102Y-108995226D01*
X174498061Y-109035000D01*
X174701939Y-109035000D01*
X174901898Y-108995226D01*
X175090256Y-108917205D01*
X175259774Y-108803937D01*
X175403937Y-108659774D01*
X175517205Y-108490256D01*
X175595226Y-108301898D01*
X175624696Y-108153740D01*
X175895000Y-108153740D01*
X175895000Y-108446260D01*
X175952068Y-108733158D01*
X176064010Y-109003411D01*
X176226525Y-109246632D01*
X176433368Y-109453475D01*
X176676589Y-109615990D01*
X176946842Y-109727932D01*
X177233740Y-109785000D01*
X177526260Y-109785000D01*
X177813158Y-109727932D01*
X178083411Y-109615990D01*
X178326632Y-109453475D01*
X178533475Y-109246632D01*
X178650000Y-109072240D01*
X178766525Y-109246632D01*
X178973368Y-109453475D01*
X179216589Y-109615990D01*
X179486842Y-109727932D01*
X179773740Y-109785000D01*
X180066260Y-109785000D01*
X180353158Y-109727932D01*
X180623411Y-109615990D01*
X180866632Y-109453475D01*
X181073475Y-109246632D01*
X181195195Y-109064466D01*
X181264822Y-109181355D01*
X181459731Y-109397588D01*
X181693080Y-109571641D01*
X181955901Y-109696825D01*
X182103110Y-109741476D01*
X182333000Y-109620155D01*
X182333000Y-108427000D01*
X182313000Y-108427000D01*
X182313000Y-108173000D01*
X182333000Y-108173000D01*
X182333000Y-106979845D01*
X182103110Y-106858524D01*
X181955901Y-106903175D01*
X181693080Y-107028359D01*
X181459731Y-107202412D01*
X181264822Y-107418645D01*
X181195195Y-107535534D01*
X181073475Y-107353368D01*
X180866632Y-107146525D01*
X180623411Y-106984010D01*
X180353158Y-106872068D01*
X180066260Y-106815000D01*
X179773740Y-106815000D01*
X179486842Y-106872068D01*
X179216589Y-106984010D01*
X178973368Y-107146525D01*
X178766525Y-107353368D01*
X178650000Y-107527760D01*
X178533475Y-107353368D01*
X178326632Y-107146525D01*
X178083411Y-106984010D01*
X177813158Y-106872068D01*
X177526260Y-106815000D01*
X177233740Y-106815000D01*
X176946842Y-106872068D01*
X176676589Y-106984010D01*
X176433368Y-107146525D01*
X176226525Y-107353368D01*
X176064010Y-107596589D01*
X175952068Y-107866842D01*
X175895000Y-108153740D01*
X175624696Y-108153740D01*
X175635000Y-108101939D01*
X175635000Y-107898061D01*
X175595226Y-107698102D01*
X175517205Y-107509744D01*
X175403937Y-107340226D01*
X175259774Y-107196063D01*
X175090256Y-107082795D01*
X174901898Y-107004774D01*
X174701939Y-106965000D01*
X174498061Y-106965000D01*
X174298102Y-107004774D01*
X174109744Y-107082795D01*
X173940226Y-107196063D01*
X173796063Y-107340226D01*
X173682795Y-107509744D01*
X173604774Y-107698102D01*
X173565000Y-107898061D01*
X166862530Y-107898061D01*
X166961469Y-107799122D01*
X167151880Y-107514152D01*
X167258063Y-107257802D01*
X167266063Y-107269774D01*
X167410226Y-107413937D01*
X167579744Y-107527205D01*
X167768102Y-107605226D01*
X167968061Y-107645000D01*
X168171939Y-107645000D01*
X168371898Y-107605226D01*
X168560256Y-107527205D01*
X168729774Y-107413937D01*
X168873937Y-107269774D01*
X168987205Y-107100256D01*
X169065226Y-106911898D01*
X169105000Y-106711939D01*
X169105000Y-106508061D01*
X169065226Y-106308102D01*
X168987205Y-106119744D01*
X168873937Y-105950226D01*
X168729774Y-105806063D01*
X168560256Y-105692795D01*
X168481082Y-105660000D01*
X184082850Y-105660000D01*
X183982795Y-105809744D01*
X183904774Y-105998102D01*
X183865000Y-106198061D01*
X183865000Y-106401939D01*
X183904774Y-106601898D01*
X183982795Y-106790256D01*
X184008847Y-106829245D01*
X183905820Y-106860498D01*
X183795506Y-106919463D01*
X183698815Y-106998815D01*
X183619463Y-107095506D01*
X183560498Y-107205820D01*
X183536034Y-107286466D01*
X183460269Y-107202412D01*
X183226920Y-107028359D01*
X182964099Y-106903175D01*
X182816890Y-106858524D01*
X182587000Y-106979845D01*
X182587000Y-108173000D01*
X182607000Y-108173000D01*
X182607000Y-108427000D01*
X182587000Y-108427000D01*
X182587000Y-109620155D01*
X182816890Y-109741476D01*
X182964099Y-109696825D01*
X183226920Y-109571641D01*
X183460269Y-109397588D01*
X183536034Y-109313534D01*
X183560498Y-109394180D01*
X183619463Y-109504494D01*
X183698815Y-109601185D01*
X183795506Y-109680537D01*
X183905820Y-109739502D01*
X184025518Y-109775812D01*
X184150000Y-109788072D01*
X185850000Y-109788072D01*
X185974482Y-109775812D01*
X186094180Y-109739502D01*
X186204494Y-109680537D01*
X186301185Y-109601185D01*
X186380537Y-109504494D01*
X186439502Y-109394180D01*
X186475812Y-109274482D01*
X186488072Y-109150000D01*
X186488072Y-107450000D01*
X186475812Y-107325518D01*
X186467484Y-107298061D01*
X190765000Y-107298061D01*
X190765000Y-107501939D01*
X190804774Y-107701898D01*
X190882795Y-107890256D01*
X190996063Y-108059774D01*
X191140226Y-108203937D01*
X191309744Y-108317205D01*
X191498102Y-108395226D01*
X191698061Y-108435000D01*
X191901939Y-108435000D01*
X192101898Y-108395226D01*
X192290256Y-108317205D01*
X192459774Y-108203937D01*
X192603937Y-108059774D01*
X192717205Y-107890256D01*
X192795226Y-107701898D01*
X192835000Y-107501939D01*
X192835000Y-107298061D01*
X192795226Y-107098102D01*
X192717205Y-106909744D01*
X192603937Y-106740226D01*
X192459774Y-106596063D01*
X192290256Y-106482795D01*
X192101898Y-106404774D01*
X191901939Y-106365000D01*
X191698061Y-106365000D01*
X191498102Y-106404774D01*
X191309744Y-106482795D01*
X191140226Y-106596063D01*
X190996063Y-106740226D01*
X190882795Y-106909744D01*
X190804774Y-107098102D01*
X190765000Y-107298061D01*
X186467484Y-107298061D01*
X186439502Y-107205820D01*
X186380537Y-107095506D01*
X186301185Y-106998815D01*
X186204494Y-106919463D01*
X186094180Y-106860498D01*
X185974482Y-106824188D01*
X185850000Y-106811928D01*
X185802724Y-106811928D01*
X185817205Y-106790256D01*
X185895226Y-106601898D01*
X185935000Y-106401939D01*
X185935000Y-106198061D01*
X185895226Y-105998102D01*
X185817205Y-105809744D01*
X185717150Y-105660000D01*
X193340000Y-105660000D01*
X193340001Y-128220557D01*
X193301898Y-128204774D01*
X193101939Y-128165000D01*
X192898061Y-128165000D01*
X192698102Y-128204774D01*
X192509744Y-128282795D01*
X192340226Y-128396063D01*
X192196063Y-128540226D01*
X192082795Y-128709744D01*
X192004774Y-128898102D01*
X191965000Y-129098061D01*
X191965000Y-129301939D01*
X192004774Y-129501898D01*
X192082795Y-129690256D01*
X192196063Y-129859774D01*
X192340226Y-130003937D01*
X192509744Y-130117205D01*
X192698102Y-130195226D01*
X192898061Y-130235000D01*
X193101939Y-130235000D01*
X193301898Y-130195226D01*
X193340001Y-130179443D01*
X193340001Y-144340000D01*
X172699269Y-144340000D01*
X172829495Y-144181318D01*
X172951138Y-143953740D01*
X173026045Y-143706804D01*
X173045000Y-143514350D01*
X173045000Y-143035649D01*
X173026045Y-142843195D01*
X172951138Y-142596259D01*
X172829495Y-142368682D01*
X172665792Y-142169208D01*
X172579099Y-142098061D01*
X175965000Y-142098061D01*
X175965000Y-142301939D01*
X176004774Y-142501898D01*
X176082795Y-142690256D01*
X176196063Y-142859774D01*
X176340226Y-143003937D01*
X176509744Y-143117205D01*
X176698102Y-143195226D01*
X176898061Y-143235000D01*
X177101939Y-143235000D01*
X177301898Y-143195226D01*
X177490256Y-143117205D01*
X177659774Y-143003937D01*
X177803937Y-142859774D01*
X177917205Y-142690256D01*
X177995226Y-142501898D01*
X178035000Y-142301939D01*
X178035000Y-142098061D01*
X177995226Y-141898102D01*
X177917205Y-141709744D01*
X177909399Y-141698061D01*
X186965000Y-141698061D01*
X186965000Y-141901939D01*
X187004774Y-142101898D01*
X187082795Y-142290256D01*
X187196063Y-142459774D01*
X187340226Y-142603937D01*
X187509744Y-142717205D01*
X187698102Y-142795226D01*
X187898061Y-142835000D01*
X188101939Y-142835000D01*
X188301898Y-142795226D01*
X188490256Y-142717205D01*
X188659774Y-142603937D01*
X188803937Y-142459774D01*
X188917205Y-142290256D01*
X188995226Y-142101898D01*
X189035000Y-141901939D01*
X189035000Y-141698061D01*
X189565000Y-141698061D01*
X189565000Y-141901939D01*
X189604774Y-142101898D01*
X189682795Y-142290256D01*
X189796063Y-142459774D01*
X189940226Y-142603937D01*
X190109744Y-142717205D01*
X190298102Y-142795226D01*
X190498061Y-142835000D01*
X190701939Y-142835000D01*
X190901898Y-142795226D01*
X191090256Y-142717205D01*
X191259774Y-142603937D01*
X191403937Y-142459774D01*
X191517205Y-142290256D01*
X191595226Y-142101898D01*
X191635000Y-141901939D01*
X191635000Y-141698061D01*
X191595226Y-141498102D01*
X191517205Y-141309744D01*
X191403937Y-141140226D01*
X191259774Y-140996063D01*
X191090256Y-140882795D01*
X190901898Y-140804774D01*
X190701939Y-140765000D01*
X190498061Y-140765000D01*
X190298102Y-140804774D01*
X190109744Y-140882795D01*
X189940226Y-140996063D01*
X189796063Y-141140226D01*
X189682795Y-141309744D01*
X189604774Y-141498102D01*
X189565000Y-141698061D01*
X189035000Y-141698061D01*
X188995226Y-141498102D01*
X188917205Y-141309744D01*
X188803937Y-141140226D01*
X188659774Y-140996063D01*
X188490256Y-140882795D01*
X188301898Y-140804774D01*
X188101939Y-140765000D01*
X187898061Y-140765000D01*
X187698102Y-140804774D01*
X187509744Y-140882795D01*
X187340226Y-140996063D01*
X187196063Y-141140226D01*
X187082795Y-141309744D01*
X187004774Y-141498102D01*
X186965000Y-141698061D01*
X177909399Y-141698061D01*
X177803937Y-141540226D01*
X177659774Y-141396063D01*
X177490256Y-141282795D01*
X177301898Y-141204774D01*
X177101939Y-141165000D01*
X176898061Y-141165000D01*
X176698102Y-141204774D01*
X176509744Y-141282795D01*
X176340226Y-141396063D01*
X176196063Y-141540226D01*
X176082795Y-141709744D01*
X176004774Y-141898102D01*
X175965000Y-142098061D01*
X172579099Y-142098061D01*
X172466317Y-142005505D01*
X172238740Y-141883862D01*
X171991804Y-141808955D01*
X171735000Y-141783662D01*
X171478195Y-141808955D01*
X171231259Y-141883862D01*
X171003682Y-142005505D01*
X170804208Y-142169208D01*
X170640505Y-142368683D01*
X170518862Y-142596260D01*
X170443955Y-142843196D01*
X170425000Y-143035650D01*
X170425000Y-143514351D01*
X170443955Y-143706805D01*
X170518862Y-143953741D01*
X170640505Y-144181318D01*
X170770732Y-144340000D01*
X167239269Y-144340000D01*
X167369495Y-144181318D01*
X167491138Y-143953740D01*
X167566045Y-143706804D01*
X167585000Y-143514350D01*
X167585000Y-143035649D01*
X167566045Y-142843195D01*
X167491138Y-142596259D01*
X167369495Y-142368682D01*
X167205792Y-142169208D01*
X167006317Y-142005505D01*
X166778740Y-141883862D01*
X166531804Y-141808955D01*
X166275000Y-141783662D01*
X166018195Y-141808955D01*
X165771259Y-141883862D01*
X165543682Y-142005505D01*
X165344208Y-142169208D01*
X165180505Y-142368683D01*
X165058862Y-142596260D01*
X164983955Y-142843196D01*
X164965000Y-143035650D01*
X164965000Y-143514351D01*
X164983955Y-143706805D01*
X165058862Y-143953741D01*
X165180505Y-144181318D01*
X165310732Y-144340000D01*
X163923711Y-144340000D01*
X164003937Y-144259774D01*
X164117205Y-144090256D01*
X164195226Y-143901898D01*
X164235000Y-143701939D01*
X164235000Y-143498061D01*
X164195226Y-143298102D01*
X164117205Y-143109744D01*
X164003937Y-142940226D01*
X163859774Y-142796063D01*
X163690256Y-142682795D01*
X163501898Y-142604774D01*
X163301939Y-142565000D01*
X163098061Y-142565000D01*
X162898102Y-142604774D01*
X162709744Y-142682795D01*
X162540226Y-142796063D01*
X162396063Y-142940226D01*
X162282795Y-143109744D01*
X162204774Y-143298102D01*
X162165000Y-143498061D01*
X162165000Y-143701939D01*
X162204774Y-143901898D01*
X162282795Y-144090256D01*
X162396063Y-144259774D01*
X162476289Y-144340000D01*
X151635224Y-144340000D01*
X151690256Y-144317205D01*
X151859774Y-144203937D01*
X152003937Y-144059774D01*
X152117205Y-143890256D01*
X152195226Y-143701898D01*
X152235000Y-143501939D01*
X152235000Y-143298061D01*
X152195226Y-143098102D01*
X152117205Y-142909744D01*
X152003937Y-142740226D01*
X151859774Y-142596063D01*
X151690256Y-142482795D01*
X151501898Y-142404774D01*
X151301939Y-142365000D01*
X151098061Y-142365000D01*
X150898102Y-142404774D01*
X150709744Y-142482795D01*
X150540226Y-142596063D01*
X150396063Y-142740226D01*
X150282795Y-142909744D01*
X150204774Y-143098102D01*
X150165000Y-143298061D01*
X150165000Y-143501939D01*
X150204774Y-143701898D01*
X150282795Y-143890256D01*
X150396063Y-144059774D01*
X150540226Y-144203937D01*
X150709744Y-144317205D01*
X150764776Y-144340000D01*
X147083967Y-144340000D01*
X147117205Y-144290256D01*
X147195226Y-144101898D01*
X147235000Y-143901939D01*
X147235000Y-143698061D01*
X147195226Y-143498102D01*
X147117205Y-143309744D01*
X147003937Y-143140226D01*
X146859774Y-142996063D01*
X146690256Y-142882795D01*
X146501898Y-142804774D01*
X146301939Y-142765000D01*
X146098061Y-142765000D01*
X145898102Y-142804774D01*
X145709744Y-142882795D01*
X145540226Y-142996063D01*
X145396063Y-143140226D01*
X145282795Y-143309744D01*
X145204774Y-143498102D01*
X145165000Y-143698061D01*
X145165000Y-143901939D01*
X145204774Y-144101898D01*
X145282795Y-144290256D01*
X145316033Y-144340000D01*
X144660000Y-144340000D01*
X144660000Y-140578740D01*
X145170000Y-140578740D01*
X145170000Y-140871260D01*
X145227068Y-141158158D01*
X145339010Y-141428411D01*
X145501525Y-141671632D01*
X145708368Y-141878475D01*
X145951589Y-142040990D01*
X146221842Y-142152932D01*
X146508740Y-142210000D01*
X146801260Y-142210000D01*
X147088158Y-142152932D01*
X147358411Y-142040990D01*
X147601632Y-141878475D01*
X147808475Y-141671632D01*
X147925000Y-141497240D01*
X148041525Y-141671632D01*
X148248368Y-141878475D01*
X148491589Y-142040990D01*
X148761842Y-142152932D01*
X149048740Y-142210000D01*
X149341260Y-142210000D01*
X149628158Y-142152932D01*
X149898411Y-142040990D01*
X150141632Y-141878475D01*
X150348475Y-141671632D01*
X150465000Y-141497240D01*
X150581525Y-141671632D01*
X150788368Y-141878475D01*
X151031589Y-142040990D01*
X151301842Y-142152932D01*
X151588740Y-142210000D01*
X151881260Y-142210000D01*
X152168158Y-142152932D01*
X152438411Y-142040990D01*
X152681632Y-141878475D01*
X152888475Y-141671632D01*
X153005000Y-141497240D01*
X153121525Y-141671632D01*
X153328368Y-141878475D01*
X153571589Y-142040990D01*
X153695497Y-142092314D01*
X153540226Y-142196063D01*
X153396063Y-142340226D01*
X153282795Y-142509744D01*
X153204774Y-142698102D01*
X153165000Y-142898061D01*
X153165000Y-143101939D01*
X153204774Y-143301898D01*
X153282795Y-143490256D01*
X153396063Y-143659774D01*
X153540226Y-143803937D01*
X153709744Y-143917205D01*
X153898102Y-143995226D01*
X154098061Y-144035000D01*
X154301939Y-144035000D01*
X154501898Y-143995226D01*
X154690256Y-143917205D01*
X154859774Y-143803937D01*
X155003937Y-143659774D01*
X155117205Y-143490256D01*
X155195226Y-143301898D01*
X155235000Y-143101939D01*
X155235000Y-142898061D01*
X155195226Y-142698102D01*
X155117205Y-142509744D01*
X155003937Y-142340226D01*
X154859774Y-142196063D01*
X154761905Y-142130669D01*
X154978411Y-142040990D01*
X155221632Y-141878475D01*
X155428475Y-141671632D01*
X155545000Y-141497240D01*
X155661525Y-141671632D01*
X155868368Y-141878475D01*
X156111589Y-142040990D01*
X156381842Y-142152932D01*
X156668740Y-142210000D01*
X156961260Y-142210000D01*
X157248158Y-142152932D01*
X157518411Y-142040990D01*
X157761632Y-141878475D01*
X157893487Y-141746620D01*
X157915498Y-141819180D01*
X157974463Y-141929494D01*
X158053815Y-142026185D01*
X158150506Y-142105537D01*
X158260820Y-142164502D01*
X158380518Y-142200812D01*
X158505000Y-142213072D01*
X159069250Y-142210000D01*
X159228000Y-142051250D01*
X159228000Y-140852000D01*
X159482000Y-140852000D01*
X159482000Y-142051250D01*
X159640750Y-142210000D01*
X160205000Y-142213072D01*
X160329482Y-142200812D01*
X160449180Y-142164502D01*
X160559494Y-142105537D01*
X160656185Y-142026185D01*
X160735537Y-141929494D01*
X160794502Y-141819180D01*
X160830812Y-141699482D01*
X160843072Y-141575000D01*
X160841565Y-141298061D01*
X162565000Y-141298061D01*
X162565000Y-141501939D01*
X162604774Y-141701898D01*
X162682795Y-141890256D01*
X162796063Y-142059774D01*
X162940226Y-142203937D01*
X163109744Y-142317205D01*
X163298102Y-142395226D01*
X163498061Y-142435000D01*
X163701939Y-142435000D01*
X163901898Y-142395226D01*
X164090256Y-142317205D01*
X164259774Y-142203937D01*
X164403937Y-142059774D01*
X164517205Y-141890256D01*
X164595226Y-141701898D01*
X164635000Y-141501939D01*
X164635000Y-141298061D01*
X164595226Y-141098102D01*
X164517205Y-140909744D01*
X164403937Y-140740226D01*
X164259774Y-140596063D01*
X164090256Y-140482795D01*
X163901898Y-140404774D01*
X163701939Y-140365000D01*
X163498061Y-140365000D01*
X163298102Y-140404774D01*
X163109744Y-140482795D01*
X162940226Y-140596063D01*
X162796063Y-140740226D01*
X162682795Y-140909744D01*
X162604774Y-141098102D01*
X162565000Y-141298061D01*
X160841565Y-141298061D01*
X160840000Y-141010750D01*
X160681250Y-140852000D01*
X159482000Y-140852000D01*
X159228000Y-140852000D01*
X159208000Y-140852000D01*
X159208000Y-140598000D01*
X159228000Y-140598000D01*
X159228000Y-139398750D01*
X159482000Y-139398750D01*
X159482000Y-140598000D01*
X160681250Y-140598000D01*
X160840000Y-140439250D01*
X160843072Y-139875000D01*
X160830812Y-139750518D01*
X160794502Y-139630820D01*
X160735537Y-139520506D01*
X160656185Y-139423815D01*
X160559494Y-139344463D01*
X160449180Y-139285498D01*
X160329482Y-139249188D01*
X160205000Y-139236928D01*
X159640750Y-139240000D01*
X159482000Y-139398750D01*
X159228000Y-139398750D01*
X159069250Y-139240000D01*
X158505000Y-139236928D01*
X158380518Y-139249188D01*
X158260820Y-139285498D01*
X158150506Y-139344463D01*
X158053815Y-139423815D01*
X157974463Y-139520506D01*
X157915498Y-139630820D01*
X157893487Y-139703380D01*
X157761632Y-139571525D01*
X157518411Y-139409010D01*
X157248158Y-139297068D01*
X156961260Y-139240000D01*
X156668740Y-139240000D01*
X156381842Y-139297068D01*
X156111589Y-139409010D01*
X155868368Y-139571525D01*
X155661525Y-139778368D01*
X155545000Y-139952760D01*
X155428475Y-139778368D01*
X155221632Y-139571525D01*
X154978411Y-139409010D01*
X154708158Y-139297068D01*
X154421260Y-139240000D01*
X154128740Y-139240000D01*
X153841842Y-139297068D01*
X153571589Y-139409010D01*
X153328368Y-139571525D01*
X153121525Y-139778368D01*
X153005000Y-139952760D01*
X152888475Y-139778368D01*
X152681632Y-139571525D01*
X152438411Y-139409010D01*
X152168158Y-139297068D01*
X151881260Y-139240000D01*
X151588740Y-139240000D01*
X151301842Y-139297068D01*
X151031589Y-139409010D01*
X150788368Y-139571525D01*
X150581525Y-139778368D01*
X150465000Y-139952760D01*
X150348475Y-139778368D01*
X150141632Y-139571525D01*
X149898411Y-139409010D01*
X149628158Y-139297068D01*
X149341260Y-139240000D01*
X149048740Y-139240000D01*
X148761842Y-139297068D01*
X148491589Y-139409010D01*
X148248368Y-139571525D01*
X148041525Y-139778368D01*
X147925000Y-139952760D01*
X147808475Y-139778368D01*
X147601632Y-139571525D01*
X147358411Y-139409010D01*
X147088158Y-139297068D01*
X146801260Y-139240000D01*
X146508740Y-139240000D01*
X146221842Y-139297068D01*
X145951589Y-139409010D01*
X145708368Y-139571525D01*
X145501525Y-139778368D01*
X145339010Y-140021589D01*
X145227068Y-140291842D01*
X145170000Y-140578740D01*
X144660000Y-140578740D01*
X144660000Y-138235224D01*
X144682795Y-138290256D01*
X144796063Y-138459774D01*
X144940226Y-138603937D01*
X145109744Y-138717205D01*
X145298102Y-138795226D01*
X145498061Y-138835000D01*
X145701939Y-138835000D01*
X145901898Y-138795226D01*
X146090256Y-138717205D01*
X146259774Y-138603937D01*
X146403937Y-138459774D01*
X146517205Y-138290256D01*
X146595226Y-138101898D01*
X146635000Y-137901939D01*
X146635000Y-137698061D01*
X147365000Y-137698061D01*
X147365000Y-137901939D01*
X147404774Y-138101898D01*
X147482795Y-138290256D01*
X147596063Y-138459774D01*
X147740226Y-138603937D01*
X147909744Y-138717205D01*
X148098102Y-138795226D01*
X148298061Y-138835000D01*
X148501939Y-138835000D01*
X148701898Y-138795226D01*
X148890256Y-138717205D01*
X149059774Y-138603937D01*
X149203937Y-138459774D01*
X149317205Y-138290256D01*
X149395226Y-138101898D01*
X149435000Y-137901939D01*
X149435000Y-137898061D01*
X157365000Y-137898061D01*
X157365000Y-138101939D01*
X157404774Y-138301898D01*
X157482795Y-138490256D01*
X157596063Y-138659774D01*
X157740226Y-138803937D01*
X157909744Y-138917205D01*
X158098102Y-138995226D01*
X158298061Y-139035000D01*
X158501939Y-139035000D01*
X158701898Y-138995226D01*
X158890256Y-138917205D01*
X159059774Y-138803937D01*
X159165650Y-138698061D01*
X161365000Y-138698061D01*
X161365000Y-138901939D01*
X161404774Y-139101898D01*
X161482795Y-139290256D01*
X161596063Y-139459774D01*
X161740226Y-139603937D01*
X161909744Y-139717205D01*
X162098102Y-139795226D01*
X162298061Y-139835000D01*
X162501939Y-139835000D01*
X162701898Y-139795226D01*
X162890256Y-139717205D01*
X163059774Y-139603937D01*
X163203937Y-139459774D01*
X163244823Y-139398584D01*
X163282795Y-139490256D01*
X163396063Y-139659774D01*
X163540226Y-139803937D01*
X163709744Y-139917205D01*
X163898102Y-139995226D01*
X164098061Y-140035000D01*
X164301939Y-140035000D01*
X164393467Y-140016794D01*
X165400000Y-140016794D01*
X165400000Y-140533207D01*
X165417147Y-140707300D01*
X165484906Y-140930674D01*
X165594943Y-141136536D01*
X165743026Y-141316975D01*
X165923465Y-141465058D01*
X166129327Y-141575094D01*
X166352701Y-141642853D01*
X166585000Y-141665733D01*
X166817300Y-141642853D01*
X167040674Y-141575094D01*
X167246536Y-141465058D01*
X167426975Y-141316975D01*
X167575058Y-141136536D01*
X167685094Y-140930673D01*
X167752853Y-140707299D01*
X167770000Y-140533206D01*
X167770000Y-140016793D01*
X167752853Y-139842700D01*
X167685094Y-139619326D01*
X167575058Y-139413464D01*
X167426975Y-139233025D01*
X167246535Y-139084942D01*
X167040673Y-138974906D01*
X166817299Y-138907147D01*
X166585000Y-138884267D01*
X166352700Y-138907147D01*
X166129326Y-138974906D01*
X165923464Y-139084942D01*
X165743025Y-139233025D01*
X165594942Y-139413465D01*
X165484906Y-139619327D01*
X165417147Y-139842701D01*
X165400000Y-140016794D01*
X164393467Y-140016794D01*
X164501898Y-139995226D01*
X164690256Y-139917205D01*
X164859774Y-139803937D01*
X165003937Y-139659774D01*
X165117205Y-139490256D01*
X165195226Y-139301898D01*
X165235000Y-139101939D01*
X165235000Y-138898061D01*
X165195226Y-138698102D01*
X165195210Y-138698061D01*
X168365000Y-138698061D01*
X168365000Y-138901939D01*
X168404774Y-139101898D01*
X168482795Y-139290256D01*
X168596063Y-139459774D01*
X168740226Y-139603937D01*
X168909744Y-139717205D01*
X169098102Y-139795226D01*
X169298061Y-139835000D01*
X169501939Y-139835000D01*
X169701898Y-139795226D01*
X169890256Y-139717205D01*
X169900000Y-139710694D01*
X169909744Y-139717205D01*
X170098102Y-139795226D01*
X170261678Y-139827763D01*
X170257147Y-139842701D01*
X170240000Y-140016794D01*
X170240000Y-140533207D01*
X170257147Y-140707300D01*
X170324906Y-140930674D01*
X170434943Y-141136536D01*
X170583026Y-141316975D01*
X170763465Y-141465058D01*
X170969327Y-141575094D01*
X171192701Y-141642853D01*
X171425000Y-141665733D01*
X171657300Y-141642853D01*
X171880674Y-141575094D01*
X172086536Y-141465058D01*
X172266975Y-141316975D01*
X172415058Y-141136536D01*
X172525094Y-140930673D01*
X172592853Y-140707299D01*
X172610000Y-140533206D01*
X172610000Y-140016793D01*
X172592853Y-139842700D01*
X172548978Y-139698061D01*
X178165000Y-139698061D01*
X178165000Y-139901939D01*
X178204774Y-140101898D01*
X178282795Y-140290256D01*
X178396063Y-140459774D01*
X178540226Y-140603937D01*
X178709744Y-140717205D01*
X178898102Y-140795226D01*
X179098061Y-140835000D01*
X179301939Y-140835000D01*
X179501898Y-140795226D01*
X179690256Y-140717205D01*
X179859774Y-140603937D01*
X180003937Y-140459774D01*
X180117205Y-140290256D01*
X180195226Y-140101898D01*
X180235000Y-139901939D01*
X180235000Y-139698061D01*
X180195226Y-139498102D01*
X180153788Y-139398061D01*
X185165000Y-139398061D01*
X185165000Y-139601939D01*
X185204774Y-139801898D01*
X185282795Y-139990256D01*
X185396063Y-140159774D01*
X185540226Y-140303937D01*
X185709744Y-140417205D01*
X185898102Y-140495226D01*
X186098061Y-140535000D01*
X186301939Y-140535000D01*
X186501898Y-140495226D01*
X186690256Y-140417205D01*
X186859774Y-140303937D01*
X187003937Y-140159774D01*
X187117205Y-139990256D01*
X187195226Y-139801898D01*
X187235000Y-139601939D01*
X187235000Y-139398061D01*
X187195226Y-139198102D01*
X187117205Y-139009744D01*
X187004408Y-138840931D01*
X187059774Y-138803937D01*
X187203937Y-138659774D01*
X187317205Y-138490256D01*
X187395226Y-138301898D01*
X187435000Y-138101939D01*
X187435000Y-137898061D01*
X187395226Y-137698102D01*
X187317205Y-137509744D01*
X187309399Y-137498061D01*
X190365000Y-137498061D01*
X190365000Y-137701939D01*
X190404774Y-137901898D01*
X190482795Y-138090256D01*
X190596063Y-138259774D01*
X190740226Y-138403937D01*
X190909744Y-138517205D01*
X191098102Y-138595226D01*
X191298061Y-138635000D01*
X191501939Y-138635000D01*
X191701898Y-138595226D01*
X191890256Y-138517205D01*
X192059774Y-138403937D01*
X192203937Y-138259774D01*
X192317205Y-138090256D01*
X192395226Y-137901898D01*
X192435000Y-137701939D01*
X192435000Y-137498061D01*
X192395226Y-137298102D01*
X192317205Y-137109744D01*
X192203937Y-136940226D01*
X192059774Y-136796063D01*
X191890256Y-136682795D01*
X191701898Y-136604774D01*
X191501939Y-136565000D01*
X191298061Y-136565000D01*
X191098102Y-136604774D01*
X190909744Y-136682795D01*
X190740226Y-136796063D01*
X190596063Y-136940226D01*
X190482795Y-137109744D01*
X190404774Y-137298102D01*
X190365000Y-137498061D01*
X187309399Y-137498061D01*
X187203937Y-137340226D01*
X187059774Y-137196063D01*
X186890256Y-137082795D01*
X186701898Y-137004774D01*
X186501939Y-136965000D01*
X186298061Y-136965000D01*
X186098102Y-137004774D01*
X185909744Y-137082795D01*
X185740226Y-137196063D01*
X185596063Y-137340226D01*
X185482795Y-137509744D01*
X185404774Y-137698102D01*
X185365000Y-137898061D01*
X185365000Y-138101939D01*
X185404774Y-138301898D01*
X185482795Y-138490256D01*
X185595592Y-138659069D01*
X185540226Y-138696063D01*
X185396063Y-138840226D01*
X185282795Y-139009744D01*
X185204774Y-139198102D01*
X185165000Y-139398061D01*
X180153788Y-139398061D01*
X180117205Y-139309744D01*
X180003937Y-139140226D01*
X179859774Y-138996063D01*
X179690256Y-138882795D01*
X179501898Y-138804774D01*
X179301939Y-138765000D01*
X179098061Y-138765000D01*
X178898102Y-138804774D01*
X178709744Y-138882795D01*
X178540226Y-138996063D01*
X178396063Y-139140226D01*
X178282795Y-139309744D01*
X178204774Y-139498102D01*
X178165000Y-139698061D01*
X172548978Y-139698061D01*
X172525094Y-139619326D01*
X172415058Y-139413464D01*
X172266975Y-139233025D01*
X172086535Y-139084942D01*
X171880673Y-138974906D01*
X171657299Y-138907147D01*
X171435000Y-138885252D01*
X171435000Y-138698061D01*
X171395226Y-138498102D01*
X171317205Y-138309744D01*
X171203937Y-138140226D01*
X171059774Y-137996063D01*
X170890256Y-137882795D01*
X170701898Y-137804774D01*
X170501939Y-137765000D01*
X170298061Y-137765000D01*
X170098102Y-137804774D01*
X169909744Y-137882795D01*
X169900000Y-137889306D01*
X169890256Y-137882795D01*
X169701898Y-137804774D01*
X169501939Y-137765000D01*
X169298061Y-137765000D01*
X169098102Y-137804774D01*
X168909744Y-137882795D01*
X168740226Y-137996063D01*
X168596063Y-138140226D01*
X168482795Y-138309744D01*
X168404774Y-138498102D01*
X168365000Y-138698061D01*
X165195210Y-138698061D01*
X165117205Y-138509744D01*
X165003937Y-138340226D01*
X164859774Y-138196063D01*
X164690256Y-138082795D01*
X164501898Y-138004774D01*
X164301939Y-137965000D01*
X164098061Y-137965000D01*
X163898102Y-138004774D01*
X163709744Y-138082795D01*
X163540226Y-138196063D01*
X163396063Y-138340226D01*
X163355177Y-138401416D01*
X163317205Y-138309744D01*
X163203937Y-138140226D01*
X163059774Y-137996063D01*
X162890256Y-137882795D01*
X162701898Y-137804774D01*
X162501939Y-137765000D01*
X162298061Y-137765000D01*
X162098102Y-137804774D01*
X161909744Y-137882795D01*
X161740226Y-137996063D01*
X161596063Y-138140226D01*
X161482795Y-138309744D01*
X161404774Y-138498102D01*
X161365000Y-138698061D01*
X159165650Y-138698061D01*
X159203937Y-138659774D01*
X159317205Y-138490256D01*
X159395226Y-138301898D01*
X159435000Y-138101939D01*
X159435000Y-137898061D01*
X159395226Y-137698102D01*
X159317205Y-137509744D01*
X159203937Y-137340226D01*
X159059774Y-137196063D01*
X158890256Y-137082795D01*
X158701898Y-137004774D01*
X158501939Y-136965000D01*
X158298061Y-136965000D01*
X158098102Y-137004774D01*
X157909744Y-137082795D01*
X157740226Y-137196063D01*
X157596063Y-137340226D01*
X157482795Y-137509744D01*
X157404774Y-137698102D01*
X157365000Y-137898061D01*
X149435000Y-137898061D01*
X149435000Y-137698061D01*
X149395226Y-137498102D01*
X149317205Y-137309744D01*
X149203937Y-137140226D01*
X149059774Y-136996063D01*
X148890256Y-136882795D01*
X148701898Y-136804774D01*
X148501939Y-136765000D01*
X148298061Y-136765000D01*
X148098102Y-136804774D01*
X147909744Y-136882795D01*
X147740226Y-136996063D01*
X147596063Y-137140226D01*
X147482795Y-137309744D01*
X147404774Y-137498102D01*
X147365000Y-137698061D01*
X146635000Y-137698061D01*
X146595226Y-137498102D01*
X146517205Y-137309744D01*
X146403937Y-137140226D01*
X146259774Y-136996063D01*
X146090256Y-136882795D01*
X145901898Y-136804774D01*
X145701939Y-136765000D01*
X145498061Y-136765000D01*
X145298102Y-136804774D01*
X145109744Y-136882795D01*
X144940226Y-136996063D01*
X144796063Y-137140226D01*
X144682795Y-137309744D01*
X144660000Y-137364776D01*
X144660000Y-135598061D01*
X145965000Y-135598061D01*
X145965000Y-135801939D01*
X146004774Y-136001898D01*
X146082795Y-136190256D01*
X146196063Y-136359774D01*
X146340226Y-136503937D01*
X146509744Y-136617205D01*
X146698102Y-136695226D01*
X146898061Y-136735000D01*
X147101939Y-136735000D01*
X147287645Y-136698061D01*
X154565000Y-136698061D01*
X154565000Y-136901939D01*
X154604774Y-137101898D01*
X154682795Y-137290256D01*
X154796063Y-137459774D01*
X154940226Y-137603937D01*
X155109744Y-137717205D01*
X155298102Y-137795226D01*
X155498061Y-137835000D01*
X155701939Y-137835000D01*
X155901898Y-137795226D01*
X156090256Y-137717205D01*
X156259774Y-137603937D01*
X156403937Y-137459774D01*
X156517205Y-137290256D01*
X156595226Y-137101898D01*
X156635000Y-136901939D01*
X156635000Y-136898061D01*
X179565000Y-136898061D01*
X179565000Y-137101939D01*
X179604774Y-137301898D01*
X179682795Y-137490256D01*
X179796063Y-137659774D01*
X179940226Y-137803937D01*
X180109744Y-137917205D01*
X180298102Y-137995226D01*
X180498061Y-138035000D01*
X180701939Y-138035000D01*
X180901898Y-137995226D01*
X181090256Y-137917205D01*
X181259774Y-137803937D01*
X181403937Y-137659774D01*
X181517205Y-137490256D01*
X181595226Y-137301898D01*
X181635000Y-137101939D01*
X181635000Y-136898061D01*
X181595226Y-136698102D01*
X181517205Y-136509744D01*
X181403937Y-136340226D01*
X181259774Y-136196063D01*
X181090256Y-136082795D01*
X180901898Y-136004774D01*
X180701939Y-135965000D01*
X180498061Y-135965000D01*
X180298102Y-136004774D01*
X180109744Y-136082795D01*
X179940226Y-136196063D01*
X179796063Y-136340226D01*
X179682795Y-136509744D01*
X179604774Y-136698102D01*
X179565000Y-136898061D01*
X156635000Y-136898061D01*
X156635000Y-136698061D01*
X156595226Y-136498102D01*
X156517205Y-136309744D01*
X156403937Y-136140226D01*
X156259774Y-135996063D01*
X156090256Y-135882795D01*
X155901898Y-135804774D01*
X155701939Y-135765000D01*
X155498061Y-135765000D01*
X155298102Y-135804774D01*
X155109744Y-135882795D01*
X154940226Y-135996063D01*
X154796063Y-136140226D01*
X154682795Y-136309744D01*
X154604774Y-136498102D01*
X154565000Y-136698061D01*
X147287645Y-136698061D01*
X147301898Y-136695226D01*
X147490256Y-136617205D01*
X147659774Y-136503937D01*
X147803937Y-136359774D01*
X147917205Y-136190256D01*
X147995226Y-136001898D01*
X148035000Y-135801939D01*
X148035000Y-135598061D01*
X147995226Y-135398102D01*
X147953788Y-135298061D01*
X176965000Y-135298061D01*
X176965000Y-135501939D01*
X177004774Y-135701898D01*
X177082795Y-135890256D01*
X177196063Y-136059774D01*
X177340226Y-136203937D01*
X177509744Y-136317205D01*
X177698102Y-136395226D01*
X177898061Y-136435000D01*
X178101939Y-136435000D01*
X178301898Y-136395226D01*
X178490256Y-136317205D01*
X178659774Y-136203937D01*
X178803937Y-136059774D01*
X178917205Y-135890256D01*
X178995226Y-135701898D01*
X179035000Y-135501939D01*
X179035000Y-135298061D01*
X178995226Y-135098102D01*
X178917205Y-134909744D01*
X178803937Y-134740226D01*
X178659774Y-134596063D01*
X178490256Y-134482795D01*
X178301898Y-134404774D01*
X178268150Y-134398061D01*
X180765000Y-134398061D01*
X180765000Y-134601939D01*
X180804774Y-134801898D01*
X180882795Y-134990256D01*
X180996063Y-135159774D01*
X181140226Y-135303937D01*
X181309744Y-135417205D01*
X181498102Y-135495226D01*
X181698061Y-135535000D01*
X181901939Y-135535000D01*
X182087645Y-135498061D01*
X188765000Y-135498061D01*
X188765000Y-135701939D01*
X188804774Y-135901898D01*
X188882795Y-136090256D01*
X188996063Y-136259774D01*
X189140226Y-136403937D01*
X189309744Y-136517205D01*
X189498102Y-136595226D01*
X189698061Y-136635000D01*
X189901939Y-136635000D01*
X190101898Y-136595226D01*
X190290256Y-136517205D01*
X190459774Y-136403937D01*
X190603937Y-136259774D01*
X190717205Y-136090256D01*
X190795226Y-135901898D01*
X190835000Y-135701939D01*
X190835000Y-135498061D01*
X190795226Y-135298102D01*
X190717205Y-135109744D01*
X190603937Y-134940226D01*
X190459774Y-134796063D01*
X190313104Y-134698061D01*
X190965000Y-134698061D01*
X190965000Y-134901939D01*
X191004774Y-135101898D01*
X191082795Y-135290256D01*
X191196063Y-135459774D01*
X191340226Y-135603937D01*
X191509744Y-135717205D01*
X191698102Y-135795226D01*
X191898061Y-135835000D01*
X192101939Y-135835000D01*
X192301898Y-135795226D01*
X192490256Y-135717205D01*
X192659774Y-135603937D01*
X192803937Y-135459774D01*
X192917205Y-135290256D01*
X192995226Y-135101898D01*
X193035000Y-134901939D01*
X193035000Y-134698061D01*
X192995226Y-134498102D01*
X192917205Y-134309744D01*
X192803937Y-134140226D01*
X192659774Y-133996063D01*
X192490256Y-133882795D01*
X192301898Y-133804774D01*
X192101939Y-133765000D01*
X191898061Y-133765000D01*
X191698102Y-133804774D01*
X191509744Y-133882795D01*
X191340226Y-133996063D01*
X191196063Y-134140226D01*
X191082795Y-134309744D01*
X191004774Y-134498102D01*
X190965000Y-134698061D01*
X190313104Y-134698061D01*
X190290256Y-134682795D01*
X190101898Y-134604774D01*
X189901939Y-134565000D01*
X189698061Y-134565000D01*
X189498102Y-134604774D01*
X189309744Y-134682795D01*
X189140226Y-134796063D01*
X188996063Y-134940226D01*
X188882795Y-135109744D01*
X188804774Y-135298102D01*
X188765000Y-135498061D01*
X182087645Y-135498061D01*
X182101898Y-135495226D01*
X182290256Y-135417205D01*
X182459774Y-135303937D01*
X182603937Y-135159774D01*
X182717205Y-134990256D01*
X182795226Y-134801898D01*
X182835000Y-134601939D01*
X182835000Y-134398061D01*
X182795226Y-134198102D01*
X182717205Y-134009744D01*
X182603937Y-133840226D01*
X182459774Y-133696063D01*
X182290256Y-133582795D01*
X182101898Y-133504774D01*
X181901939Y-133465000D01*
X181698061Y-133465000D01*
X181498102Y-133504774D01*
X181309744Y-133582795D01*
X181140226Y-133696063D01*
X180996063Y-133840226D01*
X180882795Y-134009744D01*
X180804774Y-134198102D01*
X180765000Y-134398061D01*
X178268150Y-134398061D01*
X178101939Y-134365000D01*
X177898061Y-134365000D01*
X177698102Y-134404774D01*
X177509744Y-134482795D01*
X177340226Y-134596063D01*
X177196063Y-134740226D01*
X177082795Y-134909744D01*
X177004774Y-135098102D01*
X176965000Y-135298061D01*
X147953788Y-135298061D01*
X147917205Y-135209744D01*
X147803937Y-135040226D01*
X147659774Y-134896063D01*
X147490256Y-134782795D01*
X147301898Y-134704774D01*
X147101939Y-134665000D01*
X146898061Y-134665000D01*
X146698102Y-134704774D01*
X146509744Y-134782795D01*
X146340226Y-134896063D01*
X146196063Y-135040226D01*
X146082795Y-135209744D01*
X146004774Y-135398102D01*
X145965000Y-135598061D01*
X144660000Y-135598061D01*
X144660000Y-134098061D01*
X150565000Y-134098061D01*
X150565000Y-134301939D01*
X150604774Y-134501898D01*
X150682795Y-134690256D01*
X150796063Y-134859774D01*
X150940226Y-135003937D01*
X151109744Y-135117205D01*
X151298102Y-135195226D01*
X151498061Y-135235000D01*
X151701939Y-135235000D01*
X151901898Y-135195226D01*
X152090256Y-135117205D01*
X152259774Y-135003937D01*
X152403937Y-134859774D01*
X152517205Y-134690256D01*
X152595226Y-134501898D01*
X152635000Y-134301939D01*
X152635000Y-134098061D01*
X152595226Y-133898102D01*
X152517205Y-133709744D01*
X152403937Y-133540226D01*
X152259774Y-133396063D01*
X152090256Y-133282795D01*
X151901898Y-133204774D01*
X151701939Y-133165000D01*
X151498061Y-133165000D01*
X151298102Y-133204774D01*
X151109744Y-133282795D01*
X150940226Y-133396063D01*
X150796063Y-133540226D01*
X150682795Y-133709744D01*
X150604774Y-133898102D01*
X150565000Y-134098061D01*
X144660000Y-134098061D01*
X144660000Y-132498061D01*
X148565000Y-132498061D01*
X148565000Y-132701939D01*
X148604774Y-132901898D01*
X148682795Y-133090256D01*
X148796063Y-133259774D01*
X148940226Y-133403937D01*
X149109744Y-133517205D01*
X149298102Y-133595226D01*
X149498061Y-133635000D01*
X149701939Y-133635000D01*
X149901898Y-133595226D01*
X150090256Y-133517205D01*
X150259774Y-133403937D01*
X150403937Y-133259774D01*
X150517205Y-133090256D01*
X150595226Y-132901898D01*
X150635000Y-132701939D01*
X150635000Y-132498061D01*
X150595226Y-132298102D01*
X150517205Y-132109744D01*
X150403937Y-131940226D01*
X150259774Y-131796063D01*
X150090256Y-131682795D01*
X149901898Y-131604774D01*
X149701939Y-131565000D01*
X149498061Y-131565000D01*
X149298102Y-131604774D01*
X149109744Y-131682795D01*
X148940226Y-131796063D01*
X148796063Y-131940226D01*
X148682795Y-132109744D01*
X148604774Y-132298102D01*
X148565000Y-132498061D01*
X144660000Y-132498061D01*
X144660000Y-129698061D01*
X154565000Y-129698061D01*
X154565000Y-129901939D01*
X154604774Y-130101898D01*
X154682795Y-130290256D01*
X154796063Y-130459774D01*
X154940226Y-130603937D01*
X155109744Y-130717205D01*
X155298102Y-130795226D01*
X155498061Y-130835000D01*
X155701939Y-130835000D01*
X155901898Y-130795226D01*
X156090256Y-130717205D01*
X156259774Y-130603937D01*
X156403937Y-130459774D01*
X156480892Y-130344603D01*
X156540226Y-130403937D01*
X156601416Y-130444823D01*
X156509744Y-130482795D01*
X156340226Y-130596063D01*
X156196063Y-130740226D01*
X156082795Y-130909744D01*
X156004774Y-131098102D01*
X155965000Y-131298061D01*
X155965000Y-131501939D01*
X156004774Y-131701898D01*
X156082795Y-131890256D01*
X156196063Y-132059774D01*
X156340226Y-132203937D01*
X156509744Y-132317205D01*
X156698102Y-132395226D01*
X156898061Y-132435000D01*
X157101939Y-132435000D01*
X157301898Y-132395226D01*
X157490256Y-132317205D01*
X157518907Y-132298061D01*
X170365000Y-132298061D01*
X170365000Y-132501939D01*
X170404774Y-132701898D01*
X170482795Y-132890256D01*
X170596063Y-133059774D01*
X170740226Y-133203937D01*
X170909744Y-133317205D01*
X171098102Y-133395226D01*
X171298061Y-133435000D01*
X171501939Y-133435000D01*
X171701898Y-133395226D01*
X171890256Y-133317205D01*
X172059774Y-133203937D01*
X172165650Y-133098061D01*
X178165000Y-133098061D01*
X178165000Y-133301939D01*
X178204774Y-133501898D01*
X178282795Y-133690256D01*
X178396063Y-133859774D01*
X178540226Y-134003937D01*
X178709744Y-134117205D01*
X178898102Y-134195226D01*
X179098061Y-134235000D01*
X179301939Y-134235000D01*
X179501898Y-134195226D01*
X179690256Y-134117205D01*
X179859774Y-134003937D01*
X180003937Y-133859774D01*
X180117205Y-133690256D01*
X180195226Y-133501898D01*
X180235000Y-133301939D01*
X180235000Y-133098061D01*
X186965000Y-133098061D01*
X186965000Y-133301939D01*
X187004774Y-133501898D01*
X187082795Y-133690256D01*
X187196063Y-133859774D01*
X187340226Y-134003937D01*
X187509744Y-134117205D01*
X187698102Y-134195226D01*
X187898061Y-134235000D01*
X188101939Y-134235000D01*
X188301898Y-134195226D01*
X188490256Y-134117205D01*
X188659774Y-134003937D01*
X188803937Y-133859774D01*
X188917205Y-133690256D01*
X188995226Y-133501898D01*
X189035000Y-133301939D01*
X189035000Y-133098061D01*
X189022456Y-133035000D01*
X189101939Y-133035000D01*
X189301898Y-132995226D01*
X189490256Y-132917205D01*
X189659774Y-132803937D01*
X189803937Y-132659774D01*
X189917205Y-132490256D01*
X189995226Y-132301898D01*
X190035000Y-132101939D01*
X190035000Y-131898061D01*
X189995226Y-131698102D01*
X189917205Y-131509744D01*
X189803937Y-131340226D01*
X189659774Y-131196063D01*
X189490256Y-131082795D01*
X189301898Y-131004774D01*
X189101939Y-130965000D01*
X188898061Y-130965000D01*
X188698102Y-131004774D01*
X188509744Y-131082795D01*
X188340226Y-131196063D01*
X188196063Y-131340226D01*
X188082795Y-131509744D01*
X188004774Y-131698102D01*
X187965000Y-131898061D01*
X187965000Y-132101939D01*
X187977544Y-132165000D01*
X187898061Y-132165000D01*
X187698102Y-132204774D01*
X187509744Y-132282795D01*
X187340226Y-132396063D01*
X187196063Y-132540226D01*
X187082795Y-132709744D01*
X187004774Y-132898102D01*
X186965000Y-133098061D01*
X180235000Y-133098061D01*
X180195226Y-132898102D01*
X180117205Y-132709744D01*
X180003937Y-132540226D01*
X179859774Y-132396063D01*
X179690256Y-132282795D01*
X179501898Y-132204774D01*
X179301939Y-132165000D01*
X179098061Y-132165000D01*
X178898102Y-132204774D01*
X178709744Y-132282795D01*
X178540226Y-132396063D01*
X178396063Y-132540226D01*
X178282795Y-132709744D01*
X178204774Y-132898102D01*
X178165000Y-133098061D01*
X172165650Y-133098061D01*
X172203937Y-133059774D01*
X172317205Y-132890256D01*
X172395226Y-132701898D01*
X172435000Y-132501939D01*
X172435000Y-132298061D01*
X172395226Y-132098102D01*
X172317205Y-131909744D01*
X172203937Y-131740226D01*
X172059774Y-131596063D01*
X171890256Y-131482795D01*
X171701898Y-131404774D01*
X171501939Y-131365000D01*
X171298061Y-131365000D01*
X171098102Y-131404774D01*
X170909744Y-131482795D01*
X170740226Y-131596063D01*
X170596063Y-131740226D01*
X170482795Y-131909744D01*
X170404774Y-132098102D01*
X170365000Y-132298061D01*
X157518907Y-132298061D01*
X157659774Y-132203937D01*
X157803937Y-132059774D01*
X157917205Y-131890256D01*
X157995226Y-131701898D01*
X158011940Y-131617870D01*
X158098061Y-131635000D01*
X158301939Y-131635000D01*
X158501898Y-131595226D01*
X158690256Y-131517205D01*
X158859774Y-131403937D01*
X159003937Y-131259774D01*
X159102453Y-131112334D01*
X159109744Y-131117205D01*
X159298102Y-131195226D01*
X159498061Y-131235000D01*
X159701939Y-131235000D01*
X159901898Y-131195226D01*
X160090256Y-131117205D01*
X160259774Y-131003937D01*
X160300000Y-130963711D01*
X160340226Y-131003937D01*
X160509744Y-131117205D01*
X160698102Y-131195226D01*
X160898061Y-131235000D01*
X161101939Y-131235000D01*
X161301898Y-131195226D01*
X161490256Y-131117205D01*
X161659774Y-131003937D01*
X161700000Y-130963711D01*
X161740226Y-131003937D01*
X161909744Y-131117205D01*
X162098102Y-131195226D01*
X162298061Y-131235000D01*
X162501939Y-131235000D01*
X162701898Y-131195226D01*
X162890256Y-131117205D01*
X163059774Y-131003937D01*
X163203937Y-130859774D01*
X163317205Y-130690256D01*
X163395226Y-130501898D01*
X163435000Y-130301939D01*
X163435000Y-130098061D01*
X163395226Y-129898102D01*
X163317205Y-129709744D01*
X163243877Y-129600000D01*
X163317205Y-129490256D01*
X163395226Y-129301898D01*
X163435000Y-129101939D01*
X163435000Y-128898061D01*
X163405970Y-128752118D01*
X163490256Y-128717205D01*
X163659774Y-128603937D01*
X163803937Y-128459774D01*
X163917205Y-128290256D01*
X163995226Y-128101898D01*
X164035000Y-127901939D01*
X164035000Y-127698061D01*
X163995226Y-127498102D01*
X163917205Y-127309744D01*
X163803937Y-127140226D01*
X163659774Y-126996063D01*
X163544603Y-126919108D01*
X163565650Y-126898061D01*
X173165000Y-126898061D01*
X173165000Y-127101939D01*
X173204774Y-127301898D01*
X173282795Y-127490256D01*
X173396063Y-127659774D01*
X173540226Y-127803937D01*
X173709744Y-127917205D01*
X173898102Y-127995226D01*
X174098061Y-128035000D01*
X174301939Y-128035000D01*
X174501898Y-127995226D01*
X174690256Y-127917205D01*
X174859774Y-127803937D01*
X175003937Y-127659774D01*
X175044823Y-127598584D01*
X175082795Y-127690256D01*
X175196063Y-127859774D01*
X175340226Y-128003937D01*
X175509744Y-128117205D01*
X175698102Y-128195226D01*
X175898061Y-128235000D01*
X176101939Y-128235000D01*
X176301898Y-128195226D01*
X176490256Y-128117205D01*
X176659774Y-128003937D01*
X176803937Y-127859774D01*
X176917205Y-127690256D01*
X176995226Y-127501898D01*
X176995989Y-127498061D01*
X180965000Y-127498061D01*
X180965000Y-127701939D01*
X181004774Y-127901898D01*
X181082795Y-128090256D01*
X181196063Y-128259774D01*
X181340226Y-128403937D01*
X181509744Y-128517205D01*
X181698102Y-128595226D01*
X181898061Y-128635000D01*
X182101939Y-128635000D01*
X182301898Y-128595226D01*
X182490256Y-128517205D01*
X182659774Y-128403937D01*
X182803937Y-128259774D01*
X182917205Y-128090256D01*
X182995226Y-127901898D01*
X183035000Y-127701939D01*
X183035000Y-127498061D01*
X182995226Y-127298102D01*
X182917205Y-127109744D01*
X182803937Y-126940226D01*
X182761772Y-126898061D01*
X183365000Y-126898061D01*
X183365000Y-127101939D01*
X183404774Y-127301898D01*
X183482795Y-127490256D01*
X183596063Y-127659774D01*
X183740226Y-127803937D01*
X183909744Y-127917205D01*
X184098102Y-127995226D01*
X184298061Y-128035000D01*
X184501939Y-128035000D01*
X184701898Y-127995226D01*
X184890256Y-127917205D01*
X185059774Y-127803937D01*
X185203937Y-127659774D01*
X185317205Y-127490256D01*
X185395226Y-127301898D01*
X185435000Y-127101939D01*
X185435000Y-127098061D01*
X186365000Y-127098061D01*
X186365000Y-127301939D01*
X186404774Y-127501898D01*
X186482795Y-127690256D01*
X186596063Y-127859774D01*
X186740226Y-128003937D01*
X186909744Y-128117205D01*
X187098102Y-128195226D01*
X187298061Y-128235000D01*
X187501939Y-128235000D01*
X187701898Y-128195226D01*
X187890256Y-128117205D01*
X188059774Y-128003937D01*
X188203937Y-127859774D01*
X188317205Y-127690256D01*
X188395226Y-127501898D01*
X188435000Y-127301939D01*
X188435000Y-127098061D01*
X188395226Y-126898102D01*
X188317205Y-126709744D01*
X188203937Y-126540226D01*
X188059774Y-126396063D01*
X187890256Y-126282795D01*
X187701898Y-126204774D01*
X187501939Y-126165000D01*
X187298061Y-126165000D01*
X187098102Y-126204774D01*
X186909744Y-126282795D01*
X186740226Y-126396063D01*
X186596063Y-126540226D01*
X186482795Y-126709744D01*
X186404774Y-126898102D01*
X186365000Y-127098061D01*
X185435000Y-127098061D01*
X185435000Y-126898061D01*
X185395226Y-126698102D01*
X185317205Y-126509744D01*
X185203937Y-126340226D01*
X185059774Y-126196063D01*
X184890256Y-126082795D01*
X184701898Y-126004774D01*
X184501939Y-125965000D01*
X184298061Y-125965000D01*
X184098102Y-126004774D01*
X183909744Y-126082795D01*
X183740226Y-126196063D01*
X183596063Y-126340226D01*
X183482795Y-126509744D01*
X183404774Y-126698102D01*
X183365000Y-126898061D01*
X182761772Y-126898061D01*
X182659774Y-126796063D01*
X182490256Y-126682795D01*
X182301898Y-126604774D01*
X182101939Y-126565000D01*
X181898061Y-126565000D01*
X181698102Y-126604774D01*
X181509744Y-126682795D01*
X181340226Y-126796063D01*
X181196063Y-126940226D01*
X181082795Y-127109744D01*
X181004774Y-127298102D01*
X180965000Y-127498061D01*
X176995989Y-127498061D01*
X177035000Y-127301939D01*
X177035000Y-127098061D01*
X176995226Y-126898102D01*
X176917205Y-126709744D01*
X176803937Y-126540226D01*
X176659774Y-126396063D01*
X176490256Y-126282795D01*
X176301898Y-126204774D01*
X176101939Y-126165000D01*
X175898061Y-126165000D01*
X175698102Y-126204774D01*
X175509744Y-126282795D01*
X175340226Y-126396063D01*
X175196063Y-126540226D01*
X175155177Y-126601416D01*
X175117205Y-126509744D01*
X175003937Y-126340226D01*
X174859774Y-126196063D01*
X174690256Y-126082795D01*
X174501898Y-126004774D01*
X174301939Y-125965000D01*
X174098061Y-125965000D01*
X173898102Y-126004774D01*
X173709744Y-126082795D01*
X173540226Y-126196063D01*
X173396063Y-126340226D01*
X173282795Y-126509744D01*
X173204774Y-126698102D01*
X173165000Y-126898061D01*
X163565650Y-126898061D01*
X163603937Y-126859774D01*
X163717205Y-126690256D01*
X163795226Y-126501898D01*
X163835000Y-126301939D01*
X163835000Y-126098061D01*
X163795226Y-125898102D01*
X163717205Y-125709744D01*
X163603937Y-125540226D01*
X163459774Y-125396063D01*
X163378669Y-125341870D01*
X163395226Y-125301898D01*
X163435000Y-125101939D01*
X163435000Y-124898061D01*
X163395226Y-124698102D01*
X163369088Y-124635000D01*
X163501939Y-124635000D01*
X163701898Y-124595226D01*
X163890256Y-124517205D01*
X164059774Y-124403937D01*
X164203937Y-124259774D01*
X164317205Y-124090256D01*
X164395226Y-123901898D01*
X164402764Y-123864000D01*
X170977928Y-123864000D01*
X170977928Y-125564000D01*
X170990188Y-125688482D01*
X171026498Y-125808180D01*
X171085463Y-125918494D01*
X171164815Y-126015185D01*
X171261506Y-126094537D01*
X171371820Y-126153502D01*
X171491518Y-126189812D01*
X171616000Y-126202072D01*
X173316000Y-126202072D01*
X173440482Y-126189812D01*
X173560180Y-126153502D01*
X173670494Y-126094537D01*
X173767185Y-126015185D01*
X173846537Y-125918494D01*
X173905502Y-125808180D01*
X173941812Y-125688482D01*
X173954072Y-125564000D01*
X173954072Y-124898061D01*
X175965000Y-124898061D01*
X175965000Y-125101939D01*
X176004774Y-125301898D01*
X176082795Y-125490256D01*
X176196063Y-125659774D01*
X176340226Y-125803937D01*
X176509744Y-125917205D01*
X176698102Y-125995226D01*
X176898061Y-126035000D01*
X177101939Y-126035000D01*
X177301898Y-125995226D01*
X177490256Y-125917205D01*
X177659774Y-125803937D01*
X177803937Y-125659774D01*
X177917205Y-125490256D01*
X177995226Y-125301898D01*
X178035000Y-125101939D01*
X178035000Y-124898711D01*
X178140226Y-125003937D01*
X178309744Y-125117205D01*
X178498102Y-125195226D01*
X178698061Y-125235000D01*
X178901939Y-125235000D01*
X179101898Y-125195226D01*
X179290256Y-125117205D01*
X179459774Y-125003937D01*
X179603937Y-124859774D01*
X179717205Y-124690256D01*
X179795226Y-124501898D01*
X179835000Y-124301939D01*
X179835000Y-124098061D01*
X179795226Y-123898102D01*
X179717205Y-123709744D01*
X179603937Y-123540226D01*
X179459774Y-123396063D01*
X179290256Y-123282795D01*
X179101898Y-123204774D01*
X178901939Y-123165000D01*
X178698061Y-123165000D01*
X178498102Y-123204774D01*
X178309744Y-123282795D01*
X178140226Y-123396063D01*
X177996063Y-123540226D01*
X177882795Y-123709744D01*
X177804774Y-123898102D01*
X177765000Y-124098061D01*
X177765000Y-124301289D01*
X177659774Y-124196063D01*
X177490256Y-124082795D01*
X177301898Y-124004774D01*
X177101939Y-123965000D01*
X176898061Y-123965000D01*
X176698102Y-124004774D01*
X176509744Y-124082795D01*
X176340226Y-124196063D01*
X176196063Y-124340226D01*
X176082795Y-124509744D01*
X176004774Y-124698102D01*
X175965000Y-124898061D01*
X173954072Y-124898061D01*
X173954072Y-123864000D01*
X173941812Y-123739518D01*
X173905502Y-123619820D01*
X173846537Y-123509506D01*
X173767185Y-123412815D01*
X173670494Y-123333463D01*
X173560180Y-123274498D01*
X173487620Y-123252487D01*
X173619475Y-123120632D01*
X173768192Y-122898061D01*
X187765000Y-122898061D01*
X187765000Y-123101939D01*
X187804774Y-123301898D01*
X187882795Y-123490256D01*
X187996063Y-123659774D01*
X188140226Y-123803937D01*
X188309744Y-123917205D01*
X188498102Y-123995226D01*
X188698061Y-124035000D01*
X188901939Y-124035000D01*
X189101898Y-123995226D01*
X189290256Y-123917205D01*
X189459774Y-123803937D01*
X189603937Y-123659774D01*
X189717205Y-123490256D01*
X189795226Y-123301898D01*
X189835000Y-123101939D01*
X189835000Y-122898061D01*
X189795226Y-122698102D01*
X189717205Y-122509744D01*
X189712334Y-122502453D01*
X189859774Y-122403937D01*
X190003937Y-122259774D01*
X190117205Y-122090256D01*
X190195226Y-121901898D01*
X190235000Y-121701939D01*
X190235000Y-121498061D01*
X190195226Y-121298102D01*
X190117205Y-121109744D01*
X190003937Y-120940226D01*
X189859774Y-120796063D01*
X189690256Y-120682795D01*
X189501898Y-120604774D01*
X189301939Y-120565000D01*
X189098061Y-120565000D01*
X188898102Y-120604774D01*
X188709744Y-120682795D01*
X188540226Y-120796063D01*
X188396063Y-120940226D01*
X188282795Y-121109744D01*
X188204774Y-121298102D01*
X188165000Y-121498061D01*
X188165000Y-121701939D01*
X188204774Y-121901898D01*
X188282795Y-122090256D01*
X188287666Y-122097547D01*
X188140226Y-122196063D01*
X187996063Y-122340226D01*
X187882795Y-122509744D01*
X187804774Y-122698102D01*
X187765000Y-122898061D01*
X173768192Y-122898061D01*
X173781990Y-122877411D01*
X173893932Y-122607158D01*
X173951000Y-122320260D01*
X173951000Y-122027740D01*
X173893932Y-121740842D01*
X173781990Y-121470589D01*
X173619475Y-121227368D01*
X173412632Y-121020525D01*
X173238240Y-120904000D01*
X173412632Y-120787475D01*
X173619475Y-120580632D01*
X173781990Y-120337411D01*
X173783796Y-120333050D01*
X173909744Y-120417205D01*
X174098102Y-120495226D01*
X174298061Y-120535000D01*
X174501939Y-120535000D01*
X174701898Y-120495226D01*
X174890256Y-120417205D01*
X175059774Y-120303937D01*
X175203937Y-120159774D01*
X175317205Y-119990256D01*
X175395226Y-119801898D01*
X175435000Y-119601939D01*
X175435000Y-119498061D01*
X175565000Y-119498061D01*
X175565000Y-119701939D01*
X175604774Y-119901898D01*
X175682795Y-120090256D01*
X175796063Y-120259774D01*
X175940226Y-120403937D01*
X176109744Y-120517205D01*
X176298102Y-120595226D01*
X176498061Y-120635000D01*
X176701939Y-120635000D01*
X176901898Y-120595226D01*
X177090256Y-120517205D01*
X177259774Y-120403937D01*
X177403937Y-120259774D01*
X177517205Y-120090256D01*
X177595226Y-119901898D01*
X177595989Y-119898061D01*
X181765000Y-119898061D01*
X181765000Y-120101939D01*
X181804774Y-120301898D01*
X181882795Y-120490256D01*
X181996063Y-120659774D01*
X182140226Y-120803937D01*
X182309744Y-120917205D01*
X182498102Y-120995226D01*
X182698061Y-121035000D01*
X182901939Y-121035000D01*
X183101898Y-120995226D01*
X183290256Y-120917205D01*
X183459774Y-120803937D01*
X183603937Y-120659774D01*
X183717205Y-120490256D01*
X183795226Y-120301898D01*
X183795989Y-120298061D01*
X185565000Y-120298061D01*
X185565000Y-120501939D01*
X185604774Y-120701898D01*
X185682795Y-120890256D01*
X185796063Y-121059774D01*
X185940226Y-121203937D01*
X186109744Y-121317205D01*
X186298102Y-121395226D01*
X186498061Y-121435000D01*
X186701939Y-121435000D01*
X186901898Y-121395226D01*
X187090256Y-121317205D01*
X187259774Y-121203937D01*
X187403937Y-121059774D01*
X187517205Y-120890256D01*
X187595226Y-120701898D01*
X187635000Y-120501939D01*
X187635000Y-120298061D01*
X187595226Y-120098102D01*
X187517205Y-119909744D01*
X187403937Y-119740226D01*
X187259774Y-119596063D01*
X187090256Y-119482795D01*
X186901898Y-119404774D01*
X186701939Y-119365000D01*
X186498061Y-119365000D01*
X186298102Y-119404774D01*
X186109744Y-119482795D01*
X185940226Y-119596063D01*
X185796063Y-119740226D01*
X185682795Y-119909744D01*
X185604774Y-120098102D01*
X185565000Y-120298061D01*
X183795989Y-120298061D01*
X183835000Y-120101939D01*
X183835000Y-119898061D01*
X183795226Y-119698102D01*
X183717205Y-119509744D01*
X183603937Y-119340226D01*
X183459774Y-119196063D01*
X183290256Y-119082795D01*
X183101898Y-119004774D01*
X182901939Y-118965000D01*
X182698061Y-118965000D01*
X182498102Y-119004774D01*
X182309744Y-119082795D01*
X182140226Y-119196063D01*
X181996063Y-119340226D01*
X181882795Y-119509744D01*
X181804774Y-119698102D01*
X181765000Y-119898061D01*
X177595989Y-119898061D01*
X177635000Y-119701939D01*
X177635000Y-119498061D01*
X177595226Y-119298102D01*
X177517205Y-119109744D01*
X177403937Y-118940226D01*
X177259774Y-118796063D01*
X177090256Y-118682795D01*
X176901898Y-118604774D01*
X176701939Y-118565000D01*
X176498061Y-118565000D01*
X176298102Y-118604774D01*
X176109744Y-118682795D01*
X175940226Y-118796063D01*
X175796063Y-118940226D01*
X175682795Y-119109744D01*
X175604774Y-119298102D01*
X175565000Y-119498061D01*
X175435000Y-119498061D01*
X175435000Y-119398061D01*
X175395226Y-119198102D01*
X175317205Y-119009744D01*
X175203937Y-118840226D01*
X175059774Y-118696063D01*
X174890256Y-118582795D01*
X174701898Y-118504774D01*
X174501939Y-118465000D01*
X174298061Y-118465000D01*
X174098102Y-118504774D01*
X173909744Y-118582795D01*
X173740226Y-118696063D01*
X173671324Y-118764965D01*
X173619475Y-118687368D01*
X173412632Y-118480525D01*
X173169411Y-118318010D01*
X172899158Y-118206068D01*
X172612260Y-118149000D01*
X172319740Y-118149000D01*
X172032842Y-118206068D01*
X171762589Y-118318010D01*
X171519368Y-118480525D01*
X171312525Y-118687368D01*
X171150010Y-118930589D01*
X171038068Y-119200842D01*
X170981000Y-119487740D01*
X170981000Y-119780260D01*
X171038068Y-120067158D01*
X171150010Y-120337411D01*
X171312525Y-120580632D01*
X171519368Y-120787475D01*
X171693760Y-120904000D01*
X171519368Y-121020525D01*
X171312525Y-121227368D01*
X171150010Y-121470589D01*
X171038068Y-121740842D01*
X170981000Y-122027740D01*
X170981000Y-122320260D01*
X171038068Y-122607158D01*
X171150010Y-122877411D01*
X171312525Y-123120632D01*
X171444380Y-123252487D01*
X171371820Y-123274498D01*
X171261506Y-123333463D01*
X171164815Y-123412815D01*
X171085463Y-123509506D01*
X171026498Y-123619820D01*
X170990188Y-123739518D01*
X170977928Y-123864000D01*
X164402764Y-123864000D01*
X164435000Y-123701939D01*
X164435000Y-123498061D01*
X164395226Y-123298102D01*
X164317205Y-123109744D01*
X164203937Y-122940226D01*
X164059774Y-122796063D01*
X163890256Y-122682795D01*
X163701898Y-122604774D01*
X163501939Y-122565000D01*
X163298061Y-122565000D01*
X163098102Y-122604774D01*
X162909744Y-122682795D01*
X162750199Y-122789399D01*
X162717205Y-122709744D01*
X162603937Y-122540226D01*
X162459774Y-122396063D01*
X162313104Y-122298061D01*
X165965000Y-122298061D01*
X165965000Y-122501939D01*
X166004774Y-122701898D01*
X166082795Y-122890256D01*
X166196063Y-123059774D01*
X166340226Y-123203937D01*
X166509744Y-123317205D01*
X166698102Y-123395226D01*
X166898061Y-123435000D01*
X167101939Y-123435000D01*
X167301898Y-123395226D01*
X167490256Y-123317205D01*
X167659774Y-123203937D01*
X167803937Y-123059774D01*
X167917205Y-122890256D01*
X167995226Y-122701898D01*
X168035000Y-122501939D01*
X168035000Y-122298061D01*
X167995226Y-122098102D01*
X167952090Y-121993964D01*
X167996063Y-122059774D01*
X168140226Y-122203937D01*
X168309744Y-122317205D01*
X168498102Y-122395226D01*
X168698061Y-122435000D01*
X168901939Y-122435000D01*
X169101898Y-122395226D01*
X169290256Y-122317205D01*
X169459774Y-122203937D01*
X169603937Y-122059774D01*
X169717205Y-121890256D01*
X169795226Y-121701898D01*
X169835000Y-121501939D01*
X169835000Y-121298061D01*
X169795226Y-121098102D01*
X169717205Y-120909744D01*
X169603937Y-120740226D01*
X169459774Y-120596063D01*
X169290256Y-120482795D01*
X169101898Y-120404774D01*
X168901939Y-120365000D01*
X168698061Y-120365000D01*
X168498102Y-120404774D01*
X168309744Y-120482795D01*
X168140226Y-120596063D01*
X167996063Y-120740226D01*
X167882795Y-120909744D01*
X167804774Y-121098102D01*
X167765000Y-121298061D01*
X167765000Y-121501939D01*
X167804774Y-121701898D01*
X167847910Y-121806036D01*
X167803937Y-121740226D01*
X167659774Y-121596063D01*
X167490256Y-121482795D01*
X167301898Y-121404774D01*
X167101939Y-121365000D01*
X166898061Y-121365000D01*
X166698102Y-121404774D01*
X166509744Y-121482795D01*
X166340226Y-121596063D01*
X166196063Y-121740226D01*
X166082795Y-121909744D01*
X166004774Y-122098102D01*
X165965000Y-122298061D01*
X162313104Y-122298061D01*
X162290256Y-122282795D01*
X162101898Y-122204774D01*
X161901939Y-122165000D01*
X161698061Y-122165000D01*
X161498102Y-122204774D01*
X161309744Y-122282795D01*
X161140226Y-122396063D01*
X160996063Y-122540226D01*
X160882795Y-122709744D01*
X160804774Y-122898102D01*
X160765000Y-123098061D01*
X160765000Y-123301939D01*
X160804774Y-123501898D01*
X160882795Y-123690256D01*
X160996063Y-123859774D01*
X161140226Y-124003937D01*
X161309744Y-124117205D01*
X161498102Y-124195226D01*
X161698061Y-124235000D01*
X161701289Y-124235000D01*
X161596063Y-124340226D01*
X161482795Y-124509744D01*
X161447882Y-124594030D01*
X161301939Y-124565000D01*
X161098061Y-124565000D01*
X160898102Y-124604774D01*
X160709744Y-124682795D01*
X160540226Y-124796063D01*
X160396063Y-124940226D01*
X160282795Y-125109744D01*
X160204774Y-125298102D01*
X160165000Y-125498061D01*
X160165000Y-125701939D01*
X160204774Y-125901898D01*
X160282795Y-126090256D01*
X160396063Y-126259774D01*
X160540226Y-126403937D01*
X160683995Y-126500000D01*
X160540226Y-126596063D01*
X160396063Y-126740226D01*
X160282795Y-126909744D01*
X160204774Y-127098102D01*
X160165000Y-127298061D01*
X160165000Y-127501939D01*
X160204774Y-127701898D01*
X160282795Y-127890256D01*
X160396063Y-128059774D01*
X160455397Y-128119108D01*
X160340226Y-128196063D01*
X160300000Y-128236289D01*
X160259774Y-128196063D01*
X160090256Y-128082795D01*
X159901898Y-128004774D01*
X159701939Y-127965000D01*
X159498061Y-127965000D01*
X159298102Y-128004774D01*
X159258130Y-128021331D01*
X159203937Y-127940226D01*
X159059774Y-127796063D01*
X158890256Y-127682795D01*
X158701898Y-127604774D01*
X158501939Y-127565000D01*
X158298061Y-127565000D01*
X158098102Y-127604774D01*
X157909744Y-127682795D01*
X157740226Y-127796063D01*
X157596063Y-127940226D01*
X157482795Y-128109744D01*
X157404774Y-128298102D01*
X157365000Y-128498061D01*
X157365000Y-128577544D01*
X157301939Y-128565000D01*
X157098061Y-128565000D01*
X156898102Y-128604774D01*
X156709744Y-128682795D01*
X156540226Y-128796063D01*
X156396063Y-128940226D01*
X156319108Y-129055397D01*
X156259774Y-128996063D01*
X156090256Y-128882795D01*
X155901898Y-128804774D01*
X155701939Y-128765000D01*
X155498061Y-128765000D01*
X155298102Y-128804774D01*
X155109744Y-128882795D01*
X154940226Y-128996063D01*
X154796063Y-129140226D01*
X154682795Y-129309744D01*
X154604774Y-129498102D01*
X154565000Y-129698061D01*
X144660000Y-129698061D01*
X144660000Y-127098061D01*
X144765000Y-127098061D01*
X144765000Y-127301939D01*
X144804774Y-127501898D01*
X144882795Y-127690256D01*
X144996063Y-127859774D01*
X145140226Y-128003937D01*
X145309744Y-128117205D01*
X145498102Y-128195226D01*
X145698061Y-128235000D01*
X145901939Y-128235000D01*
X146101898Y-128195226D01*
X146290256Y-128117205D01*
X146459774Y-128003937D01*
X146603937Y-127859774D01*
X146717205Y-127690256D01*
X146795226Y-127501898D01*
X146835000Y-127301939D01*
X146835000Y-127098061D01*
X146795226Y-126898102D01*
X146717205Y-126709744D01*
X146603937Y-126540226D01*
X146459774Y-126396063D01*
X146290256Y-126282795D01*
X146101898Y-126204774D01*
X145901939Y-126165000D01*
X145698061Y-126165000D01*
X145498102Y-126204774D01*
X145309744Y-126282795D01*
X145140226Y-126396063D01*
X144996063Y-126540226D01*
X144882795Y-126709744D01*
X144804774Y-126898102D01*
X144765000Y-127098061D01*
X144660000Y-127098061D01*
X144660000Y-126098061D01*
X147965000Y-126098061D01*
X147965000Y-126301939D01*
X148004774Y-126501898D01*
X148082795Y-126690256D01*
X148196063Y-126859774D01*
X148340226Y-127003937D01*
X148509744Y-127117205D01*
X148698102Y-127195226D01*
X148898061Y-127235000D01*
X149101939Y-127235000D01*
X149287645Y-127198061D01*
X155565000Y-127198061D01*
X155565000Y-127401939D01*
X155604774Y-127601898D01*
X155682795Y-127790256D01*
X155796063Y-127959774D01*
X155940226Y-128103937D01*
X156109744Y-128217205D01*
X156298102Y-128295226D01*
X156498061Y-128335000D01*
X156701939Y-128335000D01*
X156901898Y-128295226D01*
X157090256Y-128217205D01*
X157259774Y-128103937D01*
X157403937Y-127959774D01*
X157517205Y-127790256D01*
X157595226Y-127601898D01*
X157635000Y-127401939D01*
X157635000Y-127198061D01*
X157595226Y-126998102D01*
X157517205Y-126809744D01*
X157403937Y-126640226D01*
X157259774Y-126496063D01*
X157090256Y-126382795D01*
X156901898Y-126304774D01*
X156701939Y-126265000D01*
X156498061Y-126265000D01*
X156298102Y-126304774D01*
X156109744Y-126382795D01*
X155940226Y-126496063D01*
X155796063Y-126640226D01*
X155682795Y-126809744D01*
X155604774Y-126998102D01*
X155565000Y-127198061D01*
X149287645Y-127198061D01*
X149301898Y-127195226D01*
X149490256Y-127117205D01*
X149659774Y-127003937D01*
X149803937Y-126859774D01*
X149917205Y-126690256D01*
X149995226Y-126501898D01*
X150035000Y-126301939D01*
X150035000Y-126098061D01*
X149995226Y-125898102D01*
X149917205Y-125709744D01*
X149803937Y-125540226D01*
X149761772Y-125498061D01*
X150165000Y-125498061D01*
X150165000Y-125701939D01*
X150204774Y-125901898D01*
X150282795Y-126090256D01*
X150396063Y-126259774D01*
X150540226Y-126403937D01*
X150709744Y-126517205D01*
X150898102Y-126595226D01*
X151098061Y-126635000D01*
X151301939Y-126635000D01*
X151501898Y-126595226D01*
X151690256Y-126517205D01*
X151859774Y-126403937D01*
X152003937Y-126259774D01*
X152117205Y-126090256D01*
X152195226Y-125901898D01*
X152235000Y-125701939D01*
X152235000Y-125498061D01*
X152195226Y-125298102D01*
X152117205Y-125109744D01*
X152003937Y-124940226D01*
X151859774Y-124796063D01*
X151690256Y-124682795D01*
X151501898Y-124604774D01*
X151301939Y-124565000D01*
X151098061Y-124565000D01*
X150898102Y-124604774D01*
X150709744Y-124682795D01*
X150540226Y-124796063D01*
X150396063Y-124940226D01*
X150282795Y-125109744D01*
X150204774Y-125298102D01*
X150165000Y-125498061D01*
X149761772Y-125498061D01*
X149659774Y-125396063D01*
X149490256Y-125282795D01*
X149301898Y-125204774D01*
X149101939Y-125165000D01*
X148898061Y-125165000D01*
X148698102Y-125204774D01*
X148509744Y-125282795D01*
X148340226Y-125396063D01*
X148196063Y-125540226D01*
X148082795Y-125709744D01*
X148004774Y-125898102D01*
X147965000Y-126098061D01*
X144660000Y-126098061D01*
X144660000Y-123498061D01*
X154165000Y-123498061D01*
X154165000Y-123701939D01*
X154204774Y-123901898D01*
X154282795Y-124090256D01*
X154396063Y-124259774D01*
X154540226Y-124403937D01*
X154709744Y-124517205D01*
X154898102Y-124595226D01*
X155098061Y-124635000D01*
X155301939Y-124635000D01*
X155501898Y-124595226D01*
X155690256Y-124517205D01*
X155859774Y-124403937D01*
X155965000Y-124298711D01*
X155965000Y-124501939D01*
X156004774Y-124701898D01*
X156082795Y-124890256D01*
X156196063Y-125059774D01*
X156340226Y-125203937D01*
X156509744Y-125317205D01*
X156698102Y-125395226D01*
X156898061Y-125435000D01*
X157101939Y-125435000D01*
X157301898Y-125395226D01*
X157490256Y-125317205D01*
X157659774Y-125203937D01*
X157803937Y-125059774D01*
X157917205Y-124890256D01*
X157995226Y-124701898D01*
X158002354Y-124666065D01*
X158140226Y-124803937D01*
X158309744Y-124917205D01*
X158498102Y-124995226D01*
X158698061Y-125035000D01*
X158901939Y-125035000D01*
X159101898Y-124995226D01*
X159290256Y-124917205D01*
X159459774Y-124803937D01*
X159603937Y-124659774D01*
X159717205Y-124490256D01*
X159795226Y-124301898D01*
X159835000Y-124101939D01*
X159835000Y-123898061D01*
X159795226Y-123698102D01*
X159717205Y-123509744D01*
X159603937Y-123340226D01*
X159459774Y-123196063D01*
X159290256Y-123082795D01*
X159101898Y-123004774D01*
X158901939Y-122965000D01*
X158698061Y-122965000D01*
X158498102Y-123004774D01*
X158309744Y-123082795D01*
X158140226Y-123196063D01*
X157996063Y-123340226D01*
X157882795Y-123509744D01*
X157804774Y-123698102D01*
X157797646Y-123733935D01*
X157659774Y-123596063D01*
X157490256Y-123482795D01*
X157301898Y-123404774D01*
X157101939Y-123365000D01*
X156898061Y-123365000D01*
X156698102Y-123404774D01*
X156509744Y-123482795D01*
X156340226Y-123596063D01*
X156235000Y-123701289D01*
X156235000Y-123498061D01*
X156195226Y-123298102D01*
X156117205Y-123109744D01*
X156003937Y-122940226D01*
X155859774Y-122796063D01*
X155690256Y-122682795D01*
X155501898Y-122604774D01*
X155301939Y-122565000D01*
X155098061Y-122565000D01*
X154898102Y-122604774D01*
X154709744Y-122682795D01*
X154540226Y-122796063D01*
X154396063Y-122940226D01*
X154282795Y-123109744D01*
X154204774Y-123298102D01*
X154165000Y-123498061D01*
X144660000Y-123498061D01*
X144660000Y-119498061D01*
X145165000Y-119498061D01*
X145165000Y-119701939D01*
X145204774Y-119901898D01*
X145282795Y-120090256D01*
X145396063Y-120259774D01*
X145540226Y-120403937D01*
X145709744Y-120517205D01*
X145898102Y-120595226D01*
X146098061Y-120635000D01*
X146301939Y-120635000D01*
X146501898Y-120595226D01*
X146690256Y-120517205D01*
X146859774Y-120403937D01*
X147003937Y-120259774D01*
X147117205Y-120090256D01*
X147195226Y-119901898D01*
X147235000Y-119701939D01*
X147235000Y-119498061D01*
X147195226Y-119298102D01*
X147117205Y-119109744D01*
X147003937Y-118940226D01*
X146859774Y-118796063D01*
X146690256Y-118682795D01*
X146501898Y-118604774D01*
X146301939Y-118565000D01*
X146098061Y-118565000D01*
X145898102Y-118604774D01*
X145709744Y-118682795D01*
X145540226Y-118796063D01*
X145396063Y-118940226D01*
X145282795Y-119109744D01*
X145204774Y-119298102D01*
X145165000Y-119498061D01*
X144660000Y-119498061D01*
X144660000Y-117898061D01*
X150765000Y-117898061D01*
X150765000Y-118101939D01*
X150804774Y-118301898D01*
X150882795Y-118490256D01*
X150996063Y-118659774D01*
X151140226Y-118803937D01*
X151309744Y-118917205D01*
X151498102Y-118995226D01*
X151698061Y-119035000D01*
X151901939Y-119035000D01*
X152101898Y-118995226D01*
X152290256Y-118917205D01*
X152459774Y-118803937D01*
X152603937Y-118659774D01*
X152717205Y-118490256D01*
X152795226Y-118301898D01*
X152795989Y-118298061D01*
X153565000Y-118298061D01*
X153565000Y-118501939D01*
X153604774Y-118701898D01*
X153682795Y-118890256D01*
X153796063Y-119059774D01*
X153940226Y-119203937D01*
X154109744Y-119317205D01*
X154298102Y-119395226D01*
X154498061Y-119435000D01*
X154701939Y-119435000D01*
X154901898Y-119395226D01*
X155090256Y-119317205D01*
X155259774Y-119203937D01*
X155403937Y-119059774D01*
X155517205Y-118890256D01*
X155595226Y-118701898D01*
X155635000Y-118501939D01*
X155635000Y-118298061D01*
X155595226Y-118098102D01*
X155517205Y-117909744D01*
X155403937Y-117740226D01*
X155259774Y-117596063D01*
X155090256Y-117482795D01*
X154901898Y-117404774D01*
X154701939Y-117365000D01*
X154498061Y-117365000D01*
X154298102Y-117404774D01*
X154109744Y-117482795D01*
X153940226Y-117596063D01*
X153796063Y-117740226D01*
X153682795Y-117909744D01*
X153604774Y-118098102D01*
X153565000Y-118298061D01*
X152795989Y-118298061D01*
X152835000Y-118101939D01*
X152835000Y-117898061D01*
X152795226Y-117698102D01*
X152717205Y-117509744D01*
X152603937Y-117340226D01*
X152459774Y-117196063D01*
X152290256Y-117082795D01*
X152101898Y-117004774D01*
X151901939Y-116965000D01*
X151698061Y-116965000D01*
X151498102Y-117004774D01*
X151309744Y-117082795D01*
X151140226Y-117196063D01*
X150996063Y-117340226D01*
X150882795Y-117509744D01*
X150804774Y-117698102D01*
X150765000Y-117898061D01*
X144660000Y-117898061D01*
X144660000Y-115498061D01*
X154765000Y-115498061D01*
X154765000Y-115701939D01*
X154804774Y-115901898D01*
X154882795Y-116090256D01*
X154996063Y-116259774D01*
X155140226Y-116403937D01*
X155309744Y-116517205D01*
X155498102Y-116595226D01*
X155698061Y-116635000D01*
X155901939Y-116635000D01*
X156101898Y-116595226D01*
X156290256Y-116517205D01*
X156459774Y-116403937D01*
X156603937Y-116259774D01*
X156717205Y-116090256D01*
X156795226Y-115901898D01*
X156835000Y-115701939D01*
X156835000Y-115498061D01*
X156795226Y-115298102D01*
X156717205Y-115109744D01*
X156603937Y-114940226D01*
X156459774Y-114796063D01*
X156290256Y-114682795D01*
X156101898Y-114604774D01*
X155901939Y-114565000D01*
X155698061Y-114565000D01*
X155498102Y-114604774D01*
X155309744Y-114682795D01*
X155140226Y-114796063D01*
X154996063Y-114940226D01*
X154882795Y-115109744D01*
X154804774Y-115298102D01*
X154765000Y-115498061D01*
X144660000Y-115498061D01*
X144660000Y-113098061D01*
X149565000Y-113098061D01*
X149565000Y-113301939D01*
X149604774Y-113501898D01*
X149682795Y-113690256D01*
X149796063Y-113859774D01*
X149940226Y-114003937D01*
X150109744Y-114117205D01*
X150298102Y-114195226D01*
X150498061Y-114235000D01*
X150701939Y-114235000D01*
X150901898Y-114195226D01*
X151090256Y-114117205D01*
X151259774Y-114003937D01*
X151403937Y-113859774D01*
X151517205Y-113690256D01*
X151595226Y-113501898D01*
X151635000Y-113301939D01*
X151635000Y-113098061D01*
X151595226Y-112898102D01*
X151517205Y-112709744D01*
X151403937Y-112540226D01*
X151259774Y-112396063D01*
X151090256Y-112282795D01*
X150901898Y-112204774D01*
X150701939Y-112165000D01*
X150498061Y-112165000D01*
X150298102Y-112204774D01*
X150109744Y-112282795D01*
X149940226Y-112396063D01*
X149796063Y-112540226D01*
X149682795Y-112709744D01*
X149604774Y-112898102D01*
X149565000Y-113098061D01*
X144660000Y-113098061D01*
X144660000Y-111748061D01*
X157295000Y-111748061D01*
X157295000Y-111951939D01*
X157334774Y-112151898D01*
X157412795Y-112340256D01*
X157526063Y-112509774D01*
X157670226Y-112653937D01*
X157839744Y-112767205D01*
X158028102Y-112845226D01*
X158228061Y-112885000D01*
X158431939Y-112885000D01*
X158631898Y-112845226D01*
X158820256Y-112767205D01*
X158989774Y-112653937D01*
X159012729Y-112630982D01*
X159178531Y-112879122D01*
X159420878Y-113121469D01*
X159705848Y-113311880D01*
X160022490Y-113443037D01*
X160358635Y-113509900D01*
X160701365Y-113509900D01*
X160765000Y-113497242D01*
X160765000Y-113501939D01*
X160804774Y-113701898D01*
X160882795Y-113890256D01*
X160956123Y-114000000D01*
X160882795Y-114109744D01*
X160804774Y-114298102D01*
X160765000Y-114498061D01*
X160765000Y-114701939D01*
X160804774Y-114901898D01*
X160882795Y-115090256D01*
X160956123Y-115200000D01*
X160882795Y-115309744D01*
X160804774Y-115498102D01*
X160765000Y-115698061D01*
X160765000Y-115901939D01*
X160804774Y-116101898D01*
X160882795Y-116290256D01*
X160956123Y-116400000D01*
X160882795Y-116509744D01*
X160804774Y-116698102D01*
X160765000Y-116898061D01*
X160765000Y-117101939D01*
X160804774Y-117301898D01*
X160882795Y-117490256D01*
X160956123Y-117600000D01*
X160882795Y-117709744D01*
X160804774Y-117898102D01*
X160765000Y-118098061D01*
X160765000Y-118301939D01*
X160804774Y-118501898D01*
X160882795Y-118690256D01*
X160956123Y-118800000D01*
X160882795Y-118909744D01*
X160804774Y-119098102D01*
X160765000Y-119298061D01*
X160765000Y-119501939D01*
X160804774Y-119701898D01*
X160882795Y-119890256D01*
X160996063Y-120059774D01*
X161140226Y-120203937D01*
X161309744Y-120317205D01*
X161498102Y-120395226D01*
X161698061Y-120435000D01*
X161901939Y-120435000D01*
X162087645Y-120398061D01*
X163465000Y-120398061D01*
X163465000Y-120601939D01*
X163504774Y-120801898D01*
X163582795Y-120990256D01*
X163696063Y-121159774D01*
X163840226Y-121303937D01*
X164009744Y-121417205D01*
X164198102Y-121495226D01*
X164398061Y-121535000D01*
X164601939Y-121535000D01*
X164801898Y-121495226D01*
X164990256Y-121417205D01*
X165159774Y-121303937D01*
X165277160Y-121186551D01*
X165298102Y-121195226D01*
X165498061Y-121235000D01*
X165701939Y-121235000D01*
X165901898Y-121195226D01*
X166090256Y-121117205D01*
X166259774Y-121003937D01*
X166403937Y-120859774D01*
X166517205Y-120690256D01*
X166595226Y-120501898D01*
X166635000Y-120301939D01*
X166635000Y-120208533D01*
X166701898Y-120195226D01*
X166890256Y-120117205D01*
X167059774Y-120003937D01*
X167203937Y-119859774D01*
X167317205Y-119690256D01*
X167395226Y-119501898D01*
X167435000Y-119301939D01*
X167435000Y-119098061D01*
X168365000Y-119098061D01*
X168365000Y-119301939D01*
X168404774Y-119501898D01*
X168482795Y-119690256D01*
X168596063Y-119859774D01*
X168740226Y-120003937D01*
X168909744Y-120117205D01*
X169098102Y-120195226D01*
X169298061Y-120235000D01*
X169501939Y-120235000D01*
X169701898Y-120195226D01*
X169890256Y-120117205D01*
X170059774Y-120003937D01*
X170203937Y-119859774D01*
X170317205Y-119690256D01*
X170395226Y-119501898D01*
X170435000Y-119301939D01*
X170435000Y-119098061D01*
X170395226Y-118898102D01*
X170317205Y-118709744D01*
X170203937Y-118540226D01*
X170059774Y-118396063D01*
X169890256Y-118282795D01*
X169701898Y-118204774D01*
X169501939Y-118165000D01*
X169298061Y-118165000D01*
X169098102Y-118204774D01*
X168909744Y-118282795D01*
X168740226Y-118396063D01*
X168596063Y-118540226D01*
X168482795Y-118709744D01*
X168404774Y-118898102D01*
X168365000Y-119098061D01*
X167435000Y-119098061D01*
X167395226Y-118898102D01*
X167317205Y-118709744D01*
X167203937Y-118540226D01*
X167059774Y-118396063D01*
X166890256Y-118282795D01*
X166805970Y-118247882D01*
X166835000Y-118101939D01*
X166835000Y-117898061D01*
X166795226Y-117698102D01*
X166717205Y-117509744D01*
X166603937Y-117340226D01*
X166459774Y-117196063D01*
X166290256Y-117082795D01*
X166101898Y-117004774D01*
X165901939Y-116965000D01*
X165698061Y-116965000D01*
X165498102Y-117004774D01*
X165458130Y-117021331D01*
X165443877Y-117000000D01*
X165517205Y-116890256D01*
X165595226Y-116701898D01*
X165635000Y-116501939D01*
X165635000Y-116298061D01*
X165595226Y-116098102D01*
X165557508Y-116007042D01*
X165698061Y-116035000D01*
X165901939Y-116035000D01*
X166101898Y-115995226D01*
X166290256Y-115917205D01*
X166459774Y-115803937D01*
X166603937Y-115659774D01*
X166711989Y-115498061D01*
X168965000Y-115498061D01*
X168965000Y-115701939D01*
X169004774Y-115901898D01*
X169082795Y-116090256D01*
X169196063Y-116259774D01*
X169340226Y-116403937D01*
X169509744Y-116517205D01*
X169698102Y-116595226D01*
X169898061Y-116635000D01*
X170101939Y-116635000D01*
X170301898Y-116595226D01*
X170490256Y-116517205D01*
X170659774Y-116403937D01*
X170803937Y-116259774D01*
X170917205Y-116090256D01*
X170995226Y-115901898D01*
X171035000Y-115701939D01*
X171035000Y-115498061D01*
X170995226Y-115298102D01*
X170995210Y-115298061D01*
X182165000Y-115298061D01*
X182165000Y-115501939D01*
X182204774Y-115701898D01*
X182282795Y-115890256D01*
X182396063Y-116059774D01*
X182540226Y-116203937D01*
X182709744Y-116317205D01*
X182898102Y-116395226D01*
X183098061Y-116435000D01*
X183301939Y-116435000D01*
X183501898Y-116395226D01*
X183690256Y-116317205D01*
X183859774Y-116203937D01*
X184003937Y-116059774D01*
X184117205Y-115890256D01*
X184195226Y-115701898D01*
X184235000Y-115501939D01*
X184235000Y-115298061D01*
X184195226Y-115098102D01*
X184117205Y-114909744D01*
X184003937Y-114740226D01*
X183859774Y-114596063D01*
X183690256Y-114482795D01*
X183501898Y-114404774D01*
X183301939Y-114365000D01*
X183098061Y-114365000D01*
X182898102Y-114404774D01*
X182709744Y-114482795D01*
X182540226Y-114596063D01*
X182396063Y-114740226D01*
X182282795Y-114909744D01*
X182204774Y-115098102D01*
X182165000Y-115298061D01*
X170995210Y-115298061D01*
X170917205Y-115109744D01*
X170803937Y-114940226D01*
X170659774Y-114796063D01*
X170490256Y-114682795D01*
X170301898Y-114604774D01*
X170101939Y-114565000D01*
X169898061Y-114565000D01*
X169698102Y-114604774D01*
X169509744Y-114682795D01*
X169340226Y-114796063D01*
X169196063Y-114940226D01*
X169082795Y-115109744D01*
X169004774Y-115298102D01*
X168965000Y-115498061D01*
X166711989Y-115498061D01*
X166717205Y-115490256D01*
X166795226Y-115301898D01*
X166835000Y-115101939D01*
X166835000Y-114940093D01*
X166890256Y-114917205D01*
X167059774Y-114803937D01*
X167203937Y-114659774D01*
X167317205Y-114490256D01*
X167395226Y-114301898D01*
X167435000Y-114101939D01*
X167435000Y-113898061D01*
X167395226Y-113698102D01*
X167317205Y-113509744D01*
X167203937Y-113340226D01*
X167059774Y-113196063D01*
X166913104Y-113098061D01*
X172365000Y-113098061D01*
X172365000Y-113301939D01*
X172404774Y-113501898D01*
X172482795Y-113690256D01*
X172596063Y-113859774D01*
X172740226Y-114003937D01*
X172909744Y-114117205D01*
X173098102Y-114195226D01*
X173298061Y-114235000D01*
X173501939Y-114235000D01*
X173701898Y-114195226D01*
X173890256Y-114117205D01*
X174059774Y-114003937D01*
X174203937Y-113859774D01*
X174317205Y-113690256D01*
X174395226Y-113501898D01*
X174435000Y-113301939D01*
X174435000Y-113098061D01*
X174395226Y-112898102D01*
X174395210Y-112898061D01*
X176365000Y-112898061D01*
X176365000Y-113101939D01*
X176404774Y-113301898D01*
X176482795Y-113490256D01*
X176596063Y-113659774D01*
X176740226Y-113803937D01*
X176909744Y-113917205D01*
X177098102Y-113995226D01*
X177298061Y-114035000D01*
X177501939Y-114035000D01*
X177701898Y-113995226D01*
X177890256Y-113917205D01*
X178059774Y-113803937D01*
X178203937Y-113659774D01*
X178311989Y-113498061D01*
X185765000Y-113498061D01*
X185765000Y-113701939D01*
X185804774Y-113901898D01*
X185882795Y-114090256D01*
X185996063Y-114259774D01*
X186140226Y-114403937D01*
X186309744Y-114517205D01*
X186498102Y-114595226D01*
X186698061Y-114635000D01*
X186901939Y-114635000D01*
X187101898Y-114595226D01*
X187290256Y-114517205D01*
X187459774Y-114403937D01*
X187603937Y-114259774D01*
X187711989Y-114098061D01*
X190165000Y-114098061D01*
X190165000Y-114301939D01*
X190204774Y-114501898D01*
X190282795Y-114690256D01*
X190396063Y-114859774D01*
X190540226Y-115003937D01*
X190709744Y-115117205D01*
X190898102Y-115195226D01*
X191098061Y-115235000D01*
X191301939Y-115235000D01*
X191501898Y-115195226D01*
X191690256Y-115117205D01*
X191859774Y-115003937D01*
X192003937Y-114859774D01*
X192117205Y-114690256D01*
X192195226Y-114501898D01*
X192235000Y-114301939D01*
X192235000Y-114098061D01*
X192195226Y-113898102D01*
X192117205Y-113709744D01*
X192003937Y-113540226D01*
X191859774Y-113396063D01*
X191690256Y-113282795D01*
X191501898Y-113204774D01*
X191301939Y-113165000D01*
X191098061Y-113165000D01*
X190898102Y-113204774D01*
X190709744Y-113282795D01*
X190540226Y-113396063D01*
X190396063Y-113540226D01*
X190282795Y-113709744D01*
X190204774Y-113898102D01*
X190165000Y-114098061D01*
X187711989Y-114098061D01*
X187717205Y-114090256D01*
X187795226Y-113901898D01*
X187835000Y-113701939D01*
X187835000Y-113498061D01*
X187795226Y-113298102D01*
X187717205Y-113109744D01*
X187603937Y-112940226D01*
X187459774Y-112796063D01*
X187290256Y-112682795D01*
X187101898Y-112604774D01*
X186901939Y-112565000D01*
X186698061Y-112565000D01*
X186498102Y-112604774D01*
X186309744Y-112682795D01*
X186140226Y-112796063D01*
X185996063Y-112940226D01*
X185882795Y-113109744D01*
X185804774Y-113298102D01*
X185765000Y-113498061D01*
X178311989Y-113498061D01*
X178317205Y-113490256D01*
X178395226Y-113301898D01*
X178435000Y-113101939D01*
X178435000Y-112898061D01*
X178395226Y-112698102D01*
X178317205Y-112509744D01*
X178203937Y-112340226D01*
X178059774Y-112196063D01*
X177890256Y-112082795D01*
X177701898Y-112004774D01*
X177501939Y-111965000D01*
X177298061Y-111965000D01*
X177098102Y-112004774D01*
X176909744Y-112082795D01*
X176740226Y-112196063D01*
X176596063Y-112340226D01*
X176482795Y-112509744D01*
X176404774Y-112698102D01*
X176365000Y-112898061D01*
X174395210Y-112898061D01*
X174317205Y-112709744D01*
X174203937Y-112540226D01*
X174059774Y-112396063D01*
X173890256Y-112282795D01*
X173701898Y-112204774D01*
X173501939Y-112165000D01*
X173298061Y-112165000D01*
X173098102Y-112204774D01*
X172909744Y-112282795D01*
X172740226Y-112396063D01*
X172596063Y-112540226D01*
X172482795Y-112709744D01*
X172404774Y-112898102D01*
X172365000Y-113098061D01*
X166913104Y-113098061D01*
X166890256Y-113082795D01*
X166796593Y-113043998D01*
X166961469Y-112879122D01*
X167095973Y-112677822D01*
X167229744Y-112767205D01*
X167418102Y-112845226D01*
X167618061Y-112885000D01*
X167821939Y-112885000D01*
X168021898Y-112845226D01*
X168210256Y-112767205D01*
X168379774Y-112653937D01*
X168523937Y-112509774D01*
X168637205Y-112340256D01*
X168715226Y-112151898D01*
X168755000Y-111951939D01*
X168755000Y-111748061D01*
X168715226Y-111548102D01*
X168637205Y-111359744D01*
X168523937Y-111190226D01*
X168379774Y-111046063D01*
X168210256Y-110932795D01*
X168021898Y-110854774D01*
X167821939Y-110815000D01*
X167618061Y-110815000D01*
X167418102Y-110854774D01*
X167229744Y-110932795D01*
X167164524Y-110976373D01*
X167151880Y-110945848D01*
X166961469Y-110660878D01*
X166719122Y-110418531D01*
X166538827Y-110298061D01*
X187965000Y-110298061D01*
X187965000Y-110501939D01*
X188004774Y-110701898D01*
X188082795Y-110890256D01*
X188196063Y-111059774D01*
X188340226Y-111203937D01*
X188509744Y-111317205D01*
X188698102Y-111395226D01*
X188898061Y-111435000D01*
X189101939Y-111435000D01*
X189301898Y-111395226D01*
X189490256Y-111317205D01*
X189659774Y-111203937D01*
X189803937Y-111059774D01*
X189917205Y-110890256D01*
X189995226Y-110701898D01*
X190035000Y-110501939D01*
X190035000Y-110298061D01*
X189995226Y-110098102D01*
X189917205Y-109909744D01*
X189803937Y-109740226D01*
X189659774Y-109596063D01*
X189490256Y-109482795D01*
X189301898Y-109404774D01*
X189101939Y-109365000D01*
X188898061Y-109365000D01*
X188698102Y-109404774D01*
X188509744Y-109482795D01*
X188340226Y-109596063D01*
X188196063Y-109740226D01*
X188082795Y-109909744D01*
X188004774Y-110098102D01*
X187965000Y-110298061D01*
X166538827Y-110298061D01*
X166434152Y-110228120D01*
X166117510Y-110096963D01*
X165781365Y-110030100D01*
X165438635Y-110030100D01*
X165102490Y-110096963D01*
X164785848Y-110228120D01*
X164500878Y-110418531D01*
X164258531Y-110660878D01*
X164068120Y-110945848D01*
X163936963Y-111262490D01*
X163870100Y-111598635D01*
X163870100Y-111941365D01*
X163936963Y-112277510D01*
X164068120Y-112594152D01*
X164258531Y-112879122D01*
X164500878Y-113121469D01*
X164785848Y-113311880D01*
X165102490Y-113443037D01*
X165438635Y-113509900D01*
X165482730Y-113509900D01*
X165404774Y-113698102D01*
X165365000Y-113898061D01*
X165365000Y-114059907D01*
X165309744Y-114082795D01*
X165140226Y-114196063D01*
X165064261Y-114272028D01*
X164901898Y-114204774D01*
X164701939Y-114165000D01*
X164498061Y-114165000D01*
X164298102Y-114204774D01*
X164109744Y-114282795D01*
X163940226Y-114396063D01*
X163796063Y-114540226D01*
X163682795Y-114709744D01*
X163604774Y-114898102D01*
X163565000Y-115098061D01*
X163565000Y-115301939D01*
X163604774Y-115501898D01*
X163682795Y-115690256D01*
X163756123Y-115800000D01*
X163682795Y-115909744D01*
X163604774Y-116098102D01*
X163565000Y-116298061D01*
X163565000Y-116501939D01*
X163604774Y-116701898D01*
X163682795Y-116890256D01*
X163756123Y-117000000D01*
X163682795Y-117109744D01*
X163604774Y-117298102D01*
X163565000Y-117498061D01*
X163565000Y-117701939D01*
X163604774Y-117901898D01*
X163682795Y-118090256D01*
X163796063Y-118259774D01*
X163940226Y-118403937D01*
X164109744Y-118517205D01*
X164298102Y-118595226D01*
X164498061Y-118635000D01*
X164701939Y-118635000D01*
X164901898Y-118595226D01*
X164941870Y-118578669D01*
X164996063Y-118659774D01*
X165140226Y-118803937D01*
X165309744Y-118917205D01*
X165394030Y-118952118D01*
X165365000Y-119098061D01*
X165365000Y-119191467D01*
X165298102Y-119204774D01*
X165109744Y-119282795D01*
X164940226Y-119396063D01*
X164822840Y-119513449D01*
X164801898Y-119504774D01*
X164601939Y-119465000D01*
X164398061Y-119465000D01*
X164198102Y-119504774D01*
X164009744Y-119582795D01*
X163840226Y-119696063D01*
X163696063Y-119840226D01*
X163582795Y-120009744D01*
X163504774Y-120198102D01*
X163465000Y-120398061D01*
X162087645Y-120398061D01*
X162101898Y-120395226D01*
X162290256Y-120317205D01*
X162459774Y-120203937D01*
X162603937Y-120059774D01*
X162717205Y-119890256D01*
X162795226Y-119701898D01*
X162835000Y-119501939D01*
X162835000Y-119298061D01*
X162795226Y-119098102D01*
X162717205Y-118909744D01*
X162643877Y-118800000D01*
X162717205Y-118690256D01*
X162795226Y-118501898D01*
X162835000Y-118301939D01*
X162835000Y-118098061D01*
X162795226Y-117898102D01*
X162717205Y-117709744D01*
X162643877Y-117600000D01*
X162717205Y-117490256D01*
X162795226Y-117301898D01*
X162835000Y-117101939D01*
X162835000Y-116898061D01*
X162795226Y-116698102D01*
X162717205Y-116509744D01*
X162643877Y-116400000D01*
X162717205Y-116290256D01*
X162795226Y-116101898D01*
X162835000Y-115901939D01*
X162835000Y-115698061D01*
X162795226Y-115498102D01*
X162717205Y-115309744D01*
X162643877Y-115200000D01*
X162717205Y-115090256D01*
X162795226Y-114901898D01*
X162835000Y-114701939D01*
X162835000Y-114498061D01*
X162795226Y-114298102D01*
X162717205Y-114109744D01*
X162643877Y-114000000D01*
X162717205Y-113890256D01*
X162795226Y-113701898D01*
X162835000Y-113501939D01*
X162835000Y-113298061D01*
X162795226Y-113098102D01*
X162717205Y-112909744D01*
X162603937Y-112740226D01*
X162459774Y-112596063D01*
X162290256Y-112482795D01*
X162143231Y-112421895D01*
X162203037Y-112277510D01*
X162269900Y-111941365D01*
X162269900Y-111598635D01*
X162203037Y-111262490D01*
X162071880Y-110945848D01*
X161881469Y-110660878D01*
X161639122Y-110418531D01*
X161354152Y-110228120D01*
X161037510Y-110096963D01*
X160701365Y-110030100D01*
X160358635Y-110030100D01*
X160022490Y-110096963D01*
X159705848Y-110228120D01*
X159420878Y-110418531D01*
X159178531Y-110660878D01*
X158988120Y-110945848D01*
X158955967Y-111023474D01*
X158820256Y-110932795D01*
X158631898Y-110854774D01*
X158431939Y-110815000D01*
X158228061Y-110815000D01*
X158028102Y-110854774D01*
X157839744Y-110932795D01*
X157670226Y-111046063D01*
X157526063Y-111190226D01*
X157412795Y-111359744D01*
X157334774Y-111548102D01*
X157295000Y-111748061D01*
X144660000Y-111748061D01*
X144660000Y-110498061D01*
X146565000Y-110498061D01*
X146565000Y-110701939D01*
X146604774Y-110901898D01*
X146682795Y-111090256D01*
X146796063Y-111259774D01*
X146940226Y-111403937D01*
X147109744Y-111517205D01*
X147298102Y-111595226D01*
X147498061Y-111635000D01*
X147701939Y-111635000D01*
X147901898Y-111595226D01*
X148090256Y-111517205D01*
X148259774Y-111403937D01*
X148403937Y-111259774D01*
X148517205Y-111090256D01*
X148595226Y-110901898D01*
X148635000Y-110701939D01*
X148635000Y-110498061D01*
X148595226Y-110298102D01*
X148517205Y-110109744D01*
X148403937Y-109940226D01*
X148259774Y-109796063D01*
X148090256Y-109682795D01*
X147901898Y-109604774D01*
X147701939Y-109565000D01*
X147498061Y-109565000D01*
X147298102Y-109604774D01*
X147109744Y-109682795D01*
X146940226Y-109796063D01*
X146796063Y-109940226D01*
X146682795Y-110109744D01*
X146604774Y-110298102D01*
X146565000Y-110498061D01*
X144660000Y-110498061D01*
X144660000Y-109068642D01*
X161431700Y-109068642D01*
X161431700Y-109391358D01*
X161494659Y-109707874D01*
X161618157Y-110006026D01*
X161797449Y-110274355D01*
X162025645Y-110502551D01*
X162293974Y-110681843D01*
X162592126Y-110805341D01*
X162908642Y-110868300D01*
X163231358Y-110868300D01*
X163547874Y-110805341D01*
X163846026Y-110681843D01*
X164114355Y-110502551D01*
X164342551Y-110274355D01*
X164521843Y-110006026D01*
X164645341Y-109707874D01*
X164708300Y-109391358D01*
X164708300Y-109068642D01*
X164645341Y-108752126D01*
X164521843Y-108453974D01*
X164342551Y-108185645D01*
X164114355Y-107957449D01*
X163846026Y-107778157D01*
X163547874Y-107654659D01*
X163231358Y-107591700D01*
X162908642Y-107591700D01*
X162592126Y-107654659D01*
X162293974Y-107778157D01*
X162025645Y-107957449D01*
X161797449Y-108185645D01*
X161618157Y-108453974D01*
X161494659Y-108752126D01*
X161431700Y-109068642D01*
X144660000Y-109068642D01*
X144660000Y-107698061D01*
X149965000Y-107698061D01*
X149965000Y-107901939D01*
X150004774Y-108101898D01*
X150082795Y-108290256D01*
X150196063Y-108459774D01*
X150340226Y-108603937D01*
X150509744Y-108717205D01*
X150698102Y-108795226D01*
X150898061Y-108835000D01*
X151101939Y-108835000D01*
X151301898Y-108795226D01*
X151490256Y-108717205D01*
X151659774Y-108603937D01*
X151803937Y-108459774D01*
X151917205Y-108290256D01*
X151995226Y-108101898D01*
X152035000Y-107901939D01*
X152035000Y-107698061D01*
X151995226Y-107498102D01*
X151917205Y-107309744D01*
X151803937Y-107140226D01*
X151659774Y-106996063D01*
X151490256Y-106882795D01*
X151301898Y-106804774D01*
X151101939Y-106765000D01*
X150898061Y-106765000D01*
X150698102Y-106804774D01*
X150509744Y-106882795D01*
X150340226Y-106996063D01*
X150196063Y-107140226D01*
X150082795Y-107309744D01*
X150004774Y-107498102D01*
X149965000Y-107698061D01*
X144660000Y-107698061D01*
X144660000Y-105660000D01*
X158115485Y-105660000D01*
X157939744Y-105732795D01*
%TA.AperFunction,Conductor*%
D18*
G36*
X157939744Y-105732795D02*
G01*
X157770226Y-105846063D01*
X157626063Y-105990226D01*
X157512795Y-106159744D01*
X157434774Y-106348102D01*
X157395000Y-106548061D01*
X157395000Y-106751939D01*
X157434774Y-106951898D01*
X157512795Y-107140256D01*
X157626063Y-107309774D01*
X157770226Y-107453937D01*
X157939744Y-107567205D01*
X158128102Y-107645226D01*
X158328061Y-107685000D01*
X158531939Y-107685000D01*
X158731898Y-107645226D01*
X158920256Y-107567205D01*
X158991681Y-107519481D01*
X159178531Y-107799122D01*
X159420878Y-108041469D01*
X159705848Y-108231880D01*
X160022490Y-108363037D01*
X160358635Y-108429900D01*
X160701365Y-108429900D01*
X161037510Y-108363037D01*
X161354152Y-108231880D01*
X161639122Y-108041469D01*
X161881469Y-107799122D01*
X162071880Y-107514152D01*
X162203037Y-107197510D01*
X162269900Y-106861365D01*
X162269900Y-106518635D01*
X162203037Y-106182490D01*
X162071880Y-105865848D01*
X161934337Y-105660000D01*
X164205663Y-105660000D01*
X164068120Y-105865848D01*
X163936963Y-106182490D01*
X163870100Y-106518635D01*
X163870100Y-106861365D01*
X163936963Y-107197510D01*
X164068120Y-107514152D01*
X164258531Y-107799122D01*
X164500878Y-108041469D01*
X164785848Y-108231880D01*
X165102490Y-108363037D01*
X165438635Y-108429900D01*
X165781365Y-108429900D01*
X166117510Y-108363037D01*
X166434152Y-108231880D01*
X166719122Y-108041469D01*
X166862530Y-107898061D01*
X173565000Y-107898061D01*
X173565000Y-108101939D01*
X173604774Y-108301898D01*
X173682795Y-108490256D01*
X173796063Y-108659774D01*
X173940226Y-108803937D01*
X174109744Y-108917205D01*
X174298102Y-108995226D01*
X174498061Y-109035000D01*
X174701939Y-109035000D01*
X174901898Y-108995226D01*
X175090256Y-108917205D01*
X175259774Y-108803937D01*
X175403937Y-108659774D01*
X175517205Y-108490256D01*
X175595226Y-108301898D01*
X175624696Y-108153740D01*
X175895000Y-108153740D01*
X175895000Y-108446260D01*
X175952068Y-108733158D01*
X176064010Y-109003411D01*
X176226525Y-109246632D01*
X176433368Y-109453475D01*
X176676589Y-109615990D01*
X176946842Y-109727932D01*
X177233740Y-109785000D01*
X177526260Y-109785000D01*
X177813158Y-109727932D01*
X178083411Y-109615990D01*
X178326632Y-109453475D01*
X178533475Y-109246632D01*
X178650000Y-109072240D01*
X178766525Y-109246632D01*
X178973368Y-109453475D01*
X179216589Y-109615990D01*
X179486842Y-109727932D01*
X179773740Y-109785000D01*
X180066260Y-109785000D01*
X180353158Y-109727932D01*
X180623411Y-109615990D01*
X180866632Y-109453475D01*
X181073475Y-109246632D01*
X181195195Y-109064466D01*
X181264822Y-109181355D01*
X181459731Y-109397588D01*
X181693080Y-109571641D01*
X181955901Y-109696825D01*
X182103110Y-109741476D01*
X182333000Y-109620155D01*
X182333000Y-108427000D01*
X182313000Y-108427000D01*
X182313000Y-108173000D01*
X182333000Y-108173000D01*
X182333000Y-106979845D01*
X182103110Y-106858524D01*
X181955901Y-106903175D01*
X181693080Y-107028359D01*
X181459731Y-107202412D01*
X181264822Y-107418645D01*
X181195195Y-107535534D01*
X181073475Y-107353368D01*
X180866632Y-107146525D01*
X180623411Y-106984010D01*
X180353158Y-106872068D01*
X180066260Y-106815000D01*
X179773740Y-106815000D01*
X179486842Y-106872068D01*
X179216589Y-106984010D01*
X178973368Y-107146525D01*
X178766525Y-107353368D01*
X178650000Y-107527760D01*
X178533475Y-107353368D01*
X178326632Y-107146525D01*
X178083411Y-106984010D01*
X177813158Y-106872068D01*
X177526260Y-106815000D01*
X177233740Y-106815000D01*
X176946842Y-106872068D01*
X176676589Y-106984010D01*
X176433368Y-107146525D01*
X176226525Y-107353368D01*
X176064010Y-107596589D01*
X175952068Y-107866842D01*
X175895000Y-108153740D01*
X175624696Y-108153740D01*
X175635000Y-108101939D01*
X175635000Y-107898061D01*
X175595226Y-107698102D01*
X175517205Y-107509744D01*
X175403937Y-107340226D01*
X175259774Y-107196063D01*
X175090256Y-107082795D01*
X174901898Y-107004774D01*
X174701939Y-106965000D01*
X174498061Y-106965000D01*
X174298102Y-107004774D01*
X174109744Y-107082795D01*
X173940226Y-107196063D01*
X173796063Y-107340226D01*
X173682795Y-107509744D01*
X173604774Y-107698102D01*
X173565000Y-107898061D01*
X166862530Y-107898061D01*
X166961469Y-107799122D01*
X167151880Y-107514152D01*
X167258063Y-107257802D01*
X167266063Y-107269774D01*
X167410226Y-107413937D01*
X167579744Y-107527205D01*
X167768102Y-107605226D01*
X167968061Y-107645000D01*
X168171939Y-107645000D01*
X168371898Y-107605226D01*
X168560256Y-107527205D01*
X168729774Y-107413937D01*
X168873937Y-107269774D01*
X168987205Y-107100256D01*
X169065226Y-106911898D01*
X169105000Y-106711939D01*
X169105000Y-106508061D01*
X169065226Y-106308102D01*
X168987205Y-106119744D01*
X168873937Y-105950226D01*
X168729774Y-105806063D01*
X168560256Y-105692795D01*
X168481082Y-105660000D01*
X184082850Y-105660000D01*
X183982795Y-105809744D01*
X183904774Y-105998102D01*
X183865000Y-106198061D01*
X183865000Y-106401939D01*
X183904774Y-106601898D01*
X183982795Y-106790256D01*
X184008847Y-106829245D01*
X183905820Y-106860498D01*
X183795506Y-106919463D01*
X183698815Y-106998815D01*
X183619463Y-107095506D01*
X183560498Y-107205820D01*
X183536034Y-107286466D01*
X183460269Y-107202412D01*
X183226920Y-107028359D01*
X182964099Y-106903175D01*
X182816890Y-106858524D01*
X182587000Y-106979845D01*
X182587000Y-108173000D01*
X182607000Y-108173000D01*
X182607000Y-108427000D01*
X182587000Y-108427000D01*
X182587000Y-109620155D01*
X182816890Y-109741476D01*
X182964099Y-109696825D01*
X183226920Y-109571641D01*
X183460269Y-109397588D01*
X183536034Y-109313534D01*
X183560498Y-109394180D01*
X183619463Y-109504494D01*
X183698815Y-109601185D01*
X183795506Y-109680537D01*
X183905820Y-109739502D01*
X184025518Y-109775812D01*
X184150000Y-109788072D01*
X185850000Y-109788072D01*
X185974482Y-109775812D01*
X186094180Y-109739502D01*
X186204494Y-109680537D01*
X186301185Y-109601185D01*
X186380537Y-109504494D01*
X186439502Y-109394180D01*
X186475812Y-109274482D01*
X186488072Y-109150000D01*
X186488072Y-107450000D01*
X186475812Y-107325518D01*
X186467484Y-107298061D01*
X190765000Y-107298061D01*
X190765000Y-107501939D01*
X190804774Y-107701898D01*
X190882795Y-107890256D01*
X190996063Y-108059774D01*
X191140226Y-108203937D01*
X191309744Y-108317205D01*
X191498102Y-108395226D01*
X191698061Y-108435000D01*
X191901939Y-108435000D01*
X192101898Y-108395226D01*
X192290256Y-108317205D01*
X192459774Y-108203937D01*
X192603937Y-108059774D01*
X192717205Y-107890256D01*
X192795226Y-107701898D01*
X192835000Y-107501939D01*
X192835000Y-107298061D01*
X192795226Y-107098102D01*
X192717205Y-106909744D01*
X192603937Y-106740226D01*
X192459774Y-106596063D01*
X192290256Y-106482795D01*
X192101898Y-106404774D01*
X191901939Y-106365000D01*
X191698061Y-106365000D01*
X191498102Y-106404774D01*
X191309744Y-106482795D01*
X191140226Y-106596063D01*
X190996063Y-106740226D01*
X190882795Y-106909744D01*
X190804774Y-107098102D01*
X190765000Y-107298061D01*
X186467484Y-107298061D01*
X186439502Y-107205820D01*
X186380537Y-107095506D01*
X186301185Y-106998815D01*
X186204494Y-106919463D01*
X186094180Y-106860498D01*
X185974482Y-106824188D01*
X185850000Y-106811928D01*
X185802724Y-106811928D01*
X185817205Y-106790256D01*
X185895226Y-106601898D01*
X185935000Y-106401939D01*
X185935000Y-106198061D01*
X185895226Y-105998102D01*
X185817205Y-105809744D01*
X185717150Y-105660000D01*
X193340000Y-105660000D01*
X193340001Y-128220557D01*
X193301898Y-128204774D01*
X193101939Y-128165000D01*
X192898061Y-128165000D01*
X192698102Y-128204774D01*
X192509744Y-128282795D01*
X192340226Y-128396063D01*
X192196063Y-128540226D01*
X192082795Y-128709744D01*
X192004774Y-128898102D01*
X191965000Y-129098061D01*
X191965000Y-129301939D01*
X192004774Y-129501898D01*
X192082795Y-129690256D01*
X192196063Y-129859774D01*
X192340226Y-130003937D01*
X192509744Y-130117205D01*
X192698102Y-130195226D01*
X192898061Y-130235000D01*
X193101939Y-130235000D01*
X193301898Y-130195226D01*
X193340001Y-130179443D01*
X193340001Y-144340000D01*
X172699269Y-144340000D01*
X172829495Y-144181318D01*
X172951138Y-143953740D01*
X173026045Y-143706804D01*
X173045000Y-143514350D01*
X173045000Y-143035649D01*
X173026045Y-142843195D01*
X172951138Y-142596259D01*
X172829495Y-142368682D01*
X172665792Y-142169208D01*
X172579099Y-142098061D01*
X175965000Y-142098061D01*
X175965000Y-142301939D01*
X176004774Y-142501898D01*
X176082795Y-142690256D01*
X176196063Y-142859774D01*
X176340226Y-143003937D01*
X176509744Y-143117205D01*
X176698102Y-143195226D01*
X176898061Y-143235000D01*
X177101939Y-143235000D01*
X177301898Y-143195226D01*
X177490256Y-143117205D01*
X177659774Y-143003937D01*
X177803937Y-142859774D01*
X177917205Y-142690256D01*
X177995226Y-142501898D01*
X178035000Y-142301939D01*
X178035000Y-142098061D01*
X177995226Y-141898102D01*
X177917205Y-141709744D01*
X177909399Y-141698061D01*
X186965000Y-141698061D01*
X186965000Y-141901939D01*
X187004774Y-142101898D01*
X187082795Y-142290256D01*
X187196063Y-142459774D01*
X187340226Y-142603937D01*
X187509744Y-142717205D01*
X187698102Y-142795226D01*
X187898061Y-142835000D01*
X188101939Y-142835000D01*
X188301898Y-142795226D01*
X188490256Y-142717205D01*
X188659774Y-142603937D01*
X188803937Y-142459774D01*
X188917205Y-142290256D01*
X188995226Y-142101898D01*
X189035000Y-141901939D01*
X189035000Y-141698061D01*
X189565000Y-141698061D01*
X189565000Y-141901939D01*
X189604774Y-142101898D01*
X189682795Y-142290256D01*
X189796063Y-142459774D01*
X189940226Y-142603937D01*
X190109744Y-142717205D01*
X190298102Y-142795226D01*
X190498061Y-142835000D01*
X190701939Y-142835000D01*
X190901898Y-142795226D01*
X191090256Y-142717205D01*
X191259774Y-142603937D01*
X191403937Y-142459774D01*
X191517205Y-142290256D01*
X191595226Y-142101898D01*
X191635000Y-141901939D01*
X191635000Y-141698061D01*
X191595226Y-141498102D01*
X191517205Y-141309744D01*
X191403937Y-141140226D01*
X191259774Y-140996063D01*
X191090256Y-140882795D01*
X190901898Y-140804774D01*
X190701939Y-140765000D01*
X190498061Y-140765000D01*
X190298102Y-140804774D01*
X190109744Y-140882795D01*
X189940226Y-140996063D01*
X189796063Y-141140226D01*
X189682795Y-141309744D01*
X189604774Y-141498102D01*
X189565000Y-141698061D01*
X189035000Y-141698061D01*
X188995226Y-141498102D01*
X188917205Y-141309744D01*
X188803937Y-141140226D01*
X188659774Y-140996063D01*
X188490256Y-140882795D01*
X188301898Y-140804774D01*
X188101939Y-140765000D01*
X187898061Y-140765000D01*
X187698102Y-140804774D01*
X187509744Y-140882795D01*
X187340226Y-140996063D01*
X187196063Y-141140226D01*
X187082795Y-141309744D01*
X187004774Y-141498102D01*
X186965000Y-141698061D01*
X177909399Y-141698061D01*
X177803937Y-141540226D01*
X177659774Y-141396063D01*
X177490256Y-141282795D01*
X177301898Y-141204774D01*
X177101939Y-141165000D01*
X176898061Y-141165000D01*
X176698102Y-141204774D01*
X176509744Y-141282795D01*
X176340226Y-141396063D01*
X176196063Y-141540226D01*
X176082795Y-141709744D01*
X176004774Y-141898102D01*
X175965000Y-142098061D01*
X172579099Y-142098061D01*
X172466317Y-142005505D01*
X172238740Y-141883862D01*
X171991804Y-141808955D01*
X171735000Y-141783662D01*
X171478195Y-141808955D01*
X171231259Y-141883862D01*
X171003682Y-142005505D01*
X170804208Y-142169208D01*
X170640505Y-142368683D01*
X170518862Y-142596260D01*
X170443955Y-142843196D01*
X170425000Y-143035650D01*
X170425000Y-143514351D01*
X170443955Y-143706805D01*
X170518862Y-143953741D01*
X170640505Y-144181318D01*
X170770732Y-144340000D01*
X167239269Y-144340000D01*
X167369495Y-144181318D01*
X167491138Y-143953740D01*
X167566045Y-143706804D01*
X167585000Y-143514350D01*
X167585000Y-143035649D01*
X167566045Y-142843195D01*
X167491138Y-142596259D01*
X167369495Y-142368682D01*
X167205792Y-142169208D01*
X167006317Y-142005505D01*
X166778740Y-141883862D01*
X166531804Y-141808955D01*
X166275000Y-141783662D01*
X166018195Y-141808955D01*
X165771259Y-141883862D01*
X165543682Y-142005505D01*
X165344208Y-142169208D01*
X165180505Y-142368683D01*
X165058862Y-142596260D01*
X164983955Y-142843196D01*
X164965000Y-143035650D01*
X164965000Y-143514351D01*
X164983955Y-143706805D01*
X165058862Y-143953741D01*
X165180505Y-144181318D01*
X165310732Y-144340000D01*
X163923711Y-144340000D01*
X164003937Y-144259774D01*
X164117205Y-144090256D01*
X164195226Y-143901898D01*
X164235000Y-143701939D01*
X164235000Y-143498061D01*
X164195226Y-143298102D01*
X164117205Y-143109744D01*
X164003937Y-142940226D01*
X163859774Y-142796063D01*
X163690256Y-142682795D01*
X163501898Y-142604774D01*
X163301939Y-142565000D01*
X163098061Y-142565000D01*
X162898102Y-142604774D01*
X162709744Y-142682795D01*
X162540226Y-142796063D01*
X162396063Y-142940226D01*
X162282795Y-143109744D01*
X162204774Y-143298102D01*
X162165000Y-143498061D01*
X162165000Y-143701939D01*
X162204774Y-143901898D01*
X162282795Y-144090256D01*
X162396063Y-144259774D01*
X162476289Y-144340000D01*
X151635224Y-144340000D01*
X151690256Y-144317205D01*
X151859774Y-144203937D01*
X152003937Y-144059774D01*
X152117205Y-143890256D01*
X152195226Y-143701898D01*
X152235000Y-143501939D01*
X152235000Y-143298061D01*
X152195226Y-143098102D01*
X152117205Y-142909744D01*
X152003937Y-142740226D01*
X151859774Y-142596063D01*
X151690256Y-142482795D01*
X151501898Y-142404774D01*
X151301939Y-142365000D01*
X151098061Y-142365000D01*
X150898102Y-142404774D01*
X150709744Y-142482795D01*
X150540226Y-142596063D01*
X150396063Y-142740226D01*
X150282795Y-142909744D01*
X150204774Y-143098102D01*
X150165000Y-143298061D01*
X150165000Y-143501939D01*
X150204774Y-143701898D01*
X150282795Y-143890256D01*
X150396063Y-144059774D01*
X150540226Y-144203937D01*
X150709744Y-144317205D01*
X150764776Y-144340000D01*
X147083967Y-144340000D01*
X147117205Y-144290256D01*
X147195226Y-144101898D01*
X147235000Y-143901939D01*
X147235000Y-143698061D01*
X147195226Y-143498102D01*
X147117205Y-143309744D01*
X147003937Y-143140226D01*
X146859774Y-142996063D01*
X146690256Y-142882795D01*
X146501898Y-142804774D01*
X146301939Y-142765000D01*
X146098061Y-142765000D01*
X145898102Y-142804774D01*
X145709744Y-142882795D01*
X145540226Y-142996063D01*
X145396063Y-143140226D01*
X145282795Y-143309744D01*
X145204774Y-143498102D01*
X145165000Y-143698061D01*
X145165000Y-143901939D01*
X145204774Y-144101898D01*
X145282795Y-144290256D01*
X145316033Y-144340000D01*
X144660000Y-144340000D01*
X144660000Y-140578740D01*
X145170000Y-140578740D01*
X145170000Y-140871260D01*
X145227068Y-141158158D01*
X145339010Y-141428411D01*
X145501525Y-141671632D01*
X145708368Y-141878475D01*
X145951589Y-142040990D01*
X146221842Y-142152932D01*
X146508740Y-142210000D01*
X146801260Y-142210000D01*
X147088158Y-142152932D01*
X147358411Y-142040990D01*
X147601632Y-141878475D01*
X147808475Y-141671632D01*
X147925000Y-141497240D01*
X148041525Y-141671632D01*
X148248368Y-141878475D01*
X148491589Y-142040990D01*
X148761842Y-142152932D01*
X149048740Y-142210000D01*
X149341260Y-142210000D01*
X149628158Y-142152932D01*
X149898411Y-142040990D01*
X150141632Y-141878475D01*
X150348475Y-141671632D01*
X150465000Y-141497240D01*
X150581525Y-141671632D01*
X150788368Y-141878475D01*
X151031589Y-142040990D01*
X151301842Y-142152932D01*
X151588740Y-142210000D01*
X151881260Y-142210000D01*
X152168158Y-142152932D01*
X152438411Y-142040990D01*
X152681632Y-141878475D01*
X152888475Y-141671632D01*
X153005000Y-141497240D01*
X153121525Y-141671632D01*
X153328368Y-141878475D01*
X153571589Y-142040990D01*
X153695497Y-142092314D01*
X153540226Y-142196063D01*
X153396063Y-142340226D01*
X153282795Y-142509744D01*
X153204774Y-142698102D01*
X153165000Y-142898061D01*
X153165000Y-143101939D01*
X153204774Y-143301898D01*
X153282795Y-143490256D01*
X153396063Y-143659774D01*
X153540226Y-143803937D01*
X153709744Y-143917205D01*
X153898102Y-143995226D01*
X154098061Y-144035000D01*
X154301939Y-144035000D01*
X154501898Y-143995226D01*
X154690256Y-143917205D01*
X154859774Y-143803937D01*
X155003937Y-143659774D01*
X155117205Y-143490256D01*
X155195226Y-143301898D01*
X155235000Y-143101939D01*
X155235000Y-142898061D01*
X155195226Y-142698102D01*
X155117205Y-142509744D01*
X155003937Y-142340226D01*
X154859774Y-142196063D01*
X154761905Y-142130669D01*
X154978411Y-142040990D01*
X155221632Y-141878475D01*
X155428475Y-141671632D01*
X155545000Y-141497240D01*
X155661525Y-141671632D01*
X155868368Y-141878475D01*
X156111589Y-142040990D01*
X156381842Y-142152932D01*
X156668740Y-142210000D01*
X156961260Y-142210000D01*
X157248158Y-142152932D01*
X157518411Y-142040990D01*
X157761632Y-141878475D01*
X157893487Y-141746620D01*
X157915498Y-141819180D01*
X157974463Y-141929494D01*
X158053815Y-142026185D01*
X158150506Y-142105537D01*
X158260820Y-142164502D01*
X158380518Y-142200812D01*
X158505000Y-142213072D01*
X159069250Y-142210000D01*
X159228000Y-142051250D01*
X159228000Y-140852000D01*
X159482000Y-140852000D01*
X159482000Y-142051250D01*
X159640750Y-142210000D01*
X160205000Y-142213072D01*
X160329482Y-142200812D01*
X160449180Y-142164502D01*
X160559494Y-142105537D01*
X160656185Y-142026185D01*
X160735537Y-141929494D01*
X160794502Y-141819180D01*
X160830812Y-141699482D01*
X160843072Y-141575000D01*
X160841565Y-141298061D01*
X162565000Y-141298061D01*
X162565000Y-141501939D01*
X162604774Y-141701898D01*
X162682795Y-141890256D01*
X162796063Y-142059774D01*
X162940226Y-142203937D01*
X163109744Y-142317205D01*
X163298102Y-142395226D01*
X163498061Y-142435000D01*
X163701939Y-142435000D01*
X163901898Y-142395226D01*
X164090256Y-142317205D01*
X164259774Y-142203937D01*
X164403937Y-142059774D01*
X164517205Y-141890256D01*
X164595226Y-141701898D01*
X164635000Y-141501939D01*
X164635000Y-141298061D01*
X164595226Y-141098102D01*
X164517205Y-140909744D01*
X164403937Y-140740226D01*
X164259774Y-140596063D01*
X164090256Y-140482795D01*
X163901898Y-140404774D01*
X163701939Y-140365000D01*
X163498061Y-140365000D01*
X163298102Y-140404774D01*
X163109744Y-140482795D01*
X162940226Y-140596063D01*
X162796063Y-140740226D01*
X162682795Y-140909744D01*
X162604774Y-141098102D01*
X162565000Y-141298061D01*
X160841565Y-141298061D01*
X160840000Y-141010750D01*
X160681250Y-140852000D01*
X159482000Y-140852000D01*
X159228000Y-140852000D01*
X159208000Y-140852000D01*
X159208000Y-140598000D01*
X159228000Y-140598000D01*
X159228000Y-139398750D01*
X159482000Y-139398750D01*
X159482000Y-140598000D01*
X160681250Y-140598000D01*
X160840000Y-140439250D01*
X160843072Y-139875000D01*
X160830812Y-139750518D01*
X160794502Y-139630820D01*
X160735537Y-139520506D01*
X160656185Y-139423815D01*
X160559494Y-139344463D01*
X160449180Y-139285498D01*
X160329482Y-139249188D01*
X160205000Y-139236928D01*
X159640750Y-139240000D01*
X159482000Y-139398750D01*
X159228000Y-139398750D01*
X159069250Y-139240000D01*
X158505000Y-139236928D01*
X158380518Y-139249188D01*
X158260820Y-139285498D01*
X158150506Y-139344463D01*
X158053815Y-139423815D01*
X157974463Y-139520506D01*
X157915498Y-139630820D01*
X157893487Y-139703380D01*
X157761632Y-139571525D01*
X157518411Y-139409010D01*
X157248158Y-139297068D01*
X156961260Y-139240000D01*
X156668740Y-139240000D01*
X156381842Y-139297068D01*
X156111589Y-139409010D01*
X155868368Y-139571525D01*
X155661525Y-139778368D01*
X155545000Y-139952760D01*
X155428475Y-139778368D01*
X155221632Y-139571525D01*
X154978411Y-139409010D01*
X154708158Y-139297068D01*
X154421260Y-139240000D01*
X154128740Y-139240000D01*
X153841842Y-139297068D01*
X153571589Y-139409010D01*
X153328368Y-139571525D01*
X153121525Y-139778368D01*
X153005000Y-139952760D01*
X152888475Y-139778368D01*
X152681632Y-139571525D01*
X152438411Y-139409010D01*
X152168158Y-139297068D01*
X151881260Y-139240000D01*
X151588740Y-139240000D01*
X151301842Y-139297068D01*
X151031589Y-139409010D01*
X150788368Y-139571525D01*
X150581525Y-139778368D01*
X150465000Y-139952760D01*
X150348475Y-139778368D01*
X150141632Y-139571525D01*
X149898411Y-139409010D01*
X149628158Y-139297068D01*
X149341260Y-139240000D01*
X149048740Y-139240000D01*
X148761842Y-139297068D01*
X148491589Y-139409010D01*
X148248368Y-139571525D01*
X148041525Y-139778368D01*
X147925000Y-139952760D01*
X147808475Y-139778368D01*
X147601632Y-139571525D01*
X147358411Y-139409010D01*
X147088158Y-139297068D01*
X146801260Y-139240000D01*
X146508740Y-139240000D01*
X146221842Y-139297068D01*
X145951589Y-139409010D01*
X145708368Y-139571525D01*
X145501525Y-139778368D01*
X145339010Y-140021589D01*
X145227068Y-140291842D01*
X145170000Y-140578740D01*
X144660000Y-140578740D01*
X144660000Y-138235224D01*
X144682795Y-138290256D01*
X144796063Y-138459774D01*
X144940226Y-138603937D01*
X145109744Y-138717205D01*
X145298102Y-138795226D01*
X145498061Y-138835000D01*
X145701939Y-138835000D01*
X145901898Y-138795226D01*
X146090256Y-138717205D01*
X146259774Y-138603937D01*
X146403937Y-138459774D01*
X146517205Y-138290256D01*
X146595226Y-138101898D01*
X146635000Y-137901939D01*
X146635000Y-137698061D01*
X147365000Y-137698061D01*
X147365000Y-137901939D01*
X147404774Y-138101898D01*
X147482795Y-138290256D01*
X147596063Y-138459774D01*
X147740226Y-138603937D01*
X147909744Y-138717205D01*
X148098102Y-138795226D01*
X148298061Y-138835000D01*
X148501939Y-138835000D01*
X148701898Y-138795226D01*
X148890256Y-138717205D01*
X149059774Y-138603937D01*
X149203937Y-138459774D01*
X149317205Y-138290256D01*
X149395226Y-138101898D01*
X149435000Y-137901939D01*
X149435000Y-137898061D01*
X157365000Y-137898061D01*
X157365000Y-138101939D01*
X157404774Y-138301898D01*
X157482795Y-138490256D01*
X157596063Y-138659774D01*
X157740226Y-138803937D01*
X157909744Y-138917205D01*
X158098102Y-138995226D01*
X158298061Y-139035000D01*
X158501939Y-139035000D01*
X158701898Y-138995226D01*
X158890256Y-138917205D01*
X159059774Y-138803937D01*
X159165650Y-138698061D01*
X161365000Y-138698061D01*
X161365000Y-138901939D01*
X161404774Y-139101898D01*
X161482795Y-139290256D01*
X161596063Y-139459774D01*
X161740226Y-139603937D01*
X161909744Y-139717205D01*
X162098102Y-139795226D01*
X162298061Y-139835000D01*
X162501939Y-139835000D01*
X162701898Y-139795226D01*
X162890256Y-139717205D01*
X163059774Y-139603937D01*
X163203937Y-139459774D01*
X163244823Y-139398584D01*
X163282795Y-139490256D01*
X163396063Y-139659774D01*
X163540226Y-139803937D01*
X163709744Y-139917205D01*
X163898102Y-139995226D01*
X164098061Y-140035000D01*
X164301939Y-140035000D01*
X164393467Y-140016794D01*
X165400000Y-140016794D01*
X165400000Y-140533207D01*
X165417147Y-140707300D01*
X165484906Y-140930674D01*
X165594943Y-141136536D01*
X165743026Y-141316975D01*
X165923465Y-141465058D01*
X166129327Y-141575094D01*
X166352701Y-141642853D01*
X166585000Y-141665733D01*
X166817300Y-141642853D01*
X167040674Y-141575094D01*
X167246536Y-141465058D01*
X167426975Y-141316975D01*
X167575058Y-141136536D01*
X167685094Y-140930673D01*
X167752853Y-140707299D01*
X167770000Y-140533206D01*
X167770000Y-140016793D01*
X167752853Y-139842700D01*
X167685094Y-139619326D01*
X167575058Y-139413464D01*
X167426975Y-139233025D01*
X167246535Y-139084942D01*
X167040673Y-138974906D01*
X166817299Y-138907147D01*
X166585000Y-138884267D01*
X166352700Y-138907147D01*
X166129326Y-138974906D01*
X165923464Y-139084942D01*
X165743025Y-139233025D01*
X165594942Y-139413465D01*
X165484906Y-139619327D01*
X165417147Y-139842701D01*
X165400000Y-140016794D01*
X164393467Y-140016794D01*
X164501898Y-139995226D01*
X164690256Y-139917205D01*
X164859774Y-139803937D01*
X165003937Y-139659774D01*
X165117205Y-139490256D01*
X165195226Y-139301898D01*
X165235000Y-139101939D01*
X165235000Y-138898061D01*
X165195226Y-138698102D01*
X165195210Y-138698061D01*
X168365000Y-138698061D01*
X168365000Y-138901939D01*
X168404774Y-139101898D01*
X168482795Y-139290256D01*
X168596063Y-139459774D01*
X168740226Y-139603937D01*
X168909744Y-139717205D01*
X169098102Y-139795226D01*
X169298061Y-139835000D01*
X169501939Y-139835000D01*
X169701898Y-139795226D01*
X169890256Y-139717205D01*
X169900000Y-139710694D01*
X169909744Y-139717205D01*
X170098102Y-139795226D01*
X170261678Y-139827763D01*
X170257147Y-139842701D01*
X170240000Y-140016794D01*
X170240000Y-140533207D01*
X170257147Y-140707300D01*
X170324906Y-140930674D01*
X170434943Y-141136536D01*
X170583026Y-141316975D01*
X170763465Y-141465058D01*
X170969327Y-141575094D01*
X171192701Y-141642853D01*
X171425000Y-141665733D01*
X171657300Y-141642853D01*
X171880674Y-141575094D01*
X172086536Y-141465058D01*
X172266975Y-141316975D01*
X172415058Y-141136536D01*
X172525094Y-140930673D01*
X172592853Y-140707299D01*
X172610000Y-140533206D01*
X172610000Y-140016793D01*
X172592853Y-139842700D01*
X172548978Y-139698061D01*
X178165000Y-139698061D01*
X178165000Y-139901939D01*
X178204774Y-140101898D01*
X178282795Y-140290256D01*
X178396063Y-140459774D01*
X178540226Y-140603937D01*
X178709744Y-140717205D01*
X178898102Y-140795226D01*
X179098061Y-140835000D01*
X179301939Y-140835000D01*
X179501898Y-140795226D01*
X179690256Y-140717205D01*
X179859774Y-140603937D01*
X180003937Y-140459774D01*
X180117205Y-140290256D01*
X180195226Y-140101898D01*
X180235000Y-139901939D01*
X180235000Y-139698061D01*
X180195226Y-139498102D01*
X180153788Y-139398061D01*
X185165000Y-139398061D01*
X185165000Y-139601939D01*
X185204774Y-139801898D01*
X185282795Y-139990256D01*
X185396063Y-140159774D01*
X185540226Y-140303937D01*
X185709744Y-140417205D01*
X185898102Y-140495226D01*
X186098061Y-140535000D01*
X186301939Y-140535000D01*
X186501898Y-140495226D01*
X186690256Y-140417205D01*
X186859774Y-140303937D01*
X187003937Y-140159774D01*
X187117205Y-139990256D01*
X187195226Y-139801898D01*
X187235000Y-139601939D01*
X187235000Y-139398061D01*
X187195226Y-139198102D01*
X187117205Y-139009744D01*
X187004408Y-138840931D01*
X187059774Y-138803937D01*
X187203937Y-138659774D01*
X187317205Y-138490256D01*
X187395226Y-138301898D01*
X187435000Y-138101939D01*
X187435000Y-137898061D01*
X187395226Y-137698102D01*
X187317205Y-137509744D01*
X187309399Y-137498061D01*
X190365000Y-137498061D01*
X190365000Y-137701939D01*
X190404774Y-137901898D01*
X190482795Y-138090256D01*
X190596063Y-138259774D01*
X190740226Y-138403937D01*
X190909744Y-138517205D01*
X191098102Y-138595226D01*
X191298061Y-138635000D01*
X191501939Y-138635000D01*
X191701898Y-138595226D01*
X191890256Y-138517205D01*
X192059774Y-138403937D01*
X192203937Y-138259774D01*
X192317205Y-138090256D01*
X192395226Y-137901898D01*
X192435000Y-137701939D01*
X192435000Y-137498061D01*
X192395226Y-137298102D01*
X192317205Y-137109744D01*
X192203937Y-136940226D01*
X192059774Y-136796063D01*
X191890256Y-136682795D01*
X191701898Y-136604774D01*
X191501939Y-136565000D01*
X191298061Y-136565000D01*
X191098102Y-136604774D01*
X190909744Y-136682795D01*
X190740226Y-136796063D01*
X190596063Y-136940226D01*
X190482795Y-137109744D01*
X190404774Y-137298102D01*
X190365000Y-137498061D01*
X187309399Y-137498061D01*
X187203937Y-137340226D01*
X187059774Y-137196063D01*
X186890256Y-137082795D01*
X186701898Y-137004774D01*
X186501939Y-136965000D01*
X186298061Y-136965000D01*
X186098102Y-137004774D01*
X185909744Y-137082795D01*
X185740226Y-137196063D01*
X185596063Y-137340226D01*
X185482795Y-137509744D01*
X185404774Y-137698102D01*
X185365000Y-137898061D01*
X185365000Y-138101939D01*
X185404774Y-138301898D01*
X185482795Y-138490256D01*
X185595592Y-138659069D01*
X185540226Y-138696063D01*
X185396063Y-138840226D01*
X185282795Y-139009744D01*
X185204774Y-139198102D01*
X185165000Y-139398061D01*
X180153788Y-139398061D01*
X180117205Y-139309744D01*
X180003937Y-139140226D01*
X179859774Y-138996063D01*
X179690256Y-138882795D01*
X179501898Y-138804774D01*
X179301939Y-138765000D01*
X179098061Y-138765000D01*
X178898102Y-138804774D01*
X178709744Y-138882795D01*
X178540226Y-138996063D01*
X178396063Y-139140226D01*
X178282795Y-139309744D01*
X178204774Y-139498102D01*
X178165000Y-139698061D01*
X172548978Y-139698061D01*
X172525094Y-139619326D01*
X172415058Y-139413464D01*
X172266975Y-139233025D01*
X172086535Y-139084942D01*
X171880673Y-138974906D01*
X171657299Y-138907147D01*
X171435000Y-138885252D01*
X171435000Y-138698061D01*
X171395226Y-138498102D01*
X171317205Y-138309744D01*
X171203937Y-138140226D01*
X171059774Y-137996063D01*
X170890256Y-137882795D01*
X170701898Y-137804774D01*
X170501939Y-137765000D01*
X170298061Y-137765000D01*
X170098102Y-137804774D01*
X169909744Y-137882795D01*
X169900000Y-137889306D01*
X169890256Y-137882795D01*
X169701898Y-137804774D01*
X169501939Y-137765000D01*
X169298061Y-137765000D01*
X169098102Y-137804774D01*
X168909744Y-137882795D01*
X168740226Y-137996063D01*
X168596063Y-138140226D01*
X168482795Y-138309744D01*
X168404774Y-138498102D01*
X168365000Y-138698061D01*
X165195210Y-138698061D01*
X165117205Y-138509744D01*
X165003937Y-138340226D01*
X164859774Y-138196063D01*
X164690256Y-138082795D01*
X164501898Y-138004774D01*
X164301939Y-137965000D01*
X164098061Y-137965000D01*
X163898102Y-138004774D01*
X163709744Y-138082795D01*
X163540226Y-138196063D01*
X163396063Y-138340226D01*
X163355177Y-138401416D01*
X163317205Y-138309744D01*
X163203937Y-138140226D01*
X163059774Y-137996063D01*
X162890256Y-137882795D01*
X162701898Y-137804774D01*
X162501939Y-137765000D01*
X162298061Y-137765000D01*
X162098102Y-137804774D01*
X161909744Y-137882795D01*
X161740226Y-137996063D01*
X161596063Y-138140226D01*
X161482795Y-138309744D01*
X161404774Y-138498102D01*
X161365000Y-138698061D01*
X159165650Y-138698061D01*
X159203937Y-138659774D01*
X159317205Y-138490256D01*
X159395226Y-138301898D01*
X159435000Y-138101939D01*
X159435000Y-137898061D01*
X159395226Y-137698102D01*
X159317205Y-137509744D01*
X159203937Y-137340226D01*
X159059774Y-137196063D01*
X158890256Y-137082795D01*
X158701898Y-137004774D01*
X158501939Y-136965000D01*
X158298061Y-136965000D01*
X158098102Y-137004774D01*
X157909744Y-137082795D01*
X157740226Y-137196063D01*
X157596063Y-137340226D01*
X157482795Y-137509744D01*
X157404774Y-137698102D01*
X157365000Y-137898061D01*
X149435000Y-137898061D01*
X149435000Y-137698061D01*
X149395226Y-137498102D01*
X149317205Y-137309744D01*
X149203937Y-137140226D01*
X149059774Y-136996063D01*
X148890256Y-136882795D01*
X148701898Y-136804774D01*
X148501939Y-136765000D01*
X148298061Y-136765000D01*
X148098102Y-136804774D01*
X147909744Y-136882795D01*
X147740226Y-136996063D01*
X147596063Y-137140226D01*
X147482795Y-137309744D01*
X147404774Y-137498102D01*
X147365000Y-137698061D01*
X146635000Y-137698061D01*
X146595226Y-137498102D01*
X146517205Y-137309744D01*
X146403937Y-137140226D01*
X146259774Y-136996063D01*
X146090256Y-136882795D01*
X145901898Y-136804774D01*
X145701939Y-136765000D01*
X145498061Y-136765000D01*
X145298102Y-136804774D01*
X145109744Y-136882795D01*
X144940226Y-136996063D01*
X144796063Y-137140226D01*
X144682795Y-137309744D01*
X144660000Y-137364776D01*
X144660000Y-135598061D01*
X145965000Y-135598061D01*
X145965000Y-135801939D01*
X146004774Y-136001898D01*
X146082795Y-136190256D01*
X146196063Y-136359774D01*
X146340226Y-136503937D01*
X146509744Y-136617205D01*
X146698102Y-136695226D01*
X146898061Y-136735000D01*
X147101939Y-136735000D01*
X147287645Y-136698061D01*
X154565000Y-136698061D01*
X154565000Y-136901939D01*
X154604774Y-137101898D01*
X154682795Y-137290256D01*
X154796063Y-137459774D01*
X154940226Y-137603937D01*
X155109744Y-137717205D01*
X155298102Y-137795226D01*
X155498061Y-137835000D01*
X155701939Y-137835000D01*
X155901898Y-137795226D01*
X156090256Y-137717205D01*
X156259774Y-137603937D01*
X156403937Y-137459774D01*
X156517205Y-137290256D01*
X156595226Y-137101898D01*
X156635000Y-136901939D01*
X156635000Y-136898061D01*
X179565000Y-136898061D01*
X179565000Y-137101939D01*
X179604774Y-137301898D01*
X179682795Y-137490256D01*
X179796063Y-137659774D01*
X179940226Y-137803937D01*
X180109744Y-137917205D01*
X180298102Y-137995226D01*
X180498061Y-138035000D01*
X180701939Y-138035000D01*
X180901898Y-137995226D01*
X181090256Y-137917205D01*
X181259774Y-137803937D01*
X181403937Y-137659774D01*
X181517205Y-137490256D01*
X181595226Y-137301898D01*
X181635000Y-137101939D01*
X181635000Y-136898061D01*
X181595226Y-136698102D01*
X181517205Y-136509744D01*
X181403937Y-136340226D01*
X181259774Y-136196063D01*
X181090256Y-136082795D01*
X180901898Y-136004774D01*
X180701939Y-135965000D01*
X180498061Y-135965000D01*
X180298102Y-136004774D01*
X180109744Y-136082795D01*
X179940226Y-136196063D01*
X179796063Y-136340226D01*
X179682795Y-136509744D01*
X179604774Y-136698102D01*
X179565000Y-136898061D01*
X156635000Y-136898061D01*
X156635000Y-136698061D01*
X156595226Y-136498102D01*
X156517205Y-136309744D01*
X156403937Y-136140226D01*
X156259774Y-135996063D01*
X156090256Y-135882795D01*
X155901898Y-135804774D01*
X155701939Y-135765000D01*
X155498061Y-135765000D01*
X155298102Y-135804774D01*
X155109744Y-135882795D01*
X154940226Y-135996063D01*
X154796063Y-136140226D01*
X154682795Y-136309744D01*
X154604774Y-136498102D01*
X154565000Y-136698061D01*
X147287645Y-136698061D01*
X147301898Y-136695226D01*
X147490256Y-136617205D01*
X147659774Y-136503937D01*
X147803937Y-136359774D01*
X147917205Y-136190256D01*
X147995226Y-136001898D01*
X148035000Y-135801939D01*
X148035000Y-135598061D01*
X147995226Y-135398102D01*
X147953788Y-135298061D01*
X176965000Y-135298061D01*
X176965000Y-135501939D01*
X177004774Y-135701898D01*
X177082795Y-135890256D01*
X177196063Y-136059774D01*
X177340226Y-136203937D01*
X177509744Y-136317205D01*
X177698102Y-136395226D01*
X177898061Y-136435000D01*
X178101939Y-136435000D01*
X178301898Y-136395226D01*
X178490256Y-136317205D01*
X178659774Y-136203937D01*
X178803937Y-136059774D01*
X178917205Y-135890256D01*
X178995226Y-135701898D01*
X179035000Y-135501939D01*
X179035000Y-135298061D01*
X178995226Y-135098102D01*
X178917205Y-134909744D01*
X178803937Y-134740226D01*
X178659774Y-134596063D01*
X178490256Y-134482795D01*
X178301898Y-134404774D01*
X178268150Y-134398061D01*
X180765000Y-134398061D01*
X180765000Y-134601939D01*
X180804774Y-134801898D01*
X180882795Y-134990256D01*
X180996063Y-135159774D01*
X181140226Y-135303937D01*
X181309744Y-135417205D01*
X181498102Y-135495226D01*
X181698061Y-135535000D01*
X181901939Y-135535000D01*
X182087645Y-135498061D01*
X188765000Y-135498061D01*
X188765000Y-135701939D01*
X188804774Y-135901898D01*
X188882795Y-136090256D01*
X188996063Y-136259774D01*
X189140226Y-136403937D01*
X189309744Y-136517205D01*
X189498102Y-136595226D01*
X189698061Y-136635000D01*
X189901939Y-136635000D01*
X190101898Y-136595226D01*
X190290256Y-136517205D01*
X190459774Y-136403937D01*
X190603937Y-136259774D01*
X190717205Y-136090256D01*
X190795226Y-135901898D01*
X190835000Y-135701939D01*
X190835000Y-135498061D01*
X190795226Y-135298102D01*
X190717205Y-135109744D01*
X190603937Y-134940226D01*
X190459774Y-134796063D01*
X190313104Y-134698061D01*
X190965000Y-134698061D01*
X190965000Y-134901939D01*
X191004774Y-135101898D01*
X191082795Y-135290256D01*
X191196063Y-135459774D01*
X191340226Y-135603937D01*
X191509744Y-135717205D01*
X191698102Y-135795226D01*
X191898061Y-135835000D01*
X192101939Y-135835000D01*
X192301898Y-135795226D01*
X192490256Y-135717205D01*
X192659774Y-135603937D01*
X192803937Y-135459774D01*
X192917205Y-135290256D01*
X192995226Y-135101898D01*
X193035000Y-134901939D01*
X193035000Y-134698061D01*
X192995226Y-134498102D01*
X192917205Y-134309744D01*
X192803937Y-134140226D01*
X192659774Y-133996063D01*
X192490256Y-133882795D01*
X192301898Y-133804774D01*
X192101939Y-133765000D01*
X191898061Y-133765000D01*
X191698102Y-133804774D01*
X191509744Y-133882795D01*
X191340226Y-133996063D01*
X191196063Y-134140226D01*
X191082795Y-134309744D01*
X191004774Y-134498102D01*
X190965000Y-134698061D01*
X190313104Y-134698061D01*
X190290256Y-134682795D01*
X190101898Y-134604774D01*
X189901939Y-134565000D01*
X189698061Y-134565000D01*
X189498102Y-134604774D01*
X189309744Y-134682795D01*
X189140226Y-134796063D01*
X188996063Y-134940226D01*
X188882795Y-135109744D01*
X188804774Y-135298102D01*
X188765000Y-135498061D01*
X182087645Y-135498061D01*
X182101898Y-135495226D01*
X182290256Y-135417205D01*
X182459774Y-135303937D01*
X182603937Y-135159774D01*
X182717205Y-134990256D01*
X182795226Y-134801898D01*
X182835000Y-134601939D01*
X182835000Y-134398061D01*
X182795226Y-134198102D01*
X182717205Y-134009744D01*
X182603937Y-133840226D01*
X182459774Y-133696063D01*
X182290256Y-133582795D01*
X182101898Y-133504774D01*
X181901939Y-133465000D01*
X181698061Y-133465000D01*
X181498102Y-133504774D01*
X181309744Y-133582795D01*
X181140226Y-133696063D01*
X180996063Y-133840226D01*
X180882795Y-134009744D01*
X180804774Y-134198102D01*
X180765000Y-134398061D01*
X178268150Y-134398061D01*
X178101939Y-134365000D01*
X177898061Y-134365000D01*
X177698102Y-134404774D01*
X177509744Y-134482795D01*
X177340226Y-134596063D01*
X177196063Y-134740226D01*
X177082795Y-134909744D01*
X177004774Y-135098102D01*
X176965000Y-135298061D01*
X147953788Y-135298061D01*
X147917205Y-135209744D01*
X147803937Y-135040226D01*
X147659774Y-134896063D01*
X147490256Y-134782795D01*
X147301898Y-134704774D01*
X147101939Y-134665000D01*
X146898061Y-134665000D01*
X146698102Y-134704774D01*
X146509744Y-134782795D01*
X146340226Y-134896063D01*
X146196063Y-135040226D01*
X146082795Y-135209744D01*
X146004774Y-135398102D01*
X145965000Y-135598061D01*
X144660000Y-135598061D01*
X144660000Y-134098061D01*
X150565000Y-134098061D01*
X150565000Y-134301939D01*
X150604774Y-134501898D01*
X150682795Y-134690256D01*
X150796063Y-134859774D01*
X150940226Y-135003937D01*
X151109744Y-135117205D01*
X151298102Y-135195226D01*
X151498061Y-135235000D01*
X151701939Y-135235000D01*
X151901898Y-135195226D01*
X152090256Y-135117205D01*
X152259774Y-135003937D01*
X152403937Y-134859774D01*
X152517205Y-134690256D01*
X152595226Y-134501898D01*
X152635000Y-134301939D01*
X152635000Y-134098061D01*
X152595226Y-133898102D01*
X152517205Y-133709744D01*
X152403937Y-133540226D01*
X152259774Y-133396063D01*
X152090256Y-133282795D01*
X151901898Y-133204774D01*
X151701939Y-133165000D01*
X151498061Y-133165000D01*
X151298102Y-133204774D01*
X151109744Y-133282795D01*
X150940226Y-133396063D01*
X150796063Y-133540226D01*
X150682795Y-133709744D01*
X150604774Y-133898102D01*
X150565000Y-134098061D01*
X144660000Y-134098061D01*
X144660000Y-132498061D01*
X148565000Y-132498061D01*
X148565000Y-132701939D01*
X148604774Y-132901898D01*
X148682795Y-133090256D01*
X148796063Y-133259774D01*
X148940226Y-133403937D01*
X149109744Y-133517205D01*
X149298102Y-133595226D01*
X149498061Y-133635000D01*
X149701939Y-133635000D01*
X149901898Y-133595226D01*
X150090256Y-133517205D01*
X150259774Y-133403937D01*
X150403937Y-133259774D01*
X150517205Y-133090256D01*
X150595226Y-132901898D01*
X150635000Y-132701939D01*
X150635000Y-132498061D01*
X150595226Y-132298102D01*
X150517205Y-132109744D01*
X150403937Y-131940226D01*
X150259774Y-131796063D01*
X150090256Y-131682795D01*
X149901898Y-131604774D01*
X149701939Y-131565000D01*
X149498061Y-131565000D01*
X149298102Y-131604774D01*
X149109744Y-131682795D01*
X148940226Y-131796063D01*
X148796063Y-131940226D01*
X148682795Y-132109744D01*
X148604774Y-132298102D01*
X148565000Y-132498061D01*
X144660000Y-132498061D01*
X144660000Y-129698061D01*
X154565000Y-129698061D01*
X154565000Y-129901939D01*
X154604774Y-130101898D01*
X154682795Y-130290256D01*
X154796063Y-130459774D01*
X154940226Y-130603937D01*
X155109744Y-130717205D01*
X155298102Y-130795226D01*
X155498061Y-130835000D01*
X155701939Y-130835000D01*
X155901898Y-130795226D01*
X156090256Y-130717205D01*
X156259774Y-130603937D01*
X156403937Y-130459774D01*
X156480892Y-130344603D01*
X156540226Y-130403937D01*
X156601416Y-130444823D01*
X156509744Y-130482795D01*
X156340226Y-130596063D01*
X156196063Y-130740226D01*
X156082795Y-130909744D01*
X156004774Y-131098102D01*
X155965000Y-131298061D01*
X155965000Y-131501939D01*
X156004774Y-131701898D01*
X156082795Y-131890256D01*
X156196063Y-132059774D01*
X156340226Y-132203937D01*
X156509744Y-132317205D01*
X156698102Y-132395226D01*
X156898061Y-132435000D01*
X157101939Y-132435000D01*
X157301898Y-132395226D01*
X157490256Y-132317205D01*
X157518907Y-132298061D01*
X170365000Y-132298061D01*
X170365000Y-132501939D01*
X170404774Y-132701898D01*
X170482795Y-132890256D01*
X170596063Y-133059774D01*
X170740226Y-133203937D01*
X170909744Y-133317205D01*
X171098102Y-133395226D01*
X171298061Y-133435000D01*
X171501939Y-133435000D01*
X171701898Y-133395226D01*
X171890256Y-133317205D01*
X172059774Y-133203937D01*
X172165650Y-133098061D01*
X178165000Y-133098061D01*
X178165000Y-133301939D01*
X178204774Y-133501898D01*
X178282795Y-133690256D01*
X178396063Y-133859774D01*
X178540226Y-134003937D01*
X178709744Y-134117205D01*
X178898102Y-134195226D01*
X179098061Y-134235000D01*
X179301939Y-134235000D01*
X179501898Y-134195226D01*
X179690256Y-134117205D01*
X179859774Y-134003937D01*
X180003937Y-133859774D01*
X180117205Y-133690256D01*
X180195226Y-133501898D01*
X180235000Y-133301939D01*
X180235000Y-133098061D01*
X186965000Y-133098061D01*
X186965000Y-133301939D01*
X187004774Y-133501898D01*
X187082795Y-133690256D01*
X187196063Y-133859774D01*
X187340226Y-134003937D01*
X187509744Y-134117205D01*
X187698102Y-134195226D01*
X187898061Y-134235000D01*
X188101939Y-134235000D01*
X188301898Y-134195226D01*
X188490256Y-134117205D01*
X188659774Y-134003937D01*
X188803937Y-133859774D01*
X188917205Y-133690256D01*
X188995226Y-133501898D01*
X189035000Y-133301939D01*
X189035000Y-133098061D01*
X189022456Y-133035000D01*
X189101939Y-133035000D01*
X189301898Y-132995226D01*
X189490256Y-132917205D01*
X189659774Y-132803937D01*
X189803937Y-132659774D01*
X189917205Y-132490256D01*
X189995226Y-132301898D01*
X190035000Y-132101939D01*
X190035000Y-131898061D01*
X189995226Y-131698102D01*
X189917205Y-131509744D01*
X189803937Y-131340226D01*
X189659774Y-131196063D01*
X189490256Y-131082795D01*
X189301898Y-131004774D01*
X189101939Y-130965000D01*
X188898061Y-130965000D01*
X188698102Y-131004774D01*
X188509744Y-131082795D01*
X188340226Y-131196063D01*
X188196063Y-131340226D01*
X188082795Y-131509744D01*
X188004774Y-131698102D01*
X187965000Y-131898061D01*
X187965000Y-132101939D01*
X187977544Y-132165000D01*
X187898061Y-132165000D01*
X187698102Y-132204774D01*
X187509744Y-132282795D01*
X187340226Y-132396063D01*
X187196063Y-132540226D01*
X187082795Y-132709744D01*
X187004774Y-132898102D01*
X186965000Y-133098061D01*
X180235000Y-133098061D01*
X180195226Y-132898102D01*
X180117205Y-132709744D01*
X180003937Y-132540226D01*
X179859774Y-132396063D01*
X179690256Y-132282795D01*
X179501898Y-132204774D01*
X179301939Y-132165000D01*
X179098061Y-132165000D01*
X178898102Y-132204774D01*
X178709744Y-132282795D01*
X178540226Y-132396063D01*
X178396063Y-132540226D01*
X178282795Y-132709744D01*
X178204774Y-132898102D01*
X178165000Y-133098061D01*
X172165650Y-133098061D01*
X172203937Y-133059774D01*
X172317205Y-132890256D01*
X172395226Y-132701898D01*
X172435000Y-132501939D01*
X172435000Y-132298061D01*
X172395226Y-132098102D01*
X172317205Y-131909744D01*
X172203937Y-131740226D01*
X172059774Y-131596063D01*
X171890256Y-131482795D01*
X171701898Y-131404774D01*
X171501939Y-131365000D01*
X171298061Y-131365000D01*
X171098102Y-131404774D01*
X170909744Y-131482795D01*
X170740226Y-131596063D01*
X170596063Y-131740226D01*
X170482795Y-131909744D01*
X170404774Y-132098102D01*
X170365000Y-132298061D01*
X157518907Y-132298061D01*
X157659774Y-132203937D01*
X157803937Y-132059774D01*
X157917205Y-131890256D01*
X157995226Y-131701898D01*
X158011940Y-131617870D01*
X158098061Y-131635000D01*
X158301939Y-131635000D01*
X158501898Y-131595226D01*
X158690256Y-131517205D01*
X158859774Y-131403937D01*
X159003937Y-131259774D01*
X159102453Y-131112334D01*
X159109744Y-131117205D01*
X159298102Y-131195226D01*
X159498061Y-131235000D01*
X159701939Y-131235000D01*
X159901898Y-131195226D01*
X160090256Y-131117205D01*
X160259774Y-131003937D01*
X160300000Y-130963711D01*
X160340226Y-131003937D01*
X160509744Y-131117205D01*
X160698102Y-131195226D01*
X160898061Y-131235000D01*
X161101939Y-131235000D01*
X161301898Y-131195226D01*
X161490256Y-131117205D01*
X161659774Y-131003937D01*
X161700000Y-130963711D01*
X161740226Y-131003937D01*
X161909744Y-131117205D01*
X162098102Y-131195226D01*
X162298061Y-131235000D01*
X162501939Y-131235000D01*
X162701898Y-131195226D01*
X162890256Y-131117205D01*
X163059774Y-131003937D01*
X163203937Y-130859774D01*
X163317205Y-130690256D01*
X163395226Y-130501898D01*
X163435000Y-130301939D01*
X163435000Y-130098061D01*
X163395226Y-129898102D01*
X163317205Y-129709744D01*
X163243877Y-129600000D01*
X163317205Y-129490256D01*
X163395226Y-129301898D01*
X163435000Y-129101939D01*
X163435000Y-128898061D01*
X163405970Y-128752118D01*
X163490256Y-128717205D01*
X163659774Y-128603937D01*
X163803937Y-128459774D01*
X163917205Y-128290256D01*
X163995226Y-128101898D01*
X164035000Y-127901939D01*
X164035000Y-127698061D01*
X163995226Y-127498102D01*
X163917205Y-127309744D01*
X163803937Y-127140226D01*
X163659774Y-126996063D01*
X163544603Y-126919108D01*
X163565650Y-126898061D01*
X173165000Y-126898061D01*
X173165000Y-127101939D01*
X173204774Y-127301898D01*
X173282795Y-127490256D01*
X173396063Y-127659774D01*
X173540226Y-127803937D01*
X173709744Y-127917205D01*
X173898102Y-127995226D01*
X174098061Y-128035000D01*
X174301939Y-128035000D01*
X174501898Y-127995226D01*
X174690256Y-127917205D01*
X174859774Y-127803937D01*
X175003937Y-127659774D01*
X175044823Y-127598584D01*
X175082795Y-127690256D01*
X175196063Y-127859774D01*
X175340226Y-128003937D01*
X175509744Y-128117205D01*
X175698102Y-128195226D01*
X175898061Y-128235000D01*
X176101939Y-128235000D01*
X176301898Y-128195226D01*
X176490256Y-128117205D01*
X176659774Y-128003937D01*
X176803937Y-127859774D01*
X176917205Y-127690256D01*
X176995226Y-127501898D01*
X176995989Y-127498061D01*
X180965000Y-127498061D01*
X180965000Y-127701939D01*
X181004774Y-127901898D01*
X181082795Y-128090256D01*
X181196063Y-128259774D01*
X181340226Y-128403937D01*
X181509744Y-128517205D01*
X181698102Y-128595226D01*
X181898061Y-128635000D01*
X182101939Y-128635000D01*
X182301898Y-128595226D01*
X182490256Y-128517205D01*
X182659774Y-128403937D01*
X182803937Y-128259774D01*
X182917205Y-128090256D01*
X182995226Y-127901898D01*
X183035000Y-127701939D01*
X183035000Y-127498061D01*
X182995226Y-127298102D01*
X182917205Y-127109744D01*
X182803937Y-126940226D01*
X182761772Y-126898061D01*
X183365000Y-126898061D01*
X183365000Y-127101939D01*
X183404774Y-127301898D01*
X183482795Y-127490256D01*
X183596063Y-127659774D01*
X183740226Y-127803937D01*
X183909744Y-127917205D01*
X184098102Y-127995226D01*
X184298061Y-128035000D01*
X184501939Y-128035000D01*
X184701898Y-127995226D01*
X184890256Y-127917205D01*
X185059774Y-127803937D01*
X185203937Y-127659774D01*
X185317205Y-127490256D01*
X185395226Y-127301898D01*
X185435000Y-127101939D01*
X185435000Y-127098061D01*
X186365000Y-127098061D01*
X186365000Y-127301939D01*
X186404774Y-127501898D01*
X186482795Y-127690256D01*
X186596063Y-127859774D01*
X186740226Y-128003937D01*
X186909744Y-128117205D01*
X187098102Y-128195226D01*
X187298061Y-128235000D01*
X187501939Y-128235000D01*
X187701898Y-128195226D01*
X187890256Y-128117205D01*
X188059774Y-128003937D01*
X188203937Y-127859774D01*
X188317205Y-127690256D01*
X188395226Y-127501898D01*
X188435000Y-127301939D01*
X188435000Y-127098061D01*
X188395226Y-126898102D01*
X188317205Y-126709744D01*
X188203937Y-126540226D01*
X188059774Y-126396063D01*
X187890256Y-126282795D01*
X187701898Y-126204774D01*
X187501939Y-126165000D01*
X187298061Y-126165000D01*
X187098102Y-126204774D01*
X186909744Y-126282795D01*
X186740226Y-126396063D01*
X186596063Y-126540226D01*
X186482795Y-126709744D01*
X186404774Y-126898102D01*
X186365000Y-127098061D01*
X185435000Y-127098061D01*
X185435000Y-126898061D01*
X185395226Y-126698102D01*
X185317205Y-126509744D01*
X185203937Y-126340226D01*
X185059774Y-126196063D01*
X184890256Y-126082795D01*
X184701898Y-126004774D01*
X184501939Y-125965000D01*
X184298061Y-125965000D01*
X184098102Y-126004774D01*
X183909744Y-126082795D01*
X183740226Y-126196063D01*
X183596063Y-126340226D01*
X183482795Y-126509744D01*
X183404774Y-126698102D01*
X183365000Y-126898061D01*
X182761772Y-126898061D01*
X182659774Y-126796063D01*
X182490256Y-126682795D01*
X182301898Y-126604774D01*
X182101939Y-126565000D01*
X181898061Y-126565000D01*
X181698102Y-126604774D01*
X181509744Y-126682795D01*
X181340226Y-126796063D01*
X181196063Y-126940226D01*
X181082795Y-127109744D01*
X181004774Y-127298102D01*
X180965000Y-127498061D01*
X176995989Y-127498061D01*
X177035000Y-127301939D01*
X177035000Y-127098061D01*
X176995226Y-126898102D01*
X176917205Y-126709744D01*
X176803937Y-126540226D01*
X176659774Y-126396063D01*
X176490256Y-126282795D01*
X176301898Y-126204774D01*
X176101939Y-126165000D01*
X175898061Y-126165000D01*
X175698102Y-126204774D01*
X175509744Y-126282795D01*
X175340226Y-126396063D01*
X175196063Y-126540226D01*
X175155177Y-126601416D01*
X175117205Y-126509744D01*
X175003937Y-126340226D01*
X174859774Y-126196063D01*
X174690256Y-126082795D01*
X174501898Y-126004774D01*
X174301939Y-125965000D01*
X174098061Y-125965000D01*
X173898102Y-126004774D01*
X173709744Y-126082795D01*
X173540226Y-126196063D01*
X173396063Y-126340226D01*
X173282795Y-126509744D01*
X173204774Y-126698102D01*
X173165000Y-126898061D01*
X163565650Y-126898061D01*
X163603937Y-126859774D01*
X163717205Y-126690256D01*
X163795226Y-126501898D01*
X163835000Y-126301939D01*
X163835000Y-126098061D01*
X163795226Y-125898102D01*
X163717205Y-125709744D01*
X163603937Y-125540226D01*
X163459774Y-125396063D01*
X163378669Y-125341870D01*
X163395226Y-125301898D01*
X163435000Y-125101939D01*
X163435000Y-124898061D01*
X163395226Y-124698102D01*
X163369088Y-124635000D01*
X163501939Y-124635000D01*
X163701898Y-124595226D01*
X163890256Y-124517205D01*
X164059774Y-124403937D01*
X164203937Y-124259774D01*
X164317205Y-124090256D01*
X164395226Y-123901898D01*
X164402764Y-123864000D01*
X170977928Y-123864000D01*
X170977928Y-125564000D01*
X170990188Y-125688482D01*
X171026498Y-125808180D01*
X171085463Y-125918494D01*
X171164815Y-126015185D01*
X171261506Y-126094537D01*
X171371820Y-126153502D01*
X171491518Y-126189812D01*
X171616000Y-126202072D01*
X173316000Y-126202072D01*
X173440482Y-126189812D01*
X173560180Y-126153502D01*
X173670494Y-126094537D01*
X173767185Y-126015185D01*
X173846537Y-125918494D01*
X173905502Y-125808180D01*
X173941812Y-125688482D01*
X173954072Y-125564000D01*
X173954072Y-124898061D01*
X175965000Y-124898061D01*
X175965000Y-125101939D01*
X176004774Y-125301898D01*
X176082795Y-125490256D01*
X176196063Y-125659774D01*
X176340226Y-125803937D01*
X176509744Y-125917205D01*
X176698102Y-125995226D01*
X176898061Y-126035000D01*
X177101939Y-126035000D01*
X177301898Y-125995226D01*
X177490256Y-125917205D01*
X177659774Y-125803937D01*
X177803937Y-125659774D01*
X177917205Y-125490256D01*
X177995226Y-125301898D01*
X178035000Y-125101939D01*
X178035000Y-124898711D01*
X178140226Y-125003937D01*
X178309744Y-125117205D01*
X178498102Y-125195226D01*
X178698061Y-125235000D01*
X178901939Y-125235000D01*
X179101898Y-125195226D01*
X179290256Y-125117205D01*
X179459774Y-125003937D01*
X179603937Y-124859774D01*
X179717205Y-124690256D01*
X179795226Y-124501898D01*
X179835000Y-124301939D01*
X179835000Y-124098061D01*
X179795226Y-123898102D01*
X179717205Y-123709744D01*
X179603937Y-123540226D01*
X179459774Y-123396063D01*
X179290256Y-123282795D01*
X179101898Y-123204774D01*
X178901939Y-123165000D01*
X178698061Y-123165000D01*
X178498102Y-123204774D01*
X178309744Y-123282795D01*
X178140226Y-123396063D01*
X177996063Y-123540226D01*
X177882795Y-123709744D01*
X177804774Y-123898102D01*
X177765000Y-124098061D01*
X177765000Y-124301289D01*
X177659774Y-124196063D01*
X177490256Y-124082795D01*
X177301898Y-124004774D01*
X177101939Y-123965000D01*
X176898061Y-123965000D01*
X176698102Y-124004774D01*
X176509744Y-124082795D01*
X176340226Y-124196063D01*
X176196063Y-124340226D01*
X176082795Y-124509744D01*
X176004774Y-124698102D01*
X175965000Y-124898061D01*
X173954072Y-124898061D01*
X173954072Y-123864000D01*
X173941812Y-123739518D01*
X173905502Y-123619820D01*
X173846537Y-123509506D01*
X173767185Y-123412815D01*
X173670494Y-123333463D01*
X173560180Y-123274498D01*
X173487620Y-123252487D01*
X173619475Y-123120632D01*
X173768192Y-122898061D01*
X187765000Y-122898061D01*
X187765000Y-123101939D01*
X187804774Y-123301898D01*
X187882795Y-123490256D01*
X187996063Y-123659774D01*
X188140226Y-123803937D01*
X188309744Y-123917205D01*
X188498102Y-123995226D01*
X188698061Y-124035000D01*
X188901939Y-124035000D01*
X189101898Y-123995226D01*
X189290256Y-123917205D01*
X189459774Y-123803937D01*
X189603937Y-123659774D01*
X189717205Y-123490256D01*
X189795226Y-123301898D01*
X189835000Y-123101939D01*
X189835000Y-122898061D01*
X189795226Y-122698102D01*
X189717205Y-122509744D01*
X189712334Y-122502453D01*
X189859774Y-122403937D01*
X190003937Y-122259774D01*
X190117205Y-122090256D01*
X190195226Y-121901898D01*
X190235000Y-121701939D01*
X190235000Y-121498061D01*
X190195226Y-121298102D01*
X190117205Y-121109744D01*
X190003937Y-120940226D01*
X189859774Y-120796063D01*
X189690256Y-120682795D01*
X189501898Y-120604774D01*
X189301939Y-120565000D01*
X189098061Y-120565000D01*
X188898102Y-120604774D01*
X188709744Y-120682795D01*
X188540226Y-120796063D01*
X188396063Y-120940226D01*
X188282795Y-121109744D01*
X188204774Y-121298102D01*
X188165000Y-121498061D01*
X188165000Y-121701939D01*
X188204774Y-121901898D01*
X188282795Y-122090256D01*
X188287666Y-122097547D01*
X188140226Y-122196063D01*
X187996063Y-122340226D01*
X187882795Y-122509744D01*
X187804774Y-122698102D01*
X187765000Y-122898061D01*
X173768192Y-122898061D01*
X173781990Y-122877411D01*
X173893932Y-122607158D01*
X173951000Y-122320260D01*
X173951000Y-122027740D01*
X173893932Y-121740842D01*
X173781990Y-121470589D01*
X173619475Y-121227368D01*
X173412632Y-121020525D01*
X173238240Y-120904000D01*
X173412632Y-120787475D01*
X173619475Y-120580632D01*
X173781990Y-120337411D01*
X173783796Y-120333050D01*
X173909744Y-120417205D01*
X174098102Y-120495226D01*
X174298061Y-120535000D01*
X174501939Y-120535000D01*
X174701898Y-120495226D01*
X174890256Y-120417205D01*
X175059774Y-120303937D01*
X175203937Y-120159774D01*
X175317205Y-119990256D01*
X175395226Y-119801898D01*
X175435000Y-119601939D01*
X175435000Y-119498061D01*
X175565000Y-119498061D01*
X175565000Y-119701939D01*
X175604774Y-119901898D01*
X175682795Y-120090256D01*
X175796063Y-120259774D01*
X175940226Y-120403937D01*
X176109744Y-120517205D01*
X176298102Y-120595226D01*
X176498061Y-120635000D01*
X176701939Y-120635000D01*
X176901898Y-120595226D01*
X177090256Y-120517205D01*
X177259774Y-120403937D01*
X177403937Y-120259774D01*
X177517205Y-120090256D01*
X177595226Y-119901898D01*
X177595989Y-119898061D01*
X181765000Y-119898061D01*
X181765000Y-120101939D01*
X181804774Y-120301898D01*
X181882795Y-120490256D01*
X181996063Y-120659774D01*
X182140226Y-120803937D01*
X182309744Y-120917205D01*
X182498102Y-120995226D01*
X182698061Y-121035000D01*
X182901939Y-121035000D01*
X183101898Y-120995226D01*
X183290256Y-120917205D01*
X183459774Y-120803937D01*
X183603937Y-120659774D01*
X183717205Y-120490256D01*
X183795226Y-120301898D01*
X183795989Y-120298061D01*
X185565000Y-120298061D01*
X185565000Y-120501939D01*
X185604774Y-120701898D01*
X185682795Y-120890256D01*
X185796063Y-121059774D01*
X185940226Y-121203937D01*
X186109744Y-121317205D01*
X186298102Y-121395226D01*
X186498061Y-121435000D01*
X186701939Y-121435000D01*
X186901898Y-121395226D01*
X187090256Y-121317205D01*
X187259774Y-121203937D01*
X187403937Y-121059774D01*
X187517205Y-120890256D01*
X187595226Y-120701898D01*
X187635000Y-120501939D01*
X187635000Y-120298061D01*
X187595226Y-120098102D01*
X187517205Y-119909744D01*
X187403937Y-119740226D01*
X187259774Y-119596063D01*
X187090256Y-119482795D01*
X186901898Y-119404774D01*
X186701939Y-119365000D01*
X186498061Y-119365000D01*
X186298102Y-119404774D01*
X186109744Y-119482795D01*
X185940226Y-119596063D01*
X185796063Y-119740226D01*
X185682795Y-119909744D01*
X185604774Y-120098102D01*
X185565000Y-120298061D01*
X183795989Y-120298061D01*
X183835000Y-120101939D01*
X183835000Y-119898061D01*
X183795226Y-119698102D01*
X183717205Y-119509744D01*
X183603937Y-119340226D01*
X183459774Y-119196063D01*
X183290256Y-119082795D01*
X183101898Y-119004774D01*
X182901939Y-118965000D01*
X182698061Y-118965000D01*
X182498102Y-119004774D01*
X182309744Y-119082795D01*
X182140226Y-119196063D01*
X181996063Y-119340226D01*
X181882795Y-119509744D01*
X181804774Y-119698102D01*
X181765000Y-119898061D01*
X177595989Y-119898061D01*
X177635000Y-119701939D01*
X177635000Y-119498061D01*
X177595226Y-119298102D01*
X177517205Y-119109744D01*
X177403937Y-118940226D01*
X177259774Y-118796063D01*
X177090256Y-118682795D01*
X176901898Y-118604774D01*
X176701939Y-118565000D01*
X176498061Y-118565000D01*
X176298102Y-118604774D01*
X176109744Y-118682795D01*
X175940226Y-118796063D01*
X175796063Y-118940226D01*
X175682795Y-119109744D01*
X175604774Y-119298102D01*
X175565000Y-119498061D01*
X175435000Y-119498061D01*
X175435000Y-119398061D01*
X175395226Y-119198102D01*
X175317205Y-119009744D01*
X175203937Y-118840226D01*
X175059774Y-118696063D01*
X174890256Y-118582795D01*
X174701898Y-118504774D01*
X174501939Y-118465000D01*
X174298061Y-118465000D01*
X174098102Y-118504774D01*
X173909744Y-118582795D01*
X173740226Y-118696063D01*
X173671324Y-118764965D01*
X173619475Y-118687368D01*
X173412632Y-118480525D01*
X173169411Y-118318010D01*
X172899158Y-118206068D01*
X172612260Y-118149000D01*
X172319740Y-118149000D01*
X172032842Y-118206068D01*
X171762589Y-118318010D01*
X171519368Y-118480525D01*
X171312525Y-118687368D01*
X171150010Y-118930589D01*
X171038068Y-119200842D01*
X170981000Y-119487740D01*
X170981000Y-119780260D01*
X171038068Y-120067158D01*
X171150010Y-120337411D01*
X171312525Y-120580632D01*
X171519368Y-120787475D01*
X171693760Y-120904000D01*
X171519368Y-121020525D01*
X171312525Y-121227368D01*
X171150010Y-121470589D01*
X171038068Y-121740842D01*
X170981000Y-122027740D01*
X170981000Y-122320260D01*
X171038068Y-122607158D01*
X171150010Y-122877411D01*
X171312525Y-123120632D01*
X171444380Y-123252487D01*
X171371820Y-123274498D01*
X171261506Y-123333463D01*
X171164815Y-123412815D01*
X171085463Y-123509506D01*
X171026498Y-123619820D01*
X170990188Y-123739518D01*
X170977928Y-123864000D01*
X164402764Y-123864000D01*
X164435000Y-123701939D01*
X164435000Y-123498061D01*
X164395226Y-123298102D01*
X164317205Y-123109744D01*
X164203937Y-122940226D01*
X164059774Y-122796063D01*
X163890256Y-122682795D01*
X163701898Y-122604774D01*
X163501939Y-122565000D01*
X163298061Y-122565000D01*
X163098102Y-122604774D01*
X162909744Y-122682795D01*
X162750199Y-122789399D01*
X162717205Y-122709744D01*
X162603937Y-122540226D01*
X162459774Y-122396063D01*
X162313104Y-122298061D01*
X165965000Y-122298061D01*
X165965000Y-122501939D01*
X166004774Y-122701898D01*
X166082795Y-122890256D01*
X166196063Y-123059774D01*
X166340226Y-123203937D01*
X166509744Y-123317205D01*
X166698102Y-123395226D01*
X166898061Y-123435000D01*
X167101939Y-123435000D01*
X167301898Y-123395226D01*
X167490256Y-123317205D01*
X167659774Y-123203937D01*
X167803937Y-123059774D01*
X167917205Y-122890256D01*
X167995226Y-122701898D01*
X168035000Y-122501939D01*
X168035000Y-122298061D01*
X167995226Y-122098102D01*
X167952090Y-121993964D01*
X167996063Y-122059774D01*
X168140226Y-122203937D01*
X168309744Y-122317205D01*
X168498102Y-122395226D01*
X168698061Y-122435000D01*
X168901939Y-122435000D01*
X169101898Y-122395226D01*
X169290256Y-122317205D01*
X169459774Y-122203937D01*
X169603937Y-122059774D01*
X169717205Y-121890256D01*
X169795226Y-121701898D01*
X169835000Y-121501939D01*
X169835000Y-121298061D01*
X169795226Y-121098102D01*
X169717205Y-120909744D01*
X169603937Y-120740226D01*
X169459774Y-120596063D01*
X169290256Y-120482795D01*
X169101898Y-120404774D01*
X168901939Y-120365000D01*
X168698061Y-120365000D01*
X168498102Y-120404774D01*
X168309744Y-120482795D01*
X168140226Y-120596063D01*
X167996063Y-120740226D01*
X167882795Y-120909744D01*
X167804774Y-121098102D01*
X167765000Y-121298061D01*
X167765000Y-121501939D01*
X167804774Y-121701898D01*
X167847910Y-121806036D01*
X167803937Y-121740226D01*
X167659774Y-121596063D01*
X167490256Y-121482795D01*
X167301898Y-121404774D01*
X167101939Y-121365000D01*
X166898061Y-121365000D01*
X166698102Y-121404774D01*
X166509744Y-121482795D01*
X166340226Y-121596063D01*
X166196063Y-121740226D01*
X166082795Y-121909744D01*
X166004774Y-122098102D01*
X165965000Y-122298061D01*
X162313104Y-122298061D01*
X162290256Y-122282795D01*
X162101898Y-122204774D01*
X161901939Y-122165000D01*
X161698061Y-122165000D01*
X161498102Y-122204774D01*
X161309744Y-122282795D01*
X161140226Y-122396063D01*
X160996063Y-122540226D01*
X160882795Y-122709744D01*
X160804774Y-122898102D01*
X160765000Y-123098061D01*
X160765000Y-123301939D01*
X160804774Y-123501898D01*
X160882795Y-123690256D01*
X160996063Y-123859774D01*
X161140226Y-124003937D01*
X161309744Y-124117205D01*
X161498102Y-124195226D01*
X161698061Y-124235000D01*
X161701289Y-124235000D01*
X161596063Y-124340226D01*
X161482795Y-124509744D01*
X161447882Y-124594030D01*
X161301939Y-124565000D01*
X161098061Y-124565000D01*
X160898102Y-124604774D01*
X160709744Y-124682795D01*
X160540226Y-124796063D01*
X160396063Y-124940226D01*
X160282795Y-125109744D01*
X160204774Y-125298102D01*
X160165000Y-125498061D01*
X160165000Y-125701939D01*
X160204774Y-125901898D01*
X160282795Y-126090256D01*
X160396063Y-126259774D01*
X160540226Y-126403937D01*
X160683995Y-126500000D01*
X160540226Y-126596063D01*
X160396063Y-126740226D01*
X160282795Y-126909744D01*
X160204774Y-127098102D01*
X160165000Y-127298061D01*
X160165000Y-127501939D01*
X160204774Y-127701898D01*
X160282795Y-127890256D01*
X160396063Y-128059774D01*
X160455397Y-128119108D01*
X160340226Y-128196063D01*
X160300000Y-128236289D01*
X160259774Y-128196063D01*
X160090256Y-128082795D01*
X159901898Y-128004774D01*
X159701939Y-127965000D01*
X159498061Y-127965000D01*
X159298102Y-128004774D01*
X159258130Y-128021331D01*
X159203937Y-127940226D01*
X159059774Y-127796063D01*
X158890256Y-127682795D01*
X158701898Y-127604774D01*
X158501939Y-127565000D01*
X158298061Y-127565000D01*
X158098102Y-127604774D01*
X157909744Y-127682795D01*
X157740226Y-127796063D01*
X157596063Y-127940226D01*
X157482795Y-128109744D01*
X157404774Y-128298102D01*
X157365000Y-128498061D01*
X157365000Y-128577544D01*
X157301939Y-128565000D01*
X157098061Y-128565000D01*
X156898102Y-128604774D01*
X156709744Y-128682795D01*
X156540226Y-128796063D01*
X156396063Y-128940226D01*
X156319108Y-129055397D01*
X156259774Y-128996063D01*
X156090256Y-128882795D01*
X155901898Y-128804774D01*
X155701939Y-128765000D01*
X155498061Y-128765000D01*
X155298102Y-128804774D01*
X155109744Y-128882795D01*
X154940226Y-128996063D01*
X154796063Y-129140226D01*
X154682795Y-129309744D01*
X154604774Y-129498102D01*
X154565000Y-129698061D01*
X144660000Y-129698061D01*
X144660000Y-127098061D01*
X144765000Y-127098061D01*
X144765000Y-127301939D01*
X144804774Y-127501898D01*
X144882795Y-127690256D01*
X144996063Y-127859774D01*
X145140226Y-128003937D01*
X145309744Y-128117205D01*
X145498102Y-128195226D01*
X145698061Y-128235000D01*
X145901939Y-128235000D01*
X146101898Y-128195226D01*
X146290256Y-128117205D01*
X146459774Y-128003937D01*
X146603937Y-127859774D01*
X146717205Y-127690256D01*
X146795226Y-127501898D01*
X146835000Y-127301939D01*
X146835000Y-127098061D01*
X146795226Y-126898102D01*
X146717205Y-126709744D01*
X146603937Y-126540226D01*
X146459774Y-126396063D01*
X146290256Y-126282795D01*
X146101898Y-126204774D01*
X145901939Y-126165000D01*
X145698061Y-126165000D01*
X145498102Y-126204774D01*
X145309744Y-126282795D01*
X145140226Y-126396063D01*
X144996063Y-126540226D01*
X144882795Y-126709744D01*
X144804774Y-126898102D01*
X144765000Y-127098061D01*
X144660000Y-127098061D01*
X144660000Y-126098061D01*
X147965000Y-126098061D01*
X147965000Y-126301939D01*
X148004774Y-126501898D01*
X148082795Y-126690256D01*
X148196063Y-126859774D01*
X148340226Y-127003937D01*
X148509744Y-127117205D01*
X148698102Y-127195226D01*
X148898061Y-127235000D01*
X149101939Y-127235000D01*
X149287645Y-127198061D01*
X155565000Y-127198061D01*
X155565000Y-127401939D01*
X155604774Y-127601898D01*
X155682795Y-127790256D01*
X155796063Y-127959774D01*
X155940226Y-128103937D01*
X156109744Y-128217205D01*
X156298102Y-128295226D01*
X156498061Y-128335000D01*
X156701939Y-128335000D01*
X156901898Y-128295226D01*
X157090256Y-128217205D01*
X157259774Y-128103937D01*
X157403937Y-127959774D01*
X157517205Y-127790256D01*
X157595226Y-127601898D01*
X157635000Y-127401939D01*
X157635000Y-127198061D01*
X157595226Y-126998102D01*
X157517205Y-126809744D01*
X157403937Y-126640226D01*
X157259774Y-126496063D01*
X157090256Y-126382795D01*
X156901898Y-126304774D01*
X156701939Y-126265000D01*
X156498061Y-126265000D01*
X156298102Y-126304774D01*
X156109744Y-126382795D01*
X155940226Y-126496063D01*
X155796063Y-126640226D01*
X155682795Y-126809744D01*
X155604774Y-126998102D01*
X155565000Y-127198061D01*
X149287645Y-127198061D01*
X149301898Y-127195226D01*
X149490256Y-127117205D01*
X149659774Y-127003937D01*
X149803937Y-126859774D01*
X149917205Y-126690256D01*
X149995226Y-126501898D01*
X150035000Y-126301939D01*
X150035000Y-126098061D01*
X149995226Y-125898102D01*
X149917205Y-125709744D01*
X149803937Y-125540226D01*
X149761772Y-125498061D01*
X150165000Y-125498061D01*
X150165000Y-125701939D01*
X150204774Y-125901898D01*
X150282795Y-126090256D01*
X150396063Y-126259774D01*
X150540226Y-126403937D01*
X150709744Y-126517205D01*
X150898102Y-126595226D01*
X151098061Y-126635000D01*
X151301939Y-126635000D01*
X151501898Y-126595226D01*
X151690256Y-126517205D01*
X151859774Y-126403937D01*
X152003937Y-126259774D01*
X152117205Y-126090256D01*
X152195226Y-125901898D01*
X152235000Y-125701939D01*
X152235000Y-125498061D01*
X152195226Y-125298102D01*
X152117205Y-125109744D01*
X152003937Y-124940226D01*
X151859774Y-124796063D01*
X151690256Y-124682795D01*
X151501898Y-124604774D01*
X151301939Y-124565000D01*
X151098061Y-124565000D01*
X150898102Y-124604774D01*
X150709744Y-124682795D01*
X150540226Y-124796063D01*
X150396063Y-124940226D01*
X150282795Y-125109744D01*
X150204774Y-125298102D01*
X150165000Y-125498061D01*
X149761772Y-125498061D01*
X149659774Y-125396063D01*
X149490256Y-125282795D01*
X149301898Y-125204774D01*
X149101939Y-125165000D01*
X148898061Y-125165000D01*
X148698102Y-125204774D01*
X148509744Y-125282795D01*
X148340226Y-125396063D01*
X148196063Y-125540226D01*
X148082795Y-125709744D01*
X148004774Y-125898102D01*
X147965000Y-126098061D01*
X144660000Y-126098061D01*
X144660000Y-123498061D01*
X154165000Y-123498061D01*
X154165000Y-123701939D01*
X154204774Y-123901898D01*
X154282795Y-124090256D01*
X154396063Y-124259774D01*
X154540226Y-124403937D01*
X154709744Y-124517205D01*
X154898102Y-124595226D01*
X155098061Y-124635000D01*
X155301939Y-124635000D01*
X155501898Y-124595226D01*
X155690256Y-124517205D01*
X155859774Y-124403937D01*
X155965000Y-124298711D01*
X155965000Y-124501939D01*
X156004774Y-124701898D01*
X156082795Y-124890256D01*
X156196063Y-125059774D01*
X156340226Y-125203937D01*
X156509744Y-125317205D01*
X156698102Y-125395226D01*
X156898061Y-125435000D01*
X157101939Y-125435000D01*
X157301898Y-125395226D01*
X157490256Y-125317205D01*
X157659774Y-125203937D01*
X157803937Y-125059774D01*
X157917205Y-124890256D01*
X157995226Y-124701898D01*
X158002354Y-124666065D01*
X158140226Y-124803937D01*
X158309744Y-124917205D01*
X158498102Y-124995226D01*
X158698061Y-125035000D01*
X158901939Y-125035000D01*
X159101898Y-124995226D01*
X159290256Y-124917205D01*
X159459774Y-124803937D01*
X159603937Y-124659774D01*
X159717205Y-124490256D01*
X159795226Y-124301898D01*
X159835000Y-124101939D01*
X159835000Y-123898061D01*
X159795226Y-123698102D01*
X159717205Y-123509744D01*
X159603937Y-123340226D01*
X159459774Y-123196063D01*
X159290256Y-123082795D01*
X159101898Y-123004774D01*
X158901939Y-122965000D01*
X158698061Y-122965000D01*
X158498102Y-123004774D01*
X158309744Y-123082795D01*
X158140226Y-123196063D01*
X157996063Y-123340226D01*
X157882795Y-123509744D01*
X157804774Y-123698102D01*
X157797646Y-123733935D01*
X157659774Y-123596063D01*
X157490256Y-123482795D01*
X157301898Y-123404774D01*
X157101939Y-123365000D01*
X156898061Y-123365000D01*
X156698102Y-123404774D01*
X156509744Y-123482795D01*
X156340226Y-123596063D01*
X156235000Y-123701289D01*
X156235000Y-123498061D01*
X156195226Y-123298102D01*
X156117205Y-123109744D01*
X156003937Y-122940226D01*
X155859774Y-122796063D01*
X155690256Y-122682795D01*
X155501898Y-122604774D01*
X155301939Y-122565000D01*
X155098061Y-122565000D01*
X154898102Y-122604774D01*
X154709744Y-122682795D01*
X154540226Y-122796063D01*
X154396063Y-122940226D01*
X154282795Y-123109744D01*
X154204774Y-123298102D01*
X154165000Y-123498061D01*
X144660000Y-123498061D01*
X144660000Y-119498061D01*
X145165000Y-119498061D01*
X145165000Y-119701939D01*
X145204774Y-119901898D01*
X145282795Y-120090256D01*
X145396063Y-120259774D01*
X145540226Y-120403937D01*
X145709744Y-120517205D01*
X145898102Y-120595226D01*
X146098061Y-120635000D01*
X146301939Y-120635000D01*
X146501898Y-120595226D01*
X146690256Y-120517205D01*
X146859774Y-120403937D01*
X147003937Y-120259774D01*
X147117205Y-120090256D01*
X147195226Y-119901898D01*
X147235000Y-119701939D01*
X147235000Y-119498061D01*
X147195226Y-119298102D01*
X147117205Y-119109744D01*
X147003937Y-118940226D01*
X146859774Y-118796063D01*
X146690256Y-118682795D01*
X146501898Y-118604774D01*
X146301939Y-118565000D01*
X146098061Y-118565000D01*
X145898102Y-118604774D01*
X145709744Y-118682795D01*
X145540226Y-118796063D01*
X145396063Y-118940226D01*
X145282795Y-119109744D01*
X145204774Y-119298102D01*
X145165000Y-119498061D01*
X144660000Y-119498061D01*
X144660000Y-117898061D01*
X150765000Y-117898061D01*
X150765000Y-118101939D01*
X150804774Y-118301898D01*
X150882795Y-118490256D01*
X150996063Y-118659774D01*
X151140226Y-118803937D01*
X151309744Y-118917205D01*
X151498102Y-118995226D01*
X151698061Y-119035000D01*
X151901939Y-119035000D01*
X152101898Y-118995226D01*
X152290256Y-118917205D01*
X152459774Y-118803937D01*
X152603937Y-118659774D01*
X152717205Y-118490256D01*
X152795226Y-118301898D01*
X152795989Y-118298061D01*
X153565000Y-118298061D01*
X153565000Y-118501939D01*
X153604774Y-118701898D01*
X153682795Y-118890256D01*
X153796063Y-119059774D01*
X153940226Y-119203937D01*
X154109744Y-119317205D01*
X154298102Y-119395226D01*
X154498061Y-119435000D01*
X154701939Y-119435000D01*
X154901898Y-119395226D01*
X155090256Y-119317205D01*
X155259774Y-119203937D01*
X155403937Y-119059774D01*
X155517205Y-118890256D01*
X155595226Y-118701898D01*
X155635000Y-118501939D01*
X155635000Y-118298061D01*
X155595226Y-118098102D01*
X155517205Y-117909744D01*
X155403937Y-117740226D01*
X155259774Y-117596063D01*
X155090256Y-117482795D01*
X154901898Y-117404774D01*
X154701939Y-117365000D01*
X154498061Y-117365000D01*
X154298102Y-117404774D01*
X154109744Y-117482795D01*
X153940226Y-117596063D01*
X153796063Y-117740226D01*
X153682795Y-117909744D01*
X153604774Y-118098102D01*
X153565000Y-118298061D01*
X152795989Y-118298061D01*
X152835000Y-118101939D01*
X152835000Y-117898061D01*
X152795226Y-117698102D01*
X152717205Y-117509744D01*
X152603937Y-117340226D01*
X152459774Y-117196063D01*
X152290256Y-117082795D01*
X152101898Y-117004774D01*
X151901939Y-116965000D01*
X151698061Y-116965000D01*
X151498102Y-117004774D01*
X151309744Y-117082795D01*
X151140226Y-117196063D01*
X150996063Y-117340226D01*
X150882795Y-117509744D01*
X150804774Y-117698102D01*
X150765000Y-117898061D01*
X144660000Y-117898061D01*
X144660000Y-115498061D01*
X154765000Y-115498061D01*
X154765000Y-115701939D01*
X154804774Y-115901898D01*
X154882795Y-116090256D01*
X154996063Y-116259774D01*
X155140226Y-116403937D01*
X155309744Y-116517205D01*
X155498102Y-116595226D01*
X155698061Y-116635000D01*
X155901939Y-116635000D01*
X156101898Y-116595226D01*
X156290256Y-116517205D01*
X156459774Y-116403937D01*
X156603937Y-116259774D01*
X156717205Y-116090256D01*
X156795226Y-115901898D01*
X156835000Y-115701939D01*
X156835000Y-115498061D01*
X156795226Y-115298102D01*
X156717205Y-115109744D01*
X156603937Y-114940226D01*
X156459774Y-114796063D01*
X156290256Y-114682795D01*
X156101898Y-114604774D01*
X155901939Y-114565000D01*
X155698061Y-114565000D01*
X155498102Y-114604774D01*
X155309744Y-114682795D01*
X155140226Y-114796063D01*
X154996063Y-114940226D01*
X154882795Y-115109744D01*
X154804774Y-115298102D01*
X154765000Y-115498061D01*
X144660000Y-115498061D01*
X144660000Y-113098061D01*
X149565000Y-113098061D01*
X149565000Y-113301939D01*
X149604774Y-113501898D01*
X149682795Y-113690256D01*
X149796063Y-113859774D01*
X149940226Y-114003937D01*
X150109744Y-114117205D01*
X150298102Y-114195226D01*
X150498061Y-114235000D01*
X150701939Y-114235000D01*
X150901898Y-114195226D01*
X151090256Y-114117205D01*
X151259774Y-114003937D01*
X151403937Y-113859774D01*
X151517205Y-113690256D01*
X151595226Y-113501898D01*
X151635000Y-113301939D01*
X151635000Y-113098061D01*
X151595226Y-112898102D01*
X151517205Y-112709744D01*
X151403937Y-112540226D01*
X151259774Y-112396063D01*
X151090256Y-112282795D01*
X150901898Y-112204774D01*
X150701939Y-112165000D01*
X150498061Y-112165000D01*
X150298102Y-112204774D01*
X150109744Y-112282795D01*
X149940226Y-112396063D01*
X149796063Y-112540226D01*
X149682795Y-112709744D01*
X149604774Y-112898102D01*
X149565000Y-113098061D01*
X144660000Y-113098061D01*
X144660000Y-111748061D01*
X157295000Y-111748061D01*
X157295000Y-111951939D01*
X157334774Y-112151898D01*
X157412795Y-112340256D01*
X157526063Y-112509774D01*
X157670226Y-112653937D01*
X157839744Y-112767205D01*
X158028102Y-112845226D01*
X158228061Y-112885000D01*
X158431939Y-112885000D01*
X158631898Y-112845226D01*
X158820256Y-112767205D01*
X158989774Y-112653937D01*
X159012729Y-112630982D01*
X159178531Y-112879122D01*
X159420878Y-113121469D01*
X159705848Y-113311880D01*
X160022490Y-113443037D01*
X160358635Y-113509900D01*
X160701365Y-113509900D01*
X160765000Y-113497242D01*
X160765000Y-113501939D01*
X160804774Y-113701898D01*
X160882795Y-113890256D01*
X160956123Y-114000000D01*
X160882795Y-114109744D01*
X160804774Y-114298102D01*
X160765000Y-114498061D01*
X160765000Y-114701939D01*
X160804774Y-114901898D01*
X160882795Y-115090256D01*
X160956123Y-115200000D01*
X160882795Y-115309744D01*
X160804774Y-115498102D01*
X160765000Y-115698061D01*
X160765000Y-115901939D01*
X160804774Y-116101898D01*
X160882795Y-116290256D01*
X160956123Y-116400000D01*
X160882795Y-116509744D01*
X160804774Y-116698102D01*
X160765000Y-116898061D01*
X160765000Y-117101939D01*
X160804774Y-117301898D01*
X160882795Y-117490256D01*
X160956123Y-117600000D01*
X160882795Y-117709744D01*
X160804774Y-117898102D01*
X160765000Y-118098061D01*
X160765000Y-118301939D01*
X160804774Y-118501898D01*
X160882795Y-118690256D01*
X160956123Y-118800000D01*
X160882795Y-118909744D01*
X160804774Y-119098102D01*
X160765000Y-119298061D01*
X160765000Y-119501939D01*
X160804774Y-119701898D01*
X160882795Y-119890256D01*
X160996063Y-120059774D01*
X161140226Y-120203937D01*
X161309744Y-120317205D01*
X161498102Y-120395226D01*
X161698061Y-120435000D01*
X161901939Y-120435000D01*
X162087645Y-120398061D01*
X163465000Y-120398061D01*
X163465000Y-120601939D01*
X163504774Y-120801898D01*
X163582795Y-120990256D01*
X163696063Y-121159774D01*
X163840226Y-121303937D01*
X164009744Y-121417205D01*
X164198102Y-121495226D01*
X164398061Y-121535000D01*
X164601939Y-121535000D01*
X164801898Y-121495226D01*
X164990256Y-121417205D01*
X165159774Y-121303937D01*
X165277160Y-121186551D01*
X165298102Y-121195226D01*
X165498061Y-121235000D01*
X165701939Y-121235000D01*
X165901898Y-121195226D01*
X166090256Y-121117205D01*
X166259774Y-121003937D01*
X166403937Y-120859774D01*
X166517205Y-120690256D01*
X166595226Y-120501898D01*
X166635000Y-120301939D01*
X166635000Y-120208533D01*
X166701898Y-120195226D01*
X166890256Y-120117205D01*
X167059774Y-120003937D01*
X167203937Y-119859774D01*
X167317205Y-119690256D01*
X167395226Y-119501898D01*
X167435000Y-119301939D01*
X167435000Y-119098061D01*
X168365000Y-119098061D01*
X168365000Y-119301939D01*
X168404774Y-119501898D01*
X168482795Y-119690256D01*
X168596063Y-119859774D01*
X168740226Y-120003937D01*
X168909744Y-120117205D01*
X169098102Y-120195226D01*
X169298061Y-120235000D01*
X169501939Y-120235000D01*
X169701898Y-120195226D01*
X169890256Y-120117205D01*
X170059774Y-120003937D01*
X170203937Y-119859774D01*
X170317205Y-119690256D01*
X170395226Y-119501898D01*
X170435000Y-119301939D01*
X170435000Y-119098061D01*
X170395226Y-118898102D01*
X170317205Y-118709744D01*
X170203937Y-118540226D01*
X170059774Y-118396063D01*
X169890256Y-118282795D01*
X169701898Y-118204774D01*
X169501939Y-118165000D01*
X169298061Y-118165000D01*
X169098102Y-118204774D01*
X168909744Y-118282795D01*
X168740226Y-118396063D01*
X168596063Y-118540226D01*
X168482795Y-118709744D01*
X168404774Y-118898102D01*
X168365000Y-119098061D01*
X167435000Y-119098061D01*
X167395226Y-118898102D01*
X167317205Y-118709744D01*
X167203937Y-118540226D01*
X167059774Y-118396063D01*
X166890256Y-118282795D01*
X166805970Y-118247882D01*
X166835000Y-118101939D01*
X166835000Y-117898061D01*
X166795226Y-117698102D01*
X166717205Y-117509744D01*
X166603937Y-117340226D01*
X166459774Y-117196063D01*
X166290256Y-117082795D01*
X166101898Y-117004774D01*
X165901939Y-116965000D01*
X165698061Y-116965000D01*
X165498102Y-117004774D01*
X165458130Y-117021331D01*
X165443877Y-117000000D01*
X165517205Y-116890256D01*
X165595226Y-116701898D01*
X165635000Y-116501939D01*
X165635000Y-116298061D01*
X165595226Y-116098102D01*
X165557508Y-116007042D01*
X165698061Y-116035000D01*
X165901939Y-116035000D01*
X166101898Y-115995226D01*
X166290256Y-115917205D01*
X166459774Y-115803937D01*
X166603937Y-115659774D01*
X166711989Y-115498061D01*
X168965000Y-115498061D01*
X168965000Y-115701939D01*
X169004774Y-115901898D01*
X169082795Y-116090256D01*
X169196063Y-116259774D01*
X169340226Y-116403937D01*
X169509744Y-116517205D01*
X169698102Y-116595226D01*
X169898061Y-116635000D01*
X170101939Y-116635000D01*
X170301898Y-116595226D01*
X170490256Y-116517205D01*
X170659774Y-116403937D01*
X170803937Y-116259774D01*
X170917205Y-116090256D01*
X170995226Y-115901898D01*
X171035000Y-115701939D01*
X171035000Y-115498061D01*
X170995226Y-115298102D01*
X170995210Y-115298061D01*
X182165000Y-115298061D01*
X182165000Y-115501939D01*
X182204774Y-115701898D01*
X182282795Y-115890256D01*
X182396063Y-116059774D01*
X182540226Y-116203937D01*
X182709744Y-116317205D01*
X182898102Y-116395226D01*
X183098061Y-116435000D01*
X183301939Y-116435000D01*
X183501898Y-116395226D01*
X183690256Y-116317205D01*
X183859774Y-116203937D01*
X184003937Y-116059774D01*
X184117205Y-115890256D01*
X184195226Y-115701898D01*
X184235000Y-115501939D01*
X184235000Y-115298061D01*
X184195226Y-115098102D01*
X184117205Y-114909744D01*
X184003937Y-114740226D01*
X183859774Y-114596063D01*
X183690256Y-114482795D01*
X183501898Y-114404774D01*
X183301939Y-114365000D01*
X183098061Y-114365000D01*
X182898102Y-114404774D01*
X182709744Y-114482795D01*
X182540226Y-114596063D01*
X182396063Y-114740226D01*
X182282795Y-114909744D01*
X182204774Y-115098102D01*
X182165000Y-115298061D01*
X170995210Y-115298061D01*
X170917205Y-115109744D01*
X170803937Y-114940226D01*
X170659774Y-114796063D01*
X170490256Y-114682795D01*
X170301898Y-114604774D01*
X170101939Y-114565000D01*
X169898061Y-114565000D01*
X169698102Y-114604774D01*
X169509744Y-114682795D01*
X169340226Y-114796063D01*
X169196063Y-114940226D01*
X169082795Y-115109744D01*
X169004774Y-115298102D01*
X168965000Y-115498061D01*
X166711989Y-115498061D01*
X166717205Y-115490256D01*
X166795226Y-115301898D01*
X166835000Y-115101939D01*
X166835000Y-114940093D01*
X166890256Y-114917205D01*
X167059774Y-114803937D01*
X167203937Y-114659774D01*
X167317205Y-114490256D01*
X167395226Y-114301898D01*
X167435000Y-114101939D01*
X167435000Y-113898061D01*
X167395226Y-113698102D01*
X167317205Y-113509744D01*
X167203937Y-113340226D01*
X167059774Y-113196063D01*
X166913104Y-113098061D01*
X172365000Y-113098061D01*
X172365000Y-113301939D01*
X172404774Y-113501898D01*
X172482795Y-113690256D01*
X172596063Y-113859774D01*
X172740226Y-114003937D01*
X172909744Y-114117205D01*
X173098102Y-114195226D01*
X173298061Y-114235000D01*
X173501939Y-114235000D01*
X173701898Y-114195226D01*
X173890256Y-114117205D01*
X174059774Y-114003937D01*
X174203937Y-113859774D01*
X174317205Y-113690256D01*
X174395226Y-113501898D01*
X174435000Y-113301939D01*
X174435000Y-113098061D01*
X174395226Y-112898102D01*
X174395210Y-112898061D01*
X176365000Y-112898061D01*
X176365000Y-113101939D01*
X176404774Y-113301898D01*
X176482795Y-113490256D01*
X176596063Y-113659774D01*
X176740226Y-113803937D01*
X176909744Y-113917205D01*
X177098102Y-113995226D01*
X177298061Y-114035000D01*
X177501939Y-114035000D01*
X177701898Y-113995226D01*
X177890256Y-113917205D01*
X178059774Y-113803937D01*
X178203937Y-113659774D01*
X178311989Y-113498061D01*
X185765000Y-113498061D01*
X185765000Y-113701939D01*
X185804774Y-113901898D01*
X185882795Y-114090256D01*
X185996063Y-114259774D01*
X186140226Y-114403937D01*
X186309744Y-114517205D01*
X186498102Y-114595226D01*
X186698061Y-114635000D01*
X186901939Y-114635000D01*
X187101898Y-114595226D01*
X187290256Y-114517205D01*
X187459774Y-114403937D01*
X187603937Y-114259774D01*
X187711989Y-114098061D01*
X190165000Y-114098061D01*
X190165000Y-114301939D01*
X190204774Y-114501898D01*
X190282795Y-114690256D01*
X190396063Y-114859774D01*
X190540226Y-115003937D01*
X190709744Y-115117205D01*
X190898102Y-115195226D01*
X191098061Y-115235000D01*
X191301939Y-115235000D01*
X191501898Y-115195226D01*
X191690256Y-115117205D01*
X191859774Y-115003937D01*
X192003937Y-114859774D01*
X192117205Y-114690256D01*
X192195226Y-114501898D01*
X192235000Y-114301939D01*
X192235000Y-114098061D01*
X192195226Y-113898102D01*
X192117205Y-113709744D01*
X192003937Y-113540226D01*
X191859774Y-113396063D01*
X191690256Y-113282795D01*
X191501898Y-113204774D01*
X191301939Y-113165000D01*
X191098061Y-113165000D01*
X190898102Y-113204774D01*
X190709744Y-113282795D01*
X190540226Y-113396063D01*
X190396063Y-113540226D01*
X190282795Y-113709744D01*
X190204774Y-113898102D01*
X190165000Y-114098061D01*
X187711989Y-114098061D01*
X187717205Y-114090256D01*
X187795226Y-113901898D01*
X187835000Y-113701939D01*
X187835000Y-113498061D01*
X187795226Y-113298102D01*
X187717205Y-113109744D01*
X187603937Y-112940226D01*
X187459774Y-112796063D01*
X187290256Y-112682795D01*
X187101898Y-112604774D01*
X186901939Y-112565000D01*
X186698061Y-112565000D01*
X186498102Y-112604774D01*
X186309744Y-112682795D01*
X186140226Y-112796063D01*
X185996063Y-112940226D01*
X185882795Y-113109744D01*
X185804774Y-113298102D01*
X185765000Y-113498061D01*
X178311989Y-113498061D01*
X178317205Y-113490256D01*
X178395226Y-113301898D01*
X178435000Y-113101939D01*
X178435000Y-112898061D01*
X178395226Y-112698102D01*
X178317205Y-112509744D01*
X178203937Y-112340226D01*
X178059774Y-112196063D01*
X177890256Y-112082795D01*
X177701898Y-112004774D01*
X177501939Y-111965000D01*
X177298061Y-111965000D01*
X177098102Y-112004774D01*
X176909744Y-112082795D01*
X176740226Y-112196063D01*
X176596063Y-112340226D01*
X176482795Y-112509744D01*
X176404774Y-112698102D01*
X176365000Y-112898061D01*
X174395210Y-112898061D01*
X174317205Y-112709744D01*
X174203937Y-112540226D01*
X174059774Y-112396063D01*
X173890256Y-112282795D01*
X173701898Y-112204774D01*
X173501939Y-112165000D01*
X173298061Y-112165000D01*
X173098102Y-112204774D01*
X172909744Y-112282795D01*
X172740226Y-112396063D01*
X172596063Y-112540226D01*
X172482795Y-112709744D01*
X172404774Y-112898102D01*
X172365000Y-113098061D01*
X166913104Y-113098061D01*
X166890256Y-113082795D01*
X166796593Y-113043998D01*
X166961469Y-112879122D01*
X167095973Y-112677822D01*
X167229744Y-112767205D01*
X167418102Y-112845226D01*
X167618061Y-112885000D01*
X167821939Y-112885000D01*
X168021898Y-112845226D01*
X168210256Y-112767205D01*
X168379774Y-112653937D01*
X168523937Y-112509774D01*
X168637205Y-112340256D01*
X168715226Y-112151898D01*
X168755000Y-111951939D01*
X168755000Y-111748061D01*
X168715226Y-111548102D01*
X168637205Y-111359744D01*
X168523937Y-111190226D01*
X168379774Y-111046063D01*
X168210256Y-110932795D01*
X168021898Y-110854774D01*
X167821939Y-110815000D01*
X167618061Y-110815000D01*
X167418102Y-110854774D01*
X167229744Y-110932795D01*
X167164524Y-110976373D01*
X167151880Y-110945848D01*
X166961469Y-110660878D01*
X166719122Y-110418531D01*
X166538827Y-110298061D01*
X187965000Y-110298061D01*
X187965000Y-110501939D01*
X188004774Y-110701898D01*
X188082795Y-110890256D01*
X188196063Y-111059774D01*
X188340226Y-111203937D01*
X188509744Y-111317205D01*
X188698102Y-111395226D01*
X188898061Y-111435000D01*
X189101939Y-111435000D01*
X189301898Y-111395226D01*
X189490256Y-111317205D01*
X189659774Y-111203937D01*
X189803937Y-111059774D01*
X189917205Y-110890256D01*
X189995226Y-110701898D01*
X190035000Y-110501939D01*
X190035000Y-110298061D01*
X189995226Y-110098102D01*
X189917205Y-109909744D01*
X189803937Y-109740226D01*
X189659774Y-109596063D01*
X189490256Y-109482795D01*
X189301898Y-109404774D01*
X189101939Y-109365000D01*
X188898061Y-109365000D01*
X188698102Y-109404774D01*
X188509744Y-109482795D01*
X188340226Y-109596063D01*
X188196063Y-109740226D01*
X188082795Y-109909744D01*
X188004774Y-110098102D01*
X187965000Y-110298061D01*
X166538827Y-110298061D01*
X166434152Y-110228120D01*
X166117510Y-110096963D01*
X165781365Y-110030100D01*
X165438635Y-110030100D01*
X165102490Y-110096963D01*
X164785848Y-110228120D01*
X164500878Y-110418531D01*
X164258531Y-110660878D01*
X164068120Y-110945848D01*
X163936963Y-111262490D01*
X163870100Y-111598635D01*
X163870100Y-111941365D01*
X163936963Y-112277510D01*
X164068120Y-112594152D01*
X164258531Y-112879122D01*
X164500878Y-113121469D01*
X164785848Y-113311880D01*
X165102490Y-113443037D01*
X165438635Y-113509900D01*
X165482730Y-113509900D01*
X165404774Y-113698102D01*
X165365000Y-113898061D01*
X165365000Y-114059907D01*
X165309744Y-114082795D01*
X165140226Y-114196063D01*
X165064261Y-114272028D01*
X164901898Y-114204774D01*
X164701939Y-114165000D01*
X164498061Y-114165000D01*
X164298102Y-114204774D01*
X164109744Y-114282795D01*
X163940226Y-114396063D01*
X163796063Y-114540226D01*
X163682795Y-114709744D01*
X163604774Y-114898102D01*
X163565000Y-115098061D01*
X163565000Y-115301939D01*
X163604774Y-115501898D01*
X163682795Y-115690256D01*
X163756123Y-115800000D01*
X163682795Y-115909744D01*
X163604774Y-116098102D01*
X163565000Y-116298061D01*
X163565000Y-116501939D01*
X163604774Y-116701898D01*
X163682795Y-116890256D01*
X163756123Y-117000000D01*
X163682795Y-117109744D01*
X163604774Y-117298102D01*
X163565000Y-117498061D01*
X163565000Y-117701939D01*
X163604774Y-117901898D01*
X163682795Y-118090256D01*
X163796063Y-118259774D01*
X163940226Y-118403937D01*
X164109744Y-118517205D01*
X164298102Y-118595226D01*
X164498061Y-118635000D01*
X164701939Y-118635000D01*
X164901898Y-118595226D01*
X164941870Y-118578669D01*
X164996063Y-118659774D01*
X165140226Y-118803937D01*
X165309744Y-118917205D01*
X165394030Y-118952118D01*
X165365000Y-119098061D01*
X165365000Y-119191467D01*
X165298102Y-119204774D01*
X165109744Y-119282795D01*
X164940226Y-119396063D01*
X164822840Y-119513449D01*
X164801898Y-119504774D01*
X164601939Y-119465000D01*
X164398061Y-119465000D01*
X164198102Y-119504774D01*
X164009744Y-119582795D01*
X163840226Y-119696063D01*
X163696063Y-119840226D01*
X163582795Y-120009744D01*
X163504774Y-120198102D01*
X163465000Y-120398061D01*
X162087645Y-120398061D01*
X162101898Y-120395226D01*
X162290256Y-120317205D01*
X162459774Y-120203937D01*
X162603937Y-120059774D01*
X162717205Y-119890256D01*
X162795226Y-119701898D01*
X162835000Y-119501939D01*
X162835000Y-119298061D01*
X162795226Y-119098102D01*
X162717205Y-118909744D01*
X162643877Y-118800000D01*
X162717205Y-118690256D01*
X162795226Y-118501898D01*
X162835000Y-118301939D01*
X162835000Y-118098061D01*
X162795226Y-117898102D01*
X162717205Y-117709744D01*
X162643877Y-117600000D01*
X162717205Y-117490256D01*
X162795226Y-117301898D01*
X162835000Y-117101939D01*
X162835000Y-116898061D01*
X162795226Y-116698102D01*
X162717205Y-116509744D01*
X162643877Y-116400000D01*
X162717205Y-116290256D01*
X162795226Y-116101898D01*
X162835000Y-115901939D01*
X162835000Y-115698061D01*
X162795226Y-115498102D01*
X162717205Y-115309744D01*
X162643877Y-115200000D01*
X162717205Y-115090256D01*
X162795226Y-114901898D01*
X162835000Y-114701939D01*
X162835000Y-114498061D01*
X162795226Y-114298102D01*
X162717205Y-114109744D01*
X162643877Y-114000000D01*
X162717205Y-113890256D01*
X162795226Y-113701898D01*
X162835000Y-113501939D01*
X162835000Y-113298061D01*
X162795226Y-113098102D01*
X162717205Y-112909744D01*
X162603937Y-112740226D01*
X162459774Y-112596063D01*
X162290256Y-112482795D01*
X162143231Y-112421895D01*
X162203037Y-112277510D01*
X162269900Y-111941365D01*
X162269900Y-111598635D01*
X162203037Y-111262490D01*
X162071880Y-110945848D01*
X161881469Y-110660878D01*
X161639122Y-110418531D01*
X161354152Y-110228120D01*
X161037510Y-110096963D01*
X160701365Y-110030100D01*
X160358635Y-110030100D01*
X160022490Y-110096963D01*
X159705848Y-110228120D01*
X159420878Y-110418531D01*
X159178531Y-110660878D01*
X158988120Y-110945848D01*
X158955967Y-111023474D01*
X158820256Y-110932795D01*
X158631898Y-110854774D01*
X158431939Y-110815000D01*
X158228061Y-110815000D01*
X158028102Y-110854774D01*
X157839744Y-110932795D01*
X157670226Y-111046063D01*
X157526063Y-111190226D01*
X157412795Y-111359744D01*
X157334774Y-111548102D01*
X157295000Y-111748061D01*
X144660000Y-111748061D01*
X144660000Y-110498061D01*
X146565000Y-110498061D01*
X146565000Y-110701939D01*
X146604774Y-110901898D01*
X146682795Y-111090256D01*
X146796063Y-111259774D01*
X146940226Y-111403937D01*
X147109744Y-111517205D01*
X147298102Y-111595226D01*
X147498061Y-111635000D01*
X147701939Y-111635000D01*
X147901898Y-111595226D01*
X148090256Y-111517205D01*
X148259774Y-111403937D01*
X148403937Y-111259774D01*
X148517205Y-111090256D01*
X148595226Y-110901898D01*
X148635000Y-110701939D01*
X148635000Y-110498061D01*
X148595226Y-110298102D01*
X148517205Y-110109744D01*
X148403937Y-109940226D01*
X148259774Y-109796063D01*
X148090256Y-109682795D01*
X147901898Y-109604774D01*
X147701939Y-109565000D01*
X147498061Y-109565000D01*
X147298102Y-109604774D01*
X147109744Y-109682795D01*
X146940226Y-109796063D01*
X146796063Y-109940226D01*
X146682795Y-110109744D01*
X146604774Y-110298102D01*
X146565000Y-110498061D01*
X144660000Y-110498061D01*
X144660000Y-109068642D01*
X161431700Y-109068642D01*
X161431700Y-109391358D01*
X161494659Y-109707874D01*
X161618157Y-110006026D01*
X161797449Y-110274355D01*
X162025645Y-110502551D01*
X162293974Y-110681843D01*
X162592126Y-110805341D01*
X162908642Y-110868300D01*
X163231358Y-110868300D01*
X163547874Y-110805341D01*
X163846026Y-110681843D01*
X164114355Y-110502551D01*
X164342551Y-110274355D01*
X164521843Y-110006026D01*
X164645341Y-109707874D01*
X164708300Y-109391358D01*
X164708300Y-109068642D01*
X164645341Y-108752126D01*
X164521843Y-108453974D01*
X164342551Y-108185645D01*
X164114355Y-107957449D01*
X163846026Y-107778157D01*
X163547874Y-107654659D01*
X163231358Y-107591700D01*
X162908642Y-107591700D01*
X162592126Y-107654659D01*
X162293974Y-107778157D01*
X162025645Y-107957449D01*
X161797449Y-108185645D01*
X161618157Y-108453974D01*
X161494659Y-108752126D01*
X161431700Y-109068642D01*
X144660000Y-109068642D01*
X144660000Y-107698061D01*
X149965000Y-107698061D01*
X149965000Y-107901939D01*
X150004774Y-108101898D01*
X150082795Y-108290256D01*
X150196063Y-108459774D01*
X150340226Y-108603937D01*
X150509744Y-108717205D01*
X150698102Y-108795226D01*
X150898061Y-108835000D01*
X151101939Y-108835000D01*
X151301898Y-108795226D01*
X151490256Y-108717205D01*
X151659774Y-108603937D01*
X151803937Y-108459774D01*
X151917205Y-108290256D01*
X151995226Y-108101898D01*
X152035000Y-107901939D01*
X152035000Y-107698061D01*
X151995226Y-107498102D01*
X151917205Y-107309744D01*
X151803937Y-107140226D01*
X151659774Y-106996063D01*
X151490256Y-106882795D01*
X151301898Y-106804774D01*
X151101939Y-106765000D01*
X150898061Y-106765000D01*
X150698102Y-106804774D01*
X150509744Y-106882795D01*
X150340226Y-106996063D01*
X150196063Y-107140226D01*
X150082795Y-107309744D01*
X150004774Y-107498102D01*
X149965000Y-107698061D01*
X144660000Y-107698061D01*
X144660000Y-105660000D01*
X158115485Y-105660000D01*
X157939744Y-105732795D01*
G37*
%TD.AperFunction*%
%TD*%
M02*
