%TF.GenerationSoftware,KiCad,Pcbnew,(5.1.10)-1*%
%TF.CreationDate,2022-03-06T21:17:49+00:00*%
%TF.ProjectId,main,6d61696e-2e6b-4696-9361-645f70636258,rev?*%
%TF.SameCoordinates,Original*%
%TF.FileFunction,Copper,L2,Inr*%
%TF.FilePolarity,Positive*%
%FSLAX46Y46*%
G04 Gerber Fmt 4.6, Leading zero omitted, Abs format (unit mm)*
G04 Created by KiCad (PCBNEW (5.1.10)-1) date 2022-03-06 21:17:49*
%MOMM*%
%LPD*%
G01*
G04 APERTURE LIST*
%TA.AperFunction,ComponentPad*%
%ADD10O,1.350000X1.700000*%
%TD*%
%TA.AperFunction,ComponentPad*%
%ADD11O,1.100000X1.500000*%
%TD*%
%TA.AperFunction,ComponentPad*%
%ADD12C,2.209800*%
%TD*%
%TA.AperFunction,ComponentPad*%
%ADD13C,2.006600*%
%TD*%
%TA.AperFunction,ComponentPad*%
%ADD14O,1.700000X1.700000*%
%TD*%
%TA.AperFunction,ComponentPad*%
%ADD15R,1.700000X1.700000*%
%TD*%
%TA.AperFunction,ViaPad*%
%ADD16C,0.800000*%
%TD*%
%TA.AperFunction,Conductor*%
%ADD17C,0.254000*%
%TD*%
%TA.AperFunction,Conductor*%
%ADD18C,0.100000*%
%TD*%
G04 APERTURE END LIST*
D10*
%TO.N,Net-(USB_PWR1-Pad6)*%
%TO.C,USB_PWR1*%
X171735000Y-143275000D03*
X166275000Y-143275000D03*
D11*
X171425000Y-140275000D03*
X166585000Y-140275000D03*
%TD*%
D12*
%TO.N,GND*%
%TO.C,J2*%
X165610000Y-106690000D03*
X165610000Y-111770000D03*
X160530000Y-111770000D03*
X160530000Y-106690000D03*
D13*
%TO.N,Net-(C8-Pad1)*%
X163070000Y-109230000D03*
%TD*%
D14*
%TO.N,I2C_SDA*%
%TO.C,J6*%
X177380000Y-108300000D03*
%TO.N,I2C_SCL*%
X179920000Y-108300000D03*
%TO.N,+3V3*%
X182460000Y-108300000D03*
D15*
%TO.N,GND*%
X185000000Y-108300000D03*
%TD*%
D14*
%TO.N,GND*%
%TO.C,J4*%
X172466000Y-119634000D03*
%TO.N,UART1_TX*%
X172466000Y-122174000D03*
D15*
%TO.N,UART1_RX*%
X172466000Y-124714000D03*
%TD*%
D14*
%TO.N,N/C*%
%TO.C,J1*%
X146655000Y-140725000D03*
%TO.N,RST*%
X149195000Y-140725000D03*
%TO.N,SWDIO*%
X151735000Y-140725000D03*
%TO.N,GND*%
X154275000Y-140725000D03*
%TO.N,SWCLK*%
X156815000Y-140725000D03*
D15*
%TO.N,+3V3*%
X159355000Y-140725000D03*
%TD*%
D16*
%TO.N,GND*%
X193000000Y-129200000D03*
X188000000Y-141800000D03*
X186400000Y-138000000D03*
X186200000Y-139500000D03*
X181800000Y-134500000D03*
X180600000Y-137000000D03*
X149600000Y-132600000D03*
X149000000Y-126200000D03*
X155200000Y-123600000D03*
X151800000Y-118000000D03*
X163400000Y-123600000D03*
X161800000Y-123200000D03*
X157000000Y-131400000D03*
X163200000Y-143600000D03*
X170400000Y-138800000D03*
X169400000Y-138800000D03*
X188800000Y-123000000D03*
X189200000Y-121600000D03*
X155600000Y-136800000D03*
X174400000Y-119500000D03*
X184900000Y-106300000D03*
X167720000Y-111850000D03*
X168070000Y-106610000D03*
X158430000Y-106650000D03*
X158330000Y-111850000D03*
X164500000Y-120500000D03*
X161800000Y-119400000D03*
X161800000Y-118200000D03*
X161800000Y-117000000D03*
X161800000Y-115800000D03*
X161800000Y-114600000D03*
X161800000Y-113400000D03*
X165600000Y-120200000D03*
X166400000Y-119200000D03*
X165800000Y-118000000D03*
X164600000Y-117600000D03*
X164600000Y-116400000D03*
X164600000Y-115200000D03*
X165800000Y-115000000D03*
X166400000Y-114000000D03*
X191400000Y-137600000D03*
X190600000Y-141800000D03*
X189800000Y-135600000D03*
X189000000Y-132000000D03*
X192000000Y-134800000D03*
X179200000Y-133200000D03*
X186600000Y-120400000D03*
X191200000Y-114200000D03*
X183200000Y-115400000D03*
X191800000Y-107400000D03*
X189000000Y-110400000D03*
X173400000Y-113200000D03*
X170000000Y-115600000D03*
X177400000Y-113000000D03*
X150600000Y-113200000D03*
X155800000Y-115600000D03*
X147600000Y-110600000D03*
X151000000Y-107800000D03*
X159600000Y-129000000D03*
X161000000Y-129000000D03*
X162400000Y-129000000D03*
X163000000Y-127800000D03*
X162800000Y-126200000D03*
X162400000Y-125000000D03*
X161200000Y-125600000D03*
X161200000Y-127400000D03*
X157200000Y-129600000D03*
X159600000Y-130200000D03*
X161000000Y-130200000D03*
X162400000Y-130200000D03*
X157000000Y-124400000D03*
X158800000Y-124000000D03*
X158400000Y-128600000D03*
X158200000Y-130600000D03*
X155600000Y-129800000D03*
X168800000Y-121400000D03*
X167000000Y-122400000D03*
X169400000Y-119200000D03*
X177000000Y-125000000D03*
X174200000Y-127000000D03*
X188000000Y-133200000D03*
X177000000Y-142200000D03*
X179200000Y-139800000D03*
X164200000Y-139000000D03*
X163600000Y-141400000D03*
X162400000Y-138800000D03*
X151200000Y-143400000D03*
X146200000Y-143800000D03*
X145600000Y-137800000D03*
X148400000Y-137800000D03*
X151600000Y-134200000D03*
X151200000Y-125600000D03*
X145800000Y-127200000D03*
X146200000Y-119600000D03*
X154600000Y-118400000D03*
X178000000Y-135400000D03*
X174600000Y-108000000D03*
X158400000Y-138000000D03*
X182000000Y-127600000D03*
X184400000Y-127000000D03*
X176000000Y-127200000D03*
X187400000Y-127200000D03*
X176600000Y-119600000D03*
X182800000Y-120000000D03*
X186800000Y-113600000D03*
X154200000Y-143000000D03*
%TO.N,+3V3*%
X186200000Y-134300000D03*
X154300000Y-136800000D03*
X182400000Y-106300000D03*
X171000000Y-127000000D03*
X170800000Y-134400000D03*
X151400000Y-137400000D03*
X191000000Y-129200000D03*
X192400000Y-120400000D03*
X161200000Y-141800000D03*
X158400000Y-143600000D03*
X155600000Y-131400000D03*
X186400000Y-136600000D03*
X186400000Y-135600000D03*
X180000000Y-141800000D03*
%TO.N,I2C_SDA*%
X171400000Y-132400000D03*
X178800000Y-124200000D03*
%TO.N,RST*%
X156600000Y-127300000D03*
X147000000Y-135700000D03*
%TD*%
D17*
%TO.N,GND*%
X159044668Y-105767824D02*
X158893302Y-106075317D01*
X158804832Y-106406432D01*
X158782659Y-106748444D01*
X158827635Y-107088211D01*
X158938033Y-107412674D01*
X159044668Y-107612176D01*
X159319796Y-107720599D01*
X160350395Y-106690000D01*
X160336253Y-106675858D01*
X160515858Y-106496253D01*
X160530000Y-106510395D01*
X160544143Y-106496253D01*
X160723748Y-106675858D01*
X160709605Y-106690000D01*
X161740204Y-107720599D01*
X162015332Y-107612176D01*
X162166698Y-107304683D01*
X162255168Y-106973568D01*
X162277341Y-106631556D01*
X162232365Y-106291789D01*
X162121967Y-105967326D01*
X162015332Y-105767824D01*
X161741724Y-105660000D01*
X164398276Y-105660000D01*
X164124668Y-105767824D01*
X163973302Y-106075317D01*
X163884832Y-106406432D01*
X163862659Y-106748444D01*
X163907635Y-107088211D01*
X164018033Y-107412674D01*
X164124668Y-107612176D01*
X164399796Y-107720599D01*
X165430395Y-106690000D01*
X165416253Y-106675858D01*
X165595858Y-106496253D01*
X165610000Y-106510395D01*
X165624143Y-106496253D01*
X165803748Y-106675858D01*
X165789605Y-106690000D01*
X166820204Y-107720599D01*
X167095332Y-107612176D01*
X167246698Y-107304683D01*
X167335168Y-106973568D01*
X167357341Y-106631556D01*
X167312365Y-106291789D01*
X167201967Y-105967326D01*
X167095332Y-105767824D01*
X166821724Y-105660000D01*
X181582850Y-105660000D01*
X181482795Y-105809744D01*
X181404774Y-105998102D01*
X181365000Y-106198061D01*
X181365000Y-106401939D01*
X181404774Y-106601898D01*
X181482795Y-106790256D01*
X181596063Y-106959774D01*
X181674889Y-107038600D01*
X181513368Y-107146525D01*
X181306525Y-107353368D01*
X181190000Y-107527760D01*
X181073475Y-107353368D01*
X180866632Y-107146525D01*
X180623411Y-106984010D01*
X180353158Y-106872068D01*
X180066260Y-106815000D01*
X179773740Y-106815000D01*
X179486842Y-106872068D01*
X179216589Y-106984010D01*
X178973368Y-107146525D01*
X178766525Y-107353368D01*
X178650000Y-107527760D01*
X178533475Y-107353368D01*
X178326632Y-107146525D01*
X178083411Y-106984010D01*
X177813158Y-106872068D01*
X177526260Y-106815000D01*
X177233740Y-106815000D01*
X176946842Y-106872068D01*
X176676589Y-106984010D01*
X176433368Y-107146525D01*
X176226525Y-107353368D01*
X176064010Y-107596589D01*
X175952068Y-107866842D01*
X175895000Y-108153740D01*
X175895000Y-108446260D01*
X175952068Y-108733158D01*
X176064010Y-109003411D01*
X176226525Y-109246632D01*
X176433368Y-109453475D01*
X176676589Y-109615990D01*
X176946842Y-109727932D01*
X177233740Y-109785000D01*
X177526260Y-109785000D01*
X177813158Y-109727932D01*
X178083411Y-109615990D01*
X178326632Y-109453475D01*
X178533475Y-109246632D01*
X178650000Y-109072240D01*
X178766525Y-109246632D01*
X178973368Y-109453475D01*
X179216589Y-109615990D01*
X179486842Y-109727932D01*
X179773740Y-109785000D01*
X180066260Y-109785000D01*
X180353158Y-109727932D01*
X180623411Y-109615990D01*
X180866632Y-109453475D01*
X181073475Y-109246632D01*
X181190000Y-109072240D01*
X181306525Y-109246632D01*
X181513368Y-109453475D01*
X181756589Y-109615990D01*
X182026842Y-109727932D01*
X182313740Y-109785000D01*
X182606260Y-109785000D01*
X182893158Y-109727932D01*
X183163411Y-109615990D01*
X183406632Y-109453475D01*
X183538487Y-109321620D01*
X183560498Y-109394180D01*
X183619463Y-109504494D01*
X183698815Y-109601185D01*
X183795506Y-109680537D01*
X183905820Y-109739502D01*
X184025518Y-109775812D01*
X184150000Y-109788072D01*
X184714250Y-109785000D01*
X184873000Y-109626250D01*
X184873000Y-108427000D01*
X185127000Y-108427000D01*
X185127000Y-109626250D01*
X185285750Y-109785000D01*
X185850000Y-109788072D01*
X185974482Y-109775812D01*
X186094180Y-109739502D01*
X186204494Y-109680537D01*
X186301185Y-109601185D01*
X186380537Y-109504494D01*
X186439502Y-109394180D01*
X186475812Y-109274482D01*
X186488072Y-109150000D01*
X186485000Y-108585750D01*
X186326250Y-108427000D01*
X185127000Y-108427000D01*
X184873000Y-108427000D01*
X184853000Y-108427000D01*
X184853000Y-108173000D01*
X184873000Y-108173000D01*
X184873000Y-106973750D01*
X185127000Y-106973750D01*
X185127000Y-108173000D01*
X186326250Y-108173000D01*
X186485000Y-108014250D01*
X186488072Y-107450000D01*
X186475812Y-107325518D01*
X186439502Y-107205820D01*
X186380537Y-107095506D01*
X186301185Y-106998815D01*
X186204494Y-106919463D01*
X186094180Y-106860498D01*
X185974482Y-106824188D01*
X185850000Y-106811928D01*
X185285750Y-106815000D01*
X185127000Y-106973750D01*
X184873000Y-106973750D01*
X184714250Y-106815000D01*
X184150000Y-106811928D01*
X184025518Y-106824188D01*
X183905820Y-106860498D01*
X183795506Y-106919463D01*
X183698815Y-106998815D01*
X183619463Y-107095506D01*
X183560498Y-107205820D01*
X183538487Y-107278380D01*
X183406632Y-107146525D01*
X183173176Y-106990535D01*
X183203937Y-106959774D01*
X183317205Y-106790256D01*
X183395226Y-106601898D01*
X183435000Y-106401939D01*
X183435000Y-106198061D01*
X183395226Y-105998102D01*
X183317205Y-105809744D01*
X183217150Y-105660000D01*
X193340000Y-105660000D01*
X193340000Y-119964777D01*
X193317205Y-119909744D01*
X193203937Y-119740226D01*
X193059774Y-119596063D01*
X192890256Y-119482795D01*
X192701898Y-119404774D01*
X192501939Y-119365000D01*
X192298061Y-119365000D01*
X192098102Y-119404774D01*
X191909744Y-119482795D01*
X191740226Y-119596063D01*
X191596063Y-119740226D01*
X191482795Y-119909744D01*
X191404774Y-120098102D01*
X191365000Y-120298061D01*
X191365000Y-120501939D01*
X191404774Y-120701898D01*
X191482795Y-120890256D01*
X191596063Y-121059774D01*
X191740226Y-121203937D01*
X191909744Y-121317205D01*
X192098102Y-121395226D01*
X192298061Y-121435000D01*
X192501939Y-121435000D01*
X192701898Y-121395226D01*
X192890256Y-121317205D01*
X193059774Y-121203937D01*
X193203937Y-121059774D01*
X193317205Y-120890256D01*
X193340000Y-120835223D01*
X193340001Y-144340000D01*
X172699269Y-144340000D01*
X172829495Y-144181318D01*
X172951138Y-143953740D01*
X173026045Y-143706804D01*
X173045000Y-143514350D01*
X173045000Y-143035649D01*
X173026045Y-142843195D01*
X172951138Y-142596259D01*
X172829495Y-142368682D01*
X172665792Y-142169208D01*
X172466317Y-142005505D01*
X172238740Y-141883862D01*
X171991804Y-141808955D01*
X171735000Y-141783662D01*
X171478195Y-141808955D01*
X171231259Y-141883862D01*
X171003682Y-142005505D01*
X170804208Y-142169208D01*
X170640505Y-142368683D01*
X170518862Y-142596260D01*
X170443955Y-142843196D01*
X170425000Y-143035650D01*
X170425000Y-143514351D01*
X170443955Y-143706805D01*
X170518862Y-143953741D01*
X170640505Y-144181318D01*
X170770732Y-144340000D01*
X167239269Y-144340000D01*
X167369495Y-144181318D01*
X167491138Y-143953740D01*
X167566045Y-143706804D01*
X167585000Y-143514350D01*
X167585000Y-143035649D01*
X167566045Y-142843195D01*
X167491138Y-142596259D01*
X167369495Y-142368682D01*
X167205792Y-142169208D01*
X167006317Y-142005505D01*
X166778740Y-141883862D01*
X166531804Y-141808955D01*
X166275000Y-141783662D01*
X166018195Y-141808955D01*
X165771259Y-141883862D01*
X165543682Y-142005505D01*
X165344208Y-142169208D01*
X165180505Y-142368683D01*
X165058862Y-142596260D01*
X164983955Y-142843196D01*
X164965000Y-143035650D01*
X164965000Y-143514351D01*
X164983955Y-143706805D01*
X165058862Y-143953741D01*
X165180505Y-144181318D01*
X165310732Y-144340000D01*
X159123711Y-144340000D01*
X159203937Y-144259774D01*
X159317205Y-144090256D01*
X159395226Y-143901898D01*
X159435000Y-143701939D01*
X159435000Y-143498061D01*
X159395226Y-143298102D01*
X159317205Y-143109744D01*
X159203937Y-142940226D01*
X159059774Y-142796063D01*
X158890256Y-142682795D01*
X158701898Y-142604774D01*
X158501939Y-142565000D01*
X158298061Y-142565000D01*
X158098102Y-142604774D01*
X157909744Y-142682795D01*
X157740226Y-142796063D01*
X157596063Y-142940226D01*
X157482795Y-143109744D01*
X157404774Y-143298102D01*
X157365000Y-143498061D01*
X157365000Y-143701939D01*
X157404774Y-143901898D01*
X157482795Y-144090256D01*
X157596063Y-144259774D01*
X157676289Y-144340000D01*
X144660000Y-144340000D01*
X144660000Y-140578740D01*
X145170000Y-140578740D01*
X145170000Y-140871260D01*
X145227068Y-141158158D01*
X145339010Y-141428411D01*
X145501525Y-141671632D01*
X145708368Y-141878475D01*
X145951589Y-142040990D01*
X146221842Y-142152932D01*
X146508740Y-142210000D01*
X146801260Y-142210000D01*
X147088158Y-142152932D01*
X147358411Y-142040990D01*
X147601632Y-141878475D01*
X147808475Y-141671632D01*
X147925000Y-141497240D01*
X148041525Y-141671632D01*
X148248368Y-141878475D01*
X148491589Y-142040990D01*
X148761842Y-142152932D01*
X149048740Y-142210000D01*
X149341260Y-142210000D01*
X149628158Y-142152932D01*
X149898411Y-142040990D01*
X150141632Y-141878475D01*
X150348475Y-141671632D01*
X150465000Y-141497240D01*
X150581525Y-141671632D01*
X150788368Y-141878475D01*
X151031589Y-142040990D01*
X151301842Y-142152932D01*
X151588740Y-142210000D01*
X151881260Y-142210000D01*
X152168158Y-142152932D01*
X152438411Y-142040990D01*
X152681632Y-141878475D01*
X152888475Y-141671632D01*
X153010195Y-141489466D01*
X153079822Y-141606355D01*
X153274731Y-141822588D01*
X153508080Y-141996641D01*
X153770901Y-142121825D01*
X153918110Y-142166476D01*
X154148000Y-142045155D01*
X154148000Y-140852000D01*
X154128000Y-140852000D01*
X154128000Y-140598000D01*
X154148000Y-140598000D01*
X154148000Y-139404845D01*
X154402000Y-139404845D01*
X154402000Y-140598000D01*
X154422000Y-140598000D01*
X154422000Y-140852000D01*
X154402000Y-140852000D01*
X154402000Y-142045155D01*
X154631890Y-142166476D01*
X154779099Y-142121825D01*
X155041920Y-141996641D01*
X155275269Y-141822588D01*
X155470178Y-141606355D01*
X155539805Y-141489466D01*
X155661525Y-141671632D01*
X155868368Y-141878475D01*
X156111589Y-142040990D01*
X156381842Y-142152932D01*
X156668740Y-142210000D01*
X156961260Y-142210000D01*
X157248158Y-142152932D01*
X157518411Y-142040990D01*
X157761632Y-141878475D01*
X157893487Y-141746620D01*
X157915498Y-141819180D01*
X157974463Y-141929494D01*
X158053815Y-142026185D01*
X158150506Y-142105537D01*
X158260820Y-142164502D01*
X158380518Y-142200812D01*
X158505000Y-142213072D01*
X160205000Y-142213072D01*
X160249028Y-142208736D01*
X160282795Y-142290256D01*
X160396063Y-142459774D01*
X160540226Y-142603937D01*
X160709744Y-142717205D01*
X160898102Y-142795226D01*
X161098061Y-142835000D01*
X161301939Y-142835000D01*
X161501898Y-142795226D01*
X161690256Y-142717205D01*
X161859774Y-142603937D01*
X162003937Y-142459774D01*
X162117205Y-142290256D01*
X162195226Y-142101898D01*
X162235000Y-141901939D01*
X162235000Y-141698061D01*
X178965000Y-141698061D01*
X178965000Y-141901939D01*
X179004774Y-142101898D01*
X179082795Y-142290256D01*
X179196063Y-142459774D01*
X179340226Y-142603937D01*
X179509744Y-142717205D01*
X179698102Y-142795226D01*
X179898061Y-142835000D01*
X180101939Y-142835000D01*
X180301898Y-142795226D01*
X180490256Y-142717205D01*
X180659774Y-142603937D01*
X180803937Y-142459774D01*
X180917205Y-142290256D01*
X180995226Y-142101898D01*
X181035000Y-141901939D01*
X181035000Y-141698061D01*
X180995226Y-141498102D01*
X180917205Y-141309744D01*
X180803937Y-141140226D01*
X180659774Y-140996063D01*
X180490256Y-140882795D01*
X180301898Y-140804774D01*
X180101939Y-140765000D01*
X179898061Y-140765000D01*
X179698102Y-140804774D01*
X179509744Y-140882795D01*
X179340226Y-140996063D01*
X179196063Y-141140226D01*
X179082795Y-141309744D01*
X179004774Y-141498102D01*
X178965000Y-141698061D01*
X162235000Y-141698061D01*
X162195226Y-141498102D01*
X162117205Y-141309744D01*
X162003937Y-141140226D01*
X161859774Y-140996063D01*
X161690256Y-140882795D01*
X161501898Y-140804774D01*
X161301939Y-140765000D01*
X161098061Y-140765000D01*
X160898102Y-140804774D01*
X160843072Y-140827568D01*
X160843072Y-140016794D01*
X165400000Y-140016794D01*
X165400000Y-140533207D01*
X165417147Y-140707300D01*
X165484906Y-140930674D01*
X165594943Y-141136536D01*
X165743026Y-141316975D01*
X165923465Y-141465058D01*
X166129327Y-141575094D01*
X166352701Y-141642853D01*
X166585000Y-141665733D01*
X166817300Y-141642853D01*
X167040674Y-141575094D01*
X167246536Y-141465058D01*
X167426975Y-141316975D01*
X167575058Y-141136536D01*
X167685094Y-140930673D01*
X167752853Y-140707299D01*
X167770000Y-140533206D01*
X167770000Y-140016794D01*
X170240000Y-140016794D01*
X170240000Y-140533207D01*
X170257147Y-140707300D01*
X170324906Y-140930674D01*
X170434943Y-141136536D01*
X170583026Y-141316975D01*
X170763465Y-141465058D01*
X170969327Y-141575094D01*
X171192701Y-141642853D01*
X171425000Y-141665733D01*
X171657300Y-141642853D01*
X171880674Y-141575094D01*
X172086536Y-141465058D01*
X172266975Y-141316975D01*
X172415058Y-141136536D01*
X172525094Y-140930673D01*
X172592853Y-140707299D01*
X172610000Y-140533206D01*
X172610000Y-140016793D01*
X172592853Y-139842700D01*
X172525094Y-139619326D01*
X172415058Y-139413464D01*
X172266975Y-139233025D01*
X172086535Y-139084942D01*
X171880673Y-138974906D01*
X171657299Y-138907147D01*
X171425000Y-138884267D01*
X171192700Y-138907147D01*
X170969326Y-138974906D01*
X170763464Y-139084942D01*
X170583025Y-139233025D01*
X170434942Y-139413465D01*
X170324906Y-139619327D01*
X170257147Y-139842701D01*
X170240000Y-140016794D01*
X167770000Y-140016794D01*
X167770000Y-140016793D01*
X167752853Y-139842700D01*
X167685094Y-139619326D01*
X167575058Y-139413464D01*
X167426975Y-139233025D01*
X167246535Y-139084942D01*
X167040673Y-138974906D01*
X166817299Y-138907147D01*
X166585000Y-138884267D01*
X166352700Y-138907147D01*
X166129326Y-138974906D01*
X165923464Y-139084942D01*
X165743025Y-139233025D01*
X165594942Y-139413465D01*
X165484906Y-139619327D01*
X165417147Y-139842701D01*
X165400000Y-140016794D01*
X160843072Y-140016794D01*
X160843072Y-139875000D01*
X160830812Y-139750518D01*
X160794502Y-139630820D01*
X160735537Y-139520506D01*
X160656185Y-139423815D01*
X160559494Y-139344463D01*
X160449180Y-139285498D01*
X160329482Y-139249188D01*
X160205000Y-139236928D01*
X158505000Y-139236928D01*
X158380518Y-139249188D01*
X158260820Y-139285498D01*
X158150506Y-139344463D01*
X158053815Y-139423815D01*
X157974463Y-139520506D01*
X157915498Y-139630820D01*
X157893487Y-139703380D01*
X157761632Y-139571525D01*
X157518411Y-139409010D01*
X157248158Y-139297068D01*
X156961260Y-139240000D01*
X156668740Y-139240000D01*
X156381842Y-139297068D01*
X156111589Y-139409010D01*
X155868368Y-139571525D01*
X155661525Y-139778368D01*
X155539805Y-139960534D01*
X155470178Y-139843645D01*
X155275269Y-139627412D01*
X155041920Y-139453359D01*
X154779099Y-139328175D01*
X154631890Y-139283524D01*
X154402000Y-139404845D01*
X154148000Y-139404845D01*
X153918110Y-139283524D01*
X153770901Y-139328175D01*
X153508080Y-139453359D01*
X153274731Y-139627412D01*
X153079822Y-139843645D01*
X153010195Y-139960534D01*
X152888475Y-139778368D01*
X152681632Y-139571525D01*
X152438411Y-139409010D01*
X152168158Y-139297068D01*
X151881260Y-139240000D01*
X151588740Y-139240000D01*
X151301842Y-139297068D01*
X151031589Y-139409010D01*
X150788368Y-139571525D01*
X150581525Y-139778368D01*
X150465000Y-139952760D01*
X150348475Y-139778368D01*
X150141632Y-139571525D01*
X149898411Y-139409010D01*
X149628158Y-139297068D01*
X149341260Y-139240000D01*
X149048740Y-139240000D01*
X148761842Y-139297068D01*
X148491589Y-139409010D01*
X148248368Y-139571525D01*
X148041525Y-139778368D01*
X147925000Y-139952760D01*
X147808475Y-139778368D01*
X147601632Y-139571525D01*
X147358411Y-139409010D01*
X147088158Y-139297068D01*
X146801260Y-139240000D01*
X146508740Y-139240000D01*
X146221842Y-139297068D01*
X145951589Y-139409010D01*
X145708368Y-139571525D01*
X145501525Y-139778368D01*
X145339010Y-140021589D01*
X145227068Y-140291842D01*
X145170000Y-140578740D01*
X144660000Y-140578740D01*
X144660000Y-137298061D01*
X150365000Y-137298061D01*
X150365000Y-137501939D01*
X150404774Y-137701898D01*
X150482795Y-137890256D01*
X150596063Y-138059774D01*
X150740226Y-138203937D01*
X150909744Y-138317205D01*
X151098102Y-138395226D01*
X151298061Y-138435000D01*
X151501939Y-138435000D01*
X151701898Y-138395226D01*
X151890256Y-138317205D01*
X152059774Y-138203937D01*
X152203937Y-138059774D01*
X152317205Y-137890256D01*
X152395226Y-137701898D01*
X152435000Y-137501939D01*
X152435000Y-137298061D01*
X152395226Y-137098102D01*
X152317205Y-136909744D01*
X152203937Y-136740226D01*
X152161772Y-136698061D01*
X153265000Y-136698061D01*
X153265000Y-136901939D01*
X153304774Y-137101898D01*
X153382795Y-137290256D01*
X153496063Y-137459774D01*
X153640226Y-137603937D01*
X153809744Y-137717205D01*
X153998102Y-137795226D01*
X154198061Y-137835000D01*
X154401939Y-137835000D01*
X154601898Y-137795226D01*
X154790256Y-137717205D01*
X154959774Y-137603937D01*
X155103937Y-137459774D01*
X155217205Y-137290256D01*
X155295226Y-137101898D01*
X155335000Y-136901939D01*
X155335000Y-136698061D01*
X155295226Y-136498102D01*
X155217205Y-136309744D01*
X155103937Y-136140226D01*
X154959774Y-135996063D01*
X154790256Y-135882795D01*
X154601898Y-135804774D01*
X154401939Y-135765000D01*
X154198061Y-135765000D01*
X153998102Y-135804774D01*
X153809744Y-135882795D01*
X153640226Y-135996063D01*
X153496063Y-136140226D01*
X153382795Y-136309744D01*
X153304774Y-136498102D01*
X153265000Y-136698061D01*
X152161772Y-136698061D01*
X152059774Y-136596063D01*
X151890256Y-136482795D01*
X151701898Y-136404774D01*
X151501939Y-136365000D01*
X151298061Y-136365000D01*
X151098102Y-136404774D01*
X150909744Y-136482795D01*
X150740226Y-136596063D01*
X150596063Y-136740226D01*
X150482795Y-136909744D01*
X150404774Y-137098102D01*
X150365000Y-137298061D01*
X144660000Y-137298061D01*
X144660000Y-135598061D01*
X145965000Y-135598061D01*
X145965000Y-135801939D01*
X146004774Y-136001898D01*
X146082795Y-136190256D01*
X146196063Y-136359774D01*
X146340226Y-136503937D01*
X146509744Y-136617205D01*
X146698102Y-136695226D01*
X146898061Y-136735000D01*
X147101939Y-136735000D01*
X147301898Y-136695226D01*
X147490256Y-136617205D01*
X147659774Y-136503937D01*
X147803937Y-136359774D01*
X147917205Y-136190256D01*
X147995226Y-136001898D01*
X148035000Y-135801939D01*
X148035000Y-135598061D01*
X147995226Y-135398102D01*
X147917205Y-135209744D01*
X147803937Y-135040226D01*
X147659774Y-134896063D01*
X147490256Y-134782795D01*
X147301898Y-134704774D01*
X147101939Y-134665000D01*
X146898061Y-134665000D01*
X146698102Y-134704774D01*
X146509744Y-134782795D01*
X146340226Y-134896063D01*
X146196063Y-135040226D01*
X146082795Y-135209744D01*
X146004774Y-135398102D01*
X145965000Y-135598061D01*
X144660000Y-135598061D01*
X144660000Y-134298061D01*
X169765000Y-134298061D01*
X169765000Y-134501939D01*
X169804774Y-134701898D01*
X169882795Y-134890256D01*
X169996063Y-135059774D01*
X170140226Y-135203937D01*
X170309744Y-135317205D01*
X170498102Y-135395226D01*
X170698061Y-135435000D01*
X170901939Y-135435000D01*
X171101898Y-135395226D01*
X171290256Y-135317205D01*
X171459774Y-135203937D01*
X171603937Y-135059774D01*
X171717205Y-134890256D01*
X171795226Y-134701898D01*
X171835000Y-134501939D01*
X171835000Y-134298061D01*
X171815109Y-134198061D01*
X185165000Y-134198061D01*
X185165000Y-134401939D01*
X185204774Y-134601898D01*
X185282795Y-134790256D01*
X185396063Y-134959774D01*
X185508125Y-135071836D01*
X185482795Y-135109744D01*
X185404774Y-135298102D01*
X185365000Y-135498061D01*
X185365000Y-135701939D01*
X185404774Y-135901898D01*
X185482795Y-136090256D01*
X185489306Y-136100000D01*
X185482795Y-136109744D01*
X185404774Y-136298102D01*
X185365000Y-136498061D01*
X185365000Y-136701939D01*
X185404774Y-136901898D01*
X185482795Y-137090256D01*
X185596063Y-137259774D01*
X185740226Y-137403937D01*
X185909744Y-137517205D01*
X186098102Y-137595226D01*
X186298061Y-137635000D01*
X186501939Y-137635000D01*
X186701898Y-137595226D01*
X186890256Y-137517205D01*
X187059774Y-137403937D01*
X187203937Y-137259774D01*
X187317205Y-137090256D01*
X187395226Y-136901898D01*
X187435000Y-136701939D01*
X187435000Y-136498061D01*
X187395226Y-136298102D01*
X187317205Y-136109744D01*
X187310694Y-136100000D01*
X187317205Y-136090256D01*
X187395226Y-135901898D01*
X187435000Y-135701939D01*
X187435000Y-135498061D01*
X187395226Y-135298102D01*
X187317205Y-135109744D01*
X187203937Y-134940226D01*
X187091875Y-134828164D01*
X187117205Y-134790256D01*
X187195226Y-134601898D01*
X187235000Y-134401939D01*
X187235000Y-134198061D01*
X187195226Y-133998102D01*
X187117205Y-133809744D01*
X187003937Y-133640226D01*
X186859774Y-133496063D01*
X186690256Y-133382795D01*
X186501898Y-133304774D01*
X186301939Y-133265000D01*
X186098061Y-133265000D01*
X185898102Y-133304774D01*
X185709744Y-133382795D01*
X185540226Y-133496063D01*
X185396063Y-133640226D01*
X185282795Y-133809744D01*
X185204774Y-133998102D01*
X185165000Y-134198061D01*
X171815109Y-134198061D01*
X171795226Y-134098102D01*
X171717205Y-133909744D01*
X171603937Y-133740226D01*
X171459774Y-133596063D01*
X171290256Y-133482795D01*
X171101898Y-133404774D01*
X170901939Y-133365000D01*
X170698061Y-133365000D01*
X170498102Y-133404774D01*
X170309744Y-133482795D01*
X170140226Y-133596063D01*
X169996063Y-133740226D01*
X169882795Y-133909744D01*
X169804774Y-134098102D01*
X169765000Y-134298061D01*
X144660000Y-134298061D01*
X144660000Y-131298061D01*
X154565000Y-131298061D01*
X154565000Y-131501939D01*
X154604774Y-131701898D01*
X154682795Y-131890256D01*
X154796063Y-132059774D01*
X154940226Y-132203937D01*
X155109744Y-132317205D01*
X155298102Y-132395226D01*
X155498061Y-132435000D01*
X155701939Y-132435000D01*
X155901898Y-132395226D01*
X156090256Y-132317205D01*
X156118907Y-132298061D01*
X170365000Y-132298061D01*
X170365000Y-132501939D01*
X170404774Y-132701898D01*
X170482795Y-132890256D01*
X170596063Y-133059774D01*
X170740226Y-133203937D01*
X170909744Y-133317205D01*
X171098102Y-133395226D01*
X171298061Y-133435000D01*
X171501939Y-133435000D01*
X171701898Y-133395226D01*
X171890256Y-133317205D01*
X172059774Y-133203937D01*
X172203937Y-133059774D01*
X172317205Y-132890256D01*
X172395226Y-132701898D01*
X172435000Y-132501939D01*
X172435000Y-132298061D01*
X172395226Y-132098102D01*
X172317205Y-131909744D01*
X172203937Y-131740226D01*
X172059774Y-131596063D01*
X171890256Y-131482795D01*
X171701898Y-131404774D01*
X171501939Y-131365000D01*
X171298061Y-131365000D01*
X171098102Y-131404774D01*
X170909744Y-131482795D01*
X170740226Y-131596063D01*
X170596063Y-131740226D01*
X170482795Y-131909744D01*
X170404774Y-132098102D01*
X170365000Y-132298061D01*
X156118907Y-132298061D01*
X156259774Y-132203937D01*
X156403937Y-132059774D01*
X156517205Y-131890256D01*
X156595226Y-131701898D01*
X156635000Y-131501939D01*
X156635000Y-131298061D01*
X156595226Y-131098102D01*
X156517205Y-130909744D01*
X156403937Y-130740226D01*
X156259774Y-130596063D01*
X156090256Y-130482795D01*
X155901898Y-130404774D01*
X155701939Y-130365000D01*
X155498061Y-130365000D01*
X155298102Y-130404774D01*
X155109744Y-130482795D01*
X154940226Y-130596063D01*
X154796063Y-130740226D01*
X154682795Y-130909744D01*
X154604774Y-131098102D01*
X154565000Y-131298061D01*
X144660000Y-131298061D01*
X144660000Y-129098061D01*
X189965000Y-129098061D01*
X189965000Y-129301939D01*
X190004774Y-129501898D01*
X190082795Y-129690256D01*
X190196063Y-129859774D01*
X190340226Y-130003937D01*
X190509744Y-130117205D01*
X190698102Y-130195226D01*
X190898061Y-130235000D01*
X191101939Y-130235000D01*
X191301898Y-130195226D01*
X191490256Y-130117205D01*
X191659774Y-130003937D01*
X191803937Y-129859774D01*
X191917205Y-129690256D01*
X191995226Y-129501898D01*
X192035000Y-129301939D01*
X192035000Y-129098061D01*
X191995226Y-128898102D01*
X191917205Y-128709744D01*
X191803937Y-128540226D01*
X191659774Y-128396063D01*
X191490256Y-128282795D01*
X191301898Y-128204774D01*
X191101939Y-128165000D01*
X190898061Y-128165000D01*
X190698102Y-128204774D01*
X190509744Y-128282795D01*
X190340226Y-128396063D01*
X190196063Y-128540226D01*
X190082795Y-128709744D01*
X190004774Y-128898102D01*
X189965000Y-129098061D01*
X144660000Y-129098061D01*
X144660000Y-127198061D01*
X155565000Y-127198061D01*
X155565000Y-127401939D01*
X155604774Y-127601898D01*
X155682795Y-127790256D01*
X155796063Y-127959774D01*
X155940226Y-128103937D01*
X156109744Y-128217205D01*
X156298102Y-128295226D01*
X156498061Y-128335000D01*
X156701939Y-128335000D01*
X156901898Y-128295226D01*
X157090256Y-128217205D01*
X157259774Y-128103937D01*
X157403937Y-127959774D01*
X157517205Y-127790256D01*
X157595226Y-127601898D01*
X157635000Y-127401939D01*
X157635000Y-127198061D01*
X157595226Y-126998102D01*
X157553788Y-126898061D01*
X169965000Y-126898061D01*
X169965000Y-127101939D01*
X170004774Y-127301898D01*
X170082795Y-127490256D01*
X170196063Y-127659774D01*
X170340226Y-127803937D01*
X170509744Y-127917205D01*
X170698102Y-127995226D01*
X170898061Y-128035000D01*
X171101939Y-128035000D01*
X171301898Y-127995226D01*
X171490256Y-127917205D01*
X171659774Y-127803937D01*
X171803937Y-127659774D01*
X171917205Y-127490256D01*
X171995226Y-127301898D01*
X172035000Y-127101939D01*
X172035000Y-126898061D01*
X171995226Y-126698102D01*
X171917205Y-126509744D01*
X171803937Y-126340226D01*
X171665783Y-126202072D01*
X173316000Y-126202072D01*
X173440482Y-126189812D01*
X173560180Y-126153502D01*
X173670494Y-126094537D01*
X173767185Y-126015185D01*
X173846537Y-125918494D01*
X173905502Y-125808180D01*
X173941812Y-125688482D01*
X173954072Y-125564000D01*
X173954072Y-124098061D01*
X177765000Y-124098061D01*
X177765000Y-124301939D01*
X177804774Y-124501898D01*
X177882795Y-124690256D01*
X177996063Y-124859774D01*
X178140226Y-125003937D01*
X178309744Y-125117205D01*
X178498102Y-125195226D01*
X178698061Y-125235000D01*
X178901939Y-125235000D01*
X179101898Y-125195226D01*
X179290256Y-125117205D01*
X179459774Y-125003937D01*
X179603937Y-124859774D01*
X179717205Y-124690256D01*
X179795226Y-124501898D01*
X179835000Y-124301939D01*
X179835000Y-124098061D01*
X179795226Y-123898102D01*
X179717205Y-123709744D01*
X179603937Y-123540226D01*
X179459774Y-123396063D01*
X179290256Y-123282795D01*
X179101898Y-123204774D01*
X178901939Y-123165000D01*
X178698061Y-123165000D01*
X178498102Y-123204774D01*
X178309744Y-123282795D01*
X178140226Y-123396063D01*
X177996063Y-123540226D01*
X177882795Y-123709744D01*
X177804774Y-123898102D01*
X177765000Y-124098061D01*
X173954072Y-124098061D01*
X173954072Y-123864000D01*
X173941812Y-123739518D01*
X173905502Y-123619820D01*
X173846537Y-123509506D01*
X173767185Y-123412815D01*
X173670494Y-123333463D01*
X173560180Y-123274498D01*
X173487620Y-123252487D01*
X173619475Y-123120632D01*
X173781990Y-122877411D01*
X173893932Y-122607158D01*
X173951000Y-122320260D01*
X173951000Y-122027740D01*
X173893932Y-121740842D01*
X173781990Y-121470589D01*
X173619475Y-121227368D01*
X173412632Y-121020525D01*
X173230466Y-120898805D01*
X173347355Y-120829178D01*
X173563588Y-120634269D01*
X173737641Y-120400920D01*
X173862825Y-120138099D01*
X173907476Y-119990890D01*
X173786155Y-119761000D01*
X172593000Y-119761000D01*
X172593000Y-119781000D01*
X172339000Y-119781000D01*
X172339000Y-119761000D01*
X171145845Y-119761000D01*
X171024524Y-119990890D01*
X171069175Y-120138099D01*
X171194359Y-120400920D01*
X171368412Y-120634269D01*
X171584645Y-120829178D01*
X171701534Y-120898805D01*
X171519368Y-121020525D01*
X171312525Y-121227368D01*
X171150010Y-121470589D01*
X171038068Y-121740842D01*
X170981000Y-122027740D01*
X170981000Y-122320260D01*
X171038068Y-122607158D01*
X171150010Y-122877411D01*
X171312525Y-123120632D01*
X171444380Y-123252487D01*
X171371820Y-123274498D01*
X171261506Y-123333463D01*
X171164815Y-123412815D01*
X171085463Y-123509506D01*
X171026498Y-123619820D01*
X170990188Y-123739518D01*
X170977928Y-123864000D01*
X170977928Y-125564000D01*
X170990188Y-125688482D01*
X171026498Y-125808180D01*
X171085463Y-125918494D01*
X171127861Y-125970156D01*
X171101939Y-125965000D01*
X170898061Y-125965000D01*
X170698102Y-126004774D01*
X170509744Y-126082795D01*
X170340226Y-126196063D01*
X170196063Y-126340226D01*
X170082795Y-126509744D01*
X170004774Y-126698102D01*
X169965000Y-126898061D01*
X157553788Y-126898061D01*
X157517205Y-126809744D01*
X157403937Y-126640226D01*
X157259774Y-126496063D01*
X157090256Y-126382795D01*
X156901898Y-126304774D01*
X156701939Y-126265000D01*
X156498061Y-126265000D01*
X156298102Y-126304774D01*
X156109744Y-126382795D01*
X155940226Y-126496063D01*
X155796063Y-126640226D01*
X155682795Y-126809744D01*
X155604774Y-126998102D01*
X155565000Y-127198061D01*
X144660000Y-127198061D01*
X144660000Y-119277110D01*
X171024524Y-119277110D01*
X171145845Y-119507000D01*
X172339000Y-119507000D01*
X172339000Y-118313186D01*
X172593000Y-118313186D01*
X172593000Y-119507000D01*
X173786155Y-119507000D01*
X173907476Y-119277110D01*
X173862825Y-119129901D01*
X173737641Y-118867080D01*
X173563588Y-118633731D01*
X173347355Y-118438822D01*
X173097252Y-118289843D01*
X172822891Y-118192519D01*
X172593000Y-118313186D01*
X172339000Y-118313186D01*
X172109109Y-118192519D01*
X171834748Y-118289843D01*
X171584645Y-118438822D01*
X171368412Y-118633731D01*
X171194359Y-118867080D01*
X171069175Y-119129901D01*
X171024524Y-119277110D01*
X144660000Y-119277110D01*
X144660000Y-112980204D01*
X159499401Y-112980204D01*
X159607824Y-113255332D01*
X159915317Y-113406698D01*
X160246432Y-113495168D01*
X160588444Y-113517341D01*
X160928211Y-113472365D01*
X161252674Y-113361967D01*
X161452176Y-113255332D01*
X161560599Y-112980204D01*
X164579401Y-112980204D01*
X164687824Y-113255332D01*
X164995317Y-113406698D01*
X165326432Y-113495168D01*
X165668444Y-113517341D01*
X166008211Y-113472365D01*
X166332674Y-113361967D01*
X166532176Y-113255332D01*
X166640599Y-112980204D01*
X165610000Y-111949605D01*
X164579401Y-112980204D01*
X161560599Y-112980204D01*
X160530000Y-111949605D01*
X159499401Y-112980204D01*
X144660000Y-112980204D01*
X144660000Y-111828444D01*
X158782659Y-111828444D01*
X158827635Y-112168211D01*
X158938033Y-112492674D01*
X159044668Y-112692176D01*
X159319796Y-112800599D01*
X160350395Y-111770000D01*
X160709605Y-111770000D01*
X161740204Y-112800599D01*
X162015332Y-112692176D01*
X162166698Y-112384683D01*
X162255168Y-112053568D01*
X162269763Y-111828444D01*
X163862659Y-111828444D01*
X163907635Y-112168211D01*
X164018033Y-112492674D01*
X164124668Y-112692176D01*
X164399796Y-112800599D01*
X165430395Y-111770000D01*
X165789605Y-111770000D01*
X166820204Y-112800599D01*
X167095332Y-112692176D01*
X167246698Y-112384683D01*
X167335168Y-112053568D01*
X167357341Y-111711556D01*
X167312365Y-111371789D01*
X167201967Y-111047326D01*
X167095332Y-110847824D01*
X166820204Y-110739401D01*
X165789605Y-111770000D01*
X165430395Y-111770000D01*
X164399796Y-110739401D01*
X164124668Y-110847824D01*
X163973302Y-111155317D01*
X163884832Y-111486432D01*
X163862659Y-111828444D01*
X162269763Y-111828444D01*
X162277341Y-111711556D01*
X162232365Y-111371789D01*
X162121967Y-111047326D01*
X162015332Y-110847824D01*
X161740204Y-110739401D01*
X160709605Y-111770000D01*
X160350395Y-111770000D01*
X159319796Y-110739401D01*
X159044668Y-110847824D01*
X158893302Y-111155317D01*
X158804832Y-111486432D01*
X158782659Y-111828444D01*
X144660000Y-111828444D01*
X144660000Y-110559796D01*
X159499401Y-110559796D01*
X160530000Y-111590395D01*
X161560599Y-110559796D01*
X161452176Y-110284668D01*
X161144683Y-110133302D01*
X160813568Y-110044832D01*
X160471556Y-110022659D01*
X160131789Y-110067635D01*
X159807326Y-110178033D01*
X159607824Y-110284668D01*
X159499401Y-110559796D01*
X144660000Y-110559796D01*
X144660000Y-109068642D01*
X161431700Y-109068642D01*
X161431700Y-109391358D01*
X161494659Y-109707874D01*
X161618157Y-110006026D01*
X161797449Y-110274355D01*
X162025645Y-110502551D01*
X162293974Y-110681843D01*
X162592126Y-110805341D01*
X162908642Y-110868300D01*
X163231358Y-110868300D01*
X163547874Y-110805341D01*
X163846026Y-110681843D01*
X164028681Y-110559796D01*
X164579401Y-110559796D01*
X165610000Y-111590395D01*
X166640599Y-110559796D01*
X166532176Y-110284668D01*
X166224683Y-110133302D01*
X165893568Y-110044832D01*
X165551556Y-110022659D01*
X165211789Y-110067635D01*
X164887326Y-110178033D01*
X164687824Y-110284668D01*
X164579401Y-110559796D01*
X164028681Y-110559796D01*
X164114355Y-110502551D01*
X164342551Y-110274355D01*
X164521843Y-110006026D01*
X164645341Y-109707874D01*
X164708300Y-109391358D01*
X164708300Y-109068642D01*
X164645341Y-108752126D01*
X164521843Y-108453974D01*
X164342551Y-108185645D01*
X164114355Y-107957449D01*
X164028682Y-107900204D01*
X164579401Y-107900204D01*
X164687824Y-108175332D01*
X164995317Y-108326698D01*
X165326432Y-108415168D01*
X165668444Y-108437341D01*
X166008211Y-108392365D01*
X166332674Y-108281967D01*
X166532176Y-108175332D01*
X166640599Y-107900204D01*
X165610000Y-106869605D01*
X164579401Y-107900204D01*
X164028682Y-107900204D01*
X163846026Y-107778157D01*
X163547874Y-107654659D01*
X163231358Y-107591700D01*
X162908642Y-107591700D01*
X162592126Y-107654659D01*
X162293974Y-107778157D01*
X162025645Y-107957449D01*
X161797449Y-108185645D01*
X161618157Y-108453974D01*
X161494659Y-108752126D01*
X161431700Y-109068642D01*
X144660000Y-109068642D01*
X144660000Y-107900204D01*
X159499401Y-107900204D01*
X159607824Y-108175332D01*
X159915317Y-108326698D01*
X160246432Y-108415168D01*
X160588444Y-108437341D01*
X160928211Y-108392365D01*
X161252674Y-108281967D01*
X161452176Y-108175332D01*
X161560599Y-107900204D01*
X160530000Y-106869605D01*
X159499401Y-107900204D01*
X144660000Y-107900204D01*
X144660000Y-105660000D01*
X159318276Y-105660000D01*
X159044668Y-105767824D01*
%TA.AperFunction,Conductor*%
D18*
G36*
X159044668Y-105767824D02*
G01*
X158893302Y-106075317D01*
X158804832Y-106406432D01*
X158782659Y-106748444D01*
X158827635Y-107088211D01*
X158938033Y-107412674D01*
X159044668Y-107612176D01*
X159319796Y-107720599D01*
X160350395Y-106690000D01*
X160336253Y-106675858D01*
X160515858Y-106496253D01*
X160530000Y-106510395D01*
X160544143Y-106496253D01*
X160723748Y-106675858D01*
X160709605Y-106690000D01*
X161740204Y-107720599D01*
X162015332Y-107612176D01*
X162166698Y-107304683D01*
X162255168Y-106973568D01*
X162277341Y-106631556D01*
X162232365Y-106291789D01*
X162121967Y-105967326D01*
X162015332Y-105767824D01*
X161741724Y-105660000D01*
X164398276Y-105660000D01*
X164124668Y-105767824D01*
X163973302Y-106075317D01*
X163884832Y-106406432D01*
X163862659Y-106748444D01*
X163907635Y-107088211D01*
X164018033Y-107412674D01*
X164124668Y-107612176D01*
X164399796Y-107720599D01*
X165430395Y-106690000D01*
X165416253Y-106675858D01*
X165595858Y-106496253D01*
X165610000Y-106510395D01*
X165624143Y-106496253D01*
X165803748Y-106675858D01*
X165789605Y-106690000D01*
X166820204Y-107720599D01*
X167095332Y-107612176D01*
X167246698Y-107304683D01*
X167335168Y-106973568D01*
X167357341Y-106631556D01*
X167312365Y-106291789D01*
X167201967Y-105967326D01*
X167095332Y-105767824D01*
X166821724Y-105660000D01*
X181582850Y-105660000D01*
X181482795Y-105809744D01*
X181404774Y-105998102D01*
X181365000Y-106198061D01*
X181365000Y-106401939D01*
X181404774Y-106601898D01*
X181482795Y-106790256D01*
X181596063Y-106959774D01*
X181674889Y-107038600D01*
X181513368Y-107146525D01*
X181306525Y-107353368D01*
X181190000Y-107527760D01*
X181073475Y-107353368D01*
X180866632Y-107146525D01*
X180623411Y-106984010D01*
X180353158Y-106872068D01*
X180066260Y-106815000D01*
X179773740Y-106815000D01*
X179486842Y-106872068D01*
X179216589Y-106984010D01*
X178973368Y-107146525D01*
X178766525Y-107353368D01*
X178650000Y-107527760D01*
X178533475Y-107353368D01*
X178326632Y-107146525D01*
X178083411Y-106984010D01*
X177813158Y-106872068D01*
X177526260Y-106815000D01*
X177233740Y-106815000D01*
X176946842Y-106872068D01*
X176676589Y-106984010D01*
X176433368Y-107146525D01*
X176226525Y-107353368D01*
X176064010Y-107596589D01*
X175952068Y-107866842D01*
X175895000Y-108153740D01*
X175895000Y-108446260D01*
X175952068Y-108733158D01*
X176064010Y-109003411D01*
X176226525Y-109246632D01*
X176433368Y-109453475D01*
X176676589Y-109615990D01*
X176946842Y-109727932D01*
X177233740Y-109785000D01*
X177526260Y-109785000D01*
X177813158Y-109727932D01*
X178083411Y-109615990D01*
X178326632Y-109453475D01*
X178533475Y-109246632D01*
X178650000Y-109072240D01*
X178766525Y-109246632D01*
X178973368Y-109453475D01*
X179216589Y-109615990D01*
X179486842Y-109727932D01*
X179773740Y-109785000D01*
X180066260Y-109785000D01*
X180353158Y-109727932D01*
X180623411Y-109615990D01*
X180866632Y-109453475D01*
X181073475Y-109246632D01*
X181190000Y-109072240D01*
X181306525Y-109246632D01*
X181513368Y-109453475D01*
X181756589Y-109615990D01*
X182026842Y-109727932D01*
X182313740Y-109785000D01*
X182606260Y-109785000D01*
X182893158Y-109727932D01*
X183163411Y-109615990D01*
X183406632Y-109453475D01*
X183538487Y-109321620D01*
X183560498Y-109394180D01*
X183619463Y-109504494D01*
X183698815Y-109601185D01*
X183795506Y-109680537D01*
X183905820Y-109739502D01*
X184025518Y-109775812D01*
X184150000Y-109788072D01*
X184714250Y-109785000D01*
X184873000Y-109626250D01*
X184873000Y-108427000D01*
X185127000Y-108427000D01*
X185127000Y-109626250D01*
X185285750Y-109785000D01*
X185850000Y-109788072D01*
X185974482Y-109775812D01*
X186094180Y-109739502D01*
X186204494Y-109680537D01*
X186301185Y-109601185D01*
X186380537Y-109504494D01*
X186439502Y-109394180D01*
X186475812Y-109274482D01*
X186488072Y-109150000D01*
X186485000Y-108585750D01*
X186326250Y-108427000D01*
X185127000Y-108427000D01*
X184873000Y-108427000D01*
X184853000Y-108427000D01*
X184853000Y-108173000D01*
X184873000Y-108173000D01*
X184873000Y-106973750D01*
X185127000Y-106973750D01*
X185127000Y-108173000D01*
X186326250Y-108173000D01*
X186485000Y-108014250D01*
X186488072Y-107450000D01*
X186475812Y-107325518D01*
X186439502Y-107205820D01*
X186380537Y-107095506D01*
X186301185Y-106998815D01*
X186204494Y-106919463D01*
X186094180Y-106860498D01*
X185974482Y-106824188D01*
X185850000Y-106811928D01*
X185285750Y-106815000D01*
X185127000Y-106973750D01*
X184873000Y-106973750D01*
X184714250Y-106815000D01*
X184150000Y-106811928D01*
X184025518Y-106824188D01*
X183905820Y-106860498D01*
X183795506Y-106919463D01*
X183698815Y-106998815D01*
X183619463Y-107095506D01*
X183560498Y-107205820D01*
X183538487Y-107278380D01*
X183406632Y-107146525D01*
X183173176Y-106990535D01*
X183203937Y-106959774D01*
X183317205Y-106790256D01*
X183395226Y-106601898D01*
X183435000Y-106401939D01*
X183435000Y-106198061D01*
X183395226Y-105998102D01*
X183317205Y-105809744D01*
X183217150Y-105660000D01*
X193340000Y-105660000D01*
X193340000Y-119964777D01*
X193317205Y-119909744D01*
X193203937Y-119740226D01*
X193059774Y-119596063D01*
X192890256Y-119482795D01*
X192701898Y-119404774D01*
X192501939Y-119365000D01*
X192298061Y-119365000D01*
X192098102Y-119404774D01*
X191909744Y-119482795D01*
X191740226Y-119596063D01*
X191596063Y-119740226D01*
X191482795Y-119909744D01*
X191404774Y-120098102D01*
X191365000Y-120298061D01*
X191365000Y-120501939D01*
X191404774Y-120701898D01*
X191482795Y-120890256D01*
X191596063Y-121059774D01*
X191740226Y-121203937D01*
X191909744Y-121317205D01*
X192098102Y-121395226D01*
X192298061Y-121435000D01*
X192501939Y-121435000D01*
X192701898Y-121395226D01*
X192890256Y-121317205D01*
X193059774Y-121203937D01*
X193203937Y-121059774D01*
X193317205Y-120890256D01*
X193340000Y-120835223D01*
X193340001Y-144340000D01*
X172699269Y-144340000D01*
X172829495Y-144181318D01*
X172951138Y-143953740D01*
X173026045Y-143706804D01*
X173045000Y-143514350D01*
X173045000Y-143035649D01*
X173026045Y-142843195D01*
X172951138Y-142596259D01*
X172829495Y-142368682D01*
X172665792Y-142169208D01*
X172466317Y-142005505D01*
X172238740Y-141883862D01*
X171991804Y-141808955D01*
X171735000Y-141783662D01*
X171478195Y-141808955D01*
X171231259Y-141883862D01*
X171003682Y-142005505D01*
X170804208Y-142169208D01*
X170640505Y-142368683D01*
X170518862Y-142596260D01*
X170443955Y-142843196D01*
X170425000Y-143035650D01*
X170425000Y-143514351D01*
X170443955Y-143706805D01*
X170518862Y-143953741D01*
X170640505Y-144181318D01*
X170770732Y-144340000D01*
X167239269Y-144340000D01*
X167369495Y-144181318D01*
X167491138Y-143953740D01*
X167566045Y-143706804D01*
X167585000Y-143514350D01*
X167585000Y-143035649D01*
X167566045Y-142843195D01*
X167491138Y-142596259D01*
X167369495Y-142368682D01*
X167205792Y-142169208D01*
X167006317Y-142005505D01*
X166778740Y-141883862D01*
X166531804Y-141808955D01*
X166275000Y-141783662D01*
X166018195Y-141808955D01*
X165771259Y-141883862D01*
X165543682Y-142005505D01*
X165344208Y-142169208D01*
X165180505Y-142368683D01*
X165058862Y-142596260D01*
X164983955Y-142843196D01*
X164965000Y-143035650D01*
X164965000Y-143514351D01*
X164983955Y-143706805D01*
X165058862Y-143953741D01*
X165180505Y-144181318D01*
X165310732Y-144340000D01*
X159123711Y-144340000D01*
X159203937Y-144259774D01*
X159317205Y-144090256D01*
X159395226Y-143901898D01*
X159435000Y-143701939D01*
X159435000Y-143498061D01*
X159395226Y-143298102D01*
X159317205Y-143109744D01*
X159203937Y-142940226D01*
X159059774Y-142796063D01*
X158890256Y-142682795D01*
X158701898Y-142604774D01*
X158501939Y-142565000D01*
X158298061Y-142565000D01*
X158098102Y-142604774D01*
X157909744Y-142682795D01*
X157740226Y-142796063D01*
X157596063Y-142940226D01*
X157482795Y-143109744D01*
X157404774Y-143298102D01*
X157365000Y-143498061D01*
X157365000Y-143701939D01*
X157404774Y-143901898D01*
X157482795Y-144090256D01*
X157596063Y-144259774D01*
X157676289Y-144340000D01*
X144660000Y-144340000D01*
X144660000Y-140578740D01*
X145170000Y-140578740D01*
X145170000Y-140871260D01*
X145227068Y-141158158D01*
X145339010Y-141428411D01*
X145501525Y-141671632D01*
X145708368Y-141878475D01*
X145951589Y-142040990D01*
X146221842Y-142152932D01*
X146508740Y-142210000D01*
X146801260Y-142210000D01*
X147088158Y-142152932D01*
X147358411Y-142040990D01*
X147601632Y-141878475D01*
X147808475Y-141671632D01*
X147925000Y-141497240D01*
X148041525Y-141671632D01*
X148248368Y-141878475D01*
X148491589Y-142040990D01*
X148761842Y-142152932D01*
X149048740Y-142210000D01*
X149341260Y-142210000D01*
X149628158Y-142152932D01*
X149898411Y-142040990D01*
X150141632Y-141878475D01*
X150348475Y-141671632D01*
X150465000Y-141497240D01*
X150581525Y-141671632D01*
X150788368Y-141878475D01*
X151031589Y-142040990D01*
X151301842Y-142152932D01*
X151588740Y-142210000D01*
X151881260Y-142210000D01*
X152168158Y-142152932D01*
X152438411Y-142040990D01*
X152681632Y-141878475D01*
X152888475Y-141671632D01*
X153010195Y-141489466D01*
X153079822Y-141606355D01*
X153274731Y-141822588D01*
X153508080Y-141996641D01*
X153770901Y-142121825D01*
X153918110Y-142166476D01*
X154148000Y-142045155D01*
X154148000Y-140852000D01*
X154128000Y-140852000D01*
X154128000Y-140598000D01*
X154148000Y-140598000D01*
X154148000Y-139404845D01*
X154402000Y-139404845D01*
X154402000Y-140598000D01*
X154422000Y-140598000D01*
X154422000Y-140852000D01*
X154402000Y-140852000D01*
X154402000Y-142045155D01*
X154631890Y-142166476D01*
X154779099Y-142121825D01*
X155041920Y-141996641D01*
X155275269Y-141822588D01*
X155470178Y-141606355D01*
X155539805Y-141489466D01*
X155661525Y-141671632D01*
X155868368Y-141878475D01*
X156111589Y-142040990D01*
X156381842Y-142152932D01*
X156668740Y-142210000D01*
X156961260Y-142210000D01*
X157248158Y-142152932D01*
X157518411Y-142040990D01*
X157761632Y-141878475D01*
X157893487Y-141746620D01*
X157915498Y-141819180D01*
X157974463Y-141929494D01*
X158053815Y-142026185D01*
X158150506Y-142105537D01*
X158260820Y-142164502D01*
X158380518Y-142200812D01*
X158505000Y-142213072D01*
X160205000Y-142213072D01*
X160249028Y-142208736D01*
X160282795Y-142290256D01*
X160396063Y-142459774D01*
X160540226Y-142603937D01*
X160709744Y-142717205D01*
X160898102Y-142795226D01*
X161098061Y-142835000D01*
X161301939Y-142835000D01*
X161501898Y-142795226D01*
X161690256Y-142717205D01*
X161859774Y-142603937D01*
X162003937Y-142459774D01*
X162117205Y-142290256D01*
X162195226Y-142101898D01*
X162235000Y-141901939D01*
X162235000Y-141698061D01*
X178965000Y-141698061D01*
X178965000Y-141901939D01*
X179004774Y-142101898D01*
X179082795Y-142290256D01*
X179196063Y-142459774D01*
X179340226Y-142603937D01*
X179509744Y-142717205D01*
X179698102Y-142795226D01*
X179898061Y-142835000D01*
X180101939Y-142835000D01*
X180301898Y-142795226D01*
X180490256Y-142717205D01*
X180659774Y-142603937D01*
X180803937Y-142459774D01*
X180917205Y-142290256D01*
X180995226Y-142101898D01*
X181035000Y-141901939D01*
X181035000Y-141698061D01*
X180995226Y-141498102D01*
X180917205Y-141309744D01*
X180803937Y-141140226D01*
X180659774Y-140996063D01*
X180490256Y-140882795D01*
X180301898Y-140804774D01*
X180101939Y-140765000D01*
X179898061Y-140765000D01*
X179698102Y-140804774D01*
X179509744Y-140882795D01*
X179340226Y-140996063D01*
X179196063Y-141140226D01*
X179082795Y-141309744D01*
X179004774Y-141498102D01*
X178965000Y-141698061D01*
X162235000Y-141698061D01*
X162195226Y-141498102D01*
X162117205Y-141309744D01*
X162003937Y-141140226D01*
X161859774Y-140996063D01*
X161690256Y-140882795D01*
X161501898Y-140804774D01*
X161301939Y-140765000D01*
X161098061Y-140765000D01*
X160898102Y-140804774D01*
X160843072Y-140827568D01*
X160843072Y-140016794D01*
X165400000Y-140016794D01*
X165400000Y-140533207D01*
X165417147Y-140707300D01*
X165484906Y-140930674D01*
X165594943Y-141136536D01*
X165743026Y-141316975D01*
X165923465Y-141465058D01*
X166129327Y-141575094D01*
X166352701Y-141642853D01*
X166585000Y-141665733D01*
X166817300Y-141642853D01*
X167040674Y-141575094D01*
X167246536Y-141465058D01*
X167426975Y-141316975D01*
X167575058Y-141136536D01*
X167685094Y-140930673D01*
X167752853Y-140707299D01*
X167770000Y-140533206D01*
X167770000Y-140016794D01*
X170240000Y-140016794D01*
X170240000Y-140533207D01*
X170257147Y-140707300D01*
X170324906Y-140930674D01*
X170434943Y-141136536D01*
X170583026Y-141316975D01*
X170763465Y-141465058D01*
X170969327Y-141575094D01*
X171192701Y-141642853D01*
X171425000Y-141665733D01*
X171657300Y-141642853D01*
X171880674Y-141575094D01*
X172086536Y-141465058D01*
X172266975Y-141316975D01*
X172415058Y-141136536D01*
X172525094Y-140930673D01*
X172592853Y-140707299D01*
X172610000Y-140533206D01*
X172610000Y-140016793D01*
X172592853Y-139842700D01*
X172525094Y-139619326D01*
X172415058Y-139413464D01*
X172266975Y-139233025D01*
X172086535Y-139084942D01*
X171880673Y-138974906D01*
X171657299Y-138907147D01*
X171425000Y-138884267D01*
X171192700Y-138907147D01*
X170969326Y-138974906D01*
X170763464Y-139084942D01*
X170583025Y-139233025D01*
X170434942Y-139413465D01*
X170324906Y-139619327D01*
X170257147Y-139842701D01*
X170240000Y-140016794D01*
X167770000Y-140016794D01*
X167770000Y-140016793D01*
X167752853Y-139842700D01*
X167685094Y-139619326D01*
X167575058Y-139413464D01*
X167426975Y-139233025D01*
X167246535Y-139084942D01*
X167040673Y-138974906D01*
X166817299Y-138907147D01*
X166585000Y-138884267D01*
X166352700Y-138907147D01*
X166129326Y-138974906D01*
X165923464Y-139084942D01*
X165743025Y-139233025D01*
X165594942Y-139413465D01*
X165484906Y-139619327D01*
X165417147Y-139842701D01*
X165400000Y-140016794D01*
X160843072Y-140016794D01*
X160843072Y-139875000D01*
X160830812Y-139750518D01*
X160794502Y-139630820D01*
X160735537Y-139520506D01*
X160656185Y-139423815D01*
X160559494Y-139344463D01*
X160449180Y-139285498D01*
X160329482Y-139249188D01*
X160205000Y-139236928D01*
X158505000Y-139236928D01*
X158380518Y-139249188D01*
X158260820Y-139285498D01*
X158150506Y-139344463D01*
X158053815Y-139423815D01*
X157974463Y-139520506D01*
X157915498Y-139630820D01*
X157893487Y-139703380D01*
X157761632Y-139571525D01*
X157518411Y-139409010D01*
X157248158Y-139297068D01*
X156961260Y-139240000D01*
X156668740Y-139240000D01*
X156381842Y-139297068D01*
X156111589Y-139409010D01*
X155868368Y-139571525D01*
X155661525Y-139778368D01*
X155539805Y-139960534D01*
X155470178Y-139843645D01*
X155275269Y-139627412D01*
X155041920Y-139453359D01*
X154779099Y-139328175D01*
X154631890Y-139283524D01*
X154402000Y-139404845D01*
X154148000Y-139404845D01*
X153918110Y-139283524D01*
X153770901Y-139328175D01*
X153508080Y-139453359D01*
X153274731Y-139627412D01*
X153079822Y-139843645D01*
X153010195Y-139960534D01*
X152888475Y-139778368D01*
X152681632Y-139571525D01*
X152438411Y-139409010D01*
X152168158Y-139297068D01*
X151881260Y-139240000D01*
X151588740Y-139240000D01*
X151301842Y-139297068D01*
X151031589Y-139409010D01*
X150788368Y-139571525D01*
X150581525Y-139778368D01*
X150465000Y-139952760D01*
X150348475Y-139778368D01*
X150141632Y-139571525D01*
X149898411Y-139409010D01*
X149628158Y-139297068D01*
X149341260Y-139240000D01*
X149048740Y-139240000D01*
X148761842Y-139297068D01*
X148491589Y-139409010D01*
X148248368Y-139571525D01*
X148041525Y-139778368D01*
X147925000Y-139952760D01*
X147808475Y-139778368D01*
X147601632Y-139571525D01*
X147358411Y-139409010D01*
X147088158Y-139297068D01*
X146801260Y-139240000D01*
X146508740Y-139240000D01*
X146221842Y-139297068D01*
X145951589Y-139409010D01*
X145708368Y-139571525D01*
X145501525Y-139778368D01*
X145339010Y-140021589D01*
X145227068Y-140291842D01*
X145170000Y-140578740D01*
X144660000Y-140578740D01*
X144660000Y-137298061D01*
X150365000Y-137298061D01*
X150365000Y-137501939D01*
X150404774Y-137701898D01*
X150482795Y-137890256D01*
X150596063Y-138059774D01*
X150740226Y-138203937D01*
X150909744Y-138317205D01*
X151098102Y-138395226D01*
X151298061Y-138435000D01*
X151501939Y-138435000D01*
X151701898Y-138395226D01*
X151890256Y-138317205D01*
X152059774Y-138203937D01*
X152203937Y-138059774D01*
X152317205Y-137890256D01*
X152395226Y-137701898D01*
X152435000Y-137501939D01*
X152435000Y-137298061D01*
X152395226Y-137098102D01*
X152317205Y-136909744D01*
X152203937Y-136740226D01*
X152161772Y-136698061D01*
X153265000Y-136698061D01*
X153265000Y-136901939D01*
X153304774Y-137101898D01*
X153382795Y-137290256D01*
X153496063Y-137459774D01*
X153640226Y-137603937D01*
X153809744Y-137717205D01*
X153998102Y-137795226D01*
X154198061Y-137835000D01*
X154401939Y-137835000D01*
X154601898Y-137795226D01*
X154790256Y-137717205D01*
X154959774Y-137603937D01*
X155103937Y-137459774D01*
X155217205Y-137290256D01*
X155295226Y-137101898D01*
X155335000Y-136901939D01*
X155335000Y-136698061D01*
X155295226Y-136498102D01*
X155217205Y-136309744D01*
X155103937Y-136140226D01*
X154959774Y-135996063D01*
X154790256Y-135882795D01*
X154601898Y-135804774D01*
X154401939Y-135765000D01*
X154198061Y-135765000D01*
X153998102Y-135804774D01*
X153809744Y-135882795D01*
X153640226Y-135996063D01*
X153496063Y-136140226D01*
X153382795Y-136309744D01*
X153304774Y-136498102D01*
X153265000Y-136698061D01*
X152161772Y-136698061D01*
X152059774Y-136596063D01*
X151890256Y-136482795D01*
X151701898Y-136404774D01*
X151501939Y-136365000D01*
X151298061Y-136365000D01*
X151098102Y-136404774D01*
X150909744Y-136482795D01*
X150740226Y-136596063D01*
X150596063Y-136740226D01*
X150482795Y-136909744D01*
X150404774Y-137098102D01*
X150365000Y-137298061D01*
X144660000Y-137298061D01*
X144660000Y-135598061D01*
X145965000Y-135598061D01*
X145965000Y-135801939D01*
X146004774Y-136001898D01*
X146082795Y-136190256D01*
X146196063Y-136359774D01*
X146340226Y-136503937D01*
X146509744Y-136617205D01*
X146698102Y-136695226D01*
X146898061Y-136735000D01*
X147101939Y-136735000D01*
X147301898Y-136695226D01*
X147490256Y-136617205D01*
X147659774Y-136503937D01*
X147803937Y-136359774D01*
X147917205Y-136190256D01*
X147995226Y-136001898D01*
X148035000Y-135801939D01*
X148035000Y-135598061D01*
X147995226Y-135398102D01*
X147917205Y-135209744D01*
X147803937Y-135040226D01*
X147659774Y-134896063D01*
X147490256Y-134782795D01*
X147301898Y-134704774D01*
X147101939Y-134665000D01*
X146898061Y-134665000D01*
X146698102Y-134704774D01*
X146509744Y-134782795D01*
X146340226Y-134896063D01*
X146196063Y-135040226D01*
X146082795Y-135209744D01*
X146004774Y-135398102D01*
X145965000Y-135598061D01*
X144660000Y-135598061D01*
X144660000Y-134298061D01*
X169765000Y-134298061D01*
X169765000Y-134501939D01*
X169804774Y-134701898D01*
X169882795Y-134890256D01*
X169996063Y-135059774D01*
X170140226Y-135203937D01*
X170309744Y-135317205D01*
X170498102Y-135395226D01*
X170698061Y-135435000D01*
X170901939Y-135435000D01*
X171101898Y-135395226D01*
X171290256Y-135317205D01*
X171459774Y-135203937D01*
X171603937Y-135059774D01*
X171717205Y-134890256D01*
X171795226Y-134701898D01*
X171835000Y-134501939D01*
X171835000Y-134298061D01*
X171815109Y-134198061D01*
X185165000Y-134198061D01*
X185165000Y-134401939D01*
X185204774Y-134601898D01*
X185282795Y-134790256D01*
X185396063Y-134959774D01*
X185508125Y-135071836D01*
X185482795Y-135109744D01*
X185404774Y-135298102D01*
X185365000Y-135498061D01*
X185365000Y-135701939D01*
X185404774Y-135901898D01*
X185482795Y-136090256D01*
X185489306Y-136100000D01*
X185482795Y-136109744D01*
X185404774Y-136298102D01*
X185365000Y-136498061D01*
X185365000Y-136701939D01*
X185404774Y-136901898D01*
X185482795Y-137090256D01*
X185596063Y-137259774D01*
X185740226Y-137403937D01*
X185909744Y-137517205D01*
X186098102Y-137595226D01*
X186298061Y-137635000D01*
X186501939Y-137635000D01*
X186701898Y-137595226D01*
X186890256Y-137517205D01*
X187059774Y-137403937D01*
X187203937Y-137259774D01*
X187317205Y-137090256D01*
X187395226Y-136901898D01*
X187435000Y-136701939D01*
X187435000Y-136498061D01*
X187395226Y-136298102D01*
X187317205Y-136109744D01*
X187310694Y-136100000D01*
X187317205Y-136090256D01*
X187395226Y-135901898D01*
X187435000Y-135701939D01*
X187435000Y-135498061D01*
X187395226Y-135298102D01*
X187317205Y-135109744D01*
X187203937Y-134940226D01*
X187091875Y-134828164D01*
X187117205Y-134790256D01*
X187195226Y-134601898D01*
X187235000Y-134401939D01*
X187235000Y-134198061D01*
X187195226Y-133998102D01*
X187117205Y-133809744D01*
X187003937Y-133640226D01*
X186859774Y-133496063D01*
X186690256Y-133382795D01*
X186501898Y-133304774D01*
X186301939Y-133265000D01*
X186098061Y-133265000D01*
X185898102Y-133304774D01*
X185709744Y-133382795D01*
X185540226Y-133496063D01*
X185396063Y-133640226D01*
X185282795Y-133809744D01*
X185204774Y-133998102D01*
X185165000Y-134198061D01*
X171815109Y-134198061D01*
X171795226Y-134098102D01*
X171717205Y-133909744D01*
X171603937Y-133740226D01*
X171459774Y-133596063D01*
X171290256Y-133482795D01*
X171101898Y-133404774D01*
X170901939Y-133365000D01*
X170698061Y-133365000D01*
X170498102Y-133404774D01*
X170309744Y-133482795D01*
X170140226Y-133596063D01*
X169996063Y-133740226D01*
X169882795Y-133909744D01*
X169804774Y-134098102D01*
X169765000Y-134298061D01*
X144660000Y-134298061D01*
X144660000Y-131298061D01*
X154565000Y-131298061D01*
X154565000Y-131501939D01*
X154604774Y-131701898D01*
X154682795Y-131890256D01*
X154796063Y-132059774D01*
X154940226Y-132203937D01*
X155109744Y-132317205D01*
X155298102Y-132395226D01*
X155498061Y-132435000D01*
X155701939Y-132435000D01*
X155901898Y-132395226D01*
X156090256Y-132317205D01*
X156118907Y-132298061D01*
X170365000Y-132298061D01*
X170365000Y-132501939D01*
X170404774Y-132701898D01*
X170482795Y-132890256D01*
X170596063Y-133059774D01*
X170740226Y-133203937D01*
X170909744Y-133317205D01*
X171098102Y-133395226D01*
X171298061Y-133435000D01*
X171501939Y-133435000D01*
X171701898Y-133395226D01*
X171890256Y-133317205D01*
X172059774Y-133203937D01*
X172203937Y-133059774D01*
X172317205Y-132890256D01*
X172395226Y-132701898D01*
X172435000Y-132501939D01*
X172435000Y-132298061D01*
X172395226Y-132098102D01*
X172317205Y-131909744D01*
X172203937Y-131740226D01*
X172059774Y-131596063D01*
X171890256Y-131482795D01*
X171701898Y-131404774D01*
X171501939Y-131365000D01*
X171298061Y-131365000D01*
X171098102Y-131404774D01*
X170909744Y-131482795D01*
X170740226Y-131596063D01*
X170596063Y-131740226D01*
X170482795Y-131909744D01*
X170404774Y-132098102D01*
X170365000Y-132298061D01*
X156118907Y-132298061D01*
X156259774Y-132203937D01*
X156403937Y-132059774D01*
X156517205Y-131890256D01*
X156595226Y-131701898D01*
X156635000Y-131501939D01*
X156635000Y-131298061D01*
X156595226Y-131098102D01*
X156517205Y-130909744D01*
X156403937Y-130740226D01*
X156259774Y-130596063D01*
X156090256Y-130482795D01*
X155901898Y-130404774D01*
X155701939Y-130365000D01*
X155498061Y-130365000D01*
X155298102Y-130404774D01*
X155109744Y-130482795D01*
X154940226Y-130596063D01*
X154796063Y-130740226D01*
X154682795Y-130909744D01*
X154604774Y-131098102D01*
X154565000Y-131298061D01*
X144660000Y-131298061D01*
X144660000Y-129098061D01*
X189965000Y-129098061D01*
X189965000Y-129301939D01*
X190004774Y-129501898D01*
X190082795Y-129690256D01*
X190196063Y-129859774D01*
X190340226Y-130003937D01*
X190509744Y-130117205D01*
X190698102Y-130195226D01*
X190898061Y-130235000D01*
X191101939Y-130235000D01*
X191301898Y-130195226D01*
X191490256Y-130117205D01*
X191659774Y-130003937D01*
X191803937Y-129859774D01*
X191917205Y-129690256D01*
X191995226Y-129501898D01*
X192035000Y-129301939D01*
X192035000Y-129098061D01*
X191995226Y-128898102D01*
X191917205Y-128709744D01*
X191803937Y-128540226D01*
X191659774Y-128396063D01*
X191490256Y-128282795D01*
X191301898Y-128204774D01*
X191101939Y-128165000D01*
X190898061Y-128165000D01*
X190698102Y-128204774D01*
X190509744Y-128282795D01*
X190340226Y-128396063D01*
X190196063Y-128540226D01*
X190082795Y-128709744D01*
X190004774Y-128898102D01*
X189965000Y-129098061D01*
X144660000Y-129098061D01*
X144660000Y-127198061D01*
X155565000Y-127198061D01*
X155565000Y-127401939D01*
X155604774Y-127601898D01*
X155682795Y-127790256D01*
X155796063Y-127959774D01*
X155940226Y-128103937D01*
X156109744Y-128217205D01*
X156298102Y-128295226D01*
X156498061Y-128335000D01*
X156701939Y-128335000D01*
X156901898Y-128295226D01*
X157090256Y-128217205D01*
X157259774Y-128103937D01*
X157403937Y-127959774D01*
X157517205Y-127790256D01*
X157595226Y-127601898D01*
X157635000Y-127401939D01*
X157635000Y-127198061D01*
X157595226Y-126998102D01*
X157553788Y-126898061D01*
X169965000Y-126898061D01*
X169965000Y-127101939D01*
X170004774Y-127301898D01*
X170082795Y-127490256D01*
X170196063Y-127659774D01*
X170340226Y-127803937D01*
X170509744Y-127917205D01*
X170698102Y-127995226D01*
X170898061Y-128035000D01*
X171101939Y-128035000D01*
X171301898Y-127995226D01*
X171490256Y-127917205D01*
X171659774Y-127803937D01*
X171803937Y-127659774D01*
X171917205Y-127490256D01*
X171995226Y-127301898D01*
X172035000Y-127101939D01*
X172035000Y-126898061D01*
X171995226Y-126698102D01*
X171917205Y-126509744D01*
X171803937Y-126340226D01*
X171665783Y-126202072D01*
X173316000Y-126202072D01*
X173440482Y-126189812D01*
X173560180Y-126153502D01*
X173670494Y-126094537D01*
X173767185Y-126015185D01*
X173846537Y-125918494D01*
X173905502Y-125808180D01*
X173941812Y-125688482D01*
X173954072Y-125564000D01*
X173954072Y-124098061D01*
X177765000Y-124098061D01*
X177765000Y-124301939D01*
X177804774Y-124501898D01*
X177882795Y-124690256D01*
X177996063Y-124859774D01*
X178140226Y-125003937D01*
X178309744Y-125117205D01*
X178498102Y-125195226D01*
X178698061Y-125235000D01*
X178901939Y-125235000D01*
X179101898Y-125195226D01*
X179290256Y-125117205D01*
X179459774Y-125003937D01*
X179603937Y-124859774D01*
X179717205Y-124690256D01*
X179795226Y-124501898D01*
X179835000Y-124301939D01*
X179835000Y-124098061D01*
X179795226Y-123898102D01*
X179717205Y-123709744D01*
X179603937Y-123540226D01*
X179459774Y-123396063D01*
X179290256Y-123282795D01*
X179101898Y-123204774D01*
X178901939Y-123165000D01*
X178698061Y-123165000D01*
X178498102Y-123204774D01*
X178309744Y-123282795D01*
X178140226Y-123396063D01*
X177996063Y-123540226D01*
X177882795Y-123709744D01*
X177804774Y-123898102D01*
X177765000Y-124098061D01*
X173954072Y-124098061D01*
X173954072Y-123864000D01*
X173941812Y-123739518D01*
X173905502Y-123619820D01*
X173846537Y-123509506D01*
X173767185Y-123412815D01*
X173670494Y-123333463D01*
X173560180Y-123274498D01*
X173487620Y-123252487D01*
X173619475Y-123120632D01*
X173781990Y-122877411D01*
X173893932Y-122607158D01*
X173951000Y-122320260D01*
X173951000Y-122027740D01*
X173893932Y-121740842D01*
X173781990Y-121470589D01*
X173619475Y-121227368D01*
X173412632Y-121020525D01*
X173230466Y-120898805D01*
X173347355Y-120829178D01*
X173563588Y-120634269D01*
X173737641Y-120400920D01*
X173862825Y-120138099D01*
X173907476Y-119990890D01*
X173786155Y-119761000D01*
X172593000Y-119761000D01*
X172593000Y-119781000D01*
X172339000Y-119781000D01*
X172339000Y-119761000D01*
X171145845Y-119761000D01*
X171024524Y-119990890D01*
X171069175Y-120138099D01*
X171194359Y-120400920D01*
X171368412Y-120634269D01*
X171584645Y-120829178D01*
X171701534Y-120898805D01*
X171519368Y-121020525D01*
X171312525Y-121227368D01*
X171150010Y-121470589D01*
X171038068Y-121740842D01*
X170981000Y-122027740D01*
X170981000Y-122320260D01*
X171038068Y-122607158D01*
X171150010Y-122877411D01*
X171312525Y-123120632D01*
X171444380Y-123252487D01*
X171371820Y-123274498D01*
X171261506Y-123333463D01*
X171164815Y-123412815D01*
X171085463Y-123509506D01*
X171026498Y-123619820D01*
X170990188Y-123739518D01*
X170977928Y-123864000D01*
X170977928Y-125564000D01*
X170990188Y-125688482D01*
X171026498Y-125808180D01*
X171085463Y-125918494D01*
X171127861Y-125970156D01*
X171101939Y-125965000D01*
X170898061Y-125965000D01*
X170698102Y-126004774D01*
X170509744Y-126082795D01*
X170340226Y-126196063D01*
X170196063Y-126340226D01*
X170082795Y-126509744D01*
X170004774Y-126698102D01*
X169965000Y-126898061D01*
X157553788Y-126898061D01*
X157517205Y-126809744D01*
X157403937Y-126640226D01*
X157259774Y-126496063D01*
X157090256Y-126382795D01*
X156901898Y-126304774D01*
X156701939Y-126265000D01*
X156498061Y-126265000D01*
X156298102Y-126304774D01*
X156109744Y-126382795D01*
X155940226Y-126496063D01*
X155796063Y-126640226D01*
X155682795Y-126809744D01*
X155604774Y-126998102D01*
X155565000Y-127198061D01*
X144660000Y-127198061D01*
X144660000Y-119277110D01*
X171024524Y-119277110D01*
X171145845Y-119507000D01*
X172339000Y-119507000D01*
X172339000Y-118313186D01*
X172593000Y-118313186D01*
X172593000Y-119507000D01*
X173786155Y-119507000D01*
X173907476Y-119277110D01*
X173862825Y-119129901D01*
X173737641Y-118867080D01*
X173563588Y-118633731D01*
X173347355Y-118438822D01*
X173097252Y-118289843D01*
X172822891Y-118192519D01*
X172593000Y-118313186D01*
X172339000Y-118313186D01*
X172109109Y-118192519D01*
X171834748Y-118289843D01*
X171584645Y-118438822D01*
X171368412Y-118633731D01*
X171194359Y-118867080D01*
X171069175Y-119129901D01*
X171024524Y-119277110D01*
X144660000Y-119277110D01*
X144660000Y-112980204D01*
X159499401Y-112980204D01*
X159607824Y-113255332D01*
X159915317Y-113406698D01*
X160246432Y-113495168D01*
X160588444Y-113517341D01*
X160928211Y-113472365D01*
X161252674Y-113361967D01*
X161452176Y-113255332D01*
X161560599Y-112980204D01*
X164579401Y-112980204D01*
X164687824Y-113255332D01*
X164995317Y-113406698D01*
X165326432Y-113495168D01*
X165668444Y-113517341D01*
X166008211Y-113472365D01*
X166332674Y-113361967D01*
X166532176Y-113255332D01*
X166640599Y-112980204D01*
X165610000Y-111949605D01*
X164579401Y-112980204D01*
X161560599Y-112980204D01*
X160530000Y-111949605D01*
X159499401Y-112980204D01*
X144660000Y-112980204D01*
X144660000Y-111828444D01*
X158782659Y-111828444D01*
X158827635Y-112168211D01*
X158938033Y-112492674D01*
X159044668Y-112692176D01*
X159319796Y-112800599D01*
X160350395Y-111770000D01*
X160709605Y-111770000D01*
X161740204Y-112800599D01*
X162015332Y-112692176D01*
X162166698Y-112384683D01*
X162255168Y-112053568D01*
X162269763Y-111828444D01*
X163862659Y-111828444D01*
X163907635Y-112168211D01*
X164018033Y-112492674D01*
X164124668Y-112692176D01*
X164399796Y-112800599D01*
X165430395Y-111770000D01*
X165789605Y-111770000D01*
X166820204Y-112800599D01*
X167095332Y-112692176D01*
X167246698Y-112384683D01*
X167335168Y-112053568D01*
X167357341Y-111711556D01*
X167312365Y-111371789D01*
X167201967Y-111047326D01*
X167095332Y-110847824D01*
X166820204Y-110739401D01*
X165789605Y-111770000D01*
X165430395Y-111770000D01*
X164399796Y-110739401D01*
X164124668Y-110847824D01*
X163973302Y-111155317D01*
X163884832Y-111486432D01*
X163862659Y-111828444D01*
X162269763Y-111828444D01*
X162277341Y-111711556D01*
X162232365Y-111371789D01*
X162121967Y-111047326D01*
X162015332Y-110847824D01*
X161740204Y-110739401D01*
X160709605Y-111770000D01*
X160350395Y-111770000D01*
X159319796Y-110739401D01*
X159044668Y-110847824D01*
X158893302Y-111155317D01*
X158804832Y-111486432D01*
X158782659Y-111828444D01*
X144660000Y-111828444D01*
X144660000Y-110559796D01*
X159499401Y-110559796D01*
X160530000Y-111590395D01*
X161560599Y-110559796D01*
X161452176Y-110284668D01*
X161144683Y-110133302D01*
X160813568Y-110044832D01*
X160471556Y-110022659D01*
X160131789Y-110067635D01*
X159807326Y-110178033D01*
X159607824Y-110284668D01*
X159499401Y-110559796D01*
X144660000Y-110559796D01*
X144660000Y-109068642D01*
X161431700Y-109068642D01*
X161431700Y-109391358D01*
X161494659Y-109707874D01*
X161618157Y-110006026D01*
X161797449Y-110274355D01*
X162025645Y-110502551D01*
X162293974Y-110681843D01*
X162592126Y-110805341D01*
X162908642Y-110868300D01*
X163231358Y-110868300D01*
X163547874Y-110805341D01*
X163846026Y-110681843D01*
X164028681Y-110559796D01*
X164579401Y-110559796D01*
X165610000Y-111590395D01*
X166640599Y-110559796D01*
X166532176Y-110284668D01*
X166224683Y-110133302D01*
X165893568Y-110044832D01*
X165551556Y-110022659D01*
X165211789Y-110067635D01*
X164887326Y-110178033D01*
X164687824Y-110284668D01*
X164579401Y-110559796D01*
X164028681Y-110559796D01*
X164114355Y-110502551D01*
X164342551Y-110274355D01*
X164521843Y-110006026D01*
X164645341Y-109707874D01*
X164708300Y-109391358D01*
X164708300Y-109068642D01*
X164645341Y-108752126D01*
X164521843Y-108453974D01*
X164342551Y-108185645D01*
X164114355Y-107957449D01*
X164028682Y-107900204D01*
X164579401Y-107900204D01*
X164687824Y-108175332D01*
X164995317Y-108326698D01*
X165326432Y-108415168D01*
X165668444Y-108437341D01*
X166008211Y-108392365D01*
X166332674Y-108281967D01*
X166532176Y-108175332D01*
X166640599Y-107900204D01*
X165610000Y-106869605D01*
X164579401Y-107900204D01*
X164028682Y-107900204D01*
X163846026Y-107778157D01*
X163547874Y-107654659D01*
X163231358Y-107591700D01*
X162908642Y-107591700D01*
X162592126Y-107654659D01*
X162293974Y-107778157D01*
X162025645Y-107957449D01*
X161797449Y-108185645D01*
X161618157Y-108453974D01*
X161494659Y-108752126D01*
X161431700Y-109068642D01*
X144660000Y-109068642D01*
X144660000Y-107900204D01*
X159499401Y-107900204D01*
X159607824Y-108175332D01*
X159915317Y-108326698D01*
X160246432Y-108415168D01*
X160588444Y-108437341D01*
X160928211Y-108392365D01*
X161252674Y-108281967D01*
X161452176Y-108175332D01*
X161560599Y-107900204D01*
X160530000Y-106869605D01*
X159499401Y-107900204D01*
X144660000Y-107900204D01*
X144660000Y-105660000D01*
X159318276Y-105660000D01*
X159044668Y-105767824D01*
G37*
%TD.AperFunction*%
%TD*%
M02*
