M48
; DRILL file {KiCad (5.1.10)-1} date 03/06/22 21:17:51
; FORMAT={-:-/ absolute / metric / decimal}
; #@! TF.CreationDate,2022-03-06T21:17:51+00:00
; #@! TF.GenerationSoftware,Kicad,Pcbnew,(5.1.10)-1
FMAT,2
METRIC
T1C0.400
T2C0.650
T3C0.700
T4C1.000
T5C1.499
T6C1.702
%
G90
G05
T1
X145.6Y-137.8
X145.8Y-127.2
X146.2Y-119.6
X146.2Y-143.8
X147.0Y-135.7
X147.6Y-110.6
X148.4Y-137.8
X149.0Y-126.2
X149.6Y-132.6
X150.6Y-113.2
X151.0Y-107.8
X151.2Y-125.6
X151.2Y-143.4
X151.4Y-137.4
X151.6Y-134.2
X151.8Y-118.0
X154.2Y-143.0
X154.3Y-136.8
X154.6Y-118.4
X155.2Y-123.6
X155.6Y-129.8
X155.6Y-131.4
X155.6Y-136.8
X155.8Y-115.6
X156.6Y-127.3
X157.0Y-124.4
X157.0Y-131.4
X157.2Y-129.6
X158.2Y-130.6
X158.33Y-111.85
X158.4Y-128.6
X158.4Y-138.0
X158.4Y-143.6
X158.43Y-106.65
X158.8Y-124.0
X159.6Y-129.0
X159.6Y-130.2
X161.0Y-129.0
X161.0Y-130.2
X161.2Y-125.6
X161.2Y-127.4
X161.2Y-141.8
X161.8Y-113.4
X161.8Y-114.6
X161.8Y-115.8
X161.8Y-117.0
X161.8Y-118.2
X161.8Y-119.4
X161.8Y-123.2
X162.4Y-125.0
X162.4Y-129.0
X162.4Y-130.2
X162.4Y-138.8
X162.8Y-126.2
X163.0Y-127.8
X163.2Y-143.6
X163.4Y-123.6
X163.6Y-141.4
X164.2Y-139.0
X164.5Y-120.5
X164.6Y-115.2
X164.6Y-116.4
X164.6Y-117.6
X165.6Y-120.2
X165.8Y-115.0
X165.8Y-118.0
X166.4Y-114.0
X166.4Y-119.2
X167.0Y-122.4
X167.72Y-111.85
X168.07Y-106.61
X168.8Y-121.4
X169.4Y-119.2
X169.4Y-138.8
X170.0Y-115.6
X170.4Y-138.8
X170.8Y-134.4
X171.0Y-127.0
X171.4Y-132.4
X173.4Y-113.2
X174.2Y-127.0
X174.4Y-119.5
X174.6Y-108.0
X176.0Y-127.2
X176.6Y-119.6
X177.0Y-125.0
X177.0Y-142.2
X177.4Y-113.0
X178.0Y-135.4
X178.8Y-124.2
X179.2Y-133.2
X179.2Y-139.8
X180.0Y-141.8
X180.6Y-137.0
X181.8Y-134.5
X182.0Y-127.6
X182.4Y-106.3
X182.8Y-120.0
X183.2Y-115.4
X184.4Y-127.0
X184.9Y-106.3
X186.2Y-134.3
X186.2Y-139.5
X186.4Y-135.6
X186.4Y-136.6
X186.4Y-138.0
X186.6Y-120.4
X186.8Y-113.6
X187.4Y-127.2
X188.0Y-133.2
X188.0Y-141.8
X188.8Y-123.0
X189.0Y-110.4
X189.0Y-132.0
X189.2Y-121.6
X189.8Y-135.6
X190.6Y-141.8
X191.0Y-129.2
X191.2Y-114.2
X191.4Y-137.6
X191.8Y-107.4
X192.0Y-134.8
X192.4Y-120.4
X193.0Y-129.2
T4
X146.655Y-140.725
X149.195Y-140.725
X151.735Y-140.725
X154.275Y-140.725
X156.815Y-140.725
X159.355Y-140.725
X172.466Y-119.634
X172.466Y-122.174
X172.466Y-124.714
X177.38Y-108.3
X179.92Y-108.3
X182.46Y-108.3
X185.0Y-108.3
T5
X163.07Y-109.23
T6
X160.53Y-106.69
X160.53Y-111.77
X165.61Y-106.69
X165.61Y-111.77
T2
G00X166.585Y-140.475
M15
G01X166.585Y-140.075
M16
G05
G00X171.425Y-140.475
M15
G01X171.425Y-140.075
M16
G05
T3
G00X166.275Y-143.525
M15
G01X166.275Y-143.025
M16
G05
G00X171.735Y-143.525
M15
G01X171.735Y-143.025
M16
G05
T0
M30
